G04 #@! TF.GenerationSoftware,KiCad,Pcbnew,6.0.10*
G04 #@! TF.CreationDate,2023-07-05T17:22:54-05:00*
G04 #@! TF.ProjectId,display_board,64697370-6c61-4795-9f62-6f6172642e6b,rev?*
G04 #@! TF.SameCoordinates,Original*
G04 #@! TF.FileFunction,Legend,Bot*
G04 #@! TF.FilePolarity,Positive*
%FSLAX46Y46*%
G04 Gerber Fmt 4.6, Leading zero omitted, Abs format (unit mm)*
G04 Created by KiCad (PCBNEW 6.0.10) date 2023-07-05 17:22:54*
%MOMM*%
%LPD*%
G01*
G04 APERTURE LIST*
%ADD10C,0.150000*%
%ADD11C,0.120000*%
%ADD12R,1.350000X1.350000*%
%ADD13O,1.350000X1.350000*%
%ADD14R,1.700000X1.700000*%
%ADD15O,1.700000X1.700000*%
%ADD16R,1.600000X8.000000*%
G04 APERTURE END LIST*
D10*
X29289333Y-3016380D02*
X29289333Y-3730666D01*
X29336952Y-3873523D01*
X29432190Y-3968761D01*
X29575047Y-4016380D01*
X29670285Y-4016380D01*
X28908380Y-3016380D02*
X28241714Y-3016380D01*
X28670285Y-4016380D01*
D11*
X15875000Y-7874000D02*
X15875000Y0D01*
X25146000Y0D02*
X32639000Y0D01*
X17653000Y0D02*
X17653000Y-7874000D01*
X32639000Y0D02*
X32639000Y-8128000D01*
X17653000Y-7874000D02*
X15875000Y-7874000D01*
X34417000Y-8128000D02*
X34417000Y0D01*
X32639000Y-8128000D02*
X34417000Y-8128000D01*
X25146000Y0D02*
X17653000Y0D01*
%LPC*%
D12*
X20462000Y-56724000D03*
D13*
X18462000Y-56724000D03*
X16462000Y-56724000D03*
X14462000Y-56724000D03*
X12462000Y-56724000D03*
X10462000Y-56724000D03*
X8462000Y-56724000D03*
X6462000Y-56724000D03*
D14*
X38862000Y-17018000D03*
D15*
X38862000Y-19558000D03*
X38862000Y-22098000D03*
X38862000Y-24638000D03*
D14*
X7452000Y-17066000D03*
D15*
X7452000Y-19606000D03*
X7452000Y-22146000D03*
X7452000Y-24686000D03*
D16*
X28956000Y-4064000D03*
X26416000Y-4064000D03*
X23876000Y-4064000D03*
X21336000Y-4064000D03*
M02*
