M48
; DRILL file {KiCad 6.0.10} date Wed 05 Jul 2023 05:21:59 PM CDT
; FORMAT={-:-/ absolute / metric / decimal}
; #@! TF.CreationDate,2023-07-05T17:21:59-05:00
; #@! TF.GenerationSoftware,Kicad,Pcbnew,6.0.10
; #@! TF.FileFunction,Plated,1,2,PTH
FMAT,2
METRIC
; #@! TA.AperFunction,Plated,PTH,ViaDrill
T1C0.300
; #@! TA.AperFunction,Plated,PTH,ViaDrill
T2C0.400
; #@! TA.AperFunction,Plated,PTH,ComponentDrill
T3C0.800
; #@! TA.AperFunction,Plated,PTH,ComponentDrill
T4C1.000
%
G90
G05
T1
X8.636Y-34.29
X9.779Y-31.026
X10.668Y-24.638
X13.462Y-26.416
X13.462Y-28.194
X14.986Y-12.954
X14.986Y-18.288
X14.986Y-25.146
X16.977Y-23.155
X17.526Y-32.766
X17.866Y-19.342
X17.874Y-28.478
X17.887Y-27.067
X19.05Y-32.766
X20.066Y-35.941
X21.209Y-20.828
X22.568Y-20.866
X25.146Y-27.94
X28.41Y-20.866
X31.569Y-27.867
X31.585Y-26.708
X32.531Y-23.641
X34.671Y-39.243
X34.798Y-42.545
X35.179Y-18.034
X37.084Y-26.67
X37.592Y-36.322
T2
X6.604Y-39.624
X6.604Y-42.164
X6.604Y-44.704
X9.652Y-46.228
X10.668Y-9.652
X10.668Y-13.716
X11.684Y-29.972
X12.573Y-49.276
X14.478Y-46.609
X15.748Y-39.624
X15.748Y-42.164
X15.748Y-44.704
X17.78Y-49.276
X20.32Y-46.736
X22.352Y-11.684
X22.86Y-44.196
X26.543Y-35.687
X28.194Y-55.372
X28.956Y-45.72
X29.464Y-35.687
X30.861Y-44.323
X31.242Y-31.496
X31.75Y-41.529
X34.671Y-46.101
X35.56Y-13.589
X39.116Y-42.164
X42.418Y-24.638
X42.672Y-13.208
X42.672Y-19.558
X44.196Y-40.132
T3
X6.462Y-56.724
X8.462Y-56.724
X10.462Y-56.724
X12.462Y-56.724
X14.462Y-56.724
X16.462Y-56.724
X18.462Y-56.724
X20.462Y-56.724
T4
X7.452Y-17.066
X7.452Y-19.606
X7.452Y-22.146
X7.452Y-24.686
X38.862Y-17.018
X38.862Y-19.558
X38.862Y-22.098
X38.862Y-24.638
T0
M30
