G04 #@! TF.GenerationSoftware,KiCad,Pcbnew,6.0.10*
G04 #@! TF.CreationDate,2023-07-05T17:30:49-05:00*
G04 #@! TF.ProjectId,gas_control_board,6761735f-636f-46e7-9472-6f6c5f626f61,rev?*
G04 #@! TF.SameCoordinates,Original*
G04 #@! TF.FileFunction,Copper,L2,Bot*
G04 #@! TF.FilePolarity,Positive*
%FSLAX46Y46*%
G04 Gerber Fmt 4.6, Leading zero omitted, Abs format (unit mm)*
G04 Created by KiCad (PCBNEW 6.0.10) date 2023-07-05 17:30:49*
%MOMM*%
%LPD*%
G01*
G04 APERTURE LIST*
G04 #@! TA.AperFunction,ComponentPad*
%ADD10R,2.400000X2.400000*%
G04 #@! TD*
G04 #@! TA.AperFunction,ComponentPad*
%ADD11C,2.400000*%
G04 #@! TD*
G04 #@! TA.AperFunction,ComponentPad*
%ADD12R,3.000000X3.000000*%
G04 #@! TD*
G04 #@! TA.AperFunction,ComponentPad*
%ADD13C,3.000000*%
G04 #@! TD*
G04 #@! TA.AperFunction,ComponentPad*
%ADD14R,1.700000X1.700000*%
G04 #@! TD*
G04 #@! TA.AperFunction,ComponentPad*
%ADD15O,1.700000X1.700000*%
G04 #@! TD*
G04 #@! TA.AperFunction,SMDPad,CuDef*
%ADD16R,1.600000X8.000000*%
G04 #@! TD*
G04 #@! TA.AperFunction,ViaPad*
%ADD17C,0.500000*%
G04 #@! TD*
G04 #@! TA.AperFunction,ViaPad*
%ADD18C,0.800000*%
G04 #@! TD*
G04 #@! TA.AperFunction,Conductor*
%ADD19C,0.500000*%
G04 #@! TD*
G04 #@! TA.AperFunction,Conductor*
%ADD20C,1.000000*%
G04 #@! TD*
G04 #@! TA.AperFunction,Conductor*
%ADD21C,0.200000*%
G04 #@! TD*
G04 APERTURE END LIST*
D10*
X39116000Y-51689000D03*
D11*
X39116000Y-48189000D03*
D12*
X16002000Y-58801000D03*
D13*
X21082000Y-58801000D03*
D14*
X38862000Y-17018000D03*
D15*
X38862000Y-19558000D03*
X38862000Y-22098000D03*
X38862000Y-24638000D03*
D14*
X7452000Y-17066000D03*
D15*
X7452000Y-19606000D03*
X7452000Y-22146000D03*
X7452000Y-24686000D03*
D12*
X31750000Y-58801000D03*
D13*
X26670000Y-58801000D03*
D10*
X8509000Y-60452000D03*
D11*
X8509000Y-56952000D03*
X8509000Y-53452000D03*
X8509000Y-49952000D03*
D10*
X40640000Y-58801000D03*
D11*
X37140000Y-58801000D03*
D16*
X28956000Y-4064000D03*
X26416000Y-4064000D03*
X23876000Y-4064000D03*
X21336000Y-4064000D03*
D17*
X15240000Y-57150000D03*
X24116000Y-40654000D03*
X24130000Y-44450000D03*
X24130000Y-46990000D03*
D18*
X39116000Y-42164000D03*
D17*
X17780000Y-57150000D03*
X14986000Y-18288000D03*
D18*
X42672000Y-13208000D03*
D17*
X19050000Y-32766000D03*
X16510000Y-60960000D03*
X15240000Y-60960000D03*
D18*
X44196000Y-40132000D03*
D17*
X25146000Y-27940000D03*
D18*
X42672000Y-19558000D03*
D17*
X24130000Y-38100000D03*
X22860000Y-40640000D03*
X22860000Y-45720000D03*
X24130000Y-39370000D03*
D18*
X11049000Y-12446000D03*
X9144000Y-46228000D03*
X21844000Y-11430000D03*
D17*
X22860000Y-41910000D03*
X21590000Y-46990000D03*
D18*
X19812000Y-41148000D03*
D17*
X24130000Y-43180000D03*
X17780000Y-60960000D03*
X20320000Y-46990000D03*
X13462000Y-28194000D03*
X14986000Y-25146000D03*
X17780000Y-58420000D03*
X22860000Y-44450000D03*
X13970000Y-60960000D03*
X13970000Y-59690000D03*
D18*
X16256000Y-41148000D03*
D17*
X10668000Y-24638000D03*
X13462000Y-26416000D03*
X13970000Y-58420000D03*
X22860000Y-43180000D03*
X17780000Y-59690000D03*
D18*
X11176000Y-37592000D03*
D17*
X16510000Y-57150000D03*
X22860000Y-38100000D03*
X13970000Y-57150000D03*
X22860000Y-39370000D03*
X22860000Y-46990000D03*
X37084000Y-26670000D03*
X24130000Y-45720000D03*
X17526000Y-32766000D03*
D18*
X11049000Y-8382000D03*
D17*
X21590000Y-45720000D03*
X34798000Y-42545000D03*
D18*
X42418000Y-24638000D03*
D17*
X34671000Y-39243000D03*
D18*
X11684000Y-29972000D03*
D17*
X8636000Y-34290000D03*
X16977000Y-23155000D03*
X35179000Y-18034000D03*
X22568000Y-20866000D03*
X28410000Y-20866000D03*
X23749000Y-35941000D03*
X20066000Y-35941000D03*
X14986000Y-12954000D03*
X21209000Y-20828000D03*
X31569000Y-27867000D03*
X22860000Y-34925000D03*
X17866000Y-19342000D03*
X17887500Y-27067500D03*
X31585000Y-26708000D03*
X25146000Y-32893000D03*
X37592000Y-36322000D03*
X32530899Y-23640899D03*
X9779000Y-31026000D03*
X17873556Y-28478444D03*
D18*
X43688000Y-43942000D03*
X35306000Y-10668000D03*
D19*
X20066000Y-35941000D02*
X9398000Y-35941000D01*
D20*
X34798000Y-18034000D02*
X35179000Y-18034000D01*
X17780000Y-12954000D02*
X14986000Y-12954000D01*
D19*
X21247000Y-20866000D02*
X21209000Y-20828000D01*
D20*
X13081000Y-22987000D02*
X13081000Y-25146000D01*
X31966000Y-20866000D02*
X34036000Y-18796000D01*
X13081000Y-25146000D02*
X8636000Y-29591000D01*
D19*
X13249000Y-23155000D02*
X13081000Y-22987000D01*
X16977000Y-23155000D02*
X13249000Y-23155000D01*
X20066000Y-35941000D02*
X23749000Y-35941000D01*
D20*
X31915000Y-20866000D02*
X31966000Y-20866000D01*
X28410000Y-20866000D02*
X22568000Y-20866000D01*
X35687000Y-24638000D02*
X38862000Y-24638000D01*
X21336000Y-9398000D02*
X17780000Y-12954000D01*
X22568000Y-20866000D02*
X21247000Y-20866000D01*
X28410000Y-20866000D02*
X31915000Y-20866000D01*
X14986000Y-12954000D02*
X14224000Y-12954000D01*
X31915000Y-20866000D02*
X35687000Y-24638000D01*
X8636000Y-29591000D02*
X8636000Y-34290000D01*
X14224000Y-12954000D02*
X13081000Y-14097000D01*
D19*
X9398000Y-35941000D02*
X8636000Y-35179000D01*
D20*
X21336000Y-4064000D02*
X21336000Y-9398000D01*
X13081000Y-14097000D02*
X13081000Y-22987000D01*
D19*
X8636000Y-35179000D02*
X8636000Y-34290000D01*
D20*
X34036000Y-18796000D02*
X34798000Y-18034000D01*
D19*
X22860000Y-34925000D02*
X18573556Y-30638556D01*
X17866000Y-19342000D02*
X17866000Y-27046000D01*
X18573556Y-27753556D02*
X17887500Y-27067500D01*
X30353000Y-32004000D02*
X30353000Y-33528000D01*
X18573556Y-30638556D02*
X18573556Y-27753556D01*
X25781000Y-33528000D02*
X25146000Y-32893000D01*
X30353000Y-27940000D02*
X30353000Y-32004000D01*
X31585000Y-26708000D02*
X30353000Y-27940000D01*
X17866000Y-27046000D02*
X17887500Y-27067500D01*
X30353000Y-33528000D02*
X25781000Y-33528000D01*
X34290000Y-33909000D02*
X34290000Y-25400000D01*
X34290000Y-25400000D02*
X32530899Y-23640899D01*
X37592000Y-36322000D02*
X36703000Y-36322000D01*
X36703000Y-36322000D02*
X34290000Y-33909000D01*
D21*
X17873556Y-28478444D02*
X15326000Y-31026000D01*
X15326000Y-31026000D02*
X9779000Y-31026000D01*
D20*
X25654000Y-35179000D02*
X25654000Y-49022000D01*
X11486000Y-56952000D02*
X8509000Y-56952000D01*
X25654000Y-49022000D02*
X19558000Y-55118000D01*
X19558000Y-29083000D02*
X25654000Y-35179000D01*
X19558000Y-55118000D02*
X13462000Y-55118000D01*
X19558000Y-17399000D02*
X19558000Y-29083000D01*
X23876000Y-4064000D02*
X23876000Y-13081000D01*
X13462000Y-55118000D02*
X11557000Y-57023000D01*
X11557000Y-57023000D02*
X11486000Y-56952000D01*
X23876000Y-13081000D02*
X19558000Y-17399000D01*
D19*
X43688000Y-43942000D02*
X41148000Y-41402000D01*
X41148000Y-16510000D02*
X35306000Y-10668000D01*
X41148000Y-41402000D02*
X41148000Y-16510000D01*
G04 #@! TA.AperFunction,Conductor*
G36*
X15308621Y-528502D02*
G01*
X15355114Y-582158D01*
X15366500Y-634500D01*
X15366500Y-7865377D01*
X15366498Y-7866147D01*
X15366024Y-7943721D01*
X15368491Y-7952352D01*
X15374150Y-7972153D01*
X15377728Y-7988915D01*
X15381920Y-8018187D01*
X15385634Y-8026355D01*
X15385634Y-8026356D01*
X15392548Y-8041562D01*
X15398996Y-8059086D01*
X15406051Y-8083771D01*
X15410843Y-8091365D01*
X15410844Y-8091368D01*
X15421830Y-8108780D01*
X15429969Y-8123863D01*
X15442208Y-8150782D01*
X15448069Y-8157584D01*
X15458970Y-8170235D01*
X15470073Y-8185239D01*
X15483776Y-8206958D01*
X15490501Y-8212897D01*
X15490504Y-8212901D01*
X15505938Y-8226532D01*
X15517982Y-8238724D01*
X15531427Y-8254327D01*
X15531430Y-8254329D01*
X15537287Y-8261127D01*
X15544816Y-8266007D01*
X15544817Y-8266008D01*
X15558835Y-8275094D01*
X15573709Y-8286385D01*
X15584101Y-8295562D01*
X15592951Y-8303378D01*
X15619711Y-8315942D01*
X15634691Y-8324263D01*
X15651983Y-8335471D01*
X15651988Y-8335473D01*
X15659515Y-8340352D01*
X15668108Y-8342922D01*
X15668113Y-8342924D01*
X15684120Y-8347711D01*
X15701564Y-8354372D01*
X15716676Y-8361467D01*
X15716678Y-8361468D01*
X15724800Y-8365281D01*
X15733667Y-8366662D01*
X15733668Y-8366662D01*
X15736353Y-8367080D01*
X15754017Y-8369830D01*
X15770732Y-8373613D01*
X15790466Y-8379515D01*
X15790472Y-8379516D01*
X15799066Y-8382086D01*
X15808037Y-8382141D01*
X15808038Y-8382141D01*
X15818097Y-8382202D01*
X15833506Y-8382296D01*
X15834289Y-8382329D01*
X15835386Y-8382500D01*
X15866377Y-8382500D01*
X15867147Y-8382502D01*
X15940785Y-8382952D01*
X15940786Y-8382952D01*
X15944721Y-8382976D01*
X15946065Y-8382592D01*
X15947410Y-8382500D01*
X17644377Y-8382500D01*
X17645148Y-8382502D01*
X17722721Y-8382976D01*
X17751152Y-8374850D01*
X17767915Y-8371272D01*
X17768753Y-8371152D01*
X17797187Y-8367080D01*
X17806645Y-8362780D01*
X17820562Y-8356452D01*
X17838087Y-8350004D01*
X17862771Y-8342949D01*
X17870365Y-8338157D01*
X17870368Y-8338156D01*
X17887780Y-8327170D01*
X17902865Y-8319030D01*
X17903195Y-8318880D01*
X17929782Y-8306792D01*
X17949235Y-8290030D01*
X17964239Y-8278927D01*
X17985958Y-8265224D01*
X17991897Y-8258499D01*
X17991901Y-8258496D01*
X18005532Y-8243062D01*
X18017724Y-8231018D01*
X18033327Y-8217573D01*
X18033329Y-8217570D01*
X18040127Y-8211713D01*
X18054094Y-8190165D01*
X18065385Y-8175291D01*
X18076431Y-8162783D01*
X18076432Y-8162782D01*
X18082378Y-8156049D01*
X18094943Y-8129287D01*
X18103263Y-8114309D01*
X18114471Y-8097017D01*
X18114473Y-8097012D01*
X18119352Y-8089485D01*
X18121922Y-8080892D01*
X18121924Y-8080887D01*
X18126711Y-8064880D01*
X18133372Y-8047436D01*
X18140467Y-8032324D01*
X18140468Y-8032322D01*
X18144281Y-8024200D01*
X18148830Y-7994983D01*
X18152613Y-7978268D01*
X18158515Y-7958534D01*
X18158516Y-7958528D01*
X18161086Y-7949934D01*
X18161296Y-7915494D01*
X18161329Y-7914711D01*
X18161500Y-7913614D01*
X18161500Y-7882623D01*
X18161502Y-7881853D01*
X18161952Y-7808215D01*
X18161952Y-7808214D01*
X18161976Y-7804279D01*
X18161592Y-7802935D01*
X18161500Y-7801590D01*
X18161500Y-634500D01*
X18181502Y-566379D01*
X18235158Y-519886D01*
X18287500Y-508500D01*
X19901500Y-508500D01*
X19969621Y-528502D01*
X20016114Y-582158D01*
X20027500Y-634500D01*
X20027500Y-8112134D01*
X20034255Y-8174316D01*
X20085385Y-8310705D01*
X20172739Y-8427261D01*
X20231864Y-8471573D01*
X20277065Y-8505449D01*
X20319580Y-8562308D01*
X20327500Y-8606275D01*
X20327500Y-8928076D01*
X20307498Y-8996197D01*
X20290595Y-9017171D01*
X17399171Y-11908595D01*
X17336859Y-11942621D01*
X17310076Y-11945500D01*
X14285842Y-11945500D01*
X14272235Y-11944763D01*
X14240737Y-11941341D01*
X14240732Y-11941341D01*
X14234611Y-11940676D01*
X14216611Y-11942251D01*
X14184609Y-11945050D01*
X14179784Y-11945379D01*
X14177313Y-11945500D01*
X14174231Y-11945500D01*
X14151763Y-11947703D01*
X14131489Y-11949691D01*
X14130174Y-11949813D01*
X14097913Y-11952636D01*
X14037587Y-11957913D01*
X14032468Y-11959400D01*
X14027167Y-11959920D01*
X13938166Y-11986791D01*
X13937033Y-11987126D01*
X13853586Y-12011370D01*
X13853582Y-12011372D01*
X13847664Y-12013091D01*
X13842932Y-12015544D01*
X13837831Y-12017084D01*
X13832388Y-12019978D01*
X13755740Y-12060731D01*
X13754574Y-12061343D01*
X13677547Y-12101271D01*
X13672074Y-12104108D01*
X13667911Y-12107431D01*
X13663204Y-12109934D01*
X13591082Y-12168755D01*
X13590226Y-12169446D01*
X13551027Y-12200738D01*
X13548523Y-12203242D01*
X13547805Y-12203884D01*
X13543472Y-12207585D01*
X13509938Y-12234935D01*
X13506011Y-12239682D01*
X13506009Y-12239684D01*
X13480713Y-12270262D01*
X13472723Y-12279042D01*
X12411621Y-13340145D01*
X12401478Y-13349247D01*
X12371975Y-13372968D01*
X12368008Y-13377696D01*
X12339709Y-13411421D01*
X12336528Y-13415069D01*
X12334885Y-13416881D01*
X12332691Y-13419075D01*
X12305358Y-13452349D01*
X12304696Y-13453147D01*
X12244846Y-13524474D01*
X12242278Y-13529144D01*
X12238897Y-13533261D01*
X12207860Y-13591145D01*
X12195023Y-13615086D01*
X12194394Y-13616245D01*
X12152538Y-13692381D01*
X12152535Y-13692389D01*
X12149567Y-13697787D01*
X12147955Y-13702869D01*
X12145438Y-13707563D01*
X12118238Y-13796531D01*
X12117918Y-13797559D01*
X12089765Y-13886306D01*
X12089171Y-13891602D01*
X12087613Y-13896698D01*
X12080917Y-13962621D01*
X12078218Y-13989187D01*
X12078089Y-13990393D01*
X12072500Y-14040227D01*
X12072500Y-14043754D01*
X12072445Y-14044739D01*
X12071998Y-14050419D01*
X12067626Y-14093462D01*
X12068206Y-14099593D01*
X12071941Y-14139109D01*
X12072500Y-14150967D01*
X12072500Y-24676075D01*
X12052498Y-24744196D01*
X12035595Y-24765170D01*
X7966621Y-28834145D01*
X7956478Y-28843247D01*
X7926975Y-28866968D01*
X7923008Y-28871696D01*
X7894709Y-28905421D01*
X7891528Y-28909069D01*
X7889885Y-28910881D01*
X7887691Y-28913075D01*
X7860358Y-28946349D01*
X7859696Y-28947147D01*
X7799846Y-29018474D01*
X7797278Y-29023144D01*
X7793897Y-29027261D01*
X7762860Y-29085145D01*
X7750023Y-29109086D01*
X7749394Y-29110245D01*
X7707538Y-29186381D01*
X7707535Y-29186389D01*
X7704567Y-29191787D01*
X7702955Y-29196869D01*
X7700438Y-29201563D01*
X7673238Y-29290531D01*
X7672918Y-29291559D01*
X7644765Y-29380306D01*
X7644171Y-29385602D01*
X7642613Y-29390698D01*
X7641990Y-29396834D01*
X7633218Y-29483187D01*
X7633089Y-29484393D01*
X7627500Y-29534227D01*
X7627500Y-29537754D01*
X7627445Y-29538739D01*
X7626998Y-29544419D01*
X7622626Y-29587462D01*
X7626623Y-29629741D01*
X7626941Y-29633109D01*
X7627500Y-29644967D01*
X7627500Y-34339769D01*
X7627800Y-34342825D01*
X7627800Y-34342832D01*
X7632083Y-34386508D01*
X7641920Y-34486833D01*
X7699084Y-34676169D01*
X7791934Y-34850796D01*
X7836955Y-34905997D01*
X7849143Y-34920941D01*
X7876697Y-34986373D01*
X7877500Y-35000577D01*
X7877500Y-35111930D01*
X7876067Y-35130880D01*
X7874739Y-35139612D01*
X7872801Y-35152349D01*
X7873394Y-35159641D01*
X7873394Y-35159644D01*
X7877085Y-35205018D01*
X7877500Y-35215233D01*
X7877500Y-35223293D01*
X7879049Y-35236583D01*
X7880789Y-35251507D01*
X7881222Y-35255882D01*
X7885272Y-35305667D01*
X7887140Y-35328637D01*
X7889396Y-35335601D01*
X7890587Y-35341560D01*
X7891971Y-35347415D01*
X7892818Y-35354681D01*
X7917735Y-35423327D01*
X7919152Y-35427455D01*
X7941649Y-35496899D01*
X7945445Y-35503154D01*
X7947951Y-35508628D01*
X7950670Y-35514058D01*
X7953167Y-35520937D01*
X7957180Y-35527057D01*
X7957180Y-35527058D01*
X7993186Y-35581976D01*
X7995523Y-35585680D01*
X8033405Y-35648107D01*
X8037121Y-35652315D01*
X8037122Y-35652316D01*
X8040803Y-35656484D01*
X8040776Y-35656508D01*
X8043429Y-35659500D01*
X8046132Y-35662733D01*
X8050144Y-35668852D01*
X8087302Y-35704052D01*
X8106383Y-35722128D01*
X8108825Y-35724506D01*
X8814230Y-36429911D01*
X8826616Y-36444323D01*
X8835149Y-36455918D01*
X8835154Y-36455923D01*
X8839492Y-36461818D01*
X8845070Y-36466557D01*
X8845073Y-36466560D01*
X8879768Y-36496035D01*
X8887284Y-36502965D01*
X8892980Y-36508661D01*
X8895841Y-36510924D01*
X8895846Y-36510929D01*
X8915266Y-36526293D01*
X8918667Y-36529082D01*
X8974285Y-36576333D01*
X8980798Y-36579659D01*
X8985837Y-36583020D01*
X8990979Y-36586196D01*
X8996716Y-36590734D01*
X9062875Y-36621655D01*
X9066769Y-36623558D01*
X9131808Y-36656769D01*
X9138917Y-36658508D01*
X9144551Y-36660604D01*
X9150321Y-36662523D01*
X9156950Y-36665622D01*
X9164113Y-36667112D01*
X9164116Y-36667113D01*
X9210559Y-36676773D01*
X9228435Y-36680491D01*
X9232701Y-36681457D01*
X9303610Y-36698808D01*
X9309212Y-36699156D01*
X9309215Y-36699156D01*
X9314764Y-36699500D01*
X9314762Y-36699535D01*
X9318734Y-36699775D01*
X9322955Y-36700152D01*
X9330115Y-36701641D01*
X9407542Y-36699546D01*
X9410950Y-36699500D01*
X20006933Y-36699500D01*
X20023595Y-36700607D01*
X20029862Y-36701443D01*
X20043035Y-36703201D01*
X20043038Y-36703201D01*
X20050015Y-36704132D01*
X20057026Y-36703494D01*
X20057030Y-36703494D01*
X20095208Y-36700019D01*
X20106628Y-36699500D01*
X23689933Y-36699500D01*
X23706595Y-36700607D01*
X23712862Y-36701443D01*
X23726035Y-36703201D01*
X23726038Y-36703201D01*
X23733015Y-36704132D01*
X23740026Y-36703494D01*
X23740030Y-36703494D01*
X23778208Y-36700019D01*
X23789628Y-36699500D01*
X23793293Y-36699500D01*
X23825141Y-36695787D01*
X23828167Y-36695472D01*
X23902483Y-36688709D01*
X23909192Y-36686529D01*
X23909972Y-36686369D01*
X23915494Y-36685483D01*
X23917412Y-36685029D01*
X23924681Y-36684182D01*
X23993230Y-36659299D01*
X23997287Y-36657905D01*
X24057622Y-36638301D01*
X24064322Y-36636124D01*
X24070372Y-36632517D01*
X24076790Y-36629606D01*
X24076971Y-36630004D01*
X24077566Y-36629722D01*
X24077510Y-36629609D01*
X24084058Y-36626330D01*
X24090937Y-36623833D01*
X24097057Y-36619820D01*
X24097062Y-36619818D01*
X24148764Y-36585921D01*
X24153330Y-36583064D01*
X24204442Y-36552595D01*
X24210490Y-36548990D01*
X24215590Y-36544133D01*
X24221204Y-36539872D01*
X24221221Y-36539895D01*
X24231963Y-36531373D01*
X24232731Y-36530869D01*
X24238852Y-36526856D01*
X24243880Y-36521548D01*
X24243884Y-36521545D01*
X24283797Y-36479412D01*
X24288376Y-36474821D01*
X24328625Y-36436492D01*
X24333721Y-36431639D01*
X24337612Y-36425782D01*
X24337615Y-36425779D01*
X24338676Y-36424181D01*
X24352150Y-36407257D01*
X24360490Y-36398453D01*
X24391398Y-36345241D01*
X24395404Y-36338799D01*
X24414552Y-36309979D01*
X24468910Y-36264308D01*
X24539329Y-36255276D01*
X24603453Y-36285749D01*
X24640923Y-36346053D01*
X24645500Y-36379706D01*
X24645500Y-48552075D01*
X24625498Y-48620196D01*
X24608595Y-48641170D01*
X19177171Y-54072595D01*
X19114859Y-54106621D01*
X19088076Y-54109500D01*
X13523843Y-54109500D01*
X13510236Y-54108763D01*
X13478738Y-54105341D01*
X13478733Y-54105341D01*
X13472612Y-54104676D01*
X13446362Y-54106973D01*
X13422612Y-54109050D01*
X13417786Y-54109379D01*
X13415314Y-54109500D01*
X13412231Y-54109500D01*
X13400262Y-54110674D01*
X13369494Y-54113690D01*
X13368181Y-54113812D01*
X13323916Y-54117685D01*
X13275587Y-54121913D01*
X13270468Y-54123400D01*
X13265167Y-54123920D01*
X13176166Y-54150791D01*
X13175033Y-54151126D01*
X13091586Y-54175370D01*
X13091582Y-54175372D01*
X13085664Y-54177091D01*
X13080932Y-54179544D01*
X13075831Y-54181084D01*
X13070388Y-54183978D01*
X12993740Y-54224731D01*
X12992574Y-54225343D01*
X12915586Y-54265251D01*
X12910074Y-54268108D01*
X12905911Y-54271431D01*
X12901204Y-54273934D01*
X12896429Y-54277828D01*
X12896428Y-54277829D01*
X12829102Y-54332739D01*
X12828075Y-54333567D01*
X12791792Y-54362531D01*
X12791787Y-54362536D01*
X12789028Y-54364738D01*
X12786527Y-54367239D01*
X12785809Y-54367881D01*
X12781461Y-54371594D01*
X12747938Y-54398935D01*
X12744015Y-54403677D01*
X12744013Y-54403679D01*
X12718703Y-54434273D01*
X12710713Y-54443053D01*
X11247171Y-55906595D01*
X11184859Y-55940621D01*
X11158076Y-55943500D01*
X9950734Y-55943500D01*
X9882613Y-55923498D01*
X9851784Y-55895506D01*
X9833734Y-55872610D01*
X9772171Y-55794517D01*
X9587209Y-55620523D01*
X9543483Y-55590189D01*
X9382393Y-55478437D01*
X9382390Y-55478435D01*
X9378561Y-55475779D01*
X9374384Y-55473719D01*
X9374377Y-55473715D01*
X9154996Y-55365528D01*
X9154992Y-55365527D01*
X9150810Y-55363464D01*
X9024901Y-55323160D01*
X8966121Y-55283342D01*
X8938199Y-55218067D01*
X8950000Y-55148058D01*
X8997778Y-55095543D01*
X9031234Y-55081310D01*
X9032929Y-55080864D01*
X9066793Y-55071948D01*
X9185353Y-55021011D01*
X9295807Y-54973557D01*
X9295810Y-54973555D01*
X9300110Y-54971708D01*
X9304090Y-54969245D01*
X9304094Y-54969243D01*
X9512064Y-54840547D01*
X9512066Y-54840545D01*
X9516047Y-54838082D01*
X9614428Y-54754797D01*
X9706289Y-54677031D01*
X9706291Y-54677029D01*
X9709862Y-54674006D01*
X9877295Y-54483084D01*
X9905753Y-54438842D01*
X10012141Y-54273442D01*
X10014669Y-54269512D01*
X10118967Y-54037980D01*
X10187896Y-53793575D01*
X10219943Y-53541667D01*
X10222291Y-53452000D01*
X10203472Y-53198759D01*
X10147428Y-52951082D01*
X10055391Y-52714409D01*
X10034866Y-52678498D01*
X9931702Y-52497997D01*
X9931700Y-52497995D01*
X9929383Y-52493940D01*
X9772171Y-52294517D01*
X9587209Y-52120523D01*
X9543483Y-52090189D01*
X9382393Y-51978437D01*
X9382390Y-51978435D01*
X9378561Y-51975779D01*
X9374384Y-51973719D01*
X9374377Y-51973715D01*
X9154996Y-51865528D01*
X9154992Y-51865527D01*
X9150810Y-51863464D01*
X9024901Y-51823160D01*
X8966121Y-51783342D01*
X8938199Y-51718067D01*
X8950000Y-51648058D01*
X8997778Y-51595543D01*
X9031234Y-51581310D01*
X9032929Y-51580864D01*
X9066793Y-51571948D01*
X9185353Y-51521011D01*
X9295807Y-51473557D01*
X9295810Y-51473555D01*
X9300110Y-51471708D01*
X9304090Y-51469245D01*
X9304094Y-51469243D01*
X9512064Y-51340547D01*
X9512066Y-51340545D01*
X9516047Y-51338082D01*
X9614428Y-51254797D01*
X9706289Y-51177031D01*
X9706291Y-51177029D01*
X9709862Y-51174006D01*
X9877295Y-50983084D01*
X10014669Y-50769512D01*
X10118967Y-50537980D01*
X10187896Y-50293575D01*
X10219943Y-50041667D01*
X10222291Y-49952000D01*
X10216377Y-49872411D01*
X10203818Y-49703411D01*
X10203817Y-49703407D01*
X10203472Y-49698759D01*
X10196118Y-49666257D01*
X10148459Y-49455639D01*
X10147428Y-49451082D01*
X10062502Y-49232694D01*
X10057084Y-49218762D01*
X10057083Y-49218760D01*
X10055391Y-49214409D01*
X10034866Y-49178498D01*
X9931702Y-48997997D01*
X9931700Y-48997995D01*
X9929383Y-48993940D01*
X9772171Y-48794517D01*
X9587209Y-48620523D01*
X9543483Y-48590189D01*
X9382393Y-48478437D01*
X9382390Y-48478435D01*
X9378561Y-48475779D01*
X9374384Y-48473719D01*
X9374377Y-48473715D01*
X9154996Y-48365528D01*
X9154992Y-48365527D01*
X9150810Y-48363464D01*
X8908960Y-48286047D01*
X8882870Y-48281798D01*
X8662935Y-48245980D01*
X8662934Y-48245980D01*
X8658323Y-48245229D01*
X8531365Y-48243567D01*
X8409083Y-48241966D01*
X8409080Y-48241966D01*
X8404406Y-48241905D01*
X8152787Y-48276149D01*
X7908993Y-48347208D01*
X7678380Y-48453522D01*
X7674471Y-48456085D01*
X7469928Y-48590189D01*
X7469923Y-48590193D01*
X7466015Y-48592755D01*
X7276562Y-48761848D01*
X7114183Y-48957087D01*
X6982447Y-49174182D01*
X6980638Y-49178496D01*
X6980637Y-49178498D01*
X6920243Y-49322523D01*
X6884246Y-49408365D01*
X6883095Y-49412897D01*
X6883094Y-49412900D01*
X6852017Y-49535267D01*
X6821738Y-49654490D01*
X6796296Y-49907151D01*
X6808480Y-50160798D01*
X6858021Y-50409857D01*
X6859600Y-50414255D01*
X6859602Y-50414262D01*
X6904022Y-50537980D01*
X6943831Y-50648858D01*
X7064025Y-50872551D01*
X7066820Y-50876294D01*
X7066822Y-50876297D01*
X7213171Y-51072282D01*
X7213176Y-51072288D01*
X7215963Y-51076020D01*
X7219272Y-51079300D01*
X7219277Y-51079306D01*
X7317859Y-51177031D01*
X7396307Y-51254797D01*
X7400069Y-51257555D01*
X7400072Y-51257558D01*
X7505764Y-51335054D01*
X7601094Y-51404953D01*
X7605229Y-51407129D01*
X7605233Y-51407131D01*
X7723289Y-51469243D01*
X7825827Y-51523191D01*
X7997781Y-51583240D01*
X8055497Y-51624581D01*
X8081701Y-51690565D01*
X8068072Y-51760241D01*
X8018936Y-51811487D01*
X7991497Y-51823160D01*
X7908993Y-51847208D01*
X7678380Y-51953522D01*
X7674471Y-51956085D01*
X7469928Y-52090189D01*
X7469923Y-52090193D01*
X7466015Y-52092755D01*
X7276562Y-52261848D01*
X7114183Y-52457087D01*
X6982447Y-52674182D01*
X6884246Y-52908365D01*
X6821738Y-53154490D01*
X6796296Y-53407151D01*
X6808480Y-53660798D01*
X6858021Y-53909857D01*
X6859600Y-53914255D01*
X6859602Y-53914262D01*
X6935168Y-54124729D01*
X6943831Y-54148858D01*
X6946048Y-54152984D01*
X7061516Y-54367881D01*
X7064025Y-54372551D01*
X7066820Y-54376294D01*
X7066822Y-54376297D01*
X7213171Y-54572282D01*
X7213176Y-54572288D01*
X7215963Y-54576020D01*
X7219272Y-54579300D01*
X7219277Y-54579306D01*
X7317859Y-54677031D01*
X7396307Y-54754797D01*
X7400069Y-54757555D01*
X7400072Y-54757558D01*
X7505764Y-54835054D01*
X7601094Y-54904953D01*
X7605229Y-54907129D01*
X7605233Y-54907131D01*
X7723289Y-54969243D01*
X7825827Y-55023191D01*
X7997781Y-55083240D01*
X8055497Y-55124581D01*
X8081701Y-55190565D01*
X8068072Y-55260241D01*
X8018936Y-55311487D01*
X7991497Y-55323160D01*
X7908993Y-55347208D01*
X7678380Y-55453522D01*
X7674471Y-55456085D01*
X7469928Y-55590189D01*
X7469923Y-55590193D01*
X7466015Y-55592755D01*
X7276562Y-55761848D01*
X7114183Y-55957087D01*
X6982447Y-56174182D01*
X6884246Y-56408365D01*
X6821738Y-56654490D01*
X6796296Y-56907151D01*
X6808480Y-57160798D01*
X6827473Y-57256283D01*
X6841627Y-57327437D01*
X6858021Y-57409857D01*
X6859600Y-57414255D01*
X6859602Y-57414262D01*
X6929065Y-57607731D01*
X6943831Y-57648858D01*
X6946048Y-57652984D01*
X7048115Y-57842940D01*
X7064025Y-57872551D01*
X7066820Y-57876294D01*
X7066822Y-57876297D01*
X7213171Y-58072282D01*
X7213176Y-58072288D01*
X7215963Y-58076020D01*
X7219272Y-58079300D01*
X7219277Y-58079306D01*
X7317859Y-58177031D01*
X7396307Y-58254797D01*
X7400069Y-58257555D01*
X7400072Y-58257558D01*
X7458068Y-58300082D01*
X7601094Y-58404953D01*
X7605229Y-58407129D01*
X7605233Y-58407131D01*
X7723289Y-58469243D01*
X7825827Y-58523191D01*
X8065568Y-58606912D01*
X8315050Y-58654278D01*
X8435532Y-58659011D01*
X8564125Y-58664064D01*
X8564130Y-58664064D01*
X8568793Y-58664247D01*
X8667774Y-58653407D01*
X8816569Y-58637112D01*
X8816575Y-58637111D01*
X8821222Y-58636602D01*
X8930680Y-58607784D01*
X9062273Y-58573138D01*
X9066793Y-58571948D01*
X9215293Y-58508148D01*
X9295807Y-58473557D01*
X9295810Y-58473555D01*
X9300110Y-58471708D01*
X9304090Y-58469245D01*
X9304094Y-58469243D01*
X9512064Y-58340547D01*
X9512066Y-58340545D01*
X9516047Y-58338082D01*
X9616491Y-58253050D01*
X9706289Y-58177031D01*
X9706291Y-58177029D01*
X9709862Y-58174006D01*
X9859459Y-58003423D01*
X9919411Y-57965395D01*
X9954190Y-57960500D01*
X11155072Y-57960500D01*
X11191906Y-57966004D01*
X11258453Y-57986350D01*
X11258844Y-57986471D01*
X11349768Y-58014965D01*
X11353303Y-58015349D01*
X11356698Y-58016387D01*
X11451228Y-58025990D01*
X11452008Y-58026072D01*
X11501804Y-58031481D01*
X11540265Y-58035659D01*
X11540266Y-58035659D01*
X11546388Y-58036324D01*
X11549924Y-58036015D01*
X11553462Y-58036374D01*
X11559587Y-58035795D01*
X11559588Y-58035795D01*
X11647970Y-58027440D01*
X11648847Y-58027360D01*
X11737279Y-58019624D01*
X11737283Y-58019623D01*
X11743413Y-58019087D01*
X11746827Y-58018095D01*
X11750362Y-58017761D01*
X11759614Y-58015003D01*
X11841304Y-57990651D01*
X11842146Y-57990403D01*
X11883558Y-57978371D01*
X11933336Y-57963909D01*
X11936489Y-57962275D01*
X11939896Y-57961259D01*
X11945350Y-57958383D01*
X11945356Y-57958381D01*
X12023865Y-57916988D01*
X12024590Y-57916608D01*
X12108926Y-57872892D01*
X12111703Y-57870675D01*
X12114846Y-57869018D01*
X12188652Y-57809251D01*
X12189146Y-57808854D01*
X12227215Y-57778464D01*
X12227218Y-57778461D01*
X12229973Y-57776262D01*
X12231793Y-57774442D01*
X12234839Y-57771850D01*
X12263752Y-57748436D01*
X12268547Y-57744553D01*
X12299176Y-57707791D01*
X12306884Y-57699351D01*
X13842829Y-56163405D01*
X13905141Y-56129380D01*
X13931924Y-56126500D01*
X19496157Y-56126500D01*
X19509764Y-56127237D01*
X19541262Y-56130659D01*
X19541267Y-56130659D01*
X19547388Y-56131324D01*
X19573638Y-56129027D01*
X19597388Y-56126950D01*
X19602214Y-56126621D01*
X19604686Y-56126500D01*
X19607769Y-56126500D01*
X19619738Y-56125326D01*
X19650506Y-56122310D01*
X19651819Y-56122188D01*
X19696084Y-56118315D01*
X19744413Y-56114087D01*
X19749532Y-56112600D01*
X19754833Y-56112080D01*
X19843834Y-56085209D01*
X19844967Y-56084874D01*
X19928414Y-56060630D01*
X19928418Y-56060628D01*
X19934336Y-56058909D01*
X19939068Y-56056456D01*
X19944169Y-56054916D01*
X19949612Y-56052022D01*
X20026260Y-56011269D01*
X20027426Y-56010657D01*
X20104453Y-55970729D01*
X20109926Y-55967892D01*
X20114089Y-55964569D01*
X20118796Y-55962066D01*
X20190918Y-55903245D01*
X20191774Y-55902554D01*
X20230973Y-55871262D01*
X20233477Y-55868758D01*
X20234195Y-55868116D01*
X20238528Y-55864415D01*
X20272062Y-55837065D01*
X20301288Y-55801737D01*
X20309277Y-55792958D01*
X26323379Y-49778855D01*
X26333522Y-49769753D01*
X26358218Y-49749897D01*
X26363025Y-49746032D01*
X26395292Y-49707578D01*
X26398472Y-49703931D01*
X26400115Y-49702119D01*
X26402309Y-49699925D01*
X26429642Y-49666651D01*
X26430348Y-49665800D01*
X26439839Y-49654490D01*
X26490154Y-49594526D01*
X26492722Y-49589856D01*
X26496103Y-49585739D01*
X26539977Y-49503914D01*
X26540606Y-49502755D01*
X26582462Y-49426619D01*
X26582465Y-49426611D01*
X26585433Y-49421213D01*
X26587045Y-49416131D01*
X26589562Y-49411437D01*
X26616747Y-49322523D01*
X26617139Y-49321265D01*
X26643372Y-49238567D01*
X26645235Y-49232694D01*
X26645829Y-49227403D01*
X26647388Y-49222302D01*
X26656790Y-49129737D01*
X26656925Y-49128470D01*
X26659048Y-49109551D01*
X26662500Y-49078773D01*
X26662500Y-49075248D01*
X26662555Y-49074263D01*
X26663004Y-49068559D01*
X26666752Y-49031666D01*
X26666752Y-49031661D01*
X26667374Y-49025538D01*
X26663059Y-48979891D01*
X26662500Y-48968033D01*
X26662500Y-48144151D01*
X37403296Y-48144151D01*
X37403520Y-48148817D01*
X37403520Y-48148822D01*
X37408022Y-48242536D01*
X37415480Y-48397798D01*
X37431520Y-48478437D01*
X37463890Y-48641170D01*
X37465021Y-48646857D01*
X37466600Y-48651255D01*
X37466602Y-48651262D01*
X37511022Y-48774980D01*
X37550831Y-48885858D01*
X37553048Y-48889984D01*
X37651667Y-49073523D01*
X37671025Y-49109551D01*
X37673820Y-49113294D01*
X37673822Y-49113297D01*
X37820171Y-49309282D01*
X37820176Y-49309288D01*
X37822963Y-49313020D01*
X37826272Y-49316300D01*
X37826277Y-49316306D01*
X37957843Y-49446728D01*
X38003307Y-49491797D01*
X38007069Y-49494555D01*
X38007072Y-49494558D01*
X38142840Y-49594107D01*
X38208094Y-49641953D01*
X38212229Y-49644129D01*
X38212233Y-49644131D01*
X38330289Y-49706243D01*
X38432827Y-49760191D01*
X38672568Y-49843912D01*
X38922050Y-49891278D01*
X39042532Y-49896011D01*
X39171125Y-49901064D01*
X39171130Y-49901064D01*
X39175793Y-49901247D01*
X39274774Y-49890407D01*
X39423569Y-49874112D01*
X39423575Y-49874111D01*
X39428222Y-49873602D01*
X39537680Y-49844784D01*
X39669273Y-49810138D01*
X39673793Y-49808948D01*
X39831240Y-49741304D01*
X39902807Y-49710557D01*
X39902810Y-49710555D01*
X39907110Y-49708708D01*
X39911090Y-49706245D01*
X39911094Y-49706243D01*
X40119064Y-49577547D01*
X40119066Y-49577545D01*
X40123047Y-49575082D01*
X40126624Y-49572054D01*
X40313289Y-49414031D01*
X40313291Y-49414029D01*
X40316862Y-49411006D01*
X40484295Y-49220084D01*
X40487946Y-49214409D01*
X40619141Y-49010442D01*
X40621669Y-49006512D01*
X40725967Y-48774980D01*
X40794896Y-48530575D01*
X40815893Y-48365528D01*
X40826545Y-48281798D01*
X40826545Y-48281792D01*
X40826943Y-48278667D01*
X40829291Y-48189000D01*
X40810472Y-47935759D01*
X40754428Y-47688082D01*
X40662391Y-47451409D01*
X40641866Y-47415498D01*
X40538702Y-47234997D01*
X40538700Y-47234995D01*
X40536383Y-47230940D01*
X40379171Y-47031517D01*
X40194209Y-46857523D01*
X40150483Y-46827189D01*
X39989393Y-46715437D01*
X39989390Y-46715435D01*
X39985561Y-46712779D01*
X39981384Y-46710719D01*
X39981377Y-46710715D01*
X39761996Y-46602528D01*
X39761992Y-46602527D01*
X39757810Y-46600464D01*
X39515960Y-46523047D01*
X39511355Y-46522297D01*
X39269935Y-46482980D01*
X39269934Y-46482980D01*
X39265323Y-46482229D01*
X39138365Y-46480567D01*
X39016083Y-46478966D01*
X39016080Y-46478966D01*
X39011406Y-46478905D01*
X38759787Y-46513149D01*
X38515993Y-46584208D01*
X38285380Y-46690522D01*
X38281471Y-46693085D01*
X38076928Y-46827189D01*
X38076923Y-46827193D01*
X38073015Y-46829755D01*
X37883562Y-46998848D01*
X37721183Y-47194087D01*
X37589447Y-47411182D01*
X37491246Y-47645365D01*
X37428738Y-47891490D01*
X37403296Y-48144151D01*
X26662500Y-48144151D01*
X26662500Y-35240843D01*
X26663237Y-35227236D01*
X26666659Y-35195738D01*
X26666659Y-35195733D01*
X26667324Y-35189612D01*
X26662950Y-35139612D01*
X26662621Y-35134786D01*
X26662500Y-35132314D01*
X26662500Y-35129231D01*
X26659686Y-35100532D01*
X26658310Y-35086494D01*
X26658188Y-35085181D01*
X26650623Y-34998718D01*
X26650087Y-34992587D01*
X26648600Y-34987468D01*
X26648080Y-34982167D01*
X26621209Y-34893166D01*
X26620874Y-34892033D01*
X26596630Y-34808586D01*
X26596628Y-34808582D01*
X26594909Y-34802664D01*
X26592456Y-34797932D01*
X26590916Y-34792831D01*
X26581628Y-34775363D01*
X26547269Y-34710740D01*
X26546657Y-34709574D01*
X26506729Y-34632547D01*
X26503892Y-34627074D01*
X26500569Y-34622911D01*
X26498066Y-34618204D01*
X26439245Y-34546082D01*
X26438554Y-34545226D01*
X26407262Y-34506027D01*
X26404758Y-34503523D01*
X26404116Y-34502805D01*
X26400394Y-34498447D01*
X26395244Y-34492132D01*
X26367693Y-34426699D01*
X26379891Y-34356758D01*
X26427965Y-34304515D01*
X26492890Y-34286500D01*
X30325165Y-34286500D01*
X30332966Y-34286742D01*
X30394298Y-34290547D01*
X30457889Y-34279620D01*
X30464610Y-34278652D01*
X30485535Y-34276212D01*
X30521411Y-34272030D01*
X30521414Y-34272029D01*
X30528681Y-34271182D01*
X30537607Y-34267942D01*
X30559258Y-34262201D01*
X30568614Y-34260594D01*
X30627996Y-34235327D01*
X30634289Y-34232848D01*
X30694937Y-34210833D01*
X30701739Y-34206374D01*
X30702878Y-34205627D01*
X30722615Y-34195067D01*
X30724623Y-34194213D01*
X30724635Y-34194206D01*
X30731364Y-34191343D01*
X30737256Y-34187007D01*
X30737261Y-34187004D01*
X30783332Y-34153100D01*
X30788928Y-34149210D01*
X30793986Y-34145894D01*
X30842852Y-34113856D01*
X30849384Y-34106961D01*
X30866166Y-34092139D01*
X30873818Y-34086508D01*
X30878553Y-34080935D01*
X30878560Y-34080928D01*
X30915581Y-34037351D01*
X30920133Y-34032277D01*
X30959457Y-33990766D01*
X30959458Y-33990765D01*
X30964490Y-33985453D01*
X30968165Y-33979126D01*
X30968172Y-33979117D01*
X30969267Y-33977232D01*
X30982185Y-33958953D01*
X30983594Y-33957294D01*
X30983596Y-33957291D01*
X30988333Y-33951715D01*
X30991659Y-33945201D01*
X30991662Y-33945197D01*
X31017670Y-33894264D01*
X31020932Y-33888281D01*
X31049649Y-33838841D01*
X31049650Y-33838839D01*
X31053326Y-33832510D01*
X31055447Y-33825506D01*
X31055449Y-33825502D01*
X31056078Y-33823425D01*
X31064451Y-33802649D01*
X31068769Y-33794192D01*
X31084108Y-33731505D01*
X31085891Y-33724988D01*
X31104595Y-33663233D01*
X31105183Y-33653754D01*
X31108551Y-33631617D01*
X31109474Y-33627846D01*
X31109476Y-33627834D01*
X31110808Y-33622390D01*
X31111500Y-33611236D01*
X31111500Y-33555835D01*
X31111742Y-33548033D01*
X31115093Y-33494013D01*
X31115547Y-33486702D01*
X31113320Y-33473740D01*
X31111500Y-33452404D01*
X31111500Y-28687447D01*
X31131502Y-28619326D01*
X31185158Y-28572833D01*
X31255432Y-28562729D01*
X31281413Y-28569347D01*
X31384341Y-28607626D01*
X31553015Y-28630132D01*
X31560026Y-28629494D01*
X31560030Y-28629494D01*
X31715462Y-28615348D01*
X31722483Y-28614709D01*
X31729185Y-28612531D01*
X31729187Y-28612531D01*
X31877623Y-28564301D01*
X31877626Y-28564300D01*
X31884322Y-28562124D01*
X32030490Y-28474990D01*
X32035584Y-28470139D01*
X32035588Y-28470136D01*
X32142223Y-28368588D01*
X32153721Y-28357639D01*
X32247891Y-28215902D01*
X32308319Y-28056825D01*
X32332001Y-27888313D01*
X32332160Y-27876956D01*
X32332244Y-27870961D01*
X32332244Y-27870955D01*
X32332299Y-27867000D01*
X32313331Y-27697892D01*
X32309385Y-27686559D01*
X32259686Y-27543846D01*
X32257368Y-27537189D01*
X32251533Y-27527850D01*
X32170925Y-27398853D01*
X32167192Y-27392879D01*
X32162228Y-27387881D01*
X32162224Y-27387875D01*
X32159946Y-27385581D01*
X32158954Y-27383749D01*
X32157853Y-27382360D01*
X32158097Y-27382167D01*
X32126139Y-27323150D01*
X32131452Y-27252353D01*
X32160192Y-27208977D01*
X32160092Y-27208893D01*
X32160829Y-27208015D01*
X32162458Y-27205556D01*
X32164619Y-27203498D01*
X32164621Y-27203496D01*
X32169721Y-27198639D01*
X32196611Y-27158167D01*
X32202745Y-27149717D01*
X32230192Y-27115025D01*
X32234734Y-27109284D01*
X32244141Y-27089155D01*
X32253336Y-27072788D01*
X32263891Y-27056902D01*
X32282527Y-27007842D01*
X32286167Y-26999235D01*
X32306521Y-26955686D01*
X32306522Y-26955682D01*
X32309622Y-26949050D01*
X32313355Y-26931103D01*
X32318924Y-26912028D01*
X32321818Y-26904410D01*
X32321819Y-26904408D01*
X32324319Y-26897825D01*
X32325299Y-26890854D01*
X32325300Y-26890849D01*
X32332166Y-26841989D01*
X32333577Y-26833880D01*
X32345640Y-26775885D01*
X32345249Y-26761434D01*
X32346429Y-26740504D01*
X32348001Y-26729313D01*
X32348299Y-26708000D01*
X32342970Y-26660484D01*
X32342231Y-26649850D01*
X32341055Y-26606395D01*
X32340857Y-26599079D01*
X32338982Y-26592007D01*
X32338981Y-26592001D01*
X32334967Y-26576863D01*
X32331543Y-26558613D01*
X32330116Y-26545891D01*
X32329331Y-26538892D01*
X32312324Y-26490053D01*
X32309527Y-26480919D01*
X32308393Y-26476641D01*
X32295526Y-26428116D01*
X32292074Y-26421664D01*
X32292071Y-26421657D01*
X32286511Y-26411265D01*
X32278617Y-26393263D01*
X32273368Y-26378189D01*
X32243906Y-26331040D01*
X32239664Y-26323715D01*
X32212082Y-26272166D01*
X32201998Y-26260748D01*
X32189585Y-26244110D01*
X32186925Y-26239853D01*
X32183192Y-26233879D01*
X32141280Y-26191673D01*
X32136245Y-26186297D01*
X32099846Y-26145083D01*
X32095000Y-26139596D01*
X32085723Y-26133039D01*
X32069053Y-26118939D01*
X32068251Y-26118131D01*
X32068248Y-26118129D01*
X32063286Y-26113132D01*
X32057342Y-26109360D01*
X32057336Y-26109355D01*
X32009745Y-26079154D01*
X32004549Y-26075672D01*
X31965045Y-26047753D01*
X31956540Y-26041742D01*
X31956538Y-26041741D01*
X31950560Y-26037516D01*
X31943640Y-26034727D01*
X31931937Y-26028719D01*
X31931891Y-26028814D01*
X31925550Y-26025722D01*
X31919608Y-26021951D01*
X31856131Y-25999348D01*
X31851391Y-25997550D01*
X31786511Y-25971402D01*
X31779271Y-25970300D01*
X31772862Y-25968547D01*
X31772794Y-25968839D01*
X31765936Y-25967231D01*
X31759300Y-25964868D01*
X31739499Y-25962507D01*
X31688517Y-25956428D01*
X31684485Y-25955881D01*
X31618886Y-25945901D01*
X31618880Y-25945901D01*
X31611651Y-25944801D01*
X31604359Y-25945394D01*
X31602412Y-25945326D01*
X31597076Y-25945524D01*
X31590329Y-25944720D01*
X31583326Y-25945456D01*
X31583323Y-25945456D01*
X31515391Y-25952596D01*
X31512436Y-25952871D01*
X31442663Y-25958546D01*
X31442661Y-25958546D01*
X31435363Y-25959140D01*
X31428395Y-25961397D01*
X31426295Y-25961817D01*
X31425432Y-25962051D01*
X31421093Y-25962507D01*
X31345759Y-25988152D01*
X31343999Y-25988737D01*
X31334677Y-25991757D01*
X31274061Y-26011394D01*
X31274059Y-26011395D01*
X31267101Y-26013649D01*
X31262294Y-26016566D01*
X31260003Y-26017346D01*
X31187468Y-26061970D01*
X31187046Y-26062228D01*
X31120686Y-26102496D01*
X31120682Y-26102499D01*
X31115893Y-26105405D01*
X31111694Y-26109114D01*
X31111689Y-26109117D01*
X31111420Y-26109355D01*
X31107516Y-26112803D01*
X31054803Y-26165516D01*
X31053866Y-26166444D01*
X31030772Y-26189060D01*
X30993486Y-26225573D01*
X30991756Y-26228258D01*
X30988890Y-26231429D01*
X29864089Y-27356230D01*
X29849677Y-27368616D01*
X29838082Y-27377149D01*
X29838077Y-27377154D01*
X29832182Y-27381492D01*
X29827443Y-27387070D01*
X29827440Y-27387073D01*
X29797965Y-27421768D01*
X29791035Y-27429284D01*
X29785340Y-27434979D01*
X29783060Y-27437861D01*
X29767719Y-27457251D01*
X29764928Y-27460655D01*
X29722743Y-27510310D01*
X29717667Y-27516285D01*
X29714339Y-27522801D01*
X29710972Y-27527850D01*
X29707805Y-27532979D01*
X29703266Y-27538716D01*
X29672345Y-27604875D01*
X29670442Y-27608769D01*
X29637231Y-27673808D01*
X29635492Y-27680916D01*
X29633393Y-27686559D01*
X29631476Y-27692322D01*
X29628378Y-27698950D01*
X29626888Y-27706112D01*
X29626888Y-27706113D01*
X29613514Y-27770412D01*
X29612544Y-27774696D01*
X29595192Y-27845610D01*
X29594500Y-27856764D01*
X29594464Y-27856762D01*
X29594225Y-27860755D01*
X29593851Y-27864947D01*
X29592360Y-27872115D01*
X29592558Y-27879432D01*
X29594454Y-27949521D01*
X29594500Y-27952928D01*
X29594500Y-32643500D01*
X29574498Y-32711621D01*
X29520842Y-32758114D01*
X29468500Y-32769500D01*
X26147371Y-32769500D01*
X26079250Y-32749498D01*
X26058276Y-32732595D01*
X25691724Y-32366043D01*
X25629248Y-32303129D01*
X25624286Y-32298132D01*
X25591134Y-32277093D01*
X25580470Y-32269522D01*
X25553025Y-32247808D01*
X25553024Y-32247808D01*
X25547284Y-32243266D01*
X25518740Y-32229926D01*
X25504594Y-32222173D01*
X25480608Y-32206951D01*
X25439936Y-32192469D01*
X25428893Y-32187934D01*
X25387050Y-32168378D01*
X25379888Y-32166888D01*
X25379884Y-32166887D01*
X25360002Y-32162752D01*
X25343400Y-32158094D01*
X25320300Y-32149868D01*
X25285833Y-32145758D01*
X25273583Y-32144297D01*
X25262846Y-32142543D01*
X25221052Y-32133850D01*
X25221046Y-32133849D01*
X25213885Y-32132360D01*
X25203326Y-32132646D01*
X25190135Y-32133002D01*
X25171814Y-32132162D01*
X25158325Y-32130554D01*
X25158324Y-32130554D01*
X25151329Y-32129720D01*
X25144326Y-32130456D01*
X25144322Y-32130456D01*
X25100687Y-32135042D01*
X25090926Y-32135686D01*
X25050045Y-32136792D01*
X25037079Y-32137143D01*
X25029998Y-32139021D01*
X25029995Y-32139021D01*
X25017859Y-32142239D01*
X24998736Y-32145758D01*
X24982093Y-32147507D01*
X24975425Y-32149777D01*
X24975420Y-32149778D01*
X24930194Y-32165174D01*
X24921885Y-32167687D01*
X24866116Y-32182474D01*
X24859665Y-32185926D01*
X24859662Y-32185927D01*
X24852009Y-32190022D01*
X24833172Y-32198204D01*
X24821003Y-32202346D01*
X24815004Y-32206036D01*
X24815003Y-32206037D01*
X24770985Y-32233117D01*
X24764417Y-32236890D01*
X24710166Y-32265918D01*
X24704681Y-32270762D01*
X24704680Y-32270763D01*
X24701081Y-32273942D01*
X24683690Y-32286822D01*
X24676066Y-32291512D01*
X24671037Y-32296437D01*
X24671033Y-32296440D01*
X24631334Y-32335317D01*
X24626584Y-32339735D01*
X24577596Y-32383000D01*
X24573374Y-32388974D01*
X24573371Y-32388977D01*
X24572832Y-32389740D01*
X24563948Y-32400171D01*
X24563969Y-32400188D01*
X24559520Y-32405643D01*
X24554486Y-32410573D01*
X24550670Y-32416495D01*
X24550667Y-32416498D01*
X24543969Y-32426891D01*
X24490254Y-32473315D01*
X24419967Y-32483328D01*
X24355424Y-32453752D01*
X24348964Y-32447729D01*
X20603405Y-28702171D01*
X20569379Y-28639859D01*
X20566500Y-28613076D01*
X20566500Y-21855849D01*
X20586502Y-21787728D01*
X20640158Y-21741235D01*
X20710432Y-21731131D01*
X20753200Y-21745434D01*
X20847787Y-21797433D01*
X20853654Y-21799294D01*
X20853656Y-21799295D01*
X20974371Y-21837588D01*
X21036306Y-21857235D01*
X21190227Y-21874500D01*
X31445075Y-21874500D01*
X31513196Y-21894502D01*
X31534170Y-21911405D01*
X32335035Y-22712270D01*
X32369061Y-22774582D01*
X32363996Y-22845397D01*
X32321449Y-22902233D01*
X32278235Y-22923156D01*
X32251015Y-22930373D01*
X32244564Y-22933825D01*
X32244561Y-22933826D01*
X32236908Y-22937921D01*
X32218071Y-22946103D01*
X32205902Y-22950245D01*
X32199903Y-22953935D01*
X32199902Y-22953936D01*
X32155884Y-22981016D01*
X32149316Y-22984789D01*
X32095065Y-23013817D01*
X32089580Y-23018661D01*
X32089579Y-23018662D01*
X32085980Y-23021841D01*
X32068589Y-23034721D01*
X32060965Y-23039411D01*
X32055936Y-23044336D01*
X32055932Y-23044339D01*
X32016233Y-23083216D01*
X32011483Y-23087634D01*
X31962495Y-23130899D01*
X31958273Y-23136873D01*
X31958270Y-23136876D01*
X31957731Y-23137639D01*
X31948847Y-23148070D01*
X31948868Y-23148087D01*
X31944419Y-23153542D01*
X31939385Y-23158472D01*
X31935570Y-23164391D01*
X31935568Y-23164394D01*
X31903341Y-23214401D01*
X31900327Y-23218865D01*
X31864640Y-23269360D01*
X31864638Y-23269363D01*
X31860415Y-23275339D01*
X31857679Y-23282129D01*
X31854175Y-23288556D01*
X31854066Y-23288497D01*
X31853763Y-23289083D01*
X31854153Y-23289276D01*
X31851021Y-23295586D01*
X31847203Y-23301509D01*
X31844793Y-23308129D01*
X31844792Y-23308132D01*
X31837802Y-23327338D01*
X31823314Y-23367144D01*
X31823088Y-23367764D01*
X31821557Y-23371756D01*
X31794301Y-23439388D01*
X31793201Y-23446619D01*
X31792680Y-23448523D01*
X31791602Y-23454008D01*
X31791412Y-23454793D01*
X31789002Y-23461415D01*
X31783395Y-23505800D01*
X31779665Y-23535325D01*
X31779227Y-23538475D01*
X31767700Y-23614248D01*
X31768293Y-23621541D01*
X31768221Y-23623605D01*
X31768282Y-23625425D01*
X31767674Y-23630242D01*
X31768361Y-23637249D01*
X31768361Y-23637252D01*
X31775360Y-23708625D01*
X31775544Y-23710687D01*
X31782039Y-23790536D01*
X31783978Y-23796523D01*
X31784280Y-23799598D01*
X31810717Y-23879071D01*
X31810952Y-23879788D01*
X31836548Y-23958798D01*
X31872764Y-24018479D01*
X31926145Y-24106622D01*
X31926429Y-24106916D01*
X31928304Y-24110006D01*
X31935702Y-24118383D01*
X31987367Y-24170048D01*
X31988909Y-24171616D01*
X32044354Y-24229031D01*
X32048691Y-24231869D01*
X32054216Y-24236897D01*
X33494595Y-25677276D01*
X33528621Y-25739588D01*
X33531500Y-25766371D01*
X33531500Y-33841930D01*
X33530067Y-33860880D01*
X33526801Y-33882349D01*
X33527394Y-33889641D01*
X33527394Y-33889644D01*
X33531085Y-33935018D01*
X33531500Y-33945233D01*
X33531500Y-33953293D01*
X33532160Y-33958953D01*
X33534789Y-33981507D01*
X33535222Y-33985882D01*
X33539409Y-34037351D01*
X33541140Y-34058637D01*
X33543396Y-34065601D01*
X33544587Y-34071560D01*
X33545971Y-34077415D01*
X33546818Y-34084681D01*
X33571735Y-34153327D01*
X33573152Y-34157455D01*
X33586762Y-34199465D01*
X33595649Y-34226899D01*
X33599445Y-34233154D01*
X33601951Y-34238628D01*
X33604670Y-34244058D01*
X33607167Y-34250937D01*
X33611180Y-34257057D01*
X33611180Y-34257058D01*
X33647186Y-34311976D01*
X33649523Y-34315680D01*
X33687405Y-34378107D01*
X33691121Y-34382315D01*
X33691122Y-34382316D01*
X33694803Y-34386484D01*
X33694776Y-34386508D01*
X33697429Y-34389500D01*
X33700132Y-34392733D01*
X33704144Y-34398852D01*
X33758827Y-34450654D01*
X33760383Y-34452128D01*
X33762825Y-34454506D01*
X36119230Y-36810911D01*
X36131616Y-36825323D01*
X36140149Y-36836918D01*
X36140154Y-36836923D01*
X36144492Y-36842818D01*
X36150070Y-36847557D01*
X36150073Y-36847560D01*
X36184768Y-36877035D01*
X36192284Y-36883965D01*
X36197979Y-36889660D01*
X36200861Y-36891940D01*
X36220251Y-36907281D01*
X36223655Y-36910072D01*
X36273703Y-36952591D01*
X36279285Y-36957333D01*
X36285801Y-36960661D01*
X36290850Y-36964028D01*
X36295979Y-36967195D01*
X36301716Y-36971734D01*
X36367875Y-37002655D01*
X36371769Y-37004558D01*
X36436808Y-37037769D01*
X36443916Y-37039508D01*
X36449559Y-37041607D01*
X36455322Y-37043524D01*
X36461950Y-37046622D01*
X36469112Y-37048112D01*
X36469113Y-37048112D01*
X36533412Y-37061486D01*
X36537696Y-37062456D01*
X36608610Y-37079808D01*
X36614212Y-37080156D01*
X36614215Y-37080156D01*
X36619764Y-37080500D01*
X36619762Y-37080536D01*
X36623755Y-37080775D01*
X36627947Y-37081149D01*
X36635115Y-37082640D01*
X36712520Y-37080546D01*
X36715928Y-37080500D01*
X37532933Y-37080500D01*
X37549595Y-37081607D01*
X37555855Y-37082442D01*
X37569035Y-37084201D01*
X37569038Y-37084201D01*
X37576015Y-37085132D01*
X37583026Y-37084494D01*
X37583030Y-37084494D01*
X37621208Y-37081019D01*
X37632628Y-37080500D01*
X37636293Y-37080500D01*
X37668141Y-37076787D01*
X37671167Y-37076472D01*
X37745483Y-37069709D01*
X37752192Y-37067529D01*
X37752972Y-37067369D01*
X37758494Y-37066483D01*
X37760412Y-37066029D01*
X37767681Y-37065182D01*
X37836230Y-37040299D01*
X37840287Y-37038905D01*
X37900622Y-37019301D01*
X37907322Y-37017124D01*
X37913372Y-37013517D01*
X37919790Y-37010606D01*
X37919971Y-37011004D01*
X37920566Y-37010722D01*
X37920510Y-37010609D01*
X37927058Y-37007330D01*
X37933937Y-37004833D01*
X37940057Y-37000820D01*
X37940062Y-37000818D01*
X37991764Y-36966921D01*
X37996330Y-36964064D01*
X38047442Y-36933595D01*
X38053490Y-36929990D01*
X38058590Y-36925133D01*
X38064204Y-36920872D01*
X38064221Y-36920895D01*
X38074963Y-36912373D01*
X38075731Y-36911869D01*
X38081852Y-36907856D01*
X38086880Y-36902548D01*
X38086884Y-36902545D01*
X38126797Y-36860412D01*
X38131376Y-36855821D01*
X38171625Y-36817492D01*
X38176721Y-36812639D01*
X38180612Y-36806782D01*
X38180615Y-36806779D01*
X38181676Y-36805181D01*
X38195150Y-36788257D01*
X38203490Y-36779453D01*
X38234398Y-36726241D01*
X38238404Y-36719799D01*
X38263727Y-36681685D01*
X38270891Y-36670902D01*
X38275455Y-36658887D01*
X38284282Y-36640359D01*
X38292326Y-36626510D01*
X38294447Y-36619508D01*
X38294451Y-36619498D01*
X38309053Y-36571285D01*
X38311855Y-36563064D01*
X38328818Y-36518409D01*
X38331319Y-36511825D01*
X38333649Y-36495246D01*
X38337832Y-36476261D01*
X38341472Y-36464244D01*
X38341473Y-36464239D01*
X38343595Y-36457233D01*
X38344048Y-36449928D01*
X38344049Y-36449924D01*
X38346931Y-36403470D01*
X38347915Y-36393739D01*
X38354451Y-36347226D01*
X38355001Y-36343313D01*
X38355299Y-36322000D01*
X38354388Y-36313878D01*
X38353844Y-36292029D01*
X38354547Y-36280702D01*
X38343997Y-36219301D01*
X38342963Y-36212017D01*
X38337116Y-36159894D01*
X38336331Y-36152892D01*
X38332362Y-36141494D01*
X38327174Y-36121399D01*
X38325833Y-36113596D01*
X38324594Y-36106386D01*
X38321731Y-36099657D01*
X38321729Y-36099651D01*
X38301699Y-36052577D01*
X38298649Y-36044684D01*
X38282683Y-35998838D01*
X38280368Y-35992189D01*
X38271910Y-35978654D01*
X38262827Y-35961223D01*
X38258211Y-35950375D01*
X38258209Y-35950372D01*
X38255343Y-35943636D01*
X38239403Y-35921976D01*
X38222952Y-35899621D01*
X38217579Y-35891708D01*
X38190192Y-35847879D01*
X38176208Y-35833797D01*
X38164132Y-35819695D01*
X38154849Y-35807081D01*
X38150508Y-35801182D01*
X38111801Y-35768298D01*
X38103979Y-35761061D01*
X38075248Y-35732129D01*
X38070286Y-35727132D01*
X38050245Y-35714414D01*
X38036178Y-35704052D01*
X38021295Y-35691408D01*
X38015715Y-35686667D01*
X37973915Y-35665322D01*
X37963706Y-35659493D01*
X37932563Y-35639729D01*
X37932555Y-35639725D01*
X37926608Y-35635951D01*
X37919973Y-35633589D01*
X37919966Y-35633585D01*
X37900589Y-35626686D01*
X37885560Y-35620206D01*
X37858192Y-35606231D01*
X37819381Y-35596734D01*
X37816337Y-35595989D01*
X37804022Y-35592300D01*
X37795577Y-35589293D01*
X37766300Y-35578868D01*
X37759309Y-35578034D01*
X37759299Y-35578032D01*
X37735013Y-35575136D01*
X37719987Y-35572413D01*
X37686390Y-35564192D01*
X37680788Y-35563844D01*
X37680785Y-35563844D01*
X37677175Y-35563620D01*
X37677165Y-35563620D01*
X37675236Y-35563500D01*
X37644905Y-35563500D01*
X37629987Y-35562614D01*
X37604323Y-35559554D01*
X37597329Y-35558720D01*
X37590326Y-35559456D01*
X37590325Y-35559456D01*
X37558414Y-35562810D01*
X37545244Y-35563500D01*
X37069371Y-35563500D01*
X37001250Y-35543498D01*
X36980276Y-35526595D01*
X35085405Y-33631724D01*
X35051379Y-33569412D01*
X35048500Y-33542629D01*
X35048500Y-25650938D01*
X35068502Y-25582817D01*
X35122158Y-25536324D01*
X35192432Y-25526220D01*
X35235196Y-25540521D01*
X35287787Y-25569433D01*
X35292865Y-25571044D01*
X35297563Y-25573563D01*
X35386498Y-25600753D01*
X35387702Y-25601128D01*
X35476306Y-25629235D01*
X35481597Y-25629828D01*
X35486698Y-25631388D01*
X35579311Y-25640795D01*
X35580431Y-25640915D01*
X35630227Y-25646500D01*
X35633756Y-25646500D01*
X35634739Y-25646555D01*
X35640426Y-25647003D01*
X35660683Y-25649060D01*
X35677336Y-25650752D01*
X35677339Y-25650752D01*
X35683463Y-25651374D01*
X35729112Y-25647059D01*
X35740969Y-25646500D01*
X37904393Y-25646500D01*
X37972514Y-25666502D01*
X37984877Y-25675555D01*
X38080126Y-25754632D01*
X38273000Y-25867338D01*
X38481692Y-25947030D01*
X38486760Y-25948061D01*
X38486763Y-25948062D01*
X38569368Y-25964868D01*
X38700597Y-25991567D01*
X38705772Y-25991757D01*
X38705774Y-25991757D01*
X38918673Y-25999564D01*
X38918677Y-25999564D01*
X38923837Y-25999753D01*
X38928957Y-25999097D01*
X38928959Y-25999097D01*
X39140288Y-25972025D01*
X39140289Y-25972025D01*
X39145416Y-25971368D01*
X39154819Y-25968547D01*
X39354429Y-25908661D01*
X39354434Y-25908659D01*
X39359384Y-25907174D01*
X39559994Y-25808896D01*
X39741860Y-25679173D01*
X39754576Y-25666502D01*
X39850161Y-25571250D01*
X39900096Y-25521489D01*
X39932264Y-25476723D01*
X40027435Y-25344277D01*
X40030453Y-25340077D01*
X40073412Y-25253157D01*
X40127136Y-25144453D01*
X40127137Y-25144451D01*
X40129430Y-25139811D01*
X40142942Y-25095338D01*
X40181883Y-25035974D01*
X40246737Y-25007087D01*
X40316913Y-25017848D01*
X40370131Y-25064842D01*
X40389500Y-25131967D01*
X40389500Y-41334930D01*
X40388067Y-41353880D01*
X40384801Y-41375349D01*
X40385394Y-41382641D01*
X40385394Y-41382644D01*
X40389085Y-41428018D01*
X40389500Y-41438233D01*
X40389500Y-41446293D01*
X40389925Y-41449937D01*
X40392789Y-41474507D01*
X40393222Y-41478882D01*
X40399140Y-41551637D01*
X40401396Y-41558601D01*
X40402587Y-41564560D01*
X40403971Y-41570415D01*
X40404818Y-41577681D01*
X40429735Y-41646327D01*
X40431152Y-41650455D01*
X40453649Y-41719899D01*
X40457445Y-41726154D01*
X40459951Y-41731628D01*
X40462670Y-41737058D01*
X40465167Y-41743937D01*
X40469180Y-41750057D01*
X40469180Y-41750058D01*
X40505186Y-41804976D01*
X40507523Y-41808680D01*
X40545405Y-41871107D01*
X40549121Y-41875315D01*
X40549122Y-41875316D01*
X40552803Y-41879484D01*
X40552776Y-41879508D01*
X40555429Y-41882500D01*
X40558132Y-41885733D01*
X40562144Y-41891852D01*
X40567456Y-41896884D01*
X40618383Y-41945128D01*
X40620825Y-41947506D01*
X42767875Y-44094556D01*
X42798613Y-44144714D01*
X42853473Y-44313556D01*
X42948960Y-44478944D01*
X43076747Y-44620866D01*
X43231248Y-44733118D01*
X43237276Y-44735802D01*
X43237278Y-44735803D01*
X43399681Y-44808109D01*
X43405712Y-44810794D01*
X43499112Y-44830647D01*
X43586056Y-44849128D01*
X43586061Y-44849128D01*
X43592513Y-44850500D01*
X43783487Y-44850500D01*
X43789939Y-44849128D01*
X43789944Y-44849128D01*
X43876888Y-44830647D01*
X43970288Y-44810794D01*
X43976319Y-44808109D01*
X44138722Y-44735803D01*
X44138724Y-44735802D01*
X44144752Y-44733118D01*
X44299253Y-44620866D01*
X44427040Y-44478944D01*
X44522527Y-44313556D01*
X44581542Y-44131928D01*
X44601504Y-43942000D01*
X44581542Y-43752072D01*
X44522527Y-43570444D01*
X44427040Y-43405056D01*
X44299253Y-43263134D01*
X44144752Y-43150882D01*
X44138724Y-43148198D01*
X44138722Y-43148197D01*
X43976319Y-43075891D01*
X43976318Y-43075891D01*
X43970288Y-43073206D01*
X43963833Y-43071834D01*
X43963824Y-43071831D01*
X43907228Y-43059801D01*
X43844331Y-43025650D01*
X41943405Y-41124724D01*
X41909379Y-41062412D01*
X41906500Y-41035629D01*
X41906500Y-16577070D01*
X41907933Y-16558120D01*
X41910099Y-16543885D01*
X41910099Y-16543881D01*
X41911199Y-16536651D01*
X41906915Y-16483982D01*
X41906500Y-16473767D01*
X41906500Y-16465707D01*
X41903209Y-16437480D01*
X41902778Y-16433121D01*
X41897454Y-16367662D01*
X41897453Y-16367659D01*
X41896860Y-16360364D01*
X41894604Y-16353400D01*
X41893417Y-16347461D01*
X41892030Y-16341590D01*
X41891182Y-16334319D01*
X41888686Y-16327443D01*
X41888684Y-16327434D01*
X41866275Y-16265702D01*
X41864865Y-16261598D01*
X41842352Y-16192101D01*
X41838556Y-16185846D01*
X41836057Y-16180387D01*
X41833329Y-16174939D01*
X41830833Y-16168063D01*
X41790805Y-16107010D01*
X41788481Y-16103327D01*
X41753504Y-16045686D01*
X41753501Y-16045682D01*
X41750595Y-16040893D01*
X41743197Y-16032517D01*
X41743224Y-16032493D01*
X41740579Y-16029511D01*
X41737872Y-16026274D01*
X41733856Y-16020148D01*
X41677598Y-15966854D01*
X41675156Y-15964476D01*
X36226125Y-10515444D01*
X36195387Y-10465285D01*
X36142569Y-10302729D01*
X36140527Y-10296444D01*
X36045040Y-10131056D01*
X36002293Y-10083580D01*
X35921675Y-9994045D01*
X35921674Y-9994044D01*
X35917253Y-9989134D01*
X35762752Y-9876882D01*
X35756724Y-9874198D01*
X35756722Y-9874197D01*
X35594319Y-9801891D01*
X35594318Y-9801891D01*
X35588288Y-9799206D01*
X35494887Y-9779353D01*
X35407944Y-9760872D01*
X35407939Y-9760872D01*
X35401487Y-9759500D01*
X35210513Y-9759500D01*
X35204061Y-9760872D01*
X35204056Y-9760872D01*
X35117113Y-9779353D01*
X35023712Y-9799206D01*
X35017682Y-9801891D01*
X35017681Y-9801891D01*
X34855278Y-9874197D01*
X34855276Y-9874198D01*
X34849248Y-9876882D01*
X34694747Y-9989134D01*
X34690326Y-9994044D01*
X34690325Y-9994045D01*
X34609708Y-10083580D01*
X34566960Y-10131056D01*
X34471473Y-10296444D01*
X34412458Y-10478072D01*
X34392496Y-10668000D01*
X34412458Y-10857928D01*
X34471473Y-11039556D01*
X34566960Y-11204944D01*
X34694747Y-11346866D01*
X34849248Y-11459118D01*
X34855276Y-11461802D01*
X34855278Y-11461803D01*
X35017681Y-11534109D01*
X35023712Y-11536794D01*
X35030167Y-11538166D01*
X35030176Y-11538169D01*
X35086772Y-11550199D01*
X35149669Y-11584350D01*
X40352595Y-16787276D01*
X40386621Y-16849588D01*
X40389500Y-16876371D01*
X40389500Y-19058156D01*
X40369498Y-19126277D01*
X40315842Y-19172770D01*
X40245568Y-19182874D01*
X40180988Y-19153380D01*
X40147951Y-19108399D01*
X40065419Y-18918589D01*
X40065419Y-18918588D01*
X40063354Y-18913840D01*
X40002550Y-18819852D01*
X39944822Y-18730617D01*
X39944820Y-18730614D01*
X39942014Y-18726277D01*
X39791670Y-18561051D01*
X39787619Y-18557852D01*
X39787615Y-18557848D01*
X39620414Y-18425800D01*
X39620410Y-18425798D01*
X39616359Y-18422598D01*
X39420789Y-18314638D01*
X39415920Y-18312914D01*
X39415916Y-18312912D01*
X39215087Y-18241795D01*
X39215083Y-18241794D01*
X39210212Y-18240069D01*
X39205119Y-18239162D01*
X39205116Y-18239161D01*
X38995373Y-18201800D01*
X38995367Y-18201799D01*
X38990284Y-18200894D01*
X38916452Y-18199992D01*
X38772081Y-18198228D01*
X38772079Y-18198228D01*
X38766911Y-18198165D01*
X38546091Y-18231955D01*
X38333756Y-18301357D01*
X38135607Y-18404507D01*
X38131474Y-18407610D01*
X38131471Y-18407612D01*
X38043317Y-18473800D01*
X37956965Y-18538635D01*
X37953393Y-18542373D01*
X37825896Y-18675791D01*
X37802629Y-18700138D01*
X37676743Y-18884680D01*
X37636714Y-18970916D01*
X37588020Y-19075819D01*
X37582688Y-19087305D01*
X37522989Y-19302570D01*
X37499251Y-19524695D01*
X37499548Y-19529848D01*
X37499548Y-19529851D01*
X37503939Y-19606000D01*
X37512110Y-19747715D01*
X37513247Y-19752761D01*
X37513248Y-19752767D01*
X37522927Y-19795715D01*
X37561222Y-19965639D01*
X37645266Y-20172616D01*
X37647965Y-20177020D01*
X37725434Y-20303438D01*
X37761987Y-20363088D01*
X37908250Y-20531938D01*
X38080126Y-20674632D01*
X38150595Y-20715811D01*
X38153445Y-20717476D01*
X38202169Y-20769114D01*
X38215240Y-20838897D01*
X38188509Y-20904669D01*
X38148055Y-20938027D01*
X38135607Y-20944507D01*
X38131474Y-20947610D01*
X38131471Y-20947612D01*
X38043317Y-21013800D01*
X37956965Y-21078635D01*
X37802629Y-21240138D01*
X37676743Y-21424680D01*
X37582688Y-21627305D01*
X37522989Y-21842570D01*
X37499251Y-22064695D01*
X37499548Y-22069848D01*
X37499548Y-22069851D01*
X37503939Y-22146000D01*
X37512110Y-22287715D01*
X37513247Y-22292761D01*
X37513248Y-22292767D01*
X37522680Y-22334617D01*
X37561222Y-22505639D01*
X37645266Y-22712616D01*
X37647965Y-22717020D01*
X37749955Y-22883453D01*
X37761987Y-22903088D01*
X37908250Y-23071938D01*
X38080126Y-23214632D01*
X38087370Y-23218865D01*
X38153445Y-23257476D01*
X38202169Y-23309114D01*
X38215240Y-23378897D01*
X38188509Y-23444669D01*
X38148055Y-23478027D01*
X38135607Y-23484507D01*
X38131474Y-23487610D01*
X38131471Y-23487612D01*
X37976111Y-23604260D01*
X37909626Y-23629166D01*
X37900458Y-23629500D01*
X36156924Y-23629500D01*
X36088803Y-23609498D01*
X36067829Y-23592595D01*
X33455829Y-20980595D01*
X33421803Y-20918283D01*
X33426868Y-20847468D01*
X33455829Y-20802405D01*
X34708955Y-19549279D01*
X34708974Y-19549261D01*
X34933886Y-19324349D01*
X35182415Y-19075819D01*
X35244728Y-19041794D01*
X35259215Y-19039515D01*
X35303844Y-19035139D01*
X35375833Y-19028080D01*
X35381734Y-19026298D01*
X35381736Y-19026298D01*
X35462542Y-19001901D01*
X35565169Y-18970916D01*
X35739796Y-18878066D01*
X35855755Y-18783492D01*
X35888287Y-18756960D01*
X35888290Y-18756957D01*
X35893062Y-18753065D01*
X35897970Y-18747132D01*
X36015201Y-18605425D01*
X36015203Y-18605421D01*
X36019130Y-18600675D01*
X36113198Y-18426701D01*
X36171682Y-18237768D01*
X36175838Y-18198228D01*
X36191711Y-18047204D01*
X36191711Y-18047202D01*
X36192355Y-18041075D01*
X36174430Y-17844112D01*
X36118590Y-17654381D01*
X36026960Y-17479110D01*
X35903032Y-17324975D01*
X35896721Y-17319679D01*
X35858483Y-17287594D01*
X35751526Y-17197846D01*
X35746128Y-17194879D01*
X35746123Y-17194875D01*
X35583608Y-17105533D01*
X35583609Y-17105533D01*
X35578213Y-17102567D01*
X35572346Y-17100706D01*
X35572344Y-17100705D01*
X35395564Y-17044627D01*
X35395563Y-17044627D01*
X35389694Y-17042765D01*
X35235773Y-17025500D01*
X34859850Y-17025500D01*
X34846242Y-17024763D01*
X34845662Y-17024700D01*
X34808612Y-17020675D01*
X34758570Y-17025053D01*
X34753788Y-17025379D01*
X34751310Y-17025500D01*
X34748231Y-17025500D01*
X34745177Y-17025799D01*
X34745166Y-17025800D01*
X34705529Y-17029687D01*
X34704215Y-17029809D01*
X34668688Y-17032917D01*
X34611587Y-17037913D01*
X34606468Y-17039400D01*
X34601167Y-17039920D01*
X34512166Y-17066791D01*
X34511033Y-17067126D01*
X34427586Y-17091370D01*
X34427582Y-17091372D01*
X34421664Y-17093091D01*
X34416932Y-17095544D01*
X34411831Y-17097084D01*
X34406388Y-17099978D01*
X34329740Y-17140731D01*
X34328574Y-17141343D01*
X34251547Y-17181271D01*
X34246074Y-17184108D01*
X34241911Y-17187431D01*
X34237204Y-17189934D01*
X34232429Y-17193828D01*
X34232428Y-17193829D01*
X34165102Y-17248739D01*
X34164075Y-17249567D01*
X34127792Y-17278531D01*
X34127787Y-17278536D01*
X34125028Y-17280738D01*
X34122527Y-17283239D01*
X34121809Y-17283881D01*
X34117461Y-17287594D01*
X34111447Y-17292499D01*
X34083938Y-17314935D01*
X34080015Y-17319677D01*
X34080013Y-17319679D01*
X34054703Y-17350273D01*
X34046713Y-17359053D01*
X33363032Y-18042734D01*
X33363027Y-18042738D01*
X32468391Y-18937375D01*
X31585171Y-19820595D01*
X31522859Y-19854620D01*
X31496076Y-19857500D01*
X21197231Y-19857500D01*
X21194175Y-19857800D01*
X21194168Y-19857800D01*
X21135660Y-19863537D01*
X21050167Y-19871920D01*
X21044266Y-19873702D01*
X21044264Y-19873702D01*
X21037044Y-19875882D01*
X20860831Y-19929084D01*
X20855392Y-19931976D01*
X20751653Y-19987134D01*
X20682115Y-20001453D01*
X20615875Y-19975905D01*
X20573962Y-19918600D01*
X20566500Y-19875882D01*
X20566500Y-17868925D01*
X20586502Y-17800804D01*
X20603405Y-17779830D01*
X24545379Y-13837855D01*
X24555522Y-13828753D01*
X24580218Y-13808897D01*
X24585025Y-13805032D01*
X24617292Y-13766578D01*
X24620472Y-13762931D01*
X24622115Y-13761119D01*
X24624309Y-13758925D01*
X24651642Y-13725651D01*
X24652348Y-13724800D01*
X24670291Y-13703417D01*
X24712154Y-13653526D01*
X24714722Y-13648856D01*
X24718103Y-13644739D01*
X24761977Y-13562914D01*
X24762606Y-13561755D01*
X24804462Y-13485619D01*
X24804465Y-13485611D01*
X24807433Y-13480213D01*
X24809045Y-13475131D01*
X24811562Y-13470437D01*
X24838762Y-13381469D01*
X24839108Y-13380358D01*
X24839953Y-13377696D01*
X24867235Y-13291694D01*
X24867829Y-13286398D01*
X24869387Y-13281302D01*
X24878790Y-13188743D01*
X24878911Y-13187607D01*
X24884500Y-13137773D01*
X24884500Y-13134246D01*
X24884555Y-13133261D01*
X24885002Y-13127581D01*
X24889374Y-13084538D01*
X24885059Y-13038891D01*
X24884500Y-13027033D01*
X24884500Y-8606275D01*
X24904502Y-8538154D01*
X24934935Y-8505449D01*
X24980136Y-8471573D01*
X25039261Y-8427261D01*
X25045174Y-8419372D01*
X25045878Y-8418845D01*
X25050992Y-8413731D01*
X25051730Y-8414469D01*
X25102031Y-8376857D01*
X25172849Y-8371830D01*
X25235143Y-8405888D01*
X25246823Y-8419367D01*
X25252739Y-8427261D01*
X25369295Y-8514615D01*
X25505684Y-8565745D01*
X25567866Y-8572500D01*
X27264134Y-8572500D01*
X27326316Y-8565745D01*
X27462705Y-8514615D01*
X27579261Y-8427261D01*
X27666615Y-8310705D01*
X27717745Y-8174316D01*
X27724500Y-8112134D01*
X27724500Y-634500D01*
X27744502Y-566379D01*
X27798158Y-519886D01*
X27850500Y-508500D01*
X32004500Y-508500D01*
X32072621Y-528502D01*
X32119114Y-582158D01*
X32130500Y-634500D01*
X32130500Y-8119377D01*
X32130498Y-8120147D01*
X32130024Y-8197721D01*
X32132491Y-8206352D01*
X32138150Y-8226153D01*
X32141728Y-8242915D01*
X32145920Y-8272187D01*
X32149634Y-8280355D01*
X32149634Y-8280356D01*
X32156548Y-8295562D01*
X32162996Y-8313086D01*
X32170051Y-8337771D01*
X32174843Y-8345365D01*
X32174844Y-8345368D01*
X32185830Y-8362780D01*
X32193969Y-8377863D01*
X32206208Y-8404782D01*
X32212069Y-8411584D01*
X32222970Y-8424235D01*
X32234073Y-8439239D01*
X32247776Y-8460958D01*
X32254501Y-8466897D01*
X32254504Y-8466901D01*
X32269938Y-8480532D01*
X32281982Y-8492724D01*
X32295427Y-8508327D01*
X32295430Y-8508329D01*
X32301287Y-8515127D01*
X32308816Y-8520007D01*
X32308817Y-8520008D01*
X32322835Y-8529094D01*
X32337709Y-8540385D01*
X32350217Y-8551431D01*
X32356951Y-8557378D01*
X32383711Y-8569942D01*
X32398691Y-8578263D01*
X32415983Y-8589471D01*
X32415988Y-8589473D01*
X32423515Y-8594352D01*
X32432108Y-8596922D01*
X32432113Y-8596924D01*
X32448120Y-8601711D01*
X32465564Y-8608372D01*
X32480676Y-8615467D01*
X32480678Y-8615468D01*
X32488800Y-8619281D01*
X32497667Y-8620662D01*
X32497668Y-8620662D01*
X32500353Y-8621080D01*
X32518017Y-8623830D01*
X32534732Y-8627613D01*
X32554466Y-8633515D01*
X32554472Y-8633516D01*
X32563066Y-8636086D01*
X32572037Y-8636141D01*
X32572038Y-8636141D01*
X32582097Y-8636202D01*
X32597506Y-8636296D01*
X32598289Y-8636329D01*
X32599386Y-8636500D01*
X32630377Y-8636500D01*
X32631147Y-8636502D01*
X32704785Y-8636952D01*
X32704786Y-8636952D01*
X32708721Y-8636976D01*
X32710065Y-8636592D01*
X32711410Y-8636500D01*
X34408377Y-8636500D01*
X34409148Y-8636502D01*
X34486721Y-8636976D01*
X34515152Y-8628850D01*
X34531915Y-8625272D01*
X34532753Y-8625152D01*
X34561187Y-8621080D01*
X34584564Y-8610451D01*
X34602087Y-8604004D01*
X34626771Y-8596949D01*
X34634365Y-8592157D01*
X34634368Y-8592156D01*
X34651780Y-8581170D01*
X34666865Y-8573030D01*
X34668031Y-8572500D01*
X34693782Y-8560792D01*
X34713235Y-8544030D01*
X34728239Y-8532927D01*
X34749958Y-8519224D01*
X34755897Y-8512499D01*
X34755901Y-8512496D01*
X34769532Y-8497062D01*
X34781724Y-8485018D01*
X34797327Y-8471573D01*
X34797329Y-8471570D01*
X34804127Y-8465713D01*
X34818094Y-8444165D01*
X34829385Y-8429291D01*
X34840431Y-8416783D01*
X34840432Y-8416782D01*
X34846378Y-8410049D01*
X34858943Y-8383287D01*
X34867263Y-8368309D01*
X34878471Y-8351017D01*
X34878473Y-8351012D01*
X34883352Y-8343485D01*
X34885922Y-8334892D01*
X34885924Y-8334887D01*
X34890711Y-8318880D01*
X34897372Y-8301436D01*
X34904467Y-8286324D01*
X34904468Y-8286322D01*
X34908281Y-8278200D01*
X34910180Y-8266008D01*
X34912830Y-8248985D01*
X34916613Y-8232268D01*
X34922515Y-8212534D01*
X34922516Y-8212528D01*
X34925086Y-8203934D01*
X34925296Y-8169494D01*
X34925329Y-8168711D01*
X34925500Y-8167614D01*
X34925500Y-8136623D01*
X34925502Y-8135853D01*
X34925952Y-8062215D01*
X34925952Y-8062214D01*
X34925976Y-8058279D01*
X34925592Y-8056935D01*
X34925500Y-8055590D01*
X34925500Y-4064000D01*
X39682540Y-4064000D01*
X39702359Y-4379020D01*
X39761505Y-4689072D01*
X39859044Y-4989266D01*
X39860731Y-4992852D01*
X39860733Y-4992856D01*
X39991750Y-5271283D01*
X39991754Y-5271290D01*
X39993438Y-5274869D01*
X40162568Y-5541375D01*
X40363767Y-5784582D01*
X40593860Y-6000654D01*
X40849221Y-6186184D01*
X41125821Y-6338247D01*
X41129490Y-6339700D01*
X41129495Y-6339702D01*
X41415628Y-6452990D01*
X41419298Y-6454443D01*
X41725025Y-6532940D01*
X42038179Y-6572500D01*
X42353821Y-6572500D01*
X42666975Y-6532940D01*
X42972702Y-6454443D01*
X42976372Y-6452990D01*
X43262505Y-6339702D01*
X43262510Y-6339700D01*
X43266179Y-6338247D01*
X43542779Y-6186184D01*
X43798140Y-6000654D01*
X44028233Y-5784582D01*
X44229432Y-5541375D01*
X44398562Y-5274869D01*
X44400246Y-5271290D01*
X44400250Y-5271283D01*
X44531267Y-4992856D01*
X44531269Y-4992852D01*
X44532956Y-4989266D01*
X44630495Y-4689072D01*
X44689641Y-4379020D01*
X44709460Y-4064000D01*
X44689641Y-3748980D01*
X44630495Y-3438928D01*
X44532956Y-3138734D01*
X44526667Y-3125369D01*
X44400250Y-2856717D01*
X44400246Y-2856710D01*
X44398562Y-2853131D01*
X44229432Y-2586625D01*
X44028233Y-2343418D01*
X43798140Y-2127346D01*
X43542779Y-1941816D01*
X43266179Y-1789753D01*
X43262510Y-1788300D01*
X43262505Y-1788298D01*
X42976372Y-1675010D01*
X42976371Y-1675010D01*
X42972702Y-1673557D01*
X42666975Y-1595060D01*
X42353821Y-1555500D01*
X42038179Y-1555500D01*
X41725025Y-1595060D01*
X41419298Y-1673557D01*
X41415629Y-1675010D01*
X41415628Y-1675010D01*
X41129495Y-1788298D01*
X41129490Y-1788300D01*
X41125821Y-1789753D01*
X40849221Y-1941816D01*
X40593860Y-2127346D01*
X40363767Y-2343418D01*
X40162568Y-2586625D01*
X39993438Y-2853131D01*
X39991754Y-2856710D01*
X39991750Y-2856717D01*
X39865333Y-3125369D01*
X39859044Y-3138734D01*
X39761505Y-3438928D01*
X39702359Y-3748980D01*
X39684833Y-4027559D01*
X39682540Y-4064000D01*
X34925500Y-4064000D01*
X34925500Y-634500D01*
X34945502Y-566379D01*
X34999158Y-519886D01*
X35051500Y-508500D01*
X45593500Y-508500D01*
X45661621Y-528502D01*
X45708114Y-582158D01*
X45719500Y-634500D01*
X45719500Y-68962000D01*
X45699498Y-69030121D01*
X45645842Y-69076614D01*
X45593500Y-69088000D01*
X4698500Y-69088000D01*
X4630379Y-69067998D01*
X4583886Y-69014342D01*
X4572500Y-68962000D01*
X4572500Y-66072000D01*
X22632540Y-66072000D01*
X22652359Y-66387020D01*
X22711505Y-66697072D01*
X22809044Y-66997266D01*
X22810731Y-67000852D01*
X22810733Y-67000856D01*
X22941750Y-67279283D01*
X22941754Y-67279290D01*
X22943438Y-67282869D01*
X23112568Y-67549375D01*
X23313767Y-67792582D01*
X23543860Y-68008654D01*
X23799221Y-68194184D01*
X24075821Y-68346247D01*
X24079490Y-68347700D01*
X24079495Y-68347702D01*
X24365628Y-68460990D01*
X24369298Y-68462443D01*
X24675025Y-68540940D01*
X24988179Y-68580500D01*
X25303821Y-68580500D01*
X25616975Y-68540940D01*
X25922702Y-68462443D01*
X25926372Y-68460990D01*
X26212505Y-68347702D01*
X26212510Y-68347700D01*
X26216179Y-68346247D01*
X26492779Y-68194184D01*
X26748140Y-68008654D01*
X26978233Y-67792582D01*
X27179432Y-67549375D01*
X27348562Y-67282869D01*
X27350246Y-67279290D01*
X27350250Y-67279283D01*
X27481267Y-67000856D01*
X27481269Y-67000852D01*
X27482956Y-66997266D01*
X27580495Y-66697072D01*
X27639641Y-66387020D01*
X27659460Y-66072000D01*
X27639641Y-65756980D01*
X27580495Y-65446928D01*
X27482956Y-65146734D01*
X27476667Y-65133369D01*
X27350250Y-64864717D01*
X27350246Y-64864710D01*
X27348562Y-64861131D01*
X27179432Y-64594625D01*
X26978233Y-64351418D01*
X26748140Y-64135346D01*
X26492779Y-63949816D01*
X26216179Y-63797753D01*
X26212510Y-63796300D01*
X26212505Y-63796298D01*
X25926372Y-63683010D01*
X25926371Y-63683010D01*
X25922702Y-63681557D01*
X25616975Y-63603060D01*
X25303821Y-63563500D01*
X24988179Y-63563500D01*
X24675025Y-63603060D01*
X24369298Y-63681557D01*
X24365629Y-63683010D01*
X24365628Y-63683010D01*
X24079495Y-63796298D01*
X24079490Y-63796300D01*
X24075821Y-63797753D01*
X23799221Y-63949816D01*
X23543860Y-64135346D01*
X23313767Y-64351418D01*
X23112568Y-64594625D01*
X22943438Y-64861131D01*
X22941754Y-64864710D01*
X22941750Y-64864717D01*
X22815333Y-65133369D01*
X22809044Y-65146734D01*
X22711505Y-65446928D01*
X22652359Y-65756980D01*
X22634833Y-66035559D01*
X22632540Y-66072000D01*
X4572500Y-66072000D01*
X4572500Y-58779918D01*
X19068917Y-58779918D01*
X19084682Y-59053320D01*
X19085507Y-59057525D01*
X19085508Y-59057533D01*
X19096127Y-59111657D01*
X19137405Y-59322053D01*
X19138792Y-59326103D01*
X19138793Y-59326108D01*
X19199009Y-59501984D01*
X19226112Y-59581144D01*
X19349160Y-59825799D01*
X19351586Y-59829328D01*
X19351589Y-59829334D01*
X19484697Y-60023006D01*
X19504274Y-60051490D01*
X19507161Y-60054663D01*
X19507162Y-60054664D01*
X19629895Y-60189547D01*
X19688582Y-60254043D01*
X19898675Y-60429707D01*
X19902316Y-60431991D01*
X20127024Y-60572951D01*
X20127028Y-60572953D01*
X20130664Y-60575234D01*
X20198544Y-60605883D01*
X20376345Y-60686164D01*
X20376349Y-60686166D01*
X20380257Y-60687930D01*
X20384377Y-60689150D01*
X20384376Y-60689150D01*
X20638723Y-60764491D01*
X20638727Y-60764492D01*
X20642836Y-60765709D01*
X20647070Y-60766357D01*
X20647075Y-60766358D01*
X20909298Y-60806483D01*
X20909300Y-60806483D01*
X20913540Y-60807132D01*
X21052912Y-60809322D01*
X21183071Y-60811367D01*
X21183077Y-60811367D01*
X21187362Y-60811434D01*
X21459235Y-60778534D01*
X21724127Y-60709041D01*
X21728087Y-60707401D01*
X21728092Y-60707399D01*
X21850632Y-60656641D01*
X21977136Y-60604241D01*
X22095359Y-60535157D01*
X22209879Y-60468237D01*
X22209880Y-60468236D01*
X22213582Y-60466073D01*
X22429089Y-60297094D01*
X22470809Y-60254043D01*
X22553059Y-60169167D01*
X22619669Y-60100431D01*
X22622202Y-60096983D01*
X22622206Y-60096978D01*
X22779257Y-59883178D01*
X22781795Y-59879723D01*
X22809794Y-59828156D01*
X22910418Y-59642830D01*
X22910419Y-59642828D01*
X22912468Y-59639054D01*
X23009269Y-59382877D01*
X23070407Y-59115933D01*
X23094751Y-58843161D01*
X23095193Y-58801000D01*
X23093756Y-58779918D01*
X24656917Y-58779918D01*
X24672682Y-59053320D01*
X24673507Y-59057525D01*
X24673508Y-59057533D01*
X24684127Y-59111657D01*
X24725405Y-59322053D01*
X24726792Y-59326103D01*
X24726793Y-59326108D01*
X24787009Y-59501984D01*
X24814112Y-59581144D01*
X24937160Y-59825799D01*
X24939586Y-59829328D01*
X24939589Y-59829334D01*
X25072697Y-60023006D01*
X25092274Y-60051490D01*
X25095161Y-60054663D01*
X25095162Y-60054664D01*
X25217895Y-60189547D01*
X25276582Y-60254043D01*
X25486675Y-60429707D01*
X25490316Y-60431991D01*
X25715024Y-60572951D01*
X25715028Y-60572953D01*
X25718664Y-60575234D01*
X25786544Y-60605883D01*
X25964345Y-60686164D01*
X25964349Y-60686166D01*
X25968257Y-60687930D01*
X25972377Y-60689150D01*
X25972376Y-60689150D01*
X26226723Y-60764491D01*
X26226727Y-60764492D01*
X26230836Y-60765709D01*
X26235070Y-60766357D01*
X26235075Y-60766358D01*
X26497298Y-60806483D01*
X26497300Y-60806483D01*
X26501540Y-60807132D01*
X26640912Y-60809322D01*
X26771071Y-60811367D01*
X26771077Y-60811367D01*
X26775362Y-60811434D01*
X27047235Y-60778534D01*
X27312127Y-60709041D01*
X27316087Y-60707401D01*
X27316092Y-60707399D01*
X27438632Y-60656641D01*
X27565136Y-60604241D01*
X27683359Y-60535157D01*
X27797879Y-60468237D01*
X27797880Y-60468236D01*
X27801582Y-60466073D01*
X27950720Y-60349134D01*
X29741500Y-60349134D01*
X29748255Y-60411316D01*
X29799385Y-60547705D01*
X29886739Y-60664261D01*
X30003295Y-60751615D01*
X30139684Y-60802745D01*
X30201866Y-60809500D01*
X33298134Y-60809500D01*
X33360316Y-60802745D01*
X33496705Y-60751615D01*
X33613261Y-60664261D01*
X33700615Y-60547705D01*
X33751745Y-60411316D01*
X33758500Y-60349134D01*
X33758500Y-58756151D01*
X35427296Y-58756151D01*
X35427520Y-58760817D01*
X35427520Y-58760822D01*
X35431594Y-58845627D01*
X35439480Y-59009798D01*
X35489021Y-59258857D01*
X35490600Y-59263255D01*
X35490602Y-59263262D01*
X35534991Y-59386895D01*
X35574831Y-59497858D01*
X35695025Y-59721551D01*
X35697820Y-59725294D01*
X35697822Y-59725297D01*
X35844171Y-59921282D01*
X35844176Y-59921288D01*
X35846963Y-59925020D01*
X35850272Y-59928300D01*
X35850277Y-59928306D01*
X35977743Y-60054664D01*
X36027307Y-60103797D01*
X36031069Y-60106555D01*
X36031072Y-60106558D01*
X36136764Y-60184054D01*
X36232094Y-60253953D01*
X36236229Y-60256129D01*
X36236233Y-60256131D01*
X36314091Y-60297094D01*
X36456827Y-60372191D01*
X36546368Y-60403460D01*
X36628069Y-60431991D01*
X36696568Y-60455912D01*
X36946050Y-60503278D01*
X37066532Y-60508011D01*
X37195125Y-60513064D01*
X37195130Y-60513064D01*
X37199793Y-60513247D01*
X37298774Y-60502407D01*
X37447569Y-60486112D01*
X37447575Y-60486111D01*
X37452222Y-60485602D01*
X37518179Y-60468237D01*
X37693273Y-60422138D01*
X37697793Y-60420948D01*
X37816353Y-60370011D01*
X37926807Y-60322557D01*
X37926810Y-60322555D01*
X37931110Y-60320708D01*
X37935090Y-60318245D01*
X37935094Y-60318243D01*
X38143064Y-60189547D01*
X38143066Y-60189545D01*
X38147047Y-60187082D01*
X38245768Y-60103509D01*
X38337289Y-60026031D01*
X38337291Y-60026029D01*
X38340862Y-60023006D01*
X38508295Y-59832084D01*
X38645669Y-59618512D01*
X38749967Y-59386980D01*
X38818896Y-59142575D01*
X38850943Y-58890667D01*
X38853291Y-58801000D01*
X38836270Y-58571948D01*
X38834818Y-58552411D01*
X38834817Y-58552407D01*
X38834472Y-58547759D01*
X38826195Y-58511177D01*
X38779459Y-58304639D01*
X38778428Y-58300082D01*
X38762690Y-58259612D01*
X38688084Y-58067762D01*
X38688083Y-58067760D01*
X38686391Y-58063409D01*
X38670633Y-58035838D01*
X38562702Y-57846997D01*
X38562700Y-57846995D01*
X38560383Y-57842940D01*
X38403171Y-57643517D01*
X38218209Y-57469523D01*
X38174483Y-57439189D01*
X38013393Y-57327437D01*
X38013390Y-57327435D01*
X38009561Y-57324779D01*
X38005384Y-57322719D01*
X38005377Y-57322715D01*
X37785996Y-57214528D01*
X37785992Y-57214527D01*
X37781810Y-57212464D01*
X37539960Y-57135047D01*
X37535355Y-57134297D01*
X37293935Y-57094980D01*
X37293934Y-57094980D01*
X37289323Y-57094229D01*
X37162364Y-57092567D01*
X37040083Y-57090966D01*
X37040080Y-57090966D01*
X37035406Y-57090905D01*
X36783787Y-57125149D01*
X36539993Y-57196208D01*
X36309380Y-57302522D01*
X36305471Y-57305085D01*
X36100928Y-57439189D01*
X36100923Y-57439193D01*
X36097015Y-57441755D01*
X35907562Y-57610848D01*
X35745183Y-57806087D01*
X35613447Y-58023182D01*
X35611638Y-58027496D01*
X35611637Y-58027498D01*
X35517702Y-58251509D01*
X35515246Y-58257365D01*
X35452738Y-58503490D01*
X35427296Y-58756151D01*
X33758500Y-58756151D01*
X33758500Y-57252866D01*
X33751745Y-57190684D01*
X33700615Y-57054295D01*
X33613261Y-56937739D01*
X33496705Y-56850385D01*
X33360316Y-56799255D01*
X33298134Y-56792500D01*
X30201866Y-56792500D01*
X30139684Y-56799255D01*
X30003295Y-56850385D01*
X29886739Y-56937739D01*
X29799385Y-57054295D01*
X29748255Y-57190684D01*
X29741500Y-57252866D01*
X29741500Y-60349134D01*
X27950720Y-60349134D01*
X28017089Y-60297094D01*
X28058809Y-60254043D01*
X28141059Y-60169167D01*
X28207669Y-60100431D01*
X28210202Y-60096983D01*
X28210206Y-60096978D01*
X28367257Y-59883178D01*
X28369795Y-59879723D01*
X28397794Y-59828156D01*
X28498418Y-59642830D01*
X28498419Y-59642828D01*
X28500468Y-59639054D01*
X28597269Y-59382877D01*
X28658407Y-59115933D01*
X28682751Y-58843161D01*
X28683193Y-58801000D01*
X28679818Y-58751497D01*
X28664859Y-58532055D01*
X28664858Y-58532049D01*
X28664567Y-58527778D01*
X28609032Y-58259612D01*
X28517617Y-58001465D01*
X28414919Y-57802492D01*
X28393978Y-57761919D01*
X28393978Y-57761918D01*
X28392013Y-57758112D01*
X28382040Y-57743921D01*
X28237008Y-57537562D01*
X28234545Y-57534057D01*
X28048125Y-57333445D01*
X28044810Y-57330731D01*
X28044806Y-57330728D01*
X27902837Y-57214528D01*
X27836205Y-57159990D01*
X27602704Y-57016901D01*
X27598768Y-57015173D01*
X27355873Y-56908549D01*
X27355869Y-56908548D01*
X27351945Y-56906825D01*
X27088566Y-56831800D01*
X27084324Y-56831196D01*
X27084318Y-56831195D01*
X26879387Y-56802029D01*
X26817443Y-56793213D01*
X26673589Y-56792460D01*
X26547877Y-56791802D01*
X26547871Y-56791802D01*
X26543591Y-56791780D01*
X26539347Y-56792339D01*
X26539343Y-56792339D01*
X26465741Y-56802029D01*
X26272078Y-56827525D01*
X26267938Y-56828658D01*
X26267936Y-56828658D01*
X26200037Y-56847233D01*
X26007928Y-56899788D01*
X26003980Y-56901472D01*
X25759982Y-57005546D01*
X25759978Y-57005548D01*
X25756030Y-57007232D01*
X25736125Y-57019145D01*
X25524725Y-57145664D01*
X25524721Y-57145667D01*
X25521043Y-57147868D01*
X25307318Y-57319094D01*
X25118808Y-57517742D01*
X24959002Y-57740136D01*
X24830857Y-57982161D01*
X24829385Y-57986184D01*
X24829383Y-57986188D01*
X24761938Y-58170488D01*
X24736743Y-58239337D01*
X24678404Y-58506907D01*
X24678068Y-58511177D01*
X24658788Y-58756151D01*
X24656917Y-58779918D01*
X23093756Y-58779918D01*
X23091818Y-58751497D01*
X23076859Y-58532055D01*
X23076858Y-58532049D01*
X23076567Y-58527778D01*
X23021032Y-58259612D01*
X22929617Y-58001465D01*
X22826919Y-57802492D01*
X22805978Y-57761919D01*
X22805978Y-57761918D01*
X22804013Y-57758112D01*
X22794040Y-57743921D01*
X22649008Y-57537562D01*
X22646545Y-57534057D01*
X22460125Y-57333445D01*
X22456810Y-57330731D01*
X22456806Y-57330728D01*
X22314837Y-57214528D01*
X22248205Y-57159990D01*
X22014704Y-57016901D01*
X22010768Y-57015173D01*
X21767873Y-56908549D01*
X21767869Y-56908548D01*
X21763945Y-56906825D01*
X21500566Y-56831800D01*
X21496324Y-56831196D01*
X21496318Y-56831195D01*
X21291387Y-56802029D01*
X21229443Y-56793213D01*
X21085589Y-56792460D01*
X20959877Y-56791802D01*
X20959871Y-56791802D01*
X20955591Y-56791780D01*
X20951347Y-56792339D01*
X20951343Y-56792339D01*
X20877741Y-56802029D01*
X20684078Y-56827525D01*
X20679938Y-56828658D01*
X20679936Y-56828658D01*
X20612037Y-56847233D01*
X20419928Y-56899788D01*
X20415980Y-56901472D01*
X20171982Y-57005546D01*
X20171978Y-57005548D01*
X20168030Y-57007232D01*
X20148125Y-57019145D01*
X19936725Y-57145664D01*
X19936721Y-57145667D01*
X19933043Y-57147868D01*
X19719318Y-57319094D01*
X19530808Y-57517742D01*
X19371002Y-57740136D01*
X19242857Y-57982161D01*
X19241385Y-57986184D01*
X19241383Y-57986188D01*
X19173938Y-58170488D01*
X19148743Y-58239337D01*
X19090404Y-58506907D01*
X19090068Y-58511177D01*
X19070788Y-58756151D01*
X19068917Y-58779918D01*
X4572500Y-58779918D01*
X4572500Y-24652695D01*
X6089251Y-24652695D01*
X6089548Y-24657848D01*
X6089548Y-24657851D01*
X6095011Y-24752590D01*
X6102110Y-24875715D01*
X6103247Y-24880761D01*
X6103248Y-24880767D01*
X6113458Y-24926069D01*
X6151222Y-25093639D01*
X6235266Y-25300616D01*
X6351987Y-25491088D01*
X6498250Y-25659938D01*
X6670126Y-25802632D01*
X6863000Y-25915338D01*
X7071692Y-25995030D01*
X7076760Y-25996061D01*
X7076763Y-25996062D01*
X7177544Y-26016566D01*
X7290597Y-26039567D01*
X7295772Y-26039757D01*
X7295774Y-26039757D01*
X7508673Y-26047564D01*
X7508677Y-26047564D01*
X7513837Y-26047753D01*
X7518957Y-26047097D01*
X7518959Y-26047097D01*
X7730288Y-26020025D01*
X7730289Y-26020025D01*
X7735416Y-26019368D01*
X7742156Y-26017346D01*
X7944429Y-25956661D01*
X7944434Y-25956659D01*
X7949384Y-25955174D01*
X8149994Y-25856896D01*
X8331860Y-25727173D01*
X8344898Y-25714181D01*
X8428540Y-25630830D01*
X8490096Y-25569489D01*
X8549594Y-25486689D01*
X8617435Y-25392277D01*
X8620453Y-25388077D01*
X8635482Y-25357669D01*
X8717136Y-25192453D01*
X8717137Y-25192451D01*
X8719430Y-25187811D01*
X8784370Y-24974069D01*
X8813529Y-24752590D01*
X8813734Y-24744196D01*
X8815074Y-24689365D01*
X8815074Y-24689361D01*
X8815156Y-24686000D01*
X8796852Y-24463361D01*
X8742431Y-24246702D01*
X8653354Y-24041840D01*
X8572790Y-23917307D01*
X8534822Y-23858617D01*
X8534820Y-23858614D01*
X8532014Y-23854277D01*
X8381670Y-23689051D01*
X8377619Y-23685852D01*
X8377615Y-23685848D01*
X8210414Y-23553800D01*
X8210410Y-23553798D01*
X8206359Y-23550598D01*
X8165053Y-23527796D01*
X8115084Y-23477364D01*
X8100312Y-23407921D01*
X8125428Y-23341516D01*
X8152780Y-23314909D01*
X8217288Y-23268896D01*
X8331860Y-23187173D01*
X8360662Y-23158472D01*
X8483839Y-23035724D01*
X8490096Y-23029489D01*
X8501358Y-23013817D01*
X8617435Y-22852277D01*
X8620453Y-22848077D01*
X8656777Y-22774582D01*
X8717136Y-22652453D01*
X8717137Y-22652451D01*
X8719430Y-22647811D01*
X8762625Y-22505639D01*
X8782865Y-22439023D01*
X8782865Y-22439021D01*
X8784370Y-22434069D01*
X8813529Y-22212590D01*
X8815156Y-22146000D01*
X8796852Y-21923361D01*
X8742431Y-21706702D01*
X8653354Y-21501840D01*
X8532014Y-21314277D01*
X8381670Y-21149051D01*
X8377619Y-21145852D01*
X8377615Y-21145848D01*
X8210414Y-21013800D01*
X8210410Y-21013798D01*
X8206359Y-21010598D01*
X8165053Y-20987796D01*
X8115084Y-20937364D01*
X8100312Y-20867921D01*
X8125428Y-20801516D01*
X8152780Y-20774909D01*
X8217288Y-20728896D01*
X8331860Y-20647173D01*
X8490096Y-20489489D01*
X8549594Y-20406689D01*
X8617435Y-20312277D01*
X8620453Y-20308077D01*
X8689768Y-20167829D01*
X8717136Y-20112453D01*
X8717137Y-20112451D01*
X8719430Y-20107811D01*
X8762625Y-19965639D01*
X8782865Y-19899023D01*
X8782865Y-19899021D01*
X8784370Y-19894069D01*
X8813529Y-19672590D01*
X8815156Y-19606000D01*
X8796852Y-19383361D01*
X8742431Y-19166702D01*
X8653354Y-18961840D01*
X8588690Y-18861885D01*
X8534822Y-18778617D01*
X8534820Y-18778614D01*
X8532014Y-18774277D01*
X8381670Y-18609051D01*
X8377619Y-18605852D01*
X8377615Y-18605848D01*
X8210414Y-18473800D01*
X8210410Y-18473798D01*
X8206359Y-18470598D01*
X8010789Y-18362638D01*
X8005920Y-18360914D01*
X8005916Y-18360912D01*
X7805087Y-18289795D01*
X7805083Y-18289794D01*
X7800212Y-18288069D01*
X7795119Y-18287162D01*
X7795116Y-18287161D01*
X7585373Y-18249800D01*
X7585367Y-18249799D01*
X7580284Y-18248894D01*
X7506452Y-18247992D01*
X7362081Y-18246228D01*
X7362079Y-18246228D01*
X7356911Y-18246165D01*
X7136091Y-18279955D01*
X6923756Y-18349357D01*
X6893443Y-18365137D01*
X6776911Y-18425800D01*
X6725607Y-18452507D01*
X6721474Y-18455610D01*
X6721471Y-18455612D01*
X6554879Y-18580693D01*
X6546965Y-18586635D01*
X6525544Y-18609051D01*
X6399917Y-18740512D01*
X6392629Y-18748138D01*
X6389715Y-18752410D01*
X6389714Y-18752411D01*
X6337948Y-18828297D01*
X6266743Y-18932680D01*
X6252679Y-18962978D01*
X6176879Y-19126277D01*
X6172688Y-19135305D01*
X6112989Y-19350570D01*
X6089251Y-19572695D01*
X6089548Y-19577848D01*
X6089548Y-19577851D01*
X6095011Y-19672590D01*
X6102110Y-19795715D01*
X6103247Y-19800761D01*
X6103248Y-19800767D01*
X6119148Y-19871319D01*
X6151222Y-20013639D01*
X6235266Y-20220616D01*
X6286019Y-20303438D01*
X6322573Y-20363088D01*
X6351987Y-20411088D01*
X6498250Y-20579938D01*
X6645610Y-20702279D01*
X6663916Y-20717476D01*
X6670126Y-20722632D01*
X6680846Y-20728896D01*
X6743445Y-20765476D01*
X6792169Y-20817114D01*
X6805240Y-20886897D01*
X6778509Y-20952669D01*
X6738055Y-20986027D01*
X6725607Y-20992507D01*
X6721474Y-20995610D01*
X6721471Y-20995612D01*
X6575953Y-21104870D01*
X6546965Y-21126635D01*
X6543393Y-21130373D01*
X6434416Y-21244411D01*
X6392629Y-21288138D01*
X6266743Y-21472680D01*
X6251003Y-21506590D01*
X6176879Y-21666277D01*
X6172688Y-21675305D01*
X6112989Y-21890570D01*
X6089251Y-22112695D01*
X6089548Y-22117848D01*
X6089548Y-22117851D01*
X6095011Y-22212590D01*
X6102110Y-22335715D01*
X6103247Y-22340761D01*
X6103248Y-22340767D01*
X6117956Y-22406028D01*
X6151222Y-22553639D01*
X6235266Y-22760616D01*
X6286019Y-22843438D01*
X6346898Y-22942783D01*
X6351987Y-22951088D01*
X6498250Y-23119938D01*
X6617408Y-23218865D01*
X6663916Y-23257476D01*
X6670126Y-23262632D01*
X6680846Y-23268896D01*
X6743445Y-23305476D01*
X6792169Y-23357114D01*
X6805240Y-23426897D01*
X6778509Y-23492669D01*
X6738055Y-23526027D01*
X6725607Y-23532507D01*
X6721474Y-23535610D01*
X6721471Y-23535612D01*
X6575953Y-23644870D01*
X6546965Y-23666635D01*
X6392629Y-23828138D01*
X6389715Y-23832410D01*
X6389714Y-23832411D01*
X6357347Y-23879860D01*
X6266743Y-24012680D01*
X6251003Y-24046590D01*
X6176879Y-24206277D01*
X6172688Y-24215305D01*
X6112989Y-24430570D01*
X6089251Y-24652695D01*
X4572500Y-24652695D01*
X4572500Y-4064000D01*
X5646540Y-4064000D01*
X5666359Y-4379020D01*
X5725505Y-4689072D01*
X5823044Y-4989266D01*
X5824731Y-4992852D01*
X5824733Y-4992856D01*
X5955750Y-5271283D01*
X5955754Y-5271290D01*
X5957438Y-5274869D01*
X6126568Y-5541375D01*
X6327767Y-5784582D01*
X6557860Y-6000654D01*
X6813221Y-6186184D01*
X7089821Y-6338247D01*
X7093490Y-6339700D01*
X7093495Y-6339702D01*
X7379628Y-6452990D01*
X7383298Y-6454443D01*
X7689025Y-6532940D01*
X8002179Y-6572500D01*
X8317821Y-6572500D01*
X8630975Y-6532940D01*
X8936702Y-6454443D01*
X8940372Y-6452990D01*
X9226505Y-6339702D01*
X9226510Y-6339700D01*
X9230179Y-6338247D01*
X9506779Y-6186184D01*
X9762140Y-6000654D01*
X9992233Y-5784582D01*
X10193432Y-5541375D01*
X10362562Y-5274869D01*
X10364246Y-5271290D01*
X10364250Y-5271283D01*
X10495267Y-4992856D01*
X10495269Y-4992852D01*
X10496956Y-4989266D01*
X10594495Y-4689072D01*
X10653641Y-4379020D01*
X10673460Y-4064000D01*
X10653641Y-3748980D01*
X10594495Y-3438928D01*
X10496956Y-3138734D01*
X10490667Y-3125369D01*
X10364250Y-2856717D01*
X10364246Y-2856710D01*
X10362562Y-2853131D01*
X10193432Y-2586625D01*
X9992233Y-2343418D01*
X9762140Y-2127346D01*
X9506779Y-1941816D01*
X9230179Y-1789753D01*
X9226510Y-1788300D01*
X9226505Y-1788298D01*
X8940372Y-1675010D01*
X8940371Y-1675010D01*
X8936702Y-1673557D01*
X8630975Y-1595060D01*
X8317821Y-1555500D01*
X8002179Y-1555500D01*
X7689025Y-1595060D01*
X7383298Y-1673557D01*
X7379629Y-1675010D01*
X7379628Y-1675010D01*
X7093495Y-1788298D01*
X7093490Y-1788300D01*
X7089821Y-1789753D01*
X6813221Y-1941816D01*
X6557860Y-2127346D01*
X6327767Y-2343418D01*
X6126568Y-2586625D01*
X5957438Y-2853131D01*
X5955754Y-2856710D01*
X5955750Y-2856717D01*
X5829333Y-3125369D01*
X5823044Y-3138734D01*
X5725505Y-3438928D01*
X5666359Y-3748980D01*
X5648833Y-4027559D01*
X5646540Y-4064000D01*
X4572500Y-4064000D01*
X4572500Y-634500D01*
X4592502Y-566379D01*
X4646158Y-519886D01*
X4698500Y-508500D01*
X15240500Y-508500D01*
X15308621Y-528502D01*
G37*
G04 #@! TD.AperFunction*
G04 #@! TA.AperFunction,Conductor*
G36*
X17733088Y-29583627D02*
G01*
X17789924Y-29626174D01*
X17814735Y-29692694D01*
X17815056Y-29701683D01*
X17815056Y-30571486D01*
X17813623Y-30590436D01*
X17810357Y-30611905D01*
X17810950Y-30619197D01*
X17810950Y-30619200D01*
X17814641Y-30664574D01*
X17815056Y-30674789D01*
X17815056Y-30682849D01*
X17815481Y-30686493D01*
X17818345Y-30711063D01*
X17818778Y-30715438D01*
X17824696Y-30788193D01*
X17826952Y-30795157D01*
X17828143Y-30801116D01*
X17829527Y-30806971D01*
X17830374Y-30814237D01*
X17855291Y-30882883D01*
X17856708Y-30887011D01*
X17879205Y-30956455D01*
X17883001Y-30962710D01*
X17885507Y-30968184D01*
X17888226Y-30973614D01*
X17890723Y-30980493D01*
X17894736Y-30986613D01*
X17894736Y-30986614D01*
X17930742Y-31041532D01*
X17933079Y-31045236D01*
X17970961Y-31107663D01*
X17974677Y-31111871D01*
X17974678Y-31111872D01*
X17978359Y-31116040D01*
X17978332Y-31116064D01*
X17980985Y-31119056D01*
X17983688Y-31122289D01*
X17987700Y-31128408D01*
X17993012Y-31133440D01*
X18043939Y-31181684D01*
X18046381Y-31184062D01*
X21829724Y-34967405D01*
X21863750Y-35029717D01*
X21858685Y-35100532D01*
X21816138Y-35157368D01*
X21749618Y-35182179D01*
X21740629Y-35182500D01*
X20118905Y-35182500D01*
X20103987Y-35181614D01*
X20078323Y-35178554D01*
X20071329Y-35177720D01*
X20064326Y-35178456D01*
X20064325Y-35178456D01*
X20032414Y-35181810D01*
X20019244Y-35182500D01*
X9764371Y-35182500D01*
X9696250Y-35162498D01*
X9675276Y-35145595D01*
X9510689Y-34981008D01*
X9476663Y-34918696D01*
X9481728Y-34847881D01*
X9489369Y-34831212D01*
X9535209Y-34747828D01*
X9567433Y-34689213D01*
X9569846Y-34681608D01*
X9625373Y-34506564D01*
X9625373Y-34506563D01*
X9627235Y-34500694D01*
X9644500Y-34346773D01*
X9644500Y-31914531D01*
X9664502Y-31846410D01*
X9718158Y-31799917D01*
X9763150Y-31790619D01*
X9763015Y-31789132D01*
X9932483Y-31773709D01*
X9939185Y-31771531D01*
X9939187Y-31771531D01*
X10087623Y-31723301D01*
X10087626Y-31723300D01*
X10094322Y-31721124D01*
X10209823Y-31652271D01*
X10274341Y-31634500D01*
X15277864Y-31634500D01*
X15294307Y-31635578D01*
X15326000Y-31639750D01*
X15334189Y-31638672D01*
X15365874Y-31634501D01*
X15365884Y-31634500D01*
X15365885Y-31634500D01*
X15465457Y-31621391D01*
X15476664Y-31619916D01*
X15476666Y-31619915D01*
X15484851Y-31618838D01*
X15632876Y-31557524D01*
X15728072Y-31484477D01*
X15728075Y-31484474D01*
X15759987Y-31459987D01*
X15765017Y-31453432D01*
X15779452Y-31434621D01*
X15790319Y-31422230D01*
X17599961Y-29612588D01*
X17662273Y-29578562D01*
X17733088Y-29583627D01*
G37*
G04 #@! TD.AperFunction*
G04 #@! TA.AperFunction,Conductor*
G36*
X16934595Y-23914607D02*
G01*
X16941765Y-23915563D01*
X16954035Y-23917201D01*
X16954038Y-23917201D01*
X16961015Y-23918132D01*
X16968026Y-23917494D01*
X16968030Y-23917494D01*
X16970080Y-23917307D01*
X16971381Y-23917564D01*
X16975073Y-23917641D01*
X16975059Y-23918290D01*
X17039733Y-23931052D01*
X17090898Y-23980273D01*
X17107500Y-24042788D01*
X17107500Y-26978930D01*
X17106067Y-26997880D01*
X17104552Y-27007842D01*
X17102801Y-27019349D01*
X17103394Y-27026641D01*
X17103394Y-27026644D01*
X17107085Y-27072018D01*
X17107500Y-27082233D01*
X17107500Y-27090293D01*
X17107925Y-27093937D01*
X17110789Y-27118507D01*
X17111222Y-27122882D01*
X17117140Y-27195637D01*
X17119396Y-27202601D01*
X17120587Y-27208560D01*
X17121971Y-27214415D01*
X17122818Y-27221681D01*
X17147735Y-27290327D01*
X17149152Y-27294455D01*
X17169165Y-27356230D01*
X17171649Y-27363899D01*
X17175445Y-27370154D01*
X17177951Y-27375628D01*
X17180670Y-27381058D01*
X17183167Y-27387937D01*
X17187180Y-27394057D01*
X17187180Y-27394058D01*
X17223186Y-27448976D01*
X17225523Y-27452680D01*
X17263405Y-27515107D01*
X17267121Y-27519315D01*
X17267122Y-27519316D01*
X17270803Y-27523484D01*
X17270776Y-27523508D01*
X17273429Y-27526500D01*
X17276132Y-27529733D01*
X17280144Y-27535852D01*
X17285456Y-27540884D01*
X17336383Y-27589128D01*
X17338825Y-27591506D01*
X17343968Y-27596649D01*
X17345510Y-27598217D01*
X17400955Y-27655632D01*
X17405292Y-27658470D01*
X17410817Y-27663498D01*
X17427418Y-27680099D01*
X17461444Y-27742411D01*
X17456379Y-27813226D01*
X17414923Y-27868604D01*
X17415175Y-27868926D01*
X17413988Y-27869853D01*
X17413832Y-27870062D01*
X17412982Y-27870639D01*
X17409619Y-27873266D01*
X17403622Y-27876956D01*
X17282042Y-27996017D01*
X17278231Y-28001931D01*
X17278229Y-28001933D01*
X17238607Y-28063414D01*
X17189860Y-28139054D01*
X17131659Y-28298960D01*
X17128269Y-28325792D01*
X17099889Y-28390865D01*
X17092359Y-28399092D01*
X15110856Y-30380595D01*
X15048544Y-30414621D01*
X15021761Y-30417500D01*
X10272411Y-30417500D01*
X10204897Y-30397885D01*
X10119562Y-30343729D01*
X10119558Y-30343727D01*
X10113608Y-30339951D01*
X9953300Y-30282868D01*
X9784329Y-30262720D01*
X9777324Y-30263456D01*
X9770280Y-30263407D01*
X9770301Y-30260353D01*
X9713788Y-30249994D01*
X9661960Y-30201472D01*
X9644500Y-30137479D01*
X9644500Y-30060925D01*
X9664502Y-29992804D01*
X9681405Y-29971830D01*
X13750379Y-25902855D01*
X13760522Y-25893753D01*
X13785218Y-25873897D01*
X13790025Y-25870032D01*
X13822320Y-25831544D01*
X13825478Y-25827925D01*
X13827124Y-25826110D01*
X13829309Y-25823925D01*
X13831264Y-25821545D01*
X13831273Y-25821535D01*
X13856549Y-25790764D01*
X13857391Y-25789749D01*
X13899481Y-25739588D01*
X13917154Y-25718526D01*
X13919723Y-25713852D01*
X13923102Y-25709739D01*
X13940509Y-25677276D01*
X13946285Y-25666502D01*
X13966975Y-25627915D01*
X13967584Y-25626793D01*
X14009464Y-25550614D01*
X14009465Y-25550612D01*
X14012433Y-25545213D01*
X14014045Y-25540131D01*
X14016562Y-25535437D01*
X14043762Y-25446469D01*
X14044108Y-25445358D01*
X14050043Y-25426651D01*
X14072235Y-25356694D01*
X14072829Y-25351398D01*
X14074387Y-25346302D01*
X14083790Y-25253743D01*
X14083911Y-25252607D01*
X14089500Y-25202773D01*
X14089500Y-25199246D01*
X14089555Y-25198261D01*
X14090002Y-25192581D01*
X14094374Y-25149538D01*
X14090059Y-25103891D01*
X14089500Y-25092033D01*
X14089500Y-24039500D01*
X14109502Y-23971379D01*
X14163158Y-23924886D01*
X14215500Y-23913500D01*
X16917933Y-23913500D01*
X16934595Y-23914607D01*
G37*
G04 #@! TD.AperFunction*
G04 #@! TA.AperFunction,Conductor*
G36*
X22695143Y-8405888D02*
G01*
X22706823Y-8419367D01*
X22712739Y-8427261D01*
X22771864Y-8471573D01*
X22817065Y-8505449D01*
X22859580Y-8562308D01*
X22867500Y-8606275D01*
X22867500Y-12611075D01*
X22847498Y-12679196D01*
X22830595Y-12700170D01*
X18888621Y-16642145D01*
X18878478Y-16651247D01*
X18848975Y-16674968D01*
X18845008Y-16679696D01*
X18816709Y-16713421D01*
X18813528Y-16717069D01*
X18811885Y-16718881D01*
X18809691Y-16721075D01*
X18782358Y-16754349D01*
X18781696Y-16755147D01*
X18721846Y-16826474D01*
X18719278Y-16831144D01*
X18715897Y-16835261D01*
X18708215Y-16849588D01*
X18672023Y-16917086D01*
X18671394Y-16918245D01*
X18629538Y-16994381D01*
X18629535Y-16994389D01*
X18626567Y-16999787D01*
X18624955Y-17004869D01*
X18622438Y-17009563D01*
X18595238Y-17098531D01*
X18594918Y-17099559D01*
X18566765Y-17188306D01*
X18566171Y-17193602D01*
X18564613Y-17198698D01*
X18556504Y-17278531D01*
X18555218Y-17291187D01*
X18555089Y-17292393D01*
X18549500Y-17342227D01*
X18549500Y-17345754D01*
X18549445Y-17346739D01*
X18548998Y-17352419D01*
X18544626Y-17395462D01*
X18545206Y-17401593D01*
X18548941Y-17441109D01*
X18549500Y-17452967D01*
X18549500Y-18650154D01*
X18529498Y-18718275D01*
X18475842Y-18764768D01*
X18405568Y-18774872D01*
X18346216Y-18749075D01*
X18344286Y-18747132D01*
X18338332Y-18743354D01*
X18333567Y-18739522D01*
X18330481Y-18736827D01*
X18328770Y-18735547D01*
X18323453Y-18730510D01*
X18316166Y-18726277D01*
X18262334Y-18695009D01*
X18258138Y-18692460D01*
X18200608Y-18655951D01*
X18193972Y-18653588D01*
X18187637Y-18650498D01*
X18187719Y-18650330D01*
X18179087Y-18646328D01*
X18176841Y-18645351D01*
X18170510Y-18641674D01*
X18106493Y-18622285D01*
X18100754Y-18620395D01*
X18066412Y-18608166D01*
X18040300Y-18598868D01*
X18032952Y-18597992D01*
X18011346Y-18593468D01*
X18001233Y-18590405D01*
X17938282Y-18586499D01*
X17931186Y-18585857D01*
X17871329Y-18578720D01*
X17864326Y-18579456D01*
X17864323Y-18579456D01*
X17860100Y-18579900D01*
X17839129Y-18580348D01*
X17837634Y-18580255D01*
X17824702Y-18579453D01*
X17817487Y-18580693D01*
X17817483Y-18580693D01*
X17766313Y-18589486D01*
X17758145Y-18590616D01*
X17709102Y-18595770D01*
X17709099Y-18595771D01*
X17702093Y-18596507D01*
X17695424Y-18598777D01*
X17695416Y-18598779D01*
X17687724Y-18601398D01*
X17668461Y-18606300D01*
X17650386Y-18609406D01*
X17606460Y-18628096D01*
X17599408Y-18631097D01*
X17590681Y-18634434D01*
X17541003Y-18651346D01*
X17524752Y-18661344D01*
X17508075Y-18669960D01*
X17494370Y-18675791D01*
X17494365Y-18675794D01*
X17487636Y-18678657D01*
X17481745Y-18682992D01*
X17481742Y-18682994D01*
X17465416Y-18695009D01*
X17446105Y-18709220D01*
X17437459Y-18715047D01*
X17425414Y-18722457D01*
X17402068Y-18736819D01*
X17402065Y-18736821D01*
X17396066Y-18740512D01*
X17391035Y-18745439D01*
X17391031Y-18745442D01*
X17379666Y-18756572D01*
X17366192Y-18768029D01*
X17351083Y-18779148D01*
X17351076Y-18779154D01*
X17345182Y-18783492D01*
X17340440Y-18789074D01*
X17314292Y-18819852D01*
X17306431Y-18828290D01*
X17274486Y-18859573D01*
X17261064Y-18880401D01*
X17259950Y-18882129D01*
X17250065Y-18895452D01*
X17230667Y-18918285D01*
X17210724Y-18957342D01*
X17204418Y-18968297D01*
X17182304Y-19002610D01*
X17179896Y-19009226D01*
X17179893Y-19009232D01*
X17171794Y-19031486D01*
X17165609Y-19045693D01*
X17150231Y-19075808D01*
X17148491Y-19082917D01*
X17148490Y-19082921D01*
X17140724Y-19114661D01*
X17136742Y-19127791D01*
X17124103Y-19162516D01*
X17123220Y-19169508D01*
X17119764Y-19196858D01*
X17117148Y-19211007D01*
X17108192Y-19247610D01*
X17107500Y-19258764D01*
X17107500Y-19286017D01*
X17106506Y-19301809D01*
X17102775Y-19331343D01*
X17105164Y-19355707D01*
X17106899Y-19373402D01*
X17107500Y-19385698D01*
X17107500Y-22266496D01*
X17087498Y-22334617D01*
X17033842Y-22381110D01*
X16983553Y-22391866D01*
X16982329Y-22391720D01*
X16975326Y-22392456D01*
X16975325Y-22392456D01*
X16943414Y-22395810D01*
X16930244Y-22396500D01*
X14215500Y-22396500D01*
X14147379Y-22376498D01*
X14100886Y-22322842D01*
X14089500Y-22270500D01*
X14089500Y-14566926D01*
X14109502Y-14498805D01*
X14126404Y-14477831D01*
X14604829Y-13999405D01*
X14667142Y-13965380D01*
X14693925Y-13962500D01*
X17718157Y-13962500D01*
X17731764Y-13963237D01*
X17763262Y-13966659D01*
X17763267Y-13966659D01*
X17769388Y-13967324D01*
X17795638Y-13965027D01*
X17819388Y-13962950D01*
X17824214Y-13962621D01*
X17826686Y-13962500D01*
X17829769Y-13962500D01*
X17841738Y-13961326D01*
X17872506Y-13958310D01*
X17873819Y-13958188D01*
X17918084Y-13954315D01*
X17966413Y-13950087D01*
X17971532Y-13948600D01*
X17976833Y-13948080D01*
X18065834Y-13921209D01*
X18066967Y-13920874D01*
X18150414Y-13896630D01*
X18150418Y-13896628D01*
X18156336Y-13894909D01*
X18161068Y-13892456D01*
X18166169Y-13890916D01*
X18171612Y-13888022D01*
X18248260Y-13847269D01*
X18249426Y-13846657D01*
X18326453Y-13806729D01*
X18331926Y-13803892D01*
X18336089Y-13800569D01*
X18340796Y-13798066D01*
X18412918Y-13739245D01*
X18413774Y-13738554D01*
X18452973Y-13707262D01*
X18455477Y-13704758D01*
X18456195Y-13704116D01*
X18460528Y-13700415D01*
X18494062Y-13673065D01*
X18509746Y-13654107D01*
X18523287Y-13637738D01*
X18531277Y-13628958D01*
X22005379Y-10154855D01*
X22015522Y-10145753D01*
X22040218Y-10125897D01*
X22045025Y-10122032D01*
X22077320Y-10083544D01*
X22080478Y-10079925D01*
X22082124Y-10078110D01*
X22084309Y-10075925D01*
X22086264Y-10073545D01*
X22086273Y-10073535D01*
X22111549Y-10042764D01*
X22112391Y-10041749D01*
X22168194Y-9975245D01*
X22172154Y-9970526D01*
X22174723Y-9965852D01*
X22178102Y-9961739D01*
X22221975Y-9879915D01*
X22222584Y-9878793D01*
X22264464Y-9802614D01*
X22264465Y-9802612D01*
X22267433Y-9797213D01*
X22269045Y-9792131D01*
X22271562Y-9787437D01*
X22298762Y-9698469D01*
X22299108Y-9697358D01*
X22325373Y-9614563D01*
X22327235Y-9608694D01*
X22327829Y-9603398D01*
X22329387Y-9598302D01*
X22338790Y-9505743D01*
X22338911Y-9504607D01*
X22344500Y-9454773D01*
X22344500Y-9451246D01*
X22344555Y-9450261D01*
X22345002Y-9444581D01*
X22349374Y-9401538D01*
X22345059Y-9355891D01*
X22344500Y-9344033D01*
X22344500Y-8606275D01*
X22364502Y-8538154D01*
X22394935Y-8505449D01*
X22440136Y-8471573D01*
X22499261Y-8427261D01*
X22505174Y-8419372D01*
X22505878Y-8418845D01*
X22510992Y-8413731D01*
X22511730Y-8414469D01*
X22562031Y-8376857D01*
X22632849Y-8371830D01*
X22695143Y-8405888D01*
G37*
G04 #@! TD.AperFunction*
M02*
