G04 #@! TF.GenerationSoftware,KiCad,Pcbnew,6.0.10*
G04 #@! TF.CreationDate,2023-07-05T17:30:49-05:00*
G04 #@! TF.ProjectId,gas_control_board,6761735f-636f-46e7-9472-6f6c5f626f61,rev?*
G04 #@! TF.SameCoordinates,Original*
G04 #@! TF.FileFunction,Copper,L1,Top*
G04 #@! TF.FilePolarity,Positive*
%FSLAX46Y46*%
G04 Gerber Fmt 4.6, Leading zero omitted, Abs format (unit mm)*
G04 Created by KiCad (PCBNEW 6.0.10) date 2023-07-05 17:30:49*
%MOMM*%
%LPD*%
G01*
G04 APERTURE LIST*
G04 Aperture macros list*
%AMRoundRect*
0 Rectangle with rounded corners*
0 $1 Rounding radius*
0 $2 $3 $4 $5 $6 $7 $8 $9 X,Y pos of 4 corners*
0 Add a 4 corners polygon primitive as box body*
4,1,4,$2,$3,$4,$5,$6,$7,$8,$9,$2,$3,0*
0 Add four circle primitives for the rounded corners*
1,1,$1+$1,$2,$3*
1,1,$1+$1,$4,$5*
1,1,$1+$1,$6,$7*
1,1,$1+$1,$8,$9*
0 Add four rect primitives between the rounded corners*
20,1,$1+$1,$2,$3,$4,$5,0*
20,1,$1+$1,$4,$5,$6,$7,0*
20,1,$1+$1,$6,$7,$8,$9,0*
20,1,$1+$1,$8,$9,$2,$3,0*%
G04 Aperture macros list end*
G04 #@! TA.AperFunction,SMDPad,CuDef*
%ADD10RoundRect,0.250000X0.337500X0.475000X-0.337500X0.475000X-0.337500X-0.475000X0.337500X-0.475000X0*%
G04 #@! TD*
G04 #@! TA.AperFunction,SMDPad,CuDef*
%ADD11RoundRect,0.150000X0.650000X0.150000X-0.650000X0.150000X-0.650000X-0.150000X0.650000X-0.150000X0*%
G04 #@! TD*
G04 #@! TA.AperFunction,SMDPad,CuDef*
%ADD12RoundRect,0.237500X0.287500X0.237500X-0.287500X0.237500X-0.287500X-0.237500X0.287500X-0.237500X0*%
G04 #@! TD*
G04 #@! TA.AperFunction,SMDPad,CuDef*
%ADD13R,4.500000X2.000000*%
G04 #@! TD*
G04 #@! TA.AperFunction,SMDPad,CuDef*
%ADD14RoundRect,0.250000X0.350000X0.450000X-0.350000X0.450000X-0.350000X-0.450000X0.350000X-0.450000X0*%
G04 #@! TD*
G04 #@! TA.AperFunction,SMDPad,CuDef*
%ADD15RoundRect,0.250000X-0.337500X-0.475000X0.337500X-0.475000X0.337500X0.475000X-0.337500X0.475000X0*%
G04 #@! TD*
G04 #@! TA.AperFunction,SMDPad,CuDef*
%ADD16RoundRect,0.250000X-0.350000X-0.450000X0.350000X-0.450000X0.350000X0.450000X-0.350000X0.450000X0*%
G04 #@! TD*
G04 #@! TA.AperFunction,ComponentPad*
%ADD17R,2.400000X2.400000*%
G04 #@! TD*
G04 #@! TA.AperFunction,ComponentPad*
%ADD18C,2.400000*%
G04 #@! TD*
G04 #@! TA.AperFunction,ComponentPad*
%ADD19R,3.000000X3.000000*%
G04 #@! TD*
G04 #@! TA.AperFunction,ComponentPad*
%ADD20C,3.000000*%
G04 #@! TD*
G04 #@! TA.AperFunction,SMDPad,CuDef*
%ADD21R,1.300000X1.550000*%
G04 #@! TD*
G04 #@! TA.AperFunction,SMDPad,CuDef*
%ADD22RoundRect,0.250000X0.475000X-0.337500X0.475000X0.337500X-0.475000X0.337500X-0.475000X-0.337500X0*%
G04 #@! TD*
G04 #@! TA.AperFunction,SMDPad,CuDef*
%ADD23RoundRect,0.250000X0.362500X0.700000X-0.362500X0.700000X-0.362500X-0.700000X0.362500X-0.700000X0*%
G04 #@! TD*
G04 #@! TA.AperFunction,SMDPad,CuDef*
%ADD24RoundRect,0.250000X0.450000X-0.350000X0.450000X0.350000X-0.450000X0.350000X-0.450000X-0.350000X0*%
G04 #@! TD*
G04 #@! TA.AperFunction,SMDPad,CuDef*
%ADD25RoundRect,0.237500X-0.237500X0.287500X-0.237500X-0.287500X0.237500X-0.287500X0.237500X0.287500X0*%
G04 #@! TD*
G04 #@! TA.AperFunction,ComponentPad*
%ADD26R,1.700000X1.700000*%
G04 #@! TD*
G04 #@! TA.AperFunction,ComponentPad*
%ADD27O,1.700000X1.700000*%
G04 #@! TD*
G04 #@! TA.AperFunction,SMDPad,CuDef*
%ADD28RoundRect,0.250000X-0.475000X0.337500X-0.475000X-0.337500X0.475000X-0.337500X0.475000X0.337500X0*%
G04 #@! TD*
G04 #@! TA.AperFunction,SMDPad,CuDef*
%ADD29R,0.200000X0.850000*%
G04 #@! TD*
G04 #@! TA.AperFunction,SMDPad,CuDef*
%ADD30R,0.850000X0.200000*%
G04 #@! TD*
G04 #@! TA.AperFunction,SMDPad,CuDef*
%ADD31R,3.200000X3.200000*%
G04 #@! TD*
G04 #@! TA.AperFunction,SMDPad,CuDef*
%ADD32RoundRect,0.250000X-0.450000X0.350000X-0.450000X-0.350000X0.450000X-0.350000X0.450000X0.350000X0*%
G04 #@! TD*
G04 #@! TA.AperFunction,SMDPad,CuDef*
%ADD33RoundRect,0.237500X0.237500X-0.287500X0.237500X0.287500X-0.237500X0.287500X-0.237500X-0.287500X0*%
G04 #@! TD*
G04 #@! TA.AperFunction,SMDPad,CuDef*
%ADD34R,3.500000X2.300000*%
G04 #@! TD*
G04 #@! TA.AperFunction,SMDPad,CuDef*
%ADD35R,0.950000X1.250000*%
G04 #@! TD*
G04 #@! TA.AperFunction,SMDPad,CuDef*
%ADD36R,3.200000X1.250000*%
G04 #@! TD*
G04 #@! TA.AperFunction,SMDPad,CuDef*
%ADD37R,1.600000X8.000000*%
G04 #@! TD*
G04 #@! TA.AperFunction,ViaPad*
%ADD38C,0.500000*%
G04 #@! TD*
G04 #@! TA.AperFunction,ViaPad*
%ADD39C,0.800000*%
G04 #@! TD*
G04 #@! TA.AperFunction,Conductor*
%ADD40C,0.200000*%
G04 #@! TD*
G04 #@! TA.AperFunction,Conductor*
%ADD41C,0.500000*%
G04 #@! TD*
G04 #@! TA.AperFunction,Conductor*
%ADD42C,2.000000*%
G04 #@! TD*
G04 APERTURE END LIST*
D10*
X16954000Y-17310000D03*
X14879000Y-17310000D03*
X16977000Y-24168000D03*
X14902000Y-24168000D03*
D11*
X15072000Y-32296000D03*
X15072000Y-31026000D03*
X15072000Y-29756000D03*
X15072000Y-28486000D03*
X7872000Y-28486000D03*
X7872000Y-29756000D03*
X7872000Y-31026000D03*
X7872000Y-32296000D03*
D12*
X15904000Y-53898000D03*
X14154000Y-53898000D03*
D13*
X34426000Y-32512000D03*
X42926000Y-32512000D03*
D14*
X12361000Y-34201000D03*
X10361000Y-34201000D03*
D15*
X32809000Y-28740000D03*
X34884000Y-28740000D03*
D16*
X42577000Y-28829000D03*
X44577000Y-28829000D03*
D17*
X39116000Y-51689000D03*
D18*
X39116000Y-48189000D03*
D19*
X16002000Y-58801000D03*
D20*
X21082000Y-58801000D03*
D21*
X34743000Y-44272000D03*
X34743000Y-36322000D03*
X39243000Y-36322000D03*
X39243000Y-44272000D03*
D22*
X42037000Y-42164000D03*
X42037000Y-40089000D03*
D14*
X12500000Y-22136000D03*
X10500000Y-22136000D03*
X33201000Y-21628000D03*
X31201000Y-21628000D03*
D10*
X17020000Y-26200000D03*
X14945000Y-26200000D03*
D16*
X10500000Y-20104000D03*
X12500000Y-20104000D03*
D22*
X20279000Y-15172500D03*
X20279000Y-13097500D03*
D23*
X18270000Y-14897000D03*
X14945000Y-14897000D03*
D24*
X31328000Y-19723000D03*
X31328000Y-17723000D03*
X23581000Y-19818000D03*
X23581000Y-17818000D03*
D10*
X20109000Y-34417000D03*
X18034000Y-34417000D03*
D25*
X29550000Y-13147000D03*
X29550000Y-14897000D03*
D26*
X38862000Y-17018000D03*
D27*
X38862000Y-19558000D03*
X38862000Y-22098000D03*
X38862000Y-24638000D03*
D24*
X25486000Y-19818000D03*
X25486000Y-17818000D03*
D28*
X25400000Y-35771000D03*
X25400000Y-37846000D03*
D26*
X7452000Y-17066000D03*
D27*
X7452000Y-19606000D03*
X7452000Y-22146000D03*
X7452000Y-24686000D03*
D10*
X16977000Y-22136000D03*
X14902000Y-22136000D03*
X16977000Y-19342000D03*
X14902000Y-19342000D03*
D25*
X24089000Y-13119000D03*
X24089000Y-14869000D03*
D22*
X16002000Y-48535500D03*
X16002000Y-46460500D03*
X22311000Y-15194000D03*
X22311000Y-13119000D03*
D29*
X22546000Y-31517000D03*
X22946000Y-31517000D03*
X23346000Y-31517000D03*
X23746000Y-31517000D03*
X24146000Y-31517000D03*
X24546000Y-31517000D03*
X24946000Y-31517000D03*
X25346000Y-31517000D03*
X25746000Y-31517000D03*
X26146000Y-31517000D03*
X26546000Y-31517000D03*
X26946000Y-31517000D03*
X27346000Y-31517000D03*
X27746000Y-31517000D03*
D30*
X28596000Y-30667000D03*
X28596000Y-30267000D03*
X28596000Y-29867000D03*
X28596000Y-29467000D03*
X28596000Y-29067000D03*
X28596000Y-28667000D03*
X28596000Y-28267000D03*
X28596000Y-27867000D03*
X28596000Y-27467000D03*
X28596000Y-27067000D03*
X28596000Y-26667000D03*
X28596000Y-26267000D03*
X28596000Y-25867000D03*
X28596000Y-25467000D03*
D29*
X27746000Y-24617000D03*
X27346000Y-24617000D03*
X26946000Y-24617000D03*
X26546000Y-24617000D03*
X26146000Y-24617000D03*
X25746000Y-24617000D03*
X25346000Y-24617000D03*
X24946000Y-24617000D03*
X24546000Y-24617000D03*
X24146000Y-24617000D03*
X23746000Y-24617000D03*
X23346000Y-24617000D03*
X22946000Y-24617000D03*
X22546000Y-24617000D03*
D30*
X21696000Y-25467000D03*
X21696000Y-25867000D03*
X21696000Y-26267000D03*
X21696000Y-26667000D03*
X21696000Y-27067000D03*
X21696000Y-27467000D03*
X21696000Y-27867000D03*
X21696000Y-28267000D03*
X21696000Y-28667000D03*
X21696000Y-29067000D03*
X21696000Y-29467000D03*
X21696000Y-29867000D03*
X21696000Y-30267000D03*
X21696000Y-30667000D03*
D31*
X25146000Y-28067000D03*
D28*
X6646000Y-34328000D03*
X6646000Y-36403000D03*
D32*
X35265000Y-19612000D03*
X35265000Y-21612000D03*
D24*
X27391000Y-19818000D03*
X27391000Y-17818000D03*
D25*
X32639000Y-47578000D03*
X32639000Y-49328000D03*
D33*
X14097000Y-48500000D03*
X14097000Y-46750000D03*
D34*
X21016000Y-52451000D03*
X26416000Y-52451000D03*
D15*
X32714000Y-51435000D03*
X34789000Y-51435000D03*
D22*
X29296000Y-19766000D03*
X29296000Y-17691000D03*
D15*
X18626000Y-49022000D03*
X20701000Y-49022000D03*
D14*
X27432000Y-39751000D03*
X25432000Y-39751000D03*
D25*
X27645000Y-13119000D03*
X27645000Y-14869000D03*
X25867000Y-13147000D03*
X25867000Y-14897000D03*
D35*
X28716000Y-42037000D03*
X26416000Y-42037000D03*
X24116000Y-42037000D03*
D36*
X26416000Y-48837000D03*
D19*
X31750000Y-58801000D03*
D20*
X26670000Y-58801000D03*
D25*
X14097000Y-50433000D03*
X14097000Y-52183000D03*
D28*
X32258000Y-36152000D03*
X32258000Y-38227000D03*
D32*
X27432000Y-35846000D03*
X27432000Y-37846000D03*
D28*
X32385000Y-43010000D03*
X32385000Y-45085000D03*
D21*
X13631000Y-36360000D03*
X13631000Y-44310000D03*
X9131000Y-44310000D03*
X9131000Y-36360000D03*
D24*
X16044000Y-36328000D03*
X16044000Y-34328000D03*
D17*
X8509000Y-60452000D03*
D18*
X8509000Y-56952000D03*
X8509000Y-53452000D03*
X8509000Y-49952000D03*
D17*
X40640000Y-58801000D03*
D18*
X37140000Y-58801000D03*
D25*
X34417000Y-46383000D03*
X34417000Y-48133000D03*
D15*
X32809000Y-26708000D03*
X34884000Y-26708000D03*
D10*
X44493000Y-36322000D03*
X42418000Y-36322000D03*
D37*
X28956000Y-4064000D03*
X26416000Y-4064000D03*
X23876000Y-4064000D03*
X21336000Y-4064000D03*
D38*
X15240000Y-57150000D03*
X24116000Y-40654000D03*
X24130000Y-44450000D03*
X24130000Y-46990000D03*
D39*
X39116000Y-42164000D03*
D38*
X17780000Y-57150000D03*
X14986000Y-18288000D03*
D39*
X42672000Y-13208000D03*
D38*
X19050000Y-32766000D03*
X16510000Y-60960000D03*
X15240000Y-60960000D03*
D39*
X44196000Y-40132000D03*
D38*
X25146000Y-27940000D03*
D39*
X42672000Y-19558000D03*
D38*
X24130000Y-38100000D03*
X22860000Y-40640000D03*
X22860000Y-45720000D03*
X24130000Y-39370000D03*
D39*
X11049000Y-12446000D03*
X9144000Y-46228000D03*
X21844000Y-11430000D03*
D38*
X22860000Y-41910000D03*
X21590000Y-46990000D03*
D39*
X19812000Y-41148000D03*
D38*
X24130000Y-43180000D03*
X17780000Y-60960000D03*
X20320000Y-46990000D03*
X13462000Y-28194000D03*
X14986000Y-25146000D03*
X17780000Y-58420000D03*
X22860000Y-44450000D03*
X13970000Y-60960000D03*
X13970000Y-59690000D03*
D39*
X16256000Y-41148000D03*
D38*
X10668000Y-24638000D03*
X13462000Y-26416000D03*
X13970000Y-58420000D03*
X22860000Y-43180000D03*
X17780000Y-59690000D03*
D39*
X11176000Y-37592000D03*
D38*
X16510000Y-57150000D03*
X22860000Y-38100000D03*
X13970000Y-57150000D03*
X22860000Y-39370000D03*
X22860000Y-46990000D03*
X37084000Y-26670000D03*
X24130000Y-45720000D03*
X17526000Y-32766000D03*
D39*
X11049000Y-8382000D03*
D38*
X21590000Y-45720000D03*
X34798000Y-42545000D03*
D39*
X42418000Y-24638000D03*
D38*
X34671000Y-39243000D03*
D39*
X11684000Y-29972000D03*
D38*
X8636000Y-34290000D03*
X16977000Y-23155000D03*
X35179000Y-18034000D03*
X22568000Y-20866000D03*
X28410000Y-20866000D03*
X23749000Y-35941000D03*
X20066000Y-35941000D03*
X14986000Y-12954000D03*
X21209000Y-20828000D03*
X31569000Y-27867000D03*
X22860000Y-34925000D03*
X17866000Y-19342000D03*
X17887500Y-27067500D03*
X31585000Y-26708000D03*
X25146000Y-32893000D03*
X37592000Y-36322000D03*
X32530899Y-23640899D03*
X9779000Y-31026000D03*
X17873556Y-28478444D03*
D39*
X43688000Y-43942000D03*
X35306000Y-10668000D03*
D40*
X30099000Y-48387000D02*
X31040000Y-49328000D01*
D41*
X32639000Y-49328000D02*
X32639000Y-51360000D01*
X37140000Y-56571000D02*
X37140000Y-58801000D01*
X32714000Y-52145000D02*
X37140000Y-56571000D01*
D40*
X30099000Y-36068000D02*
X30099000Y-48387000D01*
X31040000Y-49328000D02*
X32639000Y-49328000D01*
D41*
X32714000Y-51435000D02*
X32714000Y-52145000D01*
D40*
X27746000Y-33715000D02*
X30099000Y-36068000D01*
D41*
X32639000Y-51360000D02*
X32714000Y-51435000D01*
D40*
X27746000Y-31517000D02*
X27746000Y-33715000D01*
D41*
X42418000Y-37846000D02*
X42037000Y-38227000D01*
X34743000Y-38028000D02*
X34743000Y-36322000D01*
X42418000Y-36322000D02*
X42418000Y-37846000D01*
X20336500Y-13155000D02*
X20279000Y-13097500D01*
X28570000Y-13155000D02*
X28578000Y-13147000D01*
X29296000Y-17691000D02*
X28570000Y-16965000D01*
X28578000Y-13147000D02*
X29550000Y-13147000D01*
X28570000Y-16965000D02*
X28570000Y-13155000D01*
X25400000Y-39719000D02*
X25432000Y-39751000D01*
X24116000Y-40654000D02*
X24116000Y-40273000D01*
X6689000Y-36360000D02*
X6646000Y-36403000D01*
X14635000Y-17066000D02*
X7452000Y-17066000D01*
X24116000Y-42037000D02*
X24116000Y-40654000D01*
X28570000Y-13155000D02*
X20336500Y-13155000D01*
X25400000Y-37846000D02*
X25400000Y-39719000D01*
X42037000Y-38227000D02*
X34544000Y-38227000D01*
X42037000Y-40089000D02*
X42037000Y-38227000D01*
X34544000Y-38227000D02*
X34743000Y-38028000D01*
X24116000Y-40273000D02*
X24638000Y-39751000D01*
X9131000Y-36360000D02*
X6689000Y-36360000D01*
X14879000Y-17310000D02*
X14635000Y-17066000D01*
X24638000Y-39751000D02*
X25432000Y-39751000D01*
X32258000Y-38227000D02*
X34544000Y-38227000D01*
D40*
X23746000Y-32134000D02*
X21482000Y-34398000D01*
X23746000Y-31517000D02*
X23746000Y-32134000D01*
D41*
X14097000Y-49784000D02*
X14097000Y-48500000D01*
X14097000Y-50433000D02*
X14097000Y-49784000D01*
D40*
X21482000Y-34398000D02*
X21482000Y-43055500D01*
D41*
X16002000Y-48535500D02*
X14132500Y-48535500D01*
X13929000Y-49952000D02*
X14097000Y-49784000D01*
X8509000Y-49952000D02*
X13929000Y-49952000D01*
X14132500Y-48535500D02*
X14097000Y-48500000D01*
D40*
X21482000Y-43055500D02*
X16002000Y-48535500D01*
X21882000Y-43523000D02*
X18626000Y-46779000D01*
D41*
X14154000Y-52240000D02*
X14097000Y-52183000D01*
D40*
X21882000Y-34633000D02*
X21882000Y-43523000D01*
X24146000Y-32369000D02*
X21882000Y-34633000D01*
D41*
X14154000Y-53898000D02*
X14154000Y-53283000D01*
X8509000Y-53452000D02*
X13985000Y-53452000D01*
X14097000Y-52183000D02*
X14111000Y-52197000D01*
D40*
X24146000Y-31517000D02*
X24146000Y-32369000D01*
D41*
X13985000Y-53452000D02*
X14154000Y-53283000D01*
D40*
X18626000Y-46779000D02*
X18626000Y-49022000D01*
D41*
X18626000Y-50843000D02*
X18626000Y-49022000D01*
X14154000Y-53283000D02*
X14154000Y-52240000D01*
X17272000Y-52197000D02*
X18626000Y-50843000D01*
X14111000Y-52197000D02*
X17272000Y-52197000D01*
D40*
X21971000Y-32766000D02*
X20447000Y-32766000D01*
X26146000Y-33798000D02*
X25400000Y-34544000D01*
D41*
X6646000Y-32851000D02*
X6646000Y-34328000D01*
X6684000Y-34290000D02*
X6646000Y-34328000D01*
X25230000Y-35941000D02*
X25400000Y-35771000D01*
X31328000Y-19723000D02*
X29339000Y-19723000D01*
X38862000Y-29464000D02*
X38862000Y-24638000D01*
X16977000Y-22136000D02*
X16977000Y-23155000D01*
X33782000Y-30226000D02*
X38100000Y-30226000D01*
D40*
X22546000Y-32191000D02*
X21971000Y-32766000D01*
D41*
X9563000Y-32296000D02*
X7872000Y-32296000D01*
D40*
X29296000Y-20612000D02*
X29296000Y-19766000D01*
D41*
X38100000Y-30226000D02*
X38862000Y-29464000D01*
X20109000Y-34417000D02*
X20109000Y-35898000D01*
D40*
X21696000Y-25867000D02*
X20657000Y-25867000D01*
X28407000Y-20866000D02*
X28410000Y-20866000D01*
D41*
X14945000Y-12995000D02*
X14986000Y-12954000D01*
X16954000Y-15763000D02*
X16088000Y-14897000D01*
X31201000Y-19850000D02*
X31328000Y-19723000D01*
D40*
X19514000Y-27467000D02*
X19009000Y-26962000D01*
D41*
X8636000Y-34290000D02*
X6684000Y-34290000D01*
D40*
X26146000Y-23127000D02*
X28407000Y-20866000D01*
D41*
X35265000Y-19612000D02*
X35265000Y-18120000D01*
D40*
X26146000Y-31517000D02*
X26146000Y-33798000D01*
X17612000Y-24168000D02*
X16977000Y-24168000D01*
X25400000Y-34544000D02*
X25400000Y-35771000D01*
X19406000Y-27867000D02*
X18628000Y-27089000D01*
X22546000Y-15429000D02*
X22311000Y-15194000D01*
X28410000Y-20866000D02*
X29042000Y-20866000D01*
X18628000Y-27089000D02*
X18628000Y-25184000D01*
X29042000Y-20866000D02*
X29296000Y-20612000D01*
X21238000Y-27467000D02*
X19514000Y-27467000D01*
X18628000Y-25184000D02*
X17612000Y-24168000D01*
X21238000Y-27867000D02*
X19406000Y-27867000D01*
X31569000Y-27867000D02*
X31936000Y-27867000D01*
D41*
X16088000Y-14897000D02*
X14945000Y-14897000D01*
X29339000Y-19723000D02*
X29296000Y-19766000D01*
X7872000Y-32296000D02*
X7201000Y-32296000D01*
D40*
X20609000Y-23228000D02*
X19263000Y-21882000D01*
X17907000Y-18288000D02*
X16954000Y-17335000D01*
D41*
X31201000Y-21628000D02*
X31201000Y-19850000D01*
D40*
X20447000Y-32766000D02*
X20109000Y-33104000D01*
D41*
X19850000Y-17310000D02*
X16954000Y-17310000D01*
D40*
X19263000Y-21882000D02*
X19263000Y-18707000D01*
D41*
X16954000Y-17310000D02*
X16954000Y-15763000D01*
D40*
X28596000Y-27867000D02*
X31569000Y-27867000D01*
X20109000Y-33104000D02*
X20109000Y-34417000D01*
D41*
X32809000Y-28740000D02*
X32809000Y-29253000D01*
D40*
X22546000Y-31517000D02*
X22546000Y-32191000D01*
X22546000Y-24617000D02*
X22546000Y-15429000D01*
D41*
X10361000Y-34201000D02*
X10361000Y-33094000D01*
X10361000Y-33094000D02*
X9563000Y-32296000D01*
X23749000Y-35941000D02*
X25230000Y-35941000D01*
X16977000Y-23155000D02*
X16977000Y-24168000D01*
D40*
X31936000Y-27867000D02*
X32809000Y-28740000D01*
D41*
X32809000Y-29253000D02*
X33782000Y-30226000D01*
D40*
X20657000Y-25867000D02*
X20609000Y-25819000D01*
D41*
X20109000Y-35898000D02*
X20066000Y-35941000D01*
D40*
X19009000Y-26962000D02*
X19009000Y-24168000D01*
X17866000Y-17310000D02*
X16954000Y-17310000D01*
D41*
X21209000Y-18669000D02*
X19850000Y-17310000D01*
D40*
X26146000Y-24617000D02*
X26146000Y-23127000D01*
D41*
X21209000Y-20828000D02*
X21209000Y-18669000D01*
D40*
X20609000Y-25819000D02*
X20609000Y-23228000D01*
X19009000Y-24168000D02*
X16977000Y-22136000D01*
X19263000Y-18707000D02*
X18844000Y-18288000D01*
D41*
X7201000Y-32296000D02*
X6646000Y-32851000D01*
D40*
X18844000Y-18288000D02*
X17907000Y-18288000D01*
D41*
X35265000Y-18120000D02*
X35179000Y-18034000D01*
X14945000Y-14897000D02*
X14945000Y-12995000D01*
D40*
X16954000Y-17335000D02*
X16954000Y-17310000D01*
D41*
X32385000Y-42291000D02*
X33274000Y-41402000D01*
X35560000Y-41402000D02*
X36378000Y-42220000D01*
D40*
X30945000Y-43010000D02*
X32385000Y-43010000D01*
X29143000Y-30667000D02*
X30499000Y-32023000D01*
D41*
X36378000Y-42220000D02*
X36378000Y-48189000D01*
X32385000Y-43010000D02*
X32385000Y-42291000D01*
X34473000Y-48189000D02*
X34417000Y-48133000D01*
D40*
X30499000Y-42564000D02*
X30945000Y-43010000D01*
D41*
X39116000Y-48189000D02*
X36378000Y-48189000D01*
D40*
X30499000Y-32023000D02*
X30499000Y-42564000D01*
D41*
X33274000Y-41402000D02*
X35560000Y-41402000D01*
X36378000Y-48189000D02*
X34473000Y-48189000D01*
D40*
X28596000Y-30667000D02*
X29143000Y-30667000D01*
D41*
X32258000Y-33147000D02*
X32258000Y-36152000D01*
D40*
X32258000Y-30988000D02*
X32258000Y-31369000D01*
D41*
X34426000Y-32512000D02*
X32893000Y-32512000D01*
D40*
X28596000Y-28667000D02*
X29937000Y-28667000D01*
D41*
X32893000Y-32512000D02*
X32258000Y-33147000D01*
D40*
X32258000Y-31369000D02*
X33401000Y-32512000D01*
X29937000Y-28667000D02*
X32258000Y-30988000D01*
X33401000Y-32512000D02*
X34426000Y-32512000D01*
D41*
X44196000Y-32512000D02*
X44704000Y-33020000D01*
X44323000Y-32512000D02*
X44831000Y-32004000D01*
X44831000Y-32004000D02*
X44831000Y-29083000D01*
X44831000Y-29083000D02*
X44577000Y-28829000D01*
X44704000Y-36111000D02*
X44493000Y-36322000D01*
X44704000Y-33020000D02*
X44704000Y-36111000D01*
X42926000Y-32512000D02*
X44196000Y-32512000D01*
X42926000Y-32512000D02*
X44323000Y-32512000D01*
D40*
X18793000Y-22174000D02*
X18793000Y-20142000D01*
X31585000Y-26708000D02*
X32809000Y-26708000D01*
X17993000Y-19342000D02*
X17866000Y-19342000D01*
X18793000Y-20142000D02*
X17993000Y-19342000D01*
D41*
X24892000Y-32893000D02*
X22860000Y-34925000D01*
D40*
X28596000Y-27467000D02*
X30826000Y-27467000D01*
X30826000Y-27467000D02*
X31585000Y-26708000D01*
X21238000Y-28267000D02*
X19087000Y-28267000D01*
X20209000Y-26143000D02*
X20209000Y-23590000D01*
X20333000Y-26267000D02*
X20209000Y-26143000D01*
X17866000Y-19342000D02*
X16977000Y-19342000D01*
X21696000Y-26267000D02*
X20333000Y-26267000D01*
X19087000Y-28267000D02*
X17887500Y-27067500D01*
D41*
X25146000Y-32893000D02*
X24892000Y-32893000D01*
D40*
X20209000Y-23590000D02*
X18793000Y-22174000D01*
X17887500Y-27067500D02*
X17020000Y-26200000D01*
X29867000Y-26267000D02*
X32493101Y-23640899D01*
D41*
X42037000Y-43815000D02*
X41580000Y-44272000D01*
X39243000Y-36322000D02*
X37592000Y-36322000D01*
X41580000Y-44272000D02*
X39243000Y-44272000D01*
X42037000Y-42164000D02*
X42037000Y-43815000D01*
D40*
X32493101Y-23640899D02*
X32530899Y-23640899D01*
X28596000Y-26267000D02*
X29867000Y-26267000D01*
X20279000Y-16469000D02*
X20279000Y-15172500D01*
X21971000Y-22225000D02*
X21971000Y-18161000D01*
D41*
X20003500Y-14897000D02*
X20279000Y-15172500D01*
D40*
X21041000Y-25311000D02*
X21041000Y-23155000D01*
X21696000Y-25467000D02*
X21197000Y-25467000D01*
X21971000Y-18161000D02*
X20279000Y-16469000D01*
X21197000Y-25467000D02*
X21041000Y-25311000D01*
X21041000Y-23155000D02*
X21971000Y-22225000D01*
D41*
X18270000Y-14897000D02*
X20003500Y-14897000D01*
D42*
X21016000Y-52451000D02*
X21016000Y-58735000D01*
X21082000Y-58801000D02*
X26670000Y-58801000D01*
X21016000Y-58735000D02*
X21082000Y-58801000D01*
X29591000Y-52451000D02*
X26416000Y-52451000D01*
X26416000Y-48837000D02*
X26416000Y-52451000D01*
X31750000Y-58801000D02*
X31750000Y-54610000D01*
X26416000Y-42037000D02*
X26416000Y-48837000D01*
X31750000Y-54610000D02*
X29591000Y-52451000D01*
D41*
X27645000Y-17564000D02*
X27391000Y-17818000D01*
X27645000Y-14869000D02*
X27645000Y-17564000D01*
X25867000Y-17437000D02*
X25486000Y-17818000D01*
X25867000Y-14897000D02*
X25867000Y-17437000D01*
X24089000Y-14869000D02*
X24089000Y-17310000D01*
X24089000Y-17310000D02*
X23581000Y-17818000D01*
X31328000Y-15659000D02*
X30566000Y-14897000D01*
X30566000Y-14897000D02*
X29550000Y-14897000D01*
X31328000Y-17691000D02*
X31328000Y-15659000D01*
X28716000Y-40146000D02*
X28716000Y-42037000D01*
X28321000Y-39751000D02*
X28716000Y-40146000D01*
X27432000Y-39751000D02*
X28321000Y-39751000D01*
X27432000Y-37846000D02*
X27432000Y-39751000D01*
X12361000Y-34201000D02*
X12361000Y-33105000D01*
X13170000Y-32296000D02*
X15072000Y-32296000D01*
D40*
X17971000Y-30667000D02*
X16342000Y-32296000D01*
D41*
X16044000Y-34328000D02*
X16091000Y-34328000D01*
X15072000Y-32296000D02*
X16218000Y-32296000D01*
D40*
X21238000Y-30667000D02*
X17971000Y-30667000D01*
X16342000Y-32296000D02*
X16218000Y-32296000D01*
D41*
X16091000Y-34328000D02*
X16218000Y-34201000D01*
X12361000Y-33105000D02*
X13170000Y-32296000D01*
X16218000Y-34201000D02*
X16218000Y-32296000D01*
D40*
X21238000Y-30267000D02*
X17355000Y-30267000D01*
X16596000Y-31026000D02*
X15072000Y-31026000D01*
X17355000Y-30267000D02*
X16596000Y-31026000D01*
X21238000Y-29867000D02*
X15183000Y-29867000D01*
X15183000Y-29867000D02*
X15072000Y-29756000D01*
X17069000Y-29086000D02*
X11735000Y-29086000D01*
X11735000Y-29086000D02*
X11135000Y-28486000D01*
X11135000Y-28486000D02*
X7872000Y-28486000D01*
X21238000Y-29467000D02*
X17450000Y-29467000D01*
X17450000Y-29467000D02*
X17069000Y-29086000D01*
X17685000Y-29067000D02*
X15961000Y-27343000D01*
X6182000Y-29375000D02*
X6563000Y-29756000D01*
X15961000Y-27343000D02*
X6690000Y-27343000D01*
X21238000Y-29067000D02*
X17685000Y-29067000D01*
X6182000Y-27851000D02*
X6182000Y-29375000D01*
X6690000Y-27343000D02*
X6182000Y-27851000D01*
X6563000Y-29756000D02*
X7872000Y-29756000D01*
D41*
X7872000Y-31026000D02*
X9779000Y-31026000D01*
D40*
X18062112Y-28667000D02*
X17873556Y-28478444D01*
X21238000Y-28667000D02*
X18062112Y-28667000D01*
X17993000Y-22586314D02*
X17993000Y-21374000D01*
X13040000Y-22136000D02*
X12500000Y-22136000D01*
X14183000Y-20993000D02*
X13040000Y-22136000D01*
X17612000Y-20993000D02*
X14183000Y-20993000D01*
X17993000Y-21374000D02*
X17612000Y-20993000D01*
X21238000Y-27067000D02*
X19749000Y-27067000D01*
X19749000Y-27067000D02*
X19409000Y-26727000D01*
X19409000Y-26727000D02*
X19409000Y-24002314D01*
X19409000Y-24002314D02*
X17993000Y-22586314D01*
X18393000Y-21208314D02*
X17777685Y-20593000D01*
X19984000Y-26667000D02*
X19809000Y-26492000D01*
X12989000Y-20593000D02*
X12500000Y-20104000D01*
X19809000Y-26492000D02*
X19809000Y-23825000D01*
X17777685Y-20593000D02*
X12989000Y-20593000D01*
X21238000Y-26667000D02*
X19984000Y-26667000D01*
X19809000Y-23825000D02*
X18393000Y-22409000D01*
X18393000Y-22409000D02*
X18393000Y-21208314D01*
X23346000Y-24617000D02*
X23346000Y-20053000D01*
X23346000Y-20053000D02*
X23581000Y-19818000D01*
X24343000Y-20993000D02*
X25232000Y-20993000D01*
X23746000Y-21590000D02*
X24343000Y-20993000D01*
X25232000Y-20993000D02*
X25486000Y-20739000D01*
X23746000Y-24617000D02*
X23746000Y-21590000D01*
X25486000Y-20739000D02*
X25486000Y-19818000D01*
X27391000Y-20993000D02*
X27391000Y-19818000D01*
X24546000Y-22060000D02*
X25105000Y-21501000D01*
X26883000Y-21501000D02*
X27391000Y-20993000D01*
X24546000Y-24617000D02*
X24546000Y-22060000D01*
X25105000Y-21501000D02*
X26883000Y-21501000D01*
D41*
X24765000Y-11557000D02*
X23876000Y-10668000D01*
X23876000Y-10668000D02*
X23876000Y-4064000D01*
X33201000Y-13643000D02*
X31115000Y-11557000D01*
D40*
X28596000Y-25467000D02*
X29362000Y-25467000D01*
D41*
X31115000Y-11557000D02*
X24765000Y-11557000D01*
X33201000Y-21628000D02*
X33201000Y-13643000D01*
D40*
X29362000Y-25467000D02*
X33201000Y-21628000D01*
X35265000Y-22520000D02*
X35265000Y-21612000D01*
D41*
X33901000Y-13353050D02*
X31342950Y-10795000D01*
X31342950Y-10795000D02*
X26924000Y-10795000D01*
X26924000Y-10795000D02*
X26416000Y-10287000D01*
X35265000Y-21612000D02*
X35201000Y-21612000D01*
X33901000Y-20312000D02*
X33901000Y-13353050D01*
D40*
X28596000Y-25867000D02*
X29527686Y-25867000D01*
X32407686Y-22987000D02*
X34798000Y-22987000D01*
D41*
X26416000Y-10287000D02*
X26416000Y-4064000D01*
X35201000Y-21612000D02*
X33901000Y-20312000D01*
D40*
X29527686Y-25867000D02*
X32407686Y-22987000D01*
X34798000Y-22987000D02*
X35265000Y-22520000D01*
X35814000Y-24257000D02*
X36576000Y-23495000D01*
X36576000Y-23495000D02*
X36576000Y-20193000D01*
X36576000Y-20193000D02*
X37211000Y-19558000D01*
X32512000Y-24257000D02*
X35814000Y-24257000D01*
X28596000Y-26667000D02*
X30102000Y-26667000D01*
X30102000Y-26667000D02*
X32512000Y-24257000D01*
X37211000Y-19558000D02*
X38862000Y-19558000D01*
X37084000Y-22479000D02*
X37465000Y-22098000D01*
X37465000Y-22098000D02*
X38862000Y-22098000D01*
X32639000Y-24765000D02*
X35941000Y-24765000D01*
X28596000Y-27067000D02*
X30337000Y-27067000D01*
X37084000Y-23622000D02*
X37084000Y-22479000D01*
X30337000Y-27067000D02*
X32639000Y-24765000D01*
X35941000Y-24765000D02*
X37084000Y-23622000D01*
X28596000Y-28267000D02*
X30299000Y-28267000D01*
X33020000Y-30988000D02*
X39243000Y-30988000D01*
X30299000Y-28267000D02*
X33020000Y-30988000D01*
X39243000Y-30988000D02*
X41402000Y-28829000D01*
X41402000Y-28829000D02*
X42577000Y-28829000D01*
X21082000Y-34220686D02*
X21082000Y-36830000D01*
X4953000Y-38227000D02*
X4953000Y-14351000D01*
X4953000Y-14351000D02*
X9144000Y-10160000D01*
X9144000Y-10160000D02*
X20574000Y-10160000D01*
X21336000Y-9398000D02*
X21336000Y-4064000D01*
X19050000Y-38862000D02*
X5588000Y-38862000D01*
X5588000Y-38862000D02*
X4953000Y-38227000D01*
X22946000Y-31517000D02*
X22946000Y-32356686D01*
X22946000Y-32356686D02*
X21082000Y-34220686D01*
X21082000Y-36830000D02*
X19050000Y-38862000D01*
X20574000Y-10160000D02*
X21336000Y-9398000D01*
X27346000Y-31517000D02*
X27346000Y-35760000D01*
X27346000Y-35760000D02*
X27432000Y-35846000D01*
D41*
X16044000Y-36328000D02*
X13663000Y-36328000D01*
X13663000Y-36328000D02*
X13631000Y-36360000D01*
X7452000Y-19606000D02*
X10002000Y-19606000D01*
X10002000Y-19606000D02*
X10500000Y-20104000D01*
X10490000Y-22146000D02*
X10500000Y-22136000D01*
X7452000Y-22146000D02*
X10490000Y-22146000D01*
X29972000Y-9906000D02*
X34544000Y-9906000D01*
D40*
X37465000Y-42291000D02*
X37465000Y-45212000D01*
X28596000Y-29867000D02*
X29740000Y-29867000D01*
X30899000Y-39535000D02*
X32131000Y-40767000D01*
D41*
X28956000Y-4064000D02*
X28956000Y-8890000D01*
X28956000Y-8890000D02*
X29972000Y-9906000D01*
D40*
X32131000Y-40767000D02*
X35941000Y-40767000D01*
X37973000Y-45720000D02*
X41910000Y-45720000D01*
X37465000Y-45212000D02*
X37973000Y-45720000D01*
X41910000Y-45720000D02*
X43688000Y-43942000D01*
D41*
X34544000Y-9906000D02*
X35306000Y-10668000D01*
D40*
X29740000Y-29867000D02*
X30899000Y-31026000D01*
X30899000Y-31026000D02*
X30899000Y-39535000D01*
X35941000Y-40767000D02*
X37465000Y-42291000D01*
G04 #@! TA.AperFunction,Conductor*
G36*
X41538158Y-29657557D02*
G01*
X41594994Y-29700104D01*
X41601267Y-29709305D01*
X41628522Y-29753348D01*
X41753697Y-29878305D01*
X41759927Y-29882145D01*
X41759928Y-29882146D01*
X41897090Y-29966694D01*
X41904262Y-29971115D01*
X41984005Y-29997564D01*
X42065611Y-30024632D01*
X42065613Y-30024632D01*
X42072139Y-30026797D01*
X42078975Y-30027497D01*
X42078978Y-30027498D01*
X42122031Y-30031909D01*
X42176600Y-30037500D01*
X42977400Y-30037500D01*
X42980646Y-30037163D01*
X42980650Y-30037163D01*
X43076308Y-30027238D01*
X43076312Y-30027237D01*
X43083166Y-30026526D01*
X43089702Y-30024345D01*
X43089704Y-30024345D01*
X43237734Y-29974958D01*
X43250946Y-29970550D01*
X43401348Y-29877478D01*
X43487784Y-29790891D01*
X43550066Y-29756812D01*
X43620886Y-29761815D01*
X43665975Y-29790736D01*
X43672416Y-29797166D01*
X43753697Y-29878305D01*
X43759927Y-29882145D01*
X43759928Y-29882146D01*
X43897090Y-29966694D01*
X43904262Y-29971115D01*
X43970200Y-29992985D01*
X43986168Y-29998282D01*
X44044527Y-30038713D01*
X44071764Y-30104277D01*
X44072500Y-30117875D01*
X44072500Y-30877500D01*
X44052498Y-30945621D01*
X43998842Y-30992114D01*
X43946500Y-31003500D01*
X40627866Y-31003500D01*
X40565684Y-31010255D01*
X40429295Y-31061385D01*
X40312739Y-31148739D01*
X40225385Y-31265295D01*
X40174255Y-31401684D01*
X40167500Y-31463866D01*
X40167500Y-33560134D01*
X40174255Y-33622316D01*
X40225385Y-33758705D01*
X40312739Y-33875261D01*
X40429295Y-33962615D01*
X40565684Y-34013745D01*
X40627866Y-34020500D01*
X43819500Y-34020500D01*
X43887621Y-34040502D01*
X43934114Y-34094158D01*
X43945500Y-34146500D01*
X43945500Y-35026644D01*
X43925498Y-35094765D01*
X43871842Y-35141258D01*
X43859377Y-35146167D01*
X43831554Y-35155450D01*
X43825330Y-35159301D01*
X43825329Y-35159302D01*
X43735008Y-35215195D01*
X43681152Y-35248522D01*
X43556195Y-35373697D01*
X43552355Y-35379927D01*
X43552354Y-35379928D01*
X43482226Y-35493697D01*
X43463385Y-35524262D01*
X43446056Y-35576507D01*
X43414148Y-35672709D01*
X43407703Y-35692139D01*
X43407003Y-35698975D01*
X43407002Y-35698978D01*
X43404019Y-35728091D01*
X43397000Y-35796600D01*
X43397000Y-36847400D01*
X43397337Y-36850646D01*
X43397337Y-36850650D01*
X43406112Y-36935216D01*
X43407974Y-36953166D01*
X43410155Y-36959702D01*
X43410155Y-36959704D01*
X43423417Y-36999454D01*
X43463950Y-37120946D01*
X43557022Y-37271348D01*
X43682197Y-37396305D01*
X43688427Y-37400145D01*
X43688428Y-37400146D01*
X43825590Y-37484694D01*
X43832762Y-37489115D01*
X43876560Y-37503642D01*
X43994111Y-37542632D01*
X43994113Y-37542632D01*
X44000639Y-37544797D01*
X44007475Y-37545497D01*
X44007478Y-37545498D01*
X44050531Y-37549909D01*
X44105100Y-37555500D01*
X44880900Y-37555500D01*
X44884146Y-37555163D01*
X44884150Y-37555163D01*
X44979808Y-37545238D01*
X44979812Y-37545237D01*
X44986666Y-37544526D01*
X44993202Y-37542345D01*
X44993204Y-37542345D01*
X45125339Y-37498261D01*
X45154446Y-37488550D01*
X45304848Y-37395478D01*
X45429805Y-37270303D01*
X45440647Y-37252715D01*
X45486240Y-37178749D01*
X45539012Y-37131256D01*
X45609084Y-37119832D01*
X45674208Y-37148106D01*
X45713707Y-37207100D01*
X45719500Y-37244865D01*
X45719500Y-68962000D01*
X45699498Y-69030121D01*
X45645842Y-69076614D01*
X45593500Y-69088000D01*
X4698500Y-69088000D01*
X4630379Y-69067998D01*
X4583886Y-69014342D01*
X4572500Y-68962000D01*
X4572500Y-66072000D01*
X22632540Y-66072000D01*
X22652359Y-66387020D01*
X22711505Y-66697072D01*
X22809044Y-66997266D01*
X22810731Y-67000852D01*
X22810733Y-67000856D01*
X22941750Y-67279283D01*
X22941754Y-67279290D01*
X22943438Y-67282869D01*
X23112568Y-67549375D01*
X23313767Y-67792582D01*
X23543860Y-68008654D01*
X23799221Y-68194184D01*
X24075821Y-68346247D01*
X24079490Y-68347700D01*
X24079495Y-68347702D01*
X24365628Y-68460990D01*
X24369298Y-68462443D01*
X24675025Y-68540940D01*
X24988179Y-68580500D01*
X25303821Y-68580500D01*
X25616975Y-68540940D01*
X25922702Y-68462443D01*
X25926372Y-68460990D01*
X26212505Y-68347702D01*
X26212510Y-68347700D01*
X26216179Y-68346247D01*
X26492779Y-68194184D01*
X26748140Y-68008654D01*
X26978233Y-67792582D01*
X27179432Y-67549375D01*
X27348562Y-67282869D01*
X27350246Y-67279290D01*
X27350250Y-67279283D01*
X27481267Y-67000856D01*
X27481269Y-67000852D01*
X27482956Y-66997266D01*
X27580495Y-66697072D01*
X27639641Y-66387020D01*
X27659460Y-66072000D01*
X27639641Y-65756980D01*
X27580495Y-65446928D01*
X27482956Y-65146734D01*
X27476667Y-65133369D01*
X27350250Y-64864717D01*
X27350246Y-64864710D01*
X27348562Y-64861131D01*
X27179432Y-64594625D01*
X26978233Y-64351418D01*
X26748140Y-64135346D01*
X26492779Y-63949816D01*
X26216179Y-63797753D01*
X26212510Y-63796300D01*
X26212505Y-63796298D01*
X25926372Y-63683010D01*
X25926371Y-63683010D01*
X25922702Y-63681557D01*
X25616975Y-63603060D01*
X25303821Y-63563500D01*
X24988179Y-63563500D01*
X24675025Y-63603060D01*
X24369298Y-63681557D01*
X24365629Y-63683010D01*
X24365628Y-63683010D01*
X24079495Y-63796298D01*
X24079490Y-63796300D01*
X24075821Y-63797753D01*
X23799221Y-63949816D01*
X23543860Y-64135346D01*
X23313767Y-64351418D01*
X23112568Y-64594625D01*
X22943438Y-64861131D01*
X22941754Y-64864710D01*
X22941750Y-64864717D01*
X22815333Y-65133369D01*
X22809044Y-65146734D01*
X22711505Y-65446928D01*
X22652359Y-65756980D01*
X22634833Y-66035559D01*
X22632540Y-66072000D01*
X4572500Y-66072000D01*
X4572500Y-45133134D01*
X12472500Y-45133134D01*
X12479255Y-45195316D01*
X12530385Y-45331705D01*
X12617739Y-45448261D01*
X12734295Y-45535615D01*
X12870684Y-45586745D01*
X12932866Y-45593500D01*
X14329134Y-45593500D01*
X14391316Y-45586745D01*
X14527705Y-45535615D01*
X14644261Y-45448261D01*
X14731615Y-45331705D01*
X14782745Y-45195316D01*
X14789500Y-45133134D01*
X14789500Y-43486866D01*
X14782745Y-43424684D01*
X14731615Y-43288295D01*
X14644261Y-43171739D01*
X14527705Y-43084385D01*
X14391316Y-43033255D01*
X14329134Y-43026500D01*
X12932866Y-43026500D01*
X12870684Y-43033255D01*
X12734295Y-43084385D01*
X12617739Y-43171739D01*
X12530385Y-43288295D01*
X12479255Y-43424684D01*
X12472500Y-43486866D01*
X12472500Y-45133134D01*
X4572500Y-45133134D01*
X4572500Y-39011239D01*
X4592502Y-38943118D01*
X4646158Y-38896625D01*
X4716432Y-38886521D01*
X4781012Y-38916015D01*
X4787595Y-38922144D01*
X5123685Y-39258234D01*
X5134552Y-39270625D01*
X5154013Y-39295987D01*
X5160563Y-39301013D01*
X5185921Y-39320471D01*
X5185937Y-39320485D01*
X5235305Y-39358366D01*
X5281124Y-39393524D01*
X5429149Y-39454838D01*
X5588000Y-39475751D01*
X5619699Y-39471578D01*
X5636144Y-39470500D01*
X19001864Y-39470500D01*
X19018307Y-39471578D01*
X19050000Y-39475750D01*
X19058189Y-39474672D01*
X19089874Y-39470501D01*
X19089884Y-39470500D01*
X19089885Y-39470500D01*
X19189457Y-39457391D01*
X19200664Y-39455916D01*
X19200666Y-39455915D01*
X19208851Y-39454838D01*
X19356876Y-39393524D01*
X19452062Y-39320485D01*
X19452069Y-39320480D01*
X19452075Y-39320474D01*
X19477434Y-39301015D01*
X19483987Y-39295987D01*
X19493990Y-39282951D01*
X19503452Y-39270621D01*
X19514319Y-39258230D01*
X20065500Y-38707049D01*
X20658405Y-38114143D01*
X20720717Y-38080118D01*
X20791532Y-38085182D01*
X20848368Y-38127729D01*
X20873179Y-38194249D01*
X20873500Y-38203238D01*
X20873500Y-42751261D01*
X20853498Y-42819382D01*
X20836595Y-42840356D01*
X16274356Y-47402595D01*
X16212044Y-47436621D01*
X16185261Y-47439500D01*
X15476600Y-47439500D01*
X15473354Y-47439837D01*
X15473350Y-47439837D01*
X15377692Y-47449762D01*
X15377688Y-47449763D01*
X15370834Y-47450474D01*
X15364298Y-47452655D01*
X15364296Y-47452655D01*
X15232194Y-47496728D01*
X15203054Y-47506450D01*
X15052652Y-47599522D01*
X15047479Y-47604704D01*
X15003791Y-47648468D01*
X14941508Y-47682547D01*
X14870688Y-47677544D01*
X14825601Y-47648624D01*
X14805184Y-47628243D01*
X14800003Y-47623071D01*
X14777549Y-47609230D01*
X14658150Y-47535631D01*
X14658148Y-47535630D01*
X14651920Y-47531791D01*
X14486809Y-47477026D01*
X14479973Y-47476326D01*
X14479970Y-47476325D01*
X14428474Y-47471049D01*
X14384072Y-47466500D01*
X13809928Y-47466500D01*
X13806682Y-47466837D01*
X13806678Y-47466837D01*
X13712765Y-47476581D01*
X13712761Y-47476582D01*
X13705907Y-47477293D01*
X13699371Y-47479474D01*
X13699369Y-47479474D01*
X13618513Y-47506450D01*
X13540893Y-47532346D01*
X13392969Y-47623884D01*
X13387796Y-47629066D01*
X13275242Y-47741816D01*
X13275238Y-47741821D01*
X13270071Y-47746997D01*
X13266231Y-47753227D01*
X13266230Y-47753228D01*
X13200473Y-47859906D01*
X13178791Y-47895080D01*
X13124026Y-48060191D01*
X13123326Y-48067027D01*
X13123325Y-48067030D01*
X13120533Y-48094285D01*
X13113500Y-48162928D01*
X13113500Y-48837072D01*
X13124293Y-48941093D01*
X13126474Y-48947629D01*
X13126474Y-48947631D01*
X13153162Y-49027624D01*
X13155746Y-49098573D01*
X13119563Y-49159657D01*
X13056098Y-49191482D01*
X13033638Y-49193500D01*
X10116554Y-49193500D01*
X10048433Y-49173498D01*
X10007161Y-49130023D01*
X9988114Y-49096698D01*
X9929383Y-48993940D01*
X9772171Y-48794517D01*
X9653194Y-48682595D01*
X9590610Y-48623722D01*
X9590608Y-48623720D01*
X9587209Y-48620523D01*
X9530565Y-48581228D01*
X9382393Y-48478437D01*
X9382390Y-48478435D01*
X9378561Y-48475779D01*
X9374384Y-48473719D01*
X9374377Y-48473715D01*
X9154996Y-48365528D01*
X9154992Y-48365527D01*
X9150810Y-48363464D01*
X8908960Y-48286047D01*
X8882870Y-48281798D01*
X8662935Y-48245980D01*
X8662934Y-48245980D01*
X8658323Y-48245229D01*
X8531365Y-48243567D01*
X8409083Y-48241966D01*
X8409080Y-48241966D01*
X8404406Y-48241905D01*
X8152787Y-48276149D01*
X7908993Y-48347208D01*
X7904740Y-48349168D01*
X7904739Y-48349169D01*
X7881698Y-48359791D01*
X7678380Y-48453522D01*
X7674471Y-48456085D01*
X7469928Y-48590189D01*
X7469923Y-48590193D01*
X7466015Y-48592755D01*
X7276562Y-48761848D01*
X7114183Y-48957087D01*
X6982447Y-49174182D01*
X6980638Y-49178496D01*
X6980637Y-49178498D01*
X6908099Y-49351483D01*
X6884246Y-49408365D01*
X6821738Y-49654490D01*
X6796296Y-49907151D01*
X6796520Y-49911817D01*
X6796520Y-49911822D01*
X6799339Y-49970500D01*
X6808480Y-50160798D01*
X6829478Y-50266364D01*
X6849271Y-50365866D01*
X6858021Y-50409857D01*
X6859600Y-50414255D01*
X6859602Y-50414262D01*
X6906452Y-50544750D01*
X6943831Y-50648858D01*
X6946048Y-50652984D01*
X7061169Y-50867235D01*
X7064025Y-50872551D01*
X7066820Y-50876294D01*
X7066822Y-50876297D01*
X7213171Y-51072282D01*
X7213176Y-51072288D01*
X7215963Y-51076020D01*
X7219272Y-51079300D01*
X7219277Y-51079306D01*
X7390932Y-51249469D01*
X7396307Y-51254797D01*
X7400069Y-51257555D01*
X7400072Y-51257558D01*
X7590339Y-51397067D01*
X7601094Y-51404953D01*
X7605229Y-51407129D01*
X7605233Y-51407131D01*
X7664856Y-51438500D01*
X7825827Y-51523191D01*
X7997781Y-51583240D01*
X8055497Y-51624581D01*
X8081701Y-51690565D01*
X8068072Y-51760241D01*
X8018936Y-51811487D01*
X7991497Y-51823160D01*
X7908993Y-51847208D01*
X7678380Y-51953522D01*
X7647581Y-51973715D01*
X7469928Y-52090189D01*
X7469923Y-52090193D01*
X7466015Y-52092755D01*
X7393380Y-52157584D01*
X7307824Y-52233946D01*
X7276562Y-52261848D01*
X7114183Y-52457087D01*
X6982447Y-52674182D01*
X6980638Y-52678496D01*
X6980637Y-52678498D01*
X6890435Y-52893607D01*
X6884246Y-52908365D01*
X6883095Y-52912897D01*
X6883094Y-52912900D01*
X6872170Y-52955915D01*
X6821738Y-53154490D01*
X6796296Y-53407151D01*
X6808480Y-53660798D01*
X6830740Y-53772708D01*
X6851142Y-53875272D01*
X6858021Y-53909857D01*
X6859600Y-53914255D01*
X6859602Y-53914262D01*
X6929700Y-54109500D01*
X6943831Y-54148858D01*
X6946048Y-54152984D01*
X7037260Y-54322738D01*
X7064025Y-54372551D01*
X7066820Y-54376294D01*
X7066822Y-54376297D01*
X7213171Y-54572282D01*
X7213176Y-54572288D01*
X7215963Y-54576020D01*
X7219272Y-54579300D01*
X7219277Y-54579306D01*
X7360961Y-54719758D01*
X7396307Y-54754797D01*
X7400069Y-54757555D01*
X7400072Y-54757558D01*
X7568661Y-54881172D01*
X7601094Y-54904953D01*
X7605229Y-54907129D01*
X7605233Y-54907131D01*
X7723289Y-54969243D01*
X7825827Y-55023191D01*
X7997781Y-55083240D01*
X8055497Y-55124581D01*
X8081701Y-55190565D01*
X8068072Y-55260241D01*
X8018936Y-55311487D01*
X7991497Y-55323160D01*
X7908993Y-55347208D01*
X7678380Y-55453522D01*
X7674471Y-55456085D01*
X7469928Y-55590189D01*
X7469923Y-55590193D01*
X7466015Y-55592755D01*
X7276562Y-55761848D01*
X7114183Y-55957087D01*
X6982447Y-56174182D01*
X6980638Y-56178496D01*
X6980637Y-56178498D01*
X6889717Y-56395319D01*
X6884246Y-56408365D01*
X6821738Y-56654490D01*
X6796296Y-56907151D01*
X6796520Y-56911817D01*
X6796520Y-56911822D01*
X6797765Y-56937739D01*
X6808480Y-57160798D01*
X6830699Y-57272498D01*
X6841627Y-57327437D01*
X6858021Y-57409857D01*
X6859600Y-57414255D01*
X6859602Y-57414262D01*
X6920232Y-57583129D01*
X6943831Y-57648858D01*
X6946048Y-57652984D01*
X7048115Y-57842940D01*
X7064025Y-57872551D01*
X7066820Y-57876294D01*
X7066822Y-57876297D01*
X7213171Y-58072282D01*
X7213176Y-58072288D01*
X7215963Y-58076020D01*
X7219272Y-58079300D01*
X7219277Y-58079306D01*
X7317859Y-58177031D01*
X7396307Y-58254797D01*
X7400069Y-58257555D01*
X7400072Y-58257558D01*
X7458068Y-58300082D01*
X7601094Y-58404953D01*
X7605229Y-58407129D01*
X7605233Y-58407131D01*
X7723289Y-58469243D01*
X7825827Y-58523191D01*
X8065568Y-58606912D01*
X8315050Y-58654278D01*
X8435532Y-58659011D01*
X8564125Y-58664064D01*
X8564130Y-58664064D01*
X8568793Y-58664247D01*
X8667774Y-58653407D01*
X8816569Y-58637112D01*
X8816575Y-58637111D01*
X8821222Y-58636602D01*
X8930680Y-58607784D01*
X9062273Y-58573138D01*
X9066793Y-58571948D01*
X9215293Y-58508148D01*
X9295807Y-58473557D01*
X9295810Y-58473555D01*
X9300110Y-58471708D01*
X9304090Y-58469245D01*
X9304094Y-58469243D01*
X9512064Y-58340547D01*
X9512066Y-58340545D01*
X9516047Y-58338082D01*
X9616491Y-58253050D01*
X9706289Y-58177031D01*
X9706291Y-58177029D01*
X9709862Y-58174006D01*
X9877295Y-57983084D01*
X10014669Y-57769512D01*
X10118967Y-57537980D01*
X10187896Y-57293575D01*
X10200862Y-57191657D01*
X10219545Y-57044798D01*
X10219545Y-57044792D01*
X10219943Y-57041667D01*
X10222291Y-56952000D01*
X10214583Y-56848276D01*
X10203818Y-56703411D01*
X10203817Y-56703407D01*
X10203472Y-56698759D01*
X10180594Y-56597651D01*
X10148459Y-56455639D01*
X10147428Y-56451082D01*
X10130917Y-56408624D01*
X10057084Y-56218762D01*
X10057083Y-56218760D01*
X10055391Y-56214409D01*
X10034866Y-56178498D01*
X9931702Y-55997997D01*
X9931700Y-55997995D01*
X9929383Y-55993940D01*
X9772171Y-55794517D01*
X9587209Y-55620523D01*
X9543483Y-55590189D01*
X9382393Y-55478437D01*
X9382390Y-55478435D01*
X9378561Y-55475779D01*
X9374384Y-55473719D01*
X9374377Y-55473715D01*
X9154996Y-55365528D01*
X9154992Y-55365527D01*
X9150810Y-55363464D01*
X9024901Y-55323160D01*
X8966121Y-55283342D01*
X8938199Y-55218067D01*
X8950000Y-55148058D01*
X8997778Y-55095543D01*
X9031234Y-55081310D01*
X9032929Y-55080864D01*
X9066793Y-55071948D01*
X9185353Y-55021011D01*
X9295807Y-54973557D01*
X9295810Y-54973555D01*
X9300110Y-54971708D01*
X9304090Y-54969245D01*
X9304094Y-54969243D01*
X9512064Y-54840547D01*
X9512066Y-54840545D01*
X9516047Y-54838082D01*
X9614428Y-54754797D01*
X9706289Y-54677031D01*
X9706291Y-54677029D01*
X9709862Y-54674006D01*
X9877295Y-54483084D01*
X9898805Y-54449644D01*
X10014669Y-54269512D01*
X10016322Y-54270575D01*
X10060632Y-54226055D01*
X10121278Y-54210500D01*
X13014282Y-54210500D01*
X13082403Y-54230502D01*
X13128896Y-54284158D01*
X13133803Y-54296616D01*
X13186346Y-54454107D01*
X13277884Y-54602031D01*
X13283066Y-54607204D01*
X13395816Y-54719758D01*
X13395821Y-54719762D01*
X13400997Y-54724929D01*
X13407227Y-54728769D01*
X13407228Y-54728770D01*
X13449452Y-54754797D01*
X13549080Y-54816209D01*
X13714191Y-54870974D01*
X13721027Y-54871674D01*
X13721030Y-54871675D01*
X13772526Y-54876951D01*
X13816928Y-54881500D01*
X14491072Y-54881500D01*
X14494318Y-54881163D01*
X14494322Y-54881163D01*
X14588235Y-54871419D01*
X14588239Y-54871418D01*
X14595093Y-54870707D01*
X14601629Y-54868526D01*
X14601631Y-54868526D01*
X14734395Y-54824232D01*
X14760107Y-54815654D01*
X14908031Y-54724116D01*
X14955034Y-54677031D01*
X15025758Y-54606184D01*
X15025762Y-54606179D01*
X15030929Y-54601003D01*
X15106037Y-54479156D01*
X15118369Y-54459150D01*
X15118370Y-54459148D01*
X15122209Y-54452920D01*
X15176974Y-54287809D01*
X15187500Y-54185072D01*
X15187500Y-53610928D01*
X15187163Y-53607678D01*
X15177419Y-53513765D01*
X15177418Y-53513761D01*
X15176707Y-53506907D01*
X15121654Y-53341893D01*
X15030116Y-53193969D01*
X15006780Y-53170673D01*
X14972700Y-53108391D01*
X14977703Y-53037571D01*
X15020199Y-52980698D01*
X15086698Y-52955829D01*
X15095797Y-52955500D01*
X17204930Y-52955500D01*
X17223880Y-52956933D01*
X17238115Y-52959099D01*
X17238119Y-52959099D01*
X17245349Y-52960199D01*
X17252641Y-52959606D01*
X17252644Y-52959606D01*
X17298018Y-52955915D01*
X17308233Y-52955500D01*
X17316293Y-52955500D01*
X17329583Y-52953951D01*
X17344507Y-52952211D01*
X17348882Y-52951778D01*
X17414339Y-52946454D01*
X17414342Y-52946453D01*
X17421637Y-52945860D01*
X17428601Y-52943604D01*
X17434560Y-52942413D01*
X17440415Y-52941029D01*
X17447681Y-52940182D01*
X17516327Y-52915265D01*
X17520455Y-52913848D01*
X17582936Y-52893607D01*
X17582938Y-52893606D01*
X17589899Y-52891351D01*
X17596154Y-52887555D01*
X17601628Y-52885049D01*
X17607058Y-52882330D01*
X17613937Y-52879833D01*
X17674976Y-52839814D01*
X17678680Y-52837477D01*
X17741107Y-52799595D01*
X17749484Y-52792197D01*
X17749508Y-52792224D01*
X17752500Y-52789571D01*
X17755733Y-52786868D01*
X17761852Y-52782856D01*
X17815128Y-52726617D01*
X17817506Y-52724175D01*
X18542405Y-51999276D01*
X18604717Y-51965250D01*
X18675532Y-51970315D01*
X18732368Y-52012862D01*
X18757179Y-52079382D01*
X18757500Y-52088371D01*
X18757500Y-53649134D01*
X18764255Y-53711316D01*
X18815385Y-53847705D01*
X18902739Y-53964261D01*
X19019295Y-54051615D01*
X19155684Y-54102745D01*
X19217866Y-54109500D01*
X19381500Y-54109500D01*
X19449621Y-54129502D01*
X19496114Y-54183158D01*
X19507500Y-54235500D01*
X19507500Y-57509603D01*
X19483823Y-57583129D01*
X19371002Y-57740136D01*
X19242857Y-57982161D01*
X19241385Y-57986184D01*
X19241383Y-57986188D01*
X19173938Y-58170488D01*
X19148743Y-58239337D01*
X19090404Y-58506907D01*
X19090068Y-58511177D01*
X19070788Y-58756151D01*
X19068917Y-58779918D01*
X19084682Y-59053320D01*
X19085507Y-59057525D01*
X19085508Y-59057533D01*
X19096127Y-59111657D01*
X19137405Y-59322053D01*
X19138792Y-59326103D01*
X19138793Y-59326108D01*
X19199009Y-59501984D01*
X19226112Y-59581144D01*
X19349160Y-59825799D01*
X19351586Y-59829328D01*
X19351589Y-59829334D01*
X19484697Y-60023006D01*
X19504274Y-60051490D01*
X19507161Y-60054663D01*
X19507162Y-60054664D01*
X19629895Y-60189547D01*
X19688582Y-60254043D01*
X19898675Y-60429707D01*
X19902316Y-60431991D01*
X20127024Y-60572951D01*
X20127028Y-60572953D01*
X20130664Y-60575234D01*
X20198544Y-60605883D01*
X20376345Y-60686164D01*
X20376349Y-60686166D01*
X20380257Y-60687930D01*
X20384377Y-60689150D01*
X20384376Y-60689150D01*
X20638723Y-60764491D01*
X20638727Y-60764492D01*
X20642836Y-60765709D01*
X20647070Y-60766357D01*
X20647075Y-60766358D01*
X20909298Y-60806483D01*
X20909300Y-60806483D01*
X20913540Y-60807132D01*
X21052912Y-60809322D01*
X21183071Y-60811367D01*
X21183077Y-60811367D01*
X21187362Y-60811434D01*
X21459235Y-60778534D01*
X21724127Y-60709041D01*
X21728087Y-60707401D01*
X21728092Y-60707399D01*
X21850632Y-60656641D01*
X21977136Y-60604241D01*
X22213582Y-60466073D01*
X22379029Y-60336346D01*
X22444978Y-60310054D01*
X22456776Y-60309500D01*
X25297173Y-60309500D01*
X25365294Y-60329502D01*
X25377994Y-60338836D01*
X25486675Y-60429707D01*
X25490316Y-60431991D01*
X25715024Y-60572951D01*
X25715028Y-60572953D01*
X25718664Y-60575234D01*
X25786544Y-60605883D01*
X25964345Y-60686164D01*
X25964349Y-60686166D01*
X25968257Y-60687930D01*
X25972377Y-60689150D01*
X25972376Y-60689150D01*
X26226723Y-60764491D01*
X26226727Y-60764492D01*
X26230836Y-60765709D01*
X26235070Y-60766357D01*
X26235075Y-60766358D01*
X26497298Y-60806483D01*
X26497300Y-60806483D01*
X26501540Y-60807132D01*
X26640912Y-60809322D01*
X26771071Y-60811367D01*
X26771077Y-60811367D01*
X26775362Y-60811434D01*
X27047235Y-60778534D01*
X27312127Y-60709041D01*
X27316087Y-60707401D01*
X27316092Y-60707399D01*
X27438632Y-60656641D01*
X27565136Y-60604241D01*
X27683359Y-60535157D01*
X27797879Y-60468237D01*
X27797882Y-60468235D01*
X27801582Y-60466073D01*
X28017089Y-60297094D01*
X28058809Y-60254043D01*
X28141059Y-60169167D01*
X28207669Y-60100431D01*
X28210202Y-60096983D01*
X28210206Y-60096978D01*
X28367257Y-59883178D01*
X28369795Y-59879723D01*
X28397794Y-59828156D01*
X28498418Y-59642830D01*
X28498419Y-59642828D01*
X28500468Y-59639054D01*
X28597269Y-59382877D01*
X28658407Y-59115933D01*
X28682751Y-58843161D01*
X28683193Y-58801000D01*
X28679818Y-58751497D01*
X28664859Y-58532055D01*
X28664858Y-58532049D01*
X28664567Y-58527778D01*
X28609032Y-58259612D01*
X28517617Y-58001465D01*
X28392013Y-57758112D01*
X28382040Y-57743921D01*
X28269033Y-57583129D01*
X28234545Y-57534057D01*
X28048125Y-57333445D01*
X28044810Y-57330731D01*
X28044806Y-57330728D01*
X27874894Y-57191657D01*
X27836205Y-57159990D01*
X27602704Y-57016901D01*
X27598768Y-57015173D01*
X27355873Y-56908549D01*
X27355869Y-56908548D01*
X27351945Y-56906825D01*
X27088566Y-56831800D01*
X27084324Y-56831196D01*
X27084318Y-56831195D01*
X26879380Y-56802028D01*
X26817443Y-56793213D01*
X26673589Y-56792460D01*
X26547877Y-56791802D01*
X26547871Y-56791802D01*
X26543591Y-56791780D01*
X26539347Y-56792339D01*
X26539343Y-56792339D01*
X26420302Y-56808011D01*
X26272078Y-56827525D01*
X26267938Y-56828658D01*
X26267936Y-56828658D01*
X26200037Y-56847233D01*
X26007928Y-56899788D01*
X26003980Y-56901472D01*
X25759982Y-57005546D01*
X25759978Y-57005548D01*
X25756030Y-57007232D01*
X25689400Y-57047109D01*
X25524725Y-57145664D01*
X25524721Y-57145667D01*
X25521043Y-57147868D01*
X25517700Y-57150546D01*
X25517696Y-57150549D01*
X25502522Y-57162706D01*
X25394225Y-57249469D01*
X25375046Y-57264834D01*
X25309376Y-57291816D01*
X25296265Y-57292500D01*
X22650500Y-57292500D01*
X22582379Y-57272498D01*
X22535886Y-57218842D01*
X22524500Y-57166500D01*
X22524500Y-54235500D01*
X22544502Y-54167379D01*
X22598158Y-54120886D01*
X22650500Y-54109500D01*
X22814134Y-54109500D01*
X22876316Y-54102745D01*
X23012705Y-54051615D01*
X23129261Y-53964261D01*
X23216615Y-53847705D01*
X23267745Y-53711316D01*
X23274500Y-53649134D01*
X23274500Y-51252866D01*
X23267745Y-51190684D01*
X23216615Y-51054295D01*
X23129261Y-50937739D01*
X23012705Y-50850385D01*
X22876316Y-50799255D01*
X22814134Y-50792500D01*
X19510500Y-50792500D01*
X19442379Y-50772498D01*
X19395886Y-50718842D01*
X19384500Y-50666500D01*
X19384500Y-50197590D01*
X19404502Y-50129469D01*
X19432018Y-50099086D01*
X19437848Y-50095478D01*
X19562805Y-49970303D01*
X19566646Y-49964072D01*
X19651775Y-49825968D01*
X19651776Y-49825966D01*
X19655615Y-49819738D01*
X19711297Y-49651861D01*
X19712596Y-49639188D01*
X19721672Y-49550598D01*
X19722000Y-49547400D01*
X19722000Y-48496600D01*
X19721663Y-48493350D01*
X19711738Y-48397692D01*
X19711737Y-48397688D01*
X19711026Y-48390834D01*
X19701951Y-48363631D01*
X19657368Y-48230002D01*
X19655050Y-48223054D01*
X19561978Y-48072652D01*
X19436803Y-47947695D01*
X19424986Y-47940411D01*
X19294384Y-47859906D01*
X19246890Y-47807133D01*
X19234500Y-47752646D01*
X19234500Y-47083239D01*
X19254502Y-47015118D01*
X19271405Y-46994144D01*
X22278234Y-43987315D01*
X22290625Y-43976448D01*
X22309437Y-43962013D01*
X22315987Y-43956987D01*
X22340474Y-43925075D01*
X22340477Y-43925072D01*
X22413523Y-43829876D01*
X22413524Y-43829875D01*
X22447080Y-43748865D01*
X22471678Y-43689479D01*
X22474838Y-43681850D01*
X22490500Y-43562885D01*
X22490500Y-43562878D01*
X22495750Y-43523000D01*
X22491578Y-43491307D01*
X22490500Y-43474864D01*
X22490500Y-35779862D01*
X22510502Y-35711741D01*
X22564158Y-35665248D01*
X22634432Y-35655144D01*
X22649749Y-35658328D01*
X22651699Y-35658861D01*
X22658489Y-35661598D01*
X22665727Y-35662699D01*
X22667653Y-35663226D01*
X22670330Y-35663762D01*
X22675341Y-35665626D01*
X22682326Y-35666558D01*
X22752483Y-35675919D01*
X22754769Y-35676245D01*
X22826115Y-35687099D01*
X22826119Y-35687099D01*
X22833349Y-35688199D01*
X22840287Y-35687635D01*
X22844015Y-35688132D01*
X22859344Y-35686737D01*
X22928997Y-35700483D01*
X22980161Y-35749704D01*
X22996521Y-35820021D01*
X22995983Y-35828692D01*
X22993689Y-35865660D01*
X22992940Y-35873630D01*
X22985775Y-35930343D01*
X22987181Y-35944681D01*
X22987540Y-35964774D01*
X22986453Y-35982298D01*
X22987693Y-35989514D01*
X22987693Y-35989516D01*
X22995965Y-36037654D01*
X22997184Y-36046697D01*
X23001693Y-36092688D01*
X23001694Y-36092693D01*
X23002381Y-36099699D01*
X23004604Y-36106381D01*
X23004605Y-36106387D01*
X23008155Y-36117058D01*
X23012776Y-36135489D01*
X23016406Y-36156614D01*
X23019271Y-36163348D01*
X23019272Y-36163350D01*
X23036892Y-36204758D01*
X23040511Y-36214322D01*
X23053871Y-36254486D01*
X23053872Y-36254488D01*
X23056094Y-36261167D01*
X23067589Y-36280148D01*
X23075744Y-36296067D01*
X23085657Y-36319364D01*
X23089996Y-36325260D01*
X23114390Y-36358408D01*
X23120684Y-36367818D01*
X23144246Y-36406723D01*
X23149143Y-36411794D01*
X23162349Y-36425469D01*
X23173195Y-36438314D01*
X23186154Y-36455924D01*
X23186156Y-36455927D01*
X23190492Y-36461818D01*
X23224510Y-36490718D01*
X23233561Y-36499212D01*
X23257559Y-36524063D01*
X23257563Y-36524067D01*
X23262455Y-36529132D01*
X23268346Y-36532987D01*
X23287520Y-36545535D01*
X23300099Y-36554937D01*
X23325285Y-36576333D01*
X23331805Y-36579662D01*
X23361590Y-36594871D01*
X23373284Y-36601656D01*
X23404846Y-36622310D01*
X23436563Y-36634106D01*
X23449931Y-36639981D01*
X23471291Y-36650888D01*
X23482808Y-36656769D01*
X23515979Y-36664886D01*
X23518656Y-36665541D01*
X23532626Y-36669832D01*
X23557736Y-36679170D01*
X23557739Y-36679171D01*
X23564341Y-36681626D01*
X23571324Y-36682558D01*
X23571325Y-36682558D01*
X23580943Y-36683841D01*
X23601734Y-36686616D01*
X23615005Y-36689117D01*
X23654610Y-36698808D01*
X23660215Y-36699156D01*
X23660217Y-36699156D01*
X23663825Y-36699380D01*
X23663835Y-36699380D01*
X23665764Y-36699500D01*
X23689933Y-36699500D01*
X23706595Y-36700607D01*
X23713765Y-36701563D01*
X23726035Y-36703201D01*
X23726038Y-36703201D01*
X23733015Y-36704132D01*
X23740026Y-36703494D01*
X23740030Y-36703494D01*
X23778208Y-36700019D01*
X23789628Y-36699500D01*
X24402510Y-36699500D01*
X24468625Y-36718240D01*
X24495306Y-36734686D01*
X24595090Y-36796194D01*
X24602262Y-36800615D01*
X24658638Y-36819314D01*
X24763611Y-36854132D01*
X24763613Y-36854132D01*
X24770139Y-36856297D01*
X24776975Y-36856997D01*
X24776978Y-36856998D01*
X24820031Y-36861409D01*
X24874600Y-36867000D01*
X25925400Y-36867000D01*
X25928646Y-36866663D01*
X25928650Y-36866663D01*
X26024308Y-36856738D01*
X26024312Y-36856737D01*
X26031166Y-36856026D01*
X26037702Y-36853845D01*
X26037704Y-36853845D01*
X26183237Y-36805291D01*
X26198946Y-36800050D01*
X26233740Y-36778519D01*
X26308327Y-36732363D01*
X26376779Y-36713525D01*
X26444549Y-36734686D01*
X26463650Y-36750336D01*
X26470111Y-36756786D01*
X26504189Y-36819069D01*
X26499184Y-36889889D01*
X26470264Y-36934975D01*
X26398397Y-37006968D01*
X26382695Y-37022697D01*
X26378855Y-37028927D01*
X26378854Y-37028928D01*
X26302777Y-37152348D01*
X26289885Y-37173262D01*
X26265986Y-37245316D01*
X26257352Y-37271348D01*
X26234203Y-37341139D01*
X26233503Y-37347975D01*
X26233502Y-37347978D01*
X26230998Y-37372419D01*
X26223500Y-37445600D01*
X26223500Y-38246400D01*
X26223837Y-38249646D01*
X26223837Y-38249650D01*
X26224237Y-38253500D01*
X26234474Y-38352166D01*
X26290450Y-38519946D01*
X26383522Y-38670348D01*
X26388704Y-38675521D01*
X26388708Y-38675526D01*
X26434409Y-38721147D01*
X26468489Y-38783429D01*
X26463486Y-38854249D01*
X26452653Y-38876434D01*
X26389885Y-38978262D01*
X26334203Y-39146139D01*
X26323500Y-39250600D01*
X26323500Y-40251400D01*
X26323837Y-40254646D01*
X26323837Y-40254650D01*
X26332648Y-40339563D01*
X26334474Y-40357166D01*
X26336656Y-40363706D01*
X26336657Y-40363711D01*
X26340186Y-40374290D01*
X26342770Y-40445240D01*
X26306585Y-40506323D01*
X26243120Y-40538146D01*
X26235151Y-40539328D01*
X26191113Y-40544423D01*
X26127071Y-40551833D01*
X26127067Y-40551834D01*
X26122044Y-40552415D01*
X26117180Y-40553791D01*
X26117177Y-40553792D01*
X25955734Y-40599476D01*
X25888468Y-40618510D01*
X25883892Y-40620644D01*
X25883886Y-40620646D01*
X25673046Y-40718962D01*
X25673042Y-40718964D01*
X25668464Y-40721099D01*
X25467693Y-40857544D01*
X25291319Y-41024332D01*
X25288241Y-41028358D01*
X25288240Y-41028359D01*
X25146953Y-41213154D01*
X25146950Y-41213158D01*
X25143880Y-41217174D01*
X25141490Y-41221632D01*
X25141489Y-41221633D01*
X25139428Y-41225477D01*
X25029169Y-41431109D01*
X24950138Y-41660631D01*
X24942089Y-41707230D01*
X24910704Y-41888936D01*
X24908821Y-41899836D01*
X24907500Y-41928925D01*
X24907500Y-47577500D01*
X24887498Y-47645621D01*
X24833842Y-47692114D01*
X24781500Y-47703500D01*
X24767866Y-47703500D01*
X24705684Y-47710255D01*
X24569295Y-47761385D01*
X24452739Y-47848739D01*
X24365385Y-47965295D01*
X24314255Y-48101684D01*
X24307500Y-48163866D01*
X24307500Y-49510134D01*
X24314255Y-49572316D01*
X24365385Y-49708705D01*
X24452739Y-49825261D01*
X24569295Y-49912615D01*
X24705684Y-49963745D01*
X24767866Y-49970500D01*
X24781500Y-49970500D01*
X24849621Y-49990502D01*
X24896114Y-50044158D01*
X24907500Y-50096500D01*
X24907500Y-50666500D01*
X24887498Y-50734621D01*
X24833842Y-50781114D01*
X24781500Y-50792500D01*
X24617866Y-50792500D01*
X24555684Y-50799255D01*
X24419295Y-50850385D01*
X24302739Y-50937739D01*
X24215385Y-51054295D01*
X24164255Y-51190684D01*
X24157500Y-51252866D01*
X24157500Y-53649134D01*
X24164255Y-53711316D01*
X24215385Y-53847705D01*
X24302739Y-53964261D01*
X24419295Y-54051615D01*
X24555684Y-54102745D01*
X24617866Y-54109500D01*
X28214134Y-54109500D01*
X28276316Y-54102745D01*
X28412705Y-54051615D01*
X28502024Y-53984674D01*
X28568530Y-53959826D01*
X28577589Y-53959500D01*
X28913969Y-53959500D01*
X28982090Y-53979502D01*
X29003064Y-53996405D01*
X30204595Y-55197936D01*
X30238621Y-55260248D01*
X30241500Y-55287031D01*
X30241500Y-56676507D01*
X30221498Y-56744628D01*
X30167842Y-56791121D01*
X30146237Y-56798543D01*
X30139684Y-56799255D01*
X30132289Y-56802027D01*
X30132286Y-56802028D01*
X30017978Y-56844880D01*
X30003295Y-56850385D01*
X29886739Y-56937739D01*
X29799385Y-57054295D01*
X29748255Y-57190684D01*
X29741500Y-57252866D01*
X29741500Y-60349134D01*
X29748255Y-60411316D01*
X29799385Y-60547705D01*
X29886739Y-60664261D01*
X30003295Y-60751615D01*
X30139684Y-60802745D01*
X30201866Y-60809500D01*
X33298134Y-60809500D01*
X33360316Y-60802745D01*
X33496705Y-60751615D01*
X33613261Y-60664261D01*
X33700615Y-60547705D01*
X33751745Y-60411316D01*
X33758500Y-60349134D01*
X33758500Y-57252866D01*
X33751745Y-57190684D01*
X33700615Y-57054295D01*
X33613261Y-56937739D01*
X33496705Y-56850385D01*
X33482022Y-56844880D01*
X33367714Y-56802028D01*
X33367711Y-56802027D01*
X33360316Y-56799255D01*
X33354547Y-56798628D01*
X33293709Y-56763874D01*
X33260887Y-56700919D01*
X33258500Y-56676507D01*
X33258500Y-54634016D01*
X33258549Y-54630498D01*
X33261193Y-54535850D01*
X33261193Y-54535847D01*
X33261334Y-54530795D01*
X33250941Y-54452902D01*
X33250241Y-54446353D01*
X33250211Y-54445972D01*
X33243940Y-54368035D01*
X33236101Y-54336122D01*
X33233573Y-54322738D01*
X33229898Y-54295194D01*
X33229229Y-54290180D01*
X33227411Y-54284158D01*
X33206522Y-54214971D01*
X33204781Y-54208608D01*
X33187244Y-54137209D01*
X33186037Y-54132294D01*
X33173199Y-54102048D01*
X33168561Y-54089237D01*
X33160530Y-54062638D01*
X33159067Y-54057792D01*
X33156849Y-54053244D01*
X33156846Y-54053237D01*
X33124629Y-53987182D01*
X33121894Y-53981183D01*
X33112895Y-53959984D01*
X33104689Y-53889463D01*
X33135912Y-53825700D01*
X33196650Y-53788940D01*
X33267621Y-53790853D01*
X33317973Y-53821654D01*
X36344595Y-56848276D01*
X36378621Y-56910588D01*
X36381500Y-56937371D01*
X36381500Y-57188722D01*
X36361498Y-57256843D01*
X36316585Y-57298925D01*
X36313632Y-57300562D01*
X36309380Y-57302522D01*
X36305467Y-57305087D01*
X36305466Y-57305088D01*
X36100928Y-57439189D01*
X36100923Y-57439193D01*
X36097015Y-57441755D01*
X36020998Y-57509603D01*
X35938619Y-57583129D01*
X35907562Y-57610848D01*
X35745183Y-57806087D01*
X35613447Y-58023182D01*
X35611638Y-58027496D01*
X35611637Y-58027498D01*
X35517702Y-58251509D01*
X35515246Y-58257365D01*
X35452738Y-58503490D01*
X35427296Y-58756151D01*
X35427520Y-58760817D01*
X35427520Y-58760822D01*
X35431594Y-58845627D01*
X35439480Y-59009798D01*
X35489021Y-59258857D01*
X35490600Y-59263255D01*
X35490602Y-59263262D01*
X35534991Y-59386895D01*
X35574831Y-59497858D01*
X35695025Y-59721551D01*
X35697820Y-59725294D01*
X35697822Y-59725297D01*
X35844171Y-59921282D01*
X35844176Y-59921288D01*
X35846963Y-59925020D01*
X35850272Y-59928300D01*
X35850277Y-59928306D01*
X35977743Y-60054664D01*
X36027307Y-60103797D01*
X36031069Y-60106555D01*
X36031072Y-60106558D01*
X36136764Y-60184054D01*
X36232094Y-60253953D01*
X36236229Y-60256129D01*
X36236233Y-60256131D01*
X36314091Y-60297094D01*
X36456827Y-60372191D01*
X36546368Y-60403460D01*
X36628069Y-60431991D01*
X36696568Y-60455912D01*
X36946050Y-60503278D01*
X37066532Y-60508011D01*
X37195125Y-60513064D01*
X37195130Y-60513064D01*
X37199793Y-60513247D01*
X37298774Y-60502407D01*
X37447569Y-60486112D01*
X37447575Y-60486111D01*
X37452222Y-60485602D01*
X37518179Y-60468237D01*
X37693273Y-60422138D01*
X37697793Y-60420948D01*
X37816353Y-60370011D01*
X37926807Y-60322557D01*
X37926810Y-60322555D01*
X37931110Y-60320708D01*
X37935090Y-60318245D01*
X37935094Y-60318243D01*
X38143064Y-60189547D01*
X38143066Y-60189545D01*
X38147047Y-60187082D01*
X38245768Y-60103509D01*
X38337289Y-60026031D01*
X38337291Y-60026029D01*
X38340862Y-60023006D01*
X38508295Y-59832084D01*
X38645669Y-59618512D01*
X38749967Y-59386980D01*
X38818896Y-59142575D01*
X38850943Y-58890667D01*
X38853291Y-58801000D01*
X38836270Y-58571948D01*
X38834818Y-58552411D01*
X38834817Y-58552407D01*
X38834472Y-58547759D01*
X38826195Y-58511177D01*
X38779459Y-58304639D01*
X38778428Y-58300082D01*
X38762690Y-58259612D01*
X38688084Y-58067762D01*
X38688083Y-58067760D01*
X38686391Y-58063409D01*
X38665866Y-58027498D01*
X38562702Y-57846997D01*
X38562700Y-57846995D01*
X38560383Y-57842940D01*
X38403171Y-57643517D01*
X38218209Y-57469523D01*
X38174483Y-57439189D01*
X38013393Y-57327437D01*
X38013390Y-57327435D01*
X38009561Y-57324779D01*
X38005378Y-57322716D01*
X38005371Y-57322712D01*
X37968770Y-57304662D01*
X37916522Y-57256593D01*
X37898500Y-57191657D01*
X37898500Y-56638069D01*
X37899933Y-56619118D01*
X37902099Y-56604883D01*
X37902099Y-56604881D01*
X37903199Y-56597651D01*
X37898915Y-56544982D01*
X37898500Y-56534767D01*
X37898500Y-56526707D01*
X37895211Y-56498493D01*
X37894778Y-56494118D01*
X37889454Y-56428661D01*
X37889453Y-56428658D01*
X37888860Y-56421363D01*
X37886604Y-56414399D01*
X37885413Y-56408440D01*
X37884029Y-56402585D01*
X37883182Y-56395319D01*
X37858265Y-56326673D01*
X37856848Y-56322545D01*
X37836607Y-56260064D01*
X37836606Y-56260062D01*
X37834351Y-56253101D01*
X37830555Y-56246846D01*
X37828049Y-56241372D01*
X37825330Y-56235942D01*
X37822833Y-56229063D01*
X37782809Y-56168016D01*
X37780472Y-56164312D01*
X37745509Y-56106693D01*
X37745505Y-56106688D01*
X37742595Y-56101892D01*
X37735197Y-56093516D01*
X37735223Y-56093493D01*
X37732574Y-56090503D01*
X37729866Y-56087264D01*
X37725856Y-56081148D01*
X37720549Y-56076121D01*
X37720546Y-56076117D01*
X37669617Y-56027872D01*
X37667175Y-56025494D01*
X33830768Y-52189087D01*
X33796742Y-52126775D01*
X33796662Y-52073581D01*
X33797132Y-52071387D01*
X33799297Y-52064861D01*
X33810000Y-51960400D01*
X33810000Y-50909600D01*
X33809663Y-50906350D01*
X33799738Y-50810692D01*
X33799737Y-50810688D01*
X33799026Y-50803834D01*
X33788830Y-50773271D01*
X33745368Y-50643002D01*
X33743050Y-50636054D01*
X33649978Y-50485652D01*
X33524803Y-50360695D01*
X33457384Y-50319137D01*
X33409890Y-50266364D01*
X33397500Y-50211877D01*
X33397500Y-50201677D01*
X33417502Y-50133556D01*
X33434321Y-50112666D01*
X33465929Y-50081003D01*
X33557209Y-49932920D01*
X33611974Y-49767809D01*
X33615170Y-49736621D01*
X33621076Y-49678969D01*
X33622500Y-49665072D01*
X33622500Y-49179212D01*
X33642502Y-49111091D01*
X33696158Y-49064598D01*
X33766432Y-49054494D01*
X33814616Y-49071952D01*
X33854924Y-49096798D01*
X33862080Y-49101209D01*
X34027191Y-49155974D01*
X34034027Y-49156674D01*
X34034030Y-49156675D01*
X34085526Y-49161951D01*
X34129928Y-49166500D01*
X34704072Y-49166500D01*
X34707318Y-49166163D01*
X34707322Y-49166163D01*
X34801235Y-49156419D01*
X34801239Y-49156418D01*
X34808093Y-49155707D01*
X34814629Y-49153526D01*
X34814631Y-49153526D01*
X34958759Y-49105441D01*
X34973107Y-49100654D01*
X35121031Y-49009116D01*
X35132130Y-48997998D01*
X35145622Y-48984482D01*
X35207904Y-48950403D01*
X35234795Y-48947500D01*
X36350165Y-48947500D01*
X36357966Y-48947742D01*
X36419298Y-48951547D01*
X36432260Y-48949320D01*
X36453596Y-48947500D01*
X37508618Y-48947500D01*
X37576739Y-48967502D01*
X37619607Y-49013858D01*
X37671025Y-49109551D01*
X37673820Y-49113294D01*
X37673822Y-49113297D01*
X37820171Y-49309282D01*
X37820176Y-49309288D01*
X37822963Y-49313020D01*
X37826272Y-49316300D01*
X37826277Y-49316306D01*
X37999990Y-49488509D01*
X38003307Y-49491797D01*
X38007069Y-49494555D01*
X38007072Y-49494558D01*
X38103300Y-49565115D01*
X38208094Y-49641953D01*
X38212229Y-49644129D01*
X38212233Y-49644131D01*
X38290285Y-49685196D01*
X38432827Y-49760191D01*
X38508096Y-49786476D01*
X38619160Y-49825261D01*
X38672568Y-49843912D01*
X38922050Y-49891278D01*
X39042532Y-49896011D01*
X39171125Y-49901064D01*
X39171130Y-49901064D01*
X39175793Y-49901247D01*
X39274774Y-49890407D01*
X39423569Y-49874112D01*
X39423575Y-49874111D01*
X39428222Y-49873602D01*
X39500784Y-49854498D01*
X39669273Y-49810138D01*
X39673793Y-49808948D01*
X39870984Y-49724229D01*
X39902807Y-49710557D01*
X39902810Y-49710555D01*
X39907110Y-49708708D01*
X39911090Y-49706245D01*
X39911094Y-49706243D01*
X40119064Y-49577547D01*
X40119066Y-49577545D01*
X40123047Y-49575082D01*
X40140043Y-49560694D01*
X40313289Y-49414031D01*
X40313291Y-49414029D01*
X40316862Y-49411006D01*
X40484295Y-49220084D01*
X40501395Y-49193500D01*
X40619141Y-49010442D01*
X40621669Y-49006512D01*
X40725967Y-48774980D01*
X40794896Y-48530575D01*
X40811965Y-48396402D01*
X40826545Y-48281798D01*
X40826546Y-48281788D01*
X40826943Y-48278667D01*
X40829291Y-48189000D01*
X40827116Y-48159729D01*
X40810818Y-47940411D01*
X40810817Y-47940407D01*
X40810472Y-47935759D01*
X40802840Y-47902028D01*
X40757917Y-47703500D01*
X40754428Y-47688082D01*
X40752735Y-47683728D01*
X40664084Y-47455762D01*
X40664083Y-47455760D01*
X40662391Y-47451409D01*
X40655777Y-47439837D01*
X40538702Y-47234997D01*
X40538700Y-47234995D01*
X40536383Y-47230940D01*
X40379171Y-47031517D01*
X40194209Y-46857523D01*
X40150483Y-46827189D01*
X39989393Y-46715437D01*
X39989390Y-46715435D01*
X39985561Y-46712779D01*
X39981384Y-46710719D01*
X39981377Y-46710715D01*
X39761996Y-46602528D01*
X39761992Y-46602527D01*
X39757810Y-46600464D01*
X39683044Y-46576531D01*
X39676705Y-46574502D01*
X39617925Y-46534684D01*
X39590003Y-46469409D01*
X39601804Y-46399400D01*
X39649582Y-46346885D01*
X39715118Y-46328500D01*
X41861864Y-46328500D01*
X41878307Y-46329578D01*
X41910000Y-46333750D01*
X41918189Y-46332672D01*
X41949874Y-46328501D01*
X41949884Y-46328500D01*
X41949885Y-46328500D01*
X41949901Y-46328498D01*
X42049457Y-46315391D01*
X42060664Y-46313916D01*
X42060666Y-46313915D01*
X42068851Y-46312838D01*
X42216876Y-46251524D01*
X42242683Y-46231722D01*
X42312072Y-46178477D01*
X42312075Y-46178474D01*
X42337434Y-46159015D01*
X42343987Y-46153987D01*
X42349017Y-46147432D01*
X42363452Y-46128621D01*
X42374319Y-46116230D01*
X43603144Y-44887405D01*
X43665456Y-44853379D01*
X43692239Y-44850500D01*
X43783487Y-44850500D01*
X43789939Y-44849128D01*
X43789944Y-44849128D01*
X43876888Y-44830647D01*
X43970288Y-44810794D01*
X43976319Y-44808109D01*
X44138722Y-44735803D01*
X44138724Y-44735802D01*
X44144752Y-44733118D01*
X44299253Y-44620866D01*
X44427040Y-44478944D01*
X44522527Y-44313556D01*
X44581542Y-44131928D01*
X44585319Y-44095998D01*
X44600814Y-43948565D01*
X44601504Y-43942000D01*
X44590286Y-43835263D01*
X44582232Y-43758635D01*
X44582232Y-43758633D01*
X44581542Y-43752072D01*
X44522527Y-43570444D01*
X44499863Y-43531188D01*
X44430341Y-43410774D01*
X44427040Y-43405056D01*
X44417572Y-43394540D01*
X44303675Y-43268045D01*
X44303674Y-43268044D01*
X44299253Y-43263134D01*
X44186053Y-43180889D01*
X44150094Y-43154763D01*
X44150093Y-43154762D01*
X44144752Y-43150882D01*
X44138724Y-43148198D01*
X44138722Y-43148197D01*
X43976319Y-43075891D01*
X43976318Y-43075891D01*
X43970288Y-43073206D01*
X43869445Y-43051771D01*
X43789944Y-43034872D01*
X43789939Y-43034872D01*
X43783487Y-43033500D01*
X43592513Y-43033500D01*
X43586061Y-43034872D01*
X43586056Y-43034872D01*
X43506555Y-43051771D01*
X43405712Y-43073206D01*
X43290241Y-43124617D01*
X43288772Y-43125271D01*
X43218405Y-43134705D01*
X43154108Y-43104599D01*
X43116294Y-43044510D01*
X43116970Y-42973516D01*
X43130263Y-42944048D01*
X43200275Y-42830468D01*
X43200276Y-42830466D01*
X43204115Y-42824238D01*
X43259797Y-42656361D01*
X43270500Y-42551900D01*
X43270500Y-41776100D01*
X43270154Y-41772768D01*
X43260238Y-41677192D01*
X43260237Y-41677188D01*
X43259526Y-41670334D01*
X43203550Y-41502554D01*
X43110478Y-41352152D01*
X42985303Y-41227195D01*
X42969046Y-41217174D01*
X42840968Y-41138225D01*
X42840966Y-41138224D01*
X42834738Y-41134385D01*
X42674254Y-41081155D01*
X42673389Y-41080868D01*
X42673387Y-41080868D01*
X42666861Y-41078703D01*
X42660025Y-41078003D01*
X42660022Y-41078002D01*
X42616969Y-41073591D01*
X42562400Y-41068000D01*
X41511600Y-41068000D01*
X41508354Y-41068337D01*
X41508350Y-41068337D01*
X41412692Y-41078262D01*
X41412688Y-41078263D01*
X41405834Y-41078974D01*
X41399298Y-41081155D01*
X41399296Y-41081155D01*
X41267194Y-41125228D01*
X41238054Y-41134950D01*
X41087652Y-41228022D01*
X40962695Y-41353197D01*
X40958855Y-41359427D01*
X40958854Y-41359428D01*
X40911720Y-41435894D01*
X40869885Y-41503762D01*
X40867581Y-41510709D01*
X40819443Y-41655842D01*
X40814203Y-41671639D01*
X40803500Y-41776100D01*
X40803500Y-42551900D01*
X40803837Y-42555146D01*
X40803837Y-42555150D01*
X40811123Y-42625366D01*
X40814474Y-42657666D01*
X40870450Y-42825446D01*
X40963522Y-42975848D01*
X41088697Y-43100805D01*
X41094927Y-43104645D01*
X41094928Y-43104646D01*
X41218616Y-43180889D01*
X41266110Y-43233662D01*
X41278500Y-43288149D01*
X41278500Y-43387500D01*
X41258498Y-43455621D01*
X41204842Y-43502114D01*
X41152500Y-43513500D01*
X40521575Y-43513500D01*
X40453454Y-43493498D01*
X40406961Y-43439842D01*
X40396312Y-43401108D01*
X40395598Y-43394540D01*
X40394745Y-43386684D01*
X40343615Y-43250295D01*
X40256261Y-43133739D01*
X40139705Y-43046385D01*
X40003316Y-42995255D01*
X39941134Y-42988500D01*
X38544866Y-42988500D01*
X38482684Y-42995255D01*
X38346295Y-43046385D01*
X38295592Y-43084385D01*
X38275065Y-43099769D01*
X38208559Y-43124617D01*
X38139176Y-43109564D01*
X38088946Y-43059390D01*
X38073500Y-42998943D01*
X38073500Y-42339136D01*
X38074578Y-42322690D01*
X38077672Y-42299188D01*
X38078750Y-42291000D01*
X38073500Y-42251122D01*
X38073500Y-42251115D01*
X38057838Y-42132150D01*
X37996524Y-41984125D01*
X37969620Y-41949063D01*
X37923477Y-41888928D01*
X37923474Y-41888925D01*
X37898987Y-41857013D01*
X37892432Y-41851983D01*
X37873621Y-41837548D01*
X37861230Y-41826681D01*
X36405315Y-40370766D01*
X36394448Y-40358375D01*
X36380013Y-40339563D01*
X36374987Y-40333013D01*
X36343075Y-40308526D01*
X36343072Y-40308523D01*
X36272864Y-40254650D01*
X36254429Y-40240504D01*
X36254427Y-40240503D01*
X36247876Y-40235476D01*
X36099851Y-40174162D01*
X36091664Y-40173084D01*
X36091663Y-40173084D01*
X36080458Y-40171609D01*
X36049262Y-40167502D01*
X35980885Y-40158500D01*
X35980882Y-40158500D01*
X35980874Y-40158499D01*
X35949189Y-40154328D01*
X35941000Y-40153250D01*
X35909307Y-40157422D01*
X35892864Y-40158500D01*
X32435239Y-40158500D01*
X32367118Y-40138498D01*
X32346144Y-40121595D01*
X31544405Y-39319856D01*
X31510379Y-39257544D01*
X31507500Y-39230761D01*
X31507500Y-37364506D01*
X31527502Y-37296385D01*
X31581158Y-37249892D01*
X31646342Y-37239162D01*
X31732600Y-37248000D01*
X32783400Y-37248000D01*
X32786646Y-37247663D01*
X32786650Y-37247663D01*
X32882308Y-37237738D01*
X32882312Y-37237737D01*
X32889166Y-37237026D01*
X32895702Y-37234845D01*
X32895704Y-37234845D01*
X33049998Y-37183368D01*
X33056946Y-37181050D01*
X33207348Y-37087978D01*
X33332305Y-36962803D01*
X33336146Y-36956572D01*
X33421275Y-36818468D01*
X33421276Y-36818466D01*
X33425115Y-36812238D01*
X33480797Y-36644361D01*
X33481707Y-36635486D01*
X33490481Y-36549842D01*
X33491500Y-36539900D01*
X33491500Y-36311343D01*
X36828775Y-36311343D01*
X36830181Y-36325681D01*
X36830540Y-36345774D01*
X36829453Y-36363298D01*
X36830693Y-36370514D01*
X36830693Y-36370516D01*
X36838965Y-36418654D01*
X36840184Y-36427697D01*
X36844693Y-36473688D01*
X36844694Y-36473693D01*
X36845381Y-36480699D01*
X36847604Y-36487381D01*
X36847605Y-36487387D01*
X36851155Y-36498058D01*
X36855776Y-36516489D01*
X36859406Y-36537614D01*
X36862271Y-36544348D01*
X36862272Y-36544350D01*
X36879892Y-36585758D01*
X36883511Y-36595322D01*
X36896871Y-36635486D01*
X36896873Y-36635490D01*
X36899094Y-36642167D01*
X36910589Y-36661148D01*
X36918744Y-36677067D01*
X36928657Y-36700364D01*
X36932996Y-36706260D01*
X36957390Y-36739408D01*
X36963684Y-36748818D01*
X36987246Y-36787723D01*
X36992143Y-36792794D01*
X37005349Y-36806469D01*
X37016195Y-36819314D01*
X37029154Y-36836924D01*
X37029156Y-36836927D01*
X37033492Y-36842818D01*
X37067510Y-36871718D01*
X37076561Y-36880212D01*
X37100559Y-36905063D01*
X37100563Y-36905067D01*
X37105455Y-36910132D01*
X37111346Y-36913987D01*
X37130520Y-36926535D01*
X37143099Y-36935937D01*
X37168285Y-36957333D01*
X37174805Y-36960662D01*
X37204590Y-36975871D01*
X37216284Y-36982656D01*
X37247846Y-37003310D01*
X37279563Y-37015106D01*
X37292928Y-37020980D01*
X37325808Y-37037769D01*
X37358979Y-37045886D01*
X37361656Y-37046541D01*
X37375626Y-37050832D01*
X37400736Y-37060170D01*
X37400739Y-37060171D01*
X37407341Y-37062626D01*
X37414324Y-37063558D01*
X37414325Y-37063558D01*
X37423943Y-37064841D01*
X37444734Y-37067616D01*
X37458005Y-37070117D01*
X37497610Y-37079808D01*
X37503215Y-37080156D01*
X37503217Y-37080156D01*
X37506825Y-37080380D01*
X37506835Y-37080380D01*
X37508764Y-37080500D01*
X37532933Y-37080500D01*
X37549595Y-37081607D01*
X37556765Y-37082563D01*
X37569035Y-37084201D01*
X37569038Y-37084201D01*
X37576015Y-37085132D01*
X37583026Y-37084494D01*
X37583030Y-37084494D01*
X37621208Y-37081019D01*
X37632628Y-37080500D01*
X37964425Y-37080500D01*
X38032546Y-37100502D01*
X38079039Y-37154158D01*
X38089688Y-37192892D01*
X38091255Y-37207316D01*
X38142385Y-37343705D01*
X38229739Y-37460261D01*
X38346295Y-37547615D01*
X38482684Y-37598745D01*
X38544866Y-37605500D01*
X39941134Y-37605500D01*
X40003316Y-37598745D01*
X40139705Y-37547615D01*
X40256261Y-37460261D01*
X40343615Y-37343705D01*
X40394745Y-37207316D01*
X40401500Y-37145134D01*
X40401500Y-35498866D01*
X40394745Y-35436684D01*
X40343615Y-35300295D01*
X40256261Y-35183739D01*
X40139705Y-35096385D01*
X40003316Y-35045255D01*
X39941134Y-35038500D01*
X38544866Y-35038500D01*
X38482684Y-35045255D01*
X38346295Y-35096385D01*
X38229739Y-35183739D01*
X38142385Y-35300295D01*
X38091255Y-35436684D01*
X38090402Y-35444540D01*
X38089688Y-35451108D01*
X38062446Y-35516670D01*
X38004083Y-35557096D01*
X37964425Y-35563500D01*
X37644905Y-35563500D01*
X37629987Y-35562614D01*
X37604323Y-35559554D01*
X37597329Y-35558720D01*
X37590326Y-35559456D01*
X37590325Y-35559456D01*
X37555368Y-35563130D01*
X37550834Y-35563500D01*
X37547707Y-35563500D01*
X37527507Y-35565855D01*
X37510541Y-35567833D01*
X37509120Y-35567991D01*
X37481032Y-35570943D01*
X37428093Y-35576507D01*
X37424257Y-35577813D01*
X37423592Y-35577970D01*
X37416319Y-35578818D01*
X37342220Y-35605716D01*
X37339967Y-35606508D01*
X37300158Y-35620059D01*
X37273676Y-35629074D01*
X37273673Y-35629075D01*
X37267003Y-35631346D01*
X37262032Y-35634404D01*
X37258700Y-35635789D01*
X37256939Y-35636671D01*
X37250063Y-35639167D01*
X37243946Y-35643178D01*
X37243943Y-35643179D01*
X37187251Y-35680348D01*
X37184189Y-35682293D01*
X37128068Y-35716819D01*
X37128065Y-35716822D01*
X37122066Y-35720512D01*
X37117032Y-35725442D01*
X37113641Y-35728091D01*
X37109859Y-35730801D01*
X37108267Y-35732132D01*
X37102148Y-35736144D01*
X37097114Y-35741458D01*
X37053027Y-35787997D01*
X37049715Y-35791364D01*
X37000486Y-35839573D01*
X36996674Y-35845489D01*
X36992217Y-35850953D01*
X36992009Y-35850783D01*
X36988925Y-35854714D01*
X36985545Y-35859232D01*
X36980510Y-35864547D01*
X36963542Y-35893760D01*
X36946529Y-35923049D01*
X36943505Y-35927989D01*
X36908304Y-35982610D01*
X36905895Y-35989229D01*
X36905163Y-35990703D01*
X36896592Y-36009023D01*
X36891674Y-36017490D01*
X36889553Y-36024492D01*
X36889549Y-36024502D01*
X36873170Y-36078582D01*
X36870981Y-36085153D01*
X36852513Y-36135892D01*
X36852511Y-36135900D01*
X36850103Y-36142516D01*
X36848785Y-36152950D01*
X36844371Y-36173671D01*
X36842526Y-36179762D01*
X36842525Y-36179766D01*
X36840405Y-36186767D01*
X36838377Y-36219460D01*
X36836689Y-36246659D01*
X36835940Y-36254630D01*
X36828775Y-36311343D01*
X33491500Y-36311343D01*
X33491500Y-35764100D01*
X33490545Y-35754896D01*
X33481238Y-35665192D01*
X33481237Y-35665188D01*
X33480526Y-35658334D01*
X33474132Y-35639167D01*
X33426868Y-35497502D01*
X33424550Y-35490554D01*
X33331478Y-35340152D01*
X33206303Y-35215195D01*
X33196250Y-35208998D01*
X33076384Y-35135111D01*
X33028890Y-35082338D01*
X33016500Y-35027851D01*
X33016500Y-34146500D01*
X33036502Y-34078379D01*
X33090158Y-34031886D01*
X33142500Y-34020500D01*
X36724134Y-34020500D01*
X36786316Y-34013745D01*
X36922705Y-33962615D01*
X37039261Y-33875261D01*
X37126615Y-33758705D01*
X37177745Y-33622316D01*
X37184500Y-33560134D01*
X37184500Y-31722500D01*
X37204502Y-31654379D01*
X37258158Y-31607886D01*
X37310500Y-31596500D01*
X39194864Y-31596500D01*
X39211307Y-31597578D01*
X39243000Y-31601750D01*
X39251189Y-31600672D01*
X39282874Y-31596501D01*
X39282884Y-31596500D01*
X39282885Y-31596500D01*
X39386894Y-31582807D01*
X39393663Y-31581916D01*
X39393664Y-31581916D01*
X39401851Y-31580838D01*
X39549876Y-31519524D01*
X39563356Y-31509181D01*
X39645072Y-31446477D01*
X39645075Y-31446474D01*
X39670434Y-31427015D01*
X39676987Y-31421987D01*
X39687041Y-31408885D01*
X39696452Y-31396621D01*
X39707319Y-31384230D01*
X41405031Y-29686518D01*
X41467343Y-29652492D01*
X41538158Y-29657557D01*
G37*
G04 #@! TD.AperFunction*
G04 #@! TA.AperFunction,Conductor*
G36*
X35261750Y-42180502D02*
G01*
X35282724Y-42197405D01*
X35582595Y-42497276D01*
X35616621Y-42559588D01*
X35619500Y-42586371D01*
X35619500Y-47304500D01*
X35599498Y-47372621D01*
X35545842Y-47419114D01*
X35493500Y-47430500D01*
X35343788Y-47430500D01*
X35275667Y-47410498D01*
X35246003Y-47383634D01*
X35243116Y-47378969D01*
X35168517Y-47304500D01*
X35125184Y-47261242D01*
X35125179Y-47261238D01*
X35120003Y-47256071D01*
X34971920Y-47164791D01*
X34806809Y-47110026D01*
X34799973Y-47109326D01*
X34799970Y-47109325D01*
X34748474Y-47104049D01*
X34704072Y-47099500D01*
X34129928Y-47099500D01*
X34126682Y-47099837D01*
X34126678Y-47099837D01*
X34032765Y-47109581D01*
X34032761Y-47109582D01*
X34025907Y-47110293D01*
X34019371Y-47112474D01*
X34019369Y-47112474D01*
X33886605Y-47156768D01*
X33860893Y-47165346D01*
X33712969Y-47256884D01*
X33707796Y-47262066D01*
X33595242Y-47374816D01*
X33595238Y-47374821D01*
X33590071Y-47379997D01*
X33586231Y-47386227D01*
X33586230Y-47386228D01*
X33530097Y-47477293D01*
X33498791Y-47528080D01*
X33444026Y-47693191D01*
X33443326Y-47700027D01*
X33443325Y-47700030D01*
X33441993Y-47713029D01*
X33433500Y-47795928D01*
X33433500Y-48281788D01*
X33413498Y-48349909D01*
X33359842Y-48396402D01*
X33289568Y-48406506D01*
X33241384Y-48389048D01*
X33200150Y-48363631D01*
X33200148Y-48363630D01*
X33193920Y-48359791D01*
X33028809Y-48305026D01*
X33021973Y-48304326D01*
X33021970Y-48304325D01*
X32970474Y-48299049D01*
X32926072Y-48294500D01*
X32351928Y-48294500D01*
X32348682Y-48294837D01*
X32348678Y-48294837D01*
X32254765Y-48304581D01*
X32254761Y-48304582D01*
X32247907Y-48305293D01*
X32241371Y-48307474D01*
X32241369Y-48307474D01*
X32108605Y-48351768D01*
X32082893Y-48360346D01*
X31934969Y-48451884D01*
X31929796Y-48457066D01*
X31817242Y-48569816D01*
X31817238Y-48569821D01*
X31812071Y-48574997D01*
X31808231Y-48581227D01*
X31808230Y-48581228D01*
X31759911Y-48659616D01*
X31707139Y-48707109D01*
X31652651Y-48719500D01*
X31344239Y-48719500D01*
X31276118Y-48699498D01*
X31255143Y-48682595D01*
X30744404Y-48171855D01*
X30710379Y-48109543D01*
X30707500Y-48082760D01*
X30707500Y-43736159D01*
X30727502Y-43668038D01*
X30781158Y-43621545D01*
X30849946Y-43611237D01*
X30873667Y-43614360D01*
X30905115Y-43618500D01*
X30905120Y-43618500D01*
X30905129Y-43618501D01*
X30936812Y-43622672D01*
X30945000Y-43623750D01*
X30976693Y-43619578D01*
X30993136Y-43618500D01*
X31115484Y-43618500D01*
X31183605Y-43638502D01*
X31222627Y-43678196D01*
X31311522Y-43821848D01*
X31436697Y-43946805D01*
X31442927Y-43950645D01*
X31442928Y-43950646D01*
X31580090Y-44035194D01*
X31587262Y-44039615D01*
X31667005Y-44066064D01*
X31748611Y-44093132D01*
X31748613Y-44093132D01*
X31755139Y-44095297D01*
X31761975Y-44095997D01*
X31761978Y-44095998D01*
X31805031Y-44100409D01*
X31859600Y-44106000D01*
X32910400Y-44106000D01*
X32913646Y-44105663D01*
X32913650Y-44105663D01*
X33009308Y-44095738D01*
X33009312Y-44095737D01*
X33016166Y-44095026D01*
X33022702Y-44092845D01*
X33022704Y-44092845D01*
X33154806Y-44048772D01*
X33183946Y-44039050D01*
X33334348Y-43945978D01*
X33459305Y-43820803D01*
X33501672Y-43752072D01*
X33548275Y-43676468D01*
X33548276Y-43676466D01*
X33552115Y-43670238D01*
X33598236Y-43531188D01*
X33605632Y-43508889D01*
X33605632Y-43508887D01*
X33607797Y-43502361D01*
X33608930Y-43491310D01*
X33617181Y-43410774D01*
X33618500Y-43397900D01*
X33618500Y-42622100D01*
X33612014Y-42559588D01*
X33608238Y-42523192D01*
X33608237Y-42523188D01*
X33607526Y-42516334D01*
X33551550Y-42348554D01*
X33547693Y-42342321D01*
X33546584Y-42339954D01*
X33535798Y-42269781D01*
X33564662Y-42204917D01*
X33624013Y-42165955D01*
X33660684Y-42160500D01*
X35193629Y-42160500D01*
X35261750Y-42180502D01*
G37*
G04 #@! TD.AperFunction*
G04 #@! TA.AperFunction,Conductor*
G36*
X21879621Y-31295502D02*
G01*
X21926114Y-31349158D01*
X21937500Y-31401500D01*
X21937500Y-31886761D01*
X21917498Y-31954882D01*
X21900595Y-31975856D01*
X21755856Y-32120595D01*
X21693544Y-32154621D01*
X21666761Y-32157500D01*
X20495136Y-32157500D01*
X20478690Y-32156422D01*
X20455188Y-32153328D01*
X20447000Y-32152250D01*
X20438812Y-32153328D01*
X20407129Y-32157499D01*
X20407120Y-32157500D01*
X20407115Y-32157500D01*
X20288150Y-32173162D01*
X20217694Y-32202346D01*
X20140124Y-32234476D01*
X20133573Y-32239503D01*
X20133571Y-32239504D01*
X20064517Y-32292492D01*
X20044928Y-32307523D01*
X20044925Y-32307526D01*
X20013013Y-32332013D01*
X20007983Y-32338568D01*
X19993548Y-32357379D01*
X19982681Y-32369770D01*
X19712766Y-32639685D01*
X19700375Y-32650552D01*
X19675013Y-32670013D01*
X19650526Y-32701925D01*
X19650523Y-32701928D01*
X19634135Y-32723285D01*
X19588226Y-32783115D01*
X19577476Y-32797124D01*
X19516488Y-32944363D01*
X19516162Y-32945150D01*
X19515085Y-32953334D01*
X19515084Y-32953336D01*
X19502397Y-33049707D01*
X19500500Y-33064115D01*
X19500500Y-33064120D01*
X19495250Y-33104000D01*
X19498856Y-33131389D01*
X19487917Y-33201536D01*
X19440237Y-33254978D01*
X19297152Y-33343522D01*
X19172195Y-33468697D01*
X19168355Y-33474927D01*
X19168354Y-33474928D01*
X19094443Y-33594834D01*
X19079385Y-33619262D01*
X19059848Y-33678164D01*
X19030751Y-33765891D01*
X19023703Y-33787139D01*
X19023003Y-33793975D01*
X19023002Y-33793978D01*
X19019314Y-33829978D01*
X19013000Y-33891600D01*
X19013000Y-34942400D01*
X19013337Y-34945646D01*
X19013337Y-34945650D01*
X19019838Y-35008299D01*
X19023974Y-35048166D01*
X19026155Y-35054702D01*
X19026155Y-35054704D01*
X19060458Y-35157521D01*
X19079950Y-35215946D01*
X19173022Y-35366348D01*
X19298197Y-35491305D01*
X19302993Y-35494261D01*
X19343655Y-35551614D01*
X19350500Y-35592578D01*
X19350500Y-35654805D01*
X19344149Y-35694020D01*
X19341378Y-35699950D01*
X19337101Y-35720512D01*
X19336384Y-35723961D01*
X19331425Y-35741398D01*
X19326512Y-35754896D01*
X19326511Y-35754901D01*
X19324103Y-35761516D01*
X19323220Y-35768503D01*
X19323220Y-35768504D01*
X19321785Y-35779862D01*
X19318513Y-35805767D01*
X19317817Y-35811273D01*
X19316172Y-35821135D01*
X19305360Y-35873115D01*
X19305558Y-35880432D01*
X19305918Y-35893760D01*
X19304971Y-35912954D01*
X19303696Y-35923049D01*
X19302775Y-35930343D01*
X19307901Y-35982610D01*
X19308049Y-35984124D01*
X19308603Y-35993005D01*
X19310143Y-36049921D01*
X19312020Y-36057000D01*
X19314444Y-36066141D01*
X19318050Y-36086135D01*
X19318692Y-36092681D01*
X19318694Y-36092689D01*
X19319381Y-36099699D01*
X19321604Y-36106381D01*
X19321605Y-36106387D01*
X19337670Y-36154680D01*
X19339902Y-36162155D01*
X19355474Y-36220884D01*
X19358924Y-36227333D01*
X19358926Y-36227337D01*
X19361560Y-36232260D01*
X19370019Y-36251923D01*
X19373094Y-36261167D01*
X19405132Y-36314069D01*
X19408437Y-36319869D01*
X19438918Y-36376834D01*
X19444889Y-36383595D01*
X19454642Y-36396861D01*
X19457598Y-36400699D01*
X19461246Y-36406723D01*
X19485204Y-36431532D01*
X19506921Y-36454021D01*
X19510725Y-36458140D01*
X19556000Y-36509404D01*
X19561976Y-36513628D01*
X19567428Y-36518519D01*
X19567400Y-36518551D01*
X19568907Y-36519844D01*
X19569132Y-36519572D01*
X19574558Y-36524061D01*
X19579455Y-36529132D01*
X19585354Y-36532992D01*
X19585355Y-36532993D01*
X19637781Y-36567299D01*
X19641481Y-36569816D01*
X19700440Y-36611484D01*
X19707228Y-36614220D01*
X19709001Y-36615186D01*
X19713689Y-36617310D01*
X19715955Y-36618454D01*
X19721846Y-36622310D01*
X19760416Y-36636654D01*
X19790941Y-36648006D01*
X19794119Y-36649237D01*
X19864489Y-36677598D01*
X19871727Y-36678699D01*
X19873653Y-36679226D01*
X19876330Y-36679762D01*
X19881341Y-36681626D01*
X19888326Y-36682558D01*
X19958483Y-36691919D01*
X19960769Y-36692245D01*
X20032116Y-36703099D01*
X20032119Y-36703099D01*
X20039349Y-36704199D01*
X20046287Y-36703635D01*
X20049177Y-36704020D01*
X20115464Y-36726027D01*
X20160053Y-36781274D01*
X20167696Y-36851858D01*
X20132776Y-36918675D01*
X18834856Y-38216595D01*
X18772544Y-38250621D01*
X18745761Y-38253500D01*
X5892239Y-38253500D01*
X5824118Y-38233498D01*
X5803144Y-38216595D01*
X5598405Y-38011856D01*
X5564379Y-37949544D01*
X5561500Y-37922761D01*
X5561500Y-35406534D01*
X5581502Y-35338413D01*
X5635158Y-35291920D01*
X5705432Y-35281816D01*
X5753616Y-35299274D01*
X5841090Y-35353194D01*
X5848262Y-35357615D01*
X5881131Y-35368517D01*
X6009611Y-35411132D01*
X6009613Y-35411132D01*
X6016139Y-35413297D01*
X6022975Y-35413997D01*
X6022978Y-35413998D01*
X6054388Y-35417216D01*
X6120600Y-35424000D01*
X7171400Y-35424000D01*
X7174646Y-35423663D01*
X7174650Y-35423663D01*
X7270308Y-35413738D01*
X7270312Y-35413737D01*
X7277166Y-35413026D01*
X7283702Y-35410845D01*
X7283704Y-35410845D01*
X7435744Y-35360120D01*
X7444946Y-35357050D01*
X7595348Y-35263978D01*
X7720305Y-35138803D01*
X7724148Y-35132569D01*
X7739057Y-35108383D01*
X7791829Y-35060890D01*
X7846316Y-35048500D01*
X8576933Y-35048500D01*
X8593595Y-35049607D01*
X8600765Y-35050563D01*
X8613035Y-35052201D01*
X8613038Y-35052201D01*
X8620015Y-35053132D01*
X8627026Y-35052494D01*
X8627030Y-35052494D01*
X8665208Y-35049019D01*
X8676628Y-35048500D01*
X8680293Y-35048500D01*
X8712141Y-35044787D01*
X8715167Y-35044472D01*
X8789483Y-35037709D01*
X8796192Y-35035529D01*
X8796972Y-35035369D01*
X8802494Y-35034483D01*
X8804412Y-35034029D01*
X8811681Y-35033182D01*
X8880230Y-35008299D01*
X8884287Y-35006905D01*
X8944622Y-34987301D01*
X8951322Y-34985124D01*
X8957372Y-34981517D01*
X8963790Y-34978606D01*
X8963971Y-34979004D01*
X8964566Y-34978722D01*
X8964510Y-34978609D01*
X8971058Y-34975330D01*
X8977937Y-34972833D01*
X8984057Y-34968820D01*
X8984062Y-34968818D01*
X9035764Y-34934921D01*
X9040330Y-34932064D01*
X9091442Y-34901595D01*
X9097490Y-34897990D01*
X9102590Y-34893133D01*
X9108204Y-34888872D01*
X9108221Y-34888895D01*
X9118961Y-34880374D01*
X9120747Y-34879203D01*
X9188682Y-34858579D01*
X9256983Y-34877958D01*
X9303964Y-34931186D01*
X9309357Y-34944696D01*
X9317130Y-34967995D01*
X9317133Y-34968002D01*
X9319450Y-34974946D01*
X9412522Y-35125348D01*
X9417704Y-35130521D01*
X9432280Y-35145072D01*
X9537697Y-35250305D01*
X9543927Y-35254145D01*
X9543928Y-35254146D01*
X9681090Y-35338694D01*
X9688262Y-35343115D01*
X9737264Y-35359368D01*
X9849611Y-35396632D01*
X9849613Y-35396632D01*
X9856139Y-35398797D01*
X9862975Y-35399497D01*
X9862978Y-35399498D01*
X9906031Y-35403909D01*
X9960600Y-35409500D01*
X10761400Y-35409500D01*
X10764646Y-35409163D01*
X10764650Y-35409163D01*
X10860308Y-35399238D01*
X10860312Y-35399237D01*
X10867166Y-35398526D01*
X10873702Y-35396345D01*
X10873704Y-35396345D01*
X11023466Y-35346380D01*
X11034946Y-35342550D01*
X11185348Y-35249478D01*
X11271784Y-35162891D01*
X11334066Y-35128812D01*
X11404886Y-35133815D01*
X11449975Y-35162736D01*
X11478207Y-35190919D01*
X11537697Y-35250305D01*
X11543927Y-35254145D01*
X11543928Y-35254146D01*
X11681090Y-35338694D01*
X11688262Y-35343115D01*
X11737264Y-35359368D01*
X11849611Y-35396632D01*
X11849613Y-35396632D01*
X11856139Y-35398797D01*
X11862975Y-35399497D01*
X11862978Y-35399498D01*
X11906031Y-35403909D01*
X11960600Y-35409500D01*
X12346574Y-35409500D01*
X12414695Y-35429502D01*
X12461188Y-35483158D01*
X12471358Y-35536866D01*
X12472500Y-35536866D01*
X12472500Y-37183134D01*
X12479255Y-37245316D01*
X12530385Y-37381705D01*
X12617739Y-37498261D01*
X12734295Y-37585615D01*
X12870684Y-37636745D01*
X12932866Y-37643500D01*
X14329134Y-37643500D01*
X14391316Y-37636745D01*
X14527705Y-37585615D01*
X14644261Y-37498261D01*
X14731615Y-37381705D01*
X14782745Y-37245316D01*
X14783598Y-37237463D01*
X14783599Y-37237459D01*
X14784303Y-37230974D01*
X14811542Y-37165411D01*
X14869904Y-37124983D01*
X14940858Y-37122526D01*
X14998584Y-37155405D01*
X15050586Y-37207316D01*
X15120697Y-37277305D01*
X15126927Y-37281145D01*
X15126928Y-37281146D01*
X15264090Y-37365694D01*
X15271262Y-37370115D01*
X15306205Y-37381705D01*
X15432611Y-37423632D01*
X15432613Y-37423632D01*
X15439139Y-37425797D01*
X15445975Y-37426497D01*
X15445978Y-37426498D01*
X15489031Y-37430909D01*
X15543600Y-37436500D01*
X16544400Y-37436500D01*
X16547646Y-37436163D01*
X16547650Y-37436163D01*
X16643308Y-37426238D01*
X16643312Y-37426237D01*
X16650166Y-37425526D01*
X16656702Y-37423345D01*
X16656704Y-37423345D01*
X16806715Y-37373297D01*
X16817946Y-37369550D01*
X16968348Y-37276478D01*
X17009909Y-37234845D01*
X17088134Y-37156483D01*
X17093305Y-37151303D01*
X17109529Y-37124983D01*
X17182275Y-37006968D01*
X17182276Y-37006966D01*
X17186115Y-37000738D01*
X17214889Y-36913987D01*
X17239632Y-36839389D01*
X17239632Y-36839387D01*
X17241797Y-36832861D01*
X17252500Y-36728400D01*
X17252500Y-35927600D01*
X17252028Y-35923049D01*
X17242238Y-35828692D01*
X17242237Y-35828688D01*
X17241526Y-35821834D01*
X17232041Y-35793402D01*
X17187868Y-35661002D01*
X17185550Y-35654054D01*
X17092478Y-35503652D01*
X17005891Y-35417216D01*
X16971812Y-35354934D01*
X16976815Y-35284114D01*
X17005736Y-35239025D01*
X17088134Y-35156483D01*
X17093305Y-35151303D01*
X17100366Y-35139848D01*
X17182275Y-35006968D01*
X17182276Y-35006966D01*
X17186115Y-35000738D01*
X17220350Y-34897522D01*
X17239632Y-34839389D01*
X17239632Y-34839387D01*
X17241797Y-34832861D01*
X17244204Y-34809375D01*
X17250548Y-34747453D01*
X17252500Y-34728400D01*
X17252500Y-33927600D01*
X17252163Y-33924350D01*
X17242238Y-33828692D01*
X17242237Y-33828688D01*
X17241526Y-33821834D01*
X17232233Y-33793978D01*
X17187868Y-33661002D01*
X17185550Y-33654054D01*
X17092478Y-33503652D01*
X17013482Y-33424793D01*
X16979403Y-33362512D01*
X16976500Y-33335621D01*
X16976500Y-32574239D01*
X16996502Y-32506118D01*
X17013405Y-32485144D01*
X18186144Y-31312405D01*
X18248456Y-31278379D01*
X18275239Y-31275500D01*
X21811500Y-31275500D01*
X21879621Y-31295502D01*
G37*
G04 #@! TD.AperFunction*
G04 #@! TA.AperFunction,Conductor*
G36*
X10898882Y-29114502D02*
G01*
X10919856Y-29131405D01*
X11270685Y-29482234D01*
X11281552Y-29494625D01*
X11301013Y-29519987D01*
X11307563Y-29525013D01*
X11332925Y-29544474D01*
X11332928Y-29544477D01*
X11420555Y-29611716D01*
X11428124Y-29617524D01*
X11576149Y-29678838D01*
X11584334Y-29679916D01*
X11584336Y-29679916D01*
X11590673Y-29680750D01*
X11695112Y-29694500D01*
X11695124Y-29694501D01*
X11726810Y-29698672D01*
X11726811Y-29698672D01*
X11735000Y-29699750D01*
X11766693Y-29695578D01*
X11783136Y-29694500D01*
X13637500Y-29694500D01*
X13705621Y-29714502D01*
X13752114Y-29768158D01*
X13763500Y-29820500D01*
X13763500Y-29972502D01*
X13766438Y-30009831D01*
X13812855Y-30169601D01*
X13897547Y-30312807D01*
X13900229Y-30315489D01*
X13925502Y-30379861D01*
X13911600Y-30449484D01*
X13901428Y-30465312D01*
X13897547Y-30469193D01*
X13812855Y-30612399D01*
X13810644Y-30620010D01*
X13810643Y-30620012D01*
X13802618Y-30647636D01*
X13766438Y-30772169D01*
X13763500Y-30809498D01*
X13763500Y-31242502D01*
X13763693Y-31244950D01*
X13763693Y-31244958D01*
X13765294Y-31265295D01*
X13766438Y-31279831D01*
X13768232Y-31286007D01*
X13768233Y-31286011D01*
X13794478Y-31376348D01*
X13794275Y-31447344D01*
X13755721Y-31506960D01*
X13691056Y-31536268D01*
X13673481Y-31537500D01*
X13237070Y-31537500D01*
X13218120Y-31536067D01*
X13203885Y-31533901D01*
X13203881Y-31533901D01*
X13196651Y-31532801D01*
X13189359Y-31533394D01*
X13189356Y-31533394D01*
X13143982Y-31537085D01*
X13133767Y-31537500D01*
X13125707Y-31537500D01*
X13122073Y-31537924D01*
X13122067Y-31537924D01*
X13109042Y-31539443D01*
X13097480Y-31540791D01*
X13093132Y-31541221D01*
X13020364Y-31547140D01*
X13013403Y-31549395D01*
X13007463Y-31550582D01*
X13001588Y-31551971D01*
X12994319Y-31552818D01*
X12925670Y-31577736D01*
X12921542Y-31579153D01*
X12859064Y-31599393D01*
X12859062Y-31599394D01*
X12852101Y-31601649D01*
X12845846Y-31605445D01*
X12840372Y-31607951D01*
X12834942Y-31610670D01*
X12828063Y-31613167D01*
X12821943Y-31617180D01*
X12821942Y-31617180D01*
X12767024Y-31653186D01*
X12763320Y-31655523D01*
X12700893Y-31693405D01*
X12692516Y-31700803D01*
X12692492Y-31700776D01*
X12689500Y-31703429D01*
X12686267Y-31706132D01*
X12680148Y-31710144D01*
X12653332Y-31738451D01*
X12626872Y-31766383D01*
X12624494Y-31768825D01*
X11872089Y-32521230D01*
X11857677Y-32533616D01*
X11846082Y-32542149D01*
X11846077Y-32542154D01*
X11840182Y-32546492D01*
X11835443Y-32552070D01*
X11835440Y-32552073D01*
X11805965Y-32586768D01*
X11799035Y-32594284D01*
X11793340Y-32599979D01*
X11791060Y-32602861D01*
X11775719Y-32622251D01*
X11772928Y-32625655D01*
X11730409Y-32675703D01*
X11725667Y-32681285D01*
X11722339Y-32687801D01*
X11718972Y-32692850D01*
X11715805Y-32697979D01*
X11711266Y-32703716D01*
X11680345Y-32769875D01*
X11678442Y-32773769D01*
X11645231Y-32838808D01*
X11643492Y-32845916D01*
X11641393Y-32851559D01*
X11639476Y-32857322D01*
X11636378Y-32863950D01*
X11634888Y-32871112D01*
X11634888Y-32871113D01*
X11621514Y-32935412D01*
X11620544Y-32939696D01*
X11603192Y-33010610D01*
X11602500Y-33021764D01*
X11602464Y-33021762D01*
X11602225Y-33025755D01*
X11601851Y-33029947D01*
X11600360Y-33037115D01*
X11600558Y-33044432D01*
X11599907Y-33051725D01*
X11597235Y-33051486D01*
X11582259Y-33108076D01*
X11547701Y-33142976D01*
X11548612Y-33144125D01*
X11542880Y-33148668D01*
X11536652Y-33152522D01*
X11531479Y-33157704D01*
X11450216Y-33239109D01*
X11387934Y-33273188D01*
X11317114Y-33268185D01*
X11272025Y-33239264D01*
X11189483Y-33156866D01*
X11184303Y-33151695D01*
X11178072Y-33147854D01*
X11172327Y-33143317D01*
X11173273Y-33142119D01*
X11131393Y-33095588D01*
X11119549Y-33049702D01*
X11119501Y-33049708D01*
X11119461Y-33049361D01*
X11119459Y-33049352D01*
X11119078Y-33046087D01*
X11119077Y-33046069D01*
X11116208Y-33021461D01*
X11115775Y-33017086D01*
X11110454Y-32951661D01*
X11110453Y-32951658D01*
X11109860Y-32944363D01*
X11107604Y-32937399D01*
X11106413Y-32931440D01*
X11105029Y-32925585D01*
X11104182Y-32918319D01*
X11079265Y-32849673D01*
X11077848Y-32845545D01*
X11057607Y-32783064D01*
X11057606Y-32783062D01*
X11055351Y-32776101D01*
X11051555Y-32769846D01*
X11049049Y-32764372D01*
X11046330Y-32758942D01*
X11043833Y-32752063D01*
X11003809Y-32691016D01*
X11001472Y-32687312D01*
X11000495Y-32685701D01*
X10972572Y-32639685D01*
X10966509Y-32629693D01*
X10966505Y-32629688D01*
X10963595Y-32624892D01*
X10956197Y-32616516D01*
X10956223Y-32616493D01*
X10953574Y-32613503D01*
X10950866Y-32610264D01*
X10946856Y-32604148D01*
X10941549Y-32599121D01*
X10941546Y-32599117D01*
X10890617Y-32550872D01*
X10888175Y-32548494D01*
X10187771Y-31848090D01*
X10153745Y-31785778D01*
X10158810Y-31714963D01*
X10201357Y-31658127D01*
X10212347Y-31650767D01*
X10234439Y-31637597D01*
X10240490Y-31633990D01*
X10245590Y-31629133D01*
X10251204Y-31624872D01*
X10251221Y-31624895D01*
X10261963Y-31616373D01*
X10262731Y-31615869D01*
X10268852Y-31611856D01*
X10273880Y-31606548D01*
X10273884Y-31606545D01*
X10313797Y-31564412D01*
X10318376Y-31559821D01*
X10358625Y-31521492D01*
X10363721Y-31516639D01*
X10367612Y-31510782D01*
X10367615Y-31510779D01*
X10368676Y-31509181D01*
X10382150Y-31492257D01*
X10390490Y-31483453D01*
X10411997Y-31446427D01*
X10421398Y-31430241D01*
X10425404Y-31423799D01*
X10453990Y-31380773D01*
X10457891Y-31374902D01*
X10462455Y-31362887D01*
X10471282Y-31344359D01*
X10479326Y-31330510D01*
X10481447Y-31323508D01*
X10481451Y-31323498D01*
X10496053Y-31275285D01*
X10498855Y-31267064D01*
X10515818Y-31222409D01*
X10518319Y-31215825D01*
X10520649Y-31199246D01*
X10524832Y-31180261D01*
X10528472Y-31168244D01*
X10528473Y-31168239D01*
X10530595Y-31161233D01*
X10531048Y-31153928D01*
X10531049Y-31153924D01*
X10533931Y-31107470D01*
X10534915Y-31097739D01*
X10541451Y-31051226D01*
X10542001Y-31047313D01*
X10542299Y-31026000D01*
X10541388Y-31017878D01*
X10540844Y-30996029D01*
X10541547Y-30984702D01*
X10530997Y-30923301D01*
X10529963Y-30916017D01*
X10523331Y-30856892D01*
X10519362Y-30845494D01*
X10514174Y-30825399D01*
X10512833Y-30817596D01*
X10511594Y-30810386D01*
X10508731Y-30803657D01*
X10508729Y-30803651D01*
X10488699Y-30756577D01*
X10485649Y-30748684D01*
X10469683Y-30702838D01*
X10467368Y-30696189D01*
X10458910Y-30682654D01*
X10449827Y-30665223D01*
X10445211Y-30654375D01*
X10445209Y-30654372D01*
X10442343Y-30647636D01*
X10438002Y-30641737D01*
X10409952Y-30603621D01*
X10404579Y-30595708D01*
X10399610Y-30587756D01*
X10377192Y-30551879D01*
X10363208Y-30537797D01*
X10351132Y-30523695D01*
X10341849Y-30511081D01*
X10337508Y-30505182D01*
X10298801Y-30472298D01*
X10290979Y-30465061D01*
X10262248Y-30436129D01*
X10257286Y-30431132D01*
X10237245Y-30418414D01*
X10223178Y-30408052D01*
X10208295Y-30395408D01*
X10202715Y-30390667D01*
X10160915Y-30369322D01*
X10150706Y-30363493D01*
X10119563Y-30343729D01*
X10119555Y-30343725D01*
X10113608Y-30339951D01*
X10106973Y-30337589D01*
X10106966Y-30337585D01*
X10087589Y-30330686D01*
X10072560Y-30324206D01*
X10045192Y-30310231D01*
X10013030Y-30302361D01*
X10003337Y-30299989D01*
X9991022Y-30296300D01*
X9990120Y-30295979D01*
X9953300Y-30282868D01*
X9946309Y-30282034D01*
X9946299Y-30282032D01*
X9922013Y-30279136D01*
X9906987Y-30276413D01*
X9873390Y-30268192D01*
X9867788Y-30267844D01*
X9867785Y-30267844D01*
X9864175Y-30267620D01*
X9864165Y-30267620D01*
X9862236Y-30267500D01*
X9831905Y-30267500D01*
X9816987Y-30266614D01*
X9791323Y-30263554D01*
X9784329Y-30262720D01*
X9777326Y-30263456D01*
X9777325Y-30263456D01*
X9745414Y-30266810D01*
X9732244Y-30267500D01*
X9270519Y-30267500D01*
X9202398Y-30247498D01*
X9155905Y-30193842D01*
X9145801Y-30123568D01*
X9149522Y-30106348D01*
X9175767Y-30016011D01*
X9175768Y-30016007D01*
X9177562Y-30009831D01*
X9180500Y-29972502D01*
X9180500Y-29539498D01*
X9179360Y-29525013D01*
X9178067Y-29508579D01*
X9178066Y-29508574D01*
X9177562Y-29502169D01*
X9131145Y-29342399D01*
X9096984Y-29284637D01*
X9079526Y-29215823D01*
X9102043Y-29148491D01*
X9157387Y-29104022D01*
X9205439Y-29094500D01*
X10830761Y-29094500D01*
X10898882Y-29114502D01*
G37*
G04 #@! TD.AperFunction*
G04 #@! TA.AperFunction,Conductor*
G36*
X22764774Y-25546906D02*
G01*
X22794462Y-25550131D01*
X22794476Y-25550132D01*
X22797866Y-25550500D01*
X23094134Y-25550500D01*
X23097529Y-25550131D01*
X23097533Y-25550131D01*
X23127220Y-25546906D01*
X23132394Y-25546344D01*
X23159606Y-25546344D01*
X23164780Y-25546906D01*
X23194467Y-25550131D01*
X23194471Y-25550131D01*
X23197866Y-25550500D01*
X23494134Y-25550500D01*
X23497529Y-25550131D01*
X23497533Y-25550131D01*
X23527220Y-25546906D01*
X23532394Y-25546344D01*
X23559606Y-25546344D01*
X23564780Y-25546906D01*
X23594467Y-25550131D01*
X23594471Y-25550131D01*
X23597866Y-25550500D01*
X23894134Y-25550500D01*
X23897529Y-25550131D01*
X23897533Y-25550131D01*
X23927220Y-25546906D01*
X23932394Y-25546344D01*
X23959606Y-25546344D01*
X23964780Y-25546906D01*
X23994467Y-25550131D01*
X23994471Y-25550131D01*
X23997866Y-25550500D01*
X24294134Y-25550500D01*
X24297529Y-25550131D01*
X24297533Y-25550131D01*
X24327220Y-25546906D01*
X24332394Y-25546344D01*
X24359606Y-25546344D01*
X24364780Y-25546906D01*
X24394467Y-25550131D01*
X24394471Y-25550131D01*
X24397866Y-25550500D01*
X24694134Y-25550500D01*
X24697529Y-25550131D01*
X24697533Y-25550131D01*
X24727220Y-25546906D01*
X24732394Y-25546344D01*
X24759606Y-25546344D01*
X24764780Y-25546906D01*
X24794467Y-25550131D01*
X24794471Y-25550131D01*
X24797866Y-25550500D01*
X25094134Y-25550500D01*
X25097529Y-25550131D01*
X25097533Y-25550131D01*
X25127220Y-25546906D01*
X25132394Y-25546344D01*
X25159606Y-25546344D01*
X25164780Y-25546906D01*
X25194467Y-25550131D01*
X25194471Y-25550131D01*
X25197866Y-25550500D01*
X25494134Y-25550500D01*
X25497529Y-25550131D01*
X25497533Y-25550131D01*
X25527220Y-25546906D01*
X25532394Y-25546344D01*
X25559606Y-25546344D01*
X25564780Y-25546906D01*
X25594467Y-25550131D01*
X25594471Y-25550131D01*
X25597866Y-25550500D01*
X25894134Y-25550500D01*
X25897529Y-25550131D01*
X25897533Y-25550131D01*
X25927220Y-25546906D01*
X25932394Y-25546344D01*
X25959606Y-25546344D01*
X25964780Y-25546906D01*
X25994467Y-25550131D01*
X25994471Y-25550131D01*
X25997866Y-25550500D01*
X26294134Y-25550500D01*
X26297529Y-25550131D01*
X26297533Y-25550131D01*
X26327220Y-25546906D01*
X26332394Y-25546344D01*
X26359606Y-25546344D01*
X26364780Y-25546906D01*
X26394467Y-25550131D01*
X26394471Y-25550131D01*
X26397866Y-25550500D01*
X26694134Y-25550500D01*
X26697529Y-25550131D01*
X26697533Y-25550131D01*
X26727220Y-25546906D01*
X26732394Y-25546344D01*
X26759606Y-25546344D01*
X26764780Y-25546906D01*
X26794467Y-25550131D01*
X26794471Y-25550131D01*
X26797866Y-25550500D01*
X27094134Y-25550500D01*
X27097529Y-25550131D01*
X27097533Y-25550131D01*
X27127220Y-25546906D01*
X27132394Y-25546344D01*
X27159606Y-25546344D01*
X27164780Y-25546906D01*
X27194467Y-25550131D01*
X27194471Y-25550131D01*
X27197866Y-25550500D01*
X27494134Y-25550500D01*
X27497524Y-25550132D01*
X27497538Y-25550131D01*
X27527226Y-25546906D01*
X27597108Y-25559435D01*
X27649123Y-25607757D01*
X27666756Y-25676529D01*
X27666094Y-25685774D01*
X27662869Y-25715462D01*
X27662868Y-25715476D01*
X27662500Y-25718866D01*
X27662500Y-26015134D01*
X27662869Y-26018529D01*
X27662869Y-26018533D01*
X27666656Y-26053393D01*
X27666656Y-26080606D01*
X27662500Y-26118866D01*
X27662500Y-26415134D01*
X27662869Y-26418529D01*
X27662869Y-26418533D01*
X27666656Y-26453393D01*
X27666656Y-26480606D01*
X27662500Y-26518866D01*
X27662500Y-26815134D01*
X27662869Y-26818529D01*
X27662869Y-26818533D01*
X27666656Y-26853393D01*
X27666656Y-26880606D01*
X27662500Y-26918866D01*
X27662500Y-27215134D01*
X27662869Y-27218529D01*
X27662869Y-27218533D01*
X27666656Y-27253393D01*
X27666656Y-27280606D01*
X27662500Y-27318866D01*
X27662500Y-27615134D01*
X27662869Y-27618529D01*
X27662869Y-27618533D01*
X27666656Y-27653393D01*
X27666656Y-27680606D01*
X27662500Y-27718866D01*
X27662500Y-28015134D01*
X27662869Y-28018529D01*
X27662869Y-28018533D01*
X27666656Y-28053393D01*
X27666656Y-28080606D01*
X27662500Y-28118866D01*
X27662500Y-28415134D01*
X27662869Y-28418529D01*
X27662869Y-28418533D01*
X27666656Y-28453393D01*
X27666656Y-28480606D01*
X27662500Y-28518866D01*
X27662500Y-28815134D01*
X27662869Y-28818529D01*
X27662869Y-28818533D01*
X27666656Y-28853393D01*
X27666656Y-28880606D01*
X27662500Y-28918866D01*
X27662500Y-29215134D01*
X27662869Y-29218529D01*
X27662869Y-29218533D01*
X27666656Y-29253393D01*
X27666656Y-29280606D01*
X27662500Y-29318866D01*
X27662500Y-29615134D01*
X27662869Y-29618529D01*
X27662869Y-29618533D01*
X27666656Y-29653393D01*
X27666656Y-29680606D01*
X27662500Y-29718866D01*
X27662500Y-30015134D01*
X27662869Y-30018529D01*
X27662869Y-30018533D01*
X27666656Y-30053393D01*
X27666656Y-30080606D01*
X27662500Y-30118866D01*
X27662500Y-30415134D01*
X27662868Y-30418524D01*
X27662869Y-30418538D01*
X27666094Y-30448226D01*
X27653565Y-30518108D01*
X27605243Y-30570123D01*
X27536471Y-30587756D01*
X27527226Y-30587094D01*
X27497538Y-30583869D01*
X27497524Y-30583868D01*
X27494134Y-30583500D01*
X27197866Y-30583500D01*
X27194471Y-30583869D01*
X27194467Y-30583869D01*
X27168469Y-30586693D01*
X27159606Y-30587656D01*
X27132394Y-30587656D01*
X27123531Y-30586693D01*
X27097533Y-30583869D01*
X27097529Y-30583869D01*
X27094134Y-30583500D01*
X26797866Y-30583500D01*
X26794471Y-30583869D01*
X26794467Y-30583869D01*
X26768469Y-30586693D01*
X26759606Y-30587656D01*
X26732394Y-30587656D01*
X26723531Y-30586693D01*
X26697533Y-30583869D01*
X26697529Y-30583869D01*
X26694134Y-30583500D01*
X26397866Y-30583500D01*
X26394471Y-30583869D01*
X26394467Y-30583869D01*
X26368469Y-30586693D01*
X26359606Y-30587656D01*
X26332394Y-30587656D01*
X26323531Y-30586693D01*
X26297533Y-30583869D01*
X26297529Y-30583869D01*
X26294134Y-30583500D01*
X25997866Y-30583500D01*
X25994471Y-30583869D01*
X25994467Y-30583869D01*
X25968469Y-30586693D01*
X25959606Y-30587656D01*
X25932394Y-30587656D01*
X25923531Y-30586693D01*
X25897533Y-30583869D01*
X25897529Y-30583869D01*
X25894134Y-30583500D01*
X25597866Y-30583500D01*
X25594471Y-30583869D01*
X25594467Y-30583869D01*
X25568469Y-30586693D01*
X25559606Y-30587656D01*
X25532394Y-30587656D01*
X25523531Y-30586693D01*
X25497533Y-30583869D01*
X25497529Y-30583869D01*
X25494134Y-30583500D01*
X25197866Y-30583500D01*
X25194471Y-30583869D01*
X25194467Y-30583869D01*
X25168469Y-30586693D01*
X25159606Y-30587656D01*
X25132394Y-30587656D01*
X25123531Y-30586693D01*
X25097533Y-30583869D01*
X25097529Y-30583869D01*
X25094134Y-30583500D01*
X24797866Y-30583500D01*
X24794471Y-30583869D01*
X24794467Y-30583869D01*
X24768469Y-30586693D01*
X24759606Y-30587656D01*
X24732394Y-30587656D01*
X24723531Y-30586693D01*
X24697533Y-30583869D01*
X24697529Y-30583869D01*
X24694134Y-30583500D01*
X24397866Y-30583500D01*
X24394471Y-30583869D01*
X24394467Y-30583869D01*
X24368469Y-30586693D01*
X24359606Y-30587656D01*
X24332394Y-30587656D01*
X24323531Y-30586693D01*
X24297533Y-30583869D01*
X24297529Y-30583869D01*
X24294134Y-30583500D01*
X23997866Y-30583500D01*
X23994471Y-30583869D01*
X23994467Y-30583869D01*
X23968469Y-30586693D01*
X23959606Y-30587656D01*
X23932394Y-30587656D01*
X23923531Y-30586693D01*
X23897533Y-30583869D01*
X23897529Y-30583869D01*
X23894134Y-30583500D01*
X23597866Y-30583500D01*
X23594471Y-30583869D01*
X23594467Y-30583869D01*
X23568469Y-30586693D01*
X23559606Y-30587656D01*
X23532394Y-30587656D01*
X23523531Y-30586693D01*
X23497533Y-30583869D01*
X23497529Y-30583869D01*
X23494134Y-30583500D01*
X23197866Y-30583500D01*
X23194471Y-30583869D01*
X23194467Y-30583869D01*
X23168469Y-30586693D01*
X23159606Y-30587656D01*
X23132394Y-30587656D01*
X23123531Y-30586693D01*
X23097533Y-30583869D01*
X23097529Y-30583869D01*
X23094134Y-30583500D01*
X22797866Y-30583500D01*
X22794476Y-30583868D01*
X22794462Y-30583869D01*
X22764774Y-30587094D01*
X22694892Y-30574565D01*
X22642877Y-30526243D01*
X22625244Y-30457471D01*
X22625906Y-30448226D01*
X22629131Y-30418538D01*
X22629132Y-30418524D01*
X22629500Y-30415134D01*
X22629500Y-30118866D01*
X22625344Y-30080606D01*
X22625344Y-30053393D01*
X22629131Y-30018533D01*
X22629131Y-30018529D01*
X22629500Y-30015134D01*
X22629500Y-29718866D01*
X22625344Y-29680606D01*
X22625344Y-29653393D01*
X22629131Y-29618533D01*
X22629131Y-29618529D01*
X22629500Y-29615134D01*
X22629500Y-29318866D01*
X22625344Y-29280606D01*
X22625344Y-29253393D01*
X22629131Y-29218533D01*
X22629131Y-29218529D01*
X22629500Y-29215134D01*
X22629500Y-28918866D01*
X22625344Y-28880606D01*
X22625344Y-28853393D01*
X22629131Y-28818533D01*
X22629131Y-28818529D01*
X22629500Y-28815134D01*
X22629500Y-28518866D01*
X22625344Y-28480606D01*
X22625344Y-28453393D01*
X22629131Y-28418533D01*
X22629131Y-28418529D01*
X22629500Y-28415134D01*
X22629500Y-28118866D01*
X22625344Y-28080606D01*
X22625344Y-28053393D01*
X22629131Y-28018533D01*
X22629131Y-28018529D01*
X22629500Y-28015134D01*
X22629500Y-27718866D01*
X22625344Y-27680606D01*
X22625344Y-27653393D01*
X22629131Y-27618533D01*
X22629131Y-27618529D01*
X22629500Y-27615134D01*
X22629500Y-27318866D01*
X22625344Y-27280606D01*
X22625344Y-27253393D01*
X22629131Y-27218533D01*
X22629131Y-27218529D01*
X22629500Y-27215134D01*
X22629500Y-26918866D01*
X22625344Y-26880606D01*
X22625344Y-26853393D01*
X22629131Y-26818533D01*
X22629131Y-26818529D01*
X22629500Y-26815134D01*
X22629500Y-26518866D01*
X22625344Y-26480606D01*
X22625344Y-26453393D01*
X22629131Y-26418533D01*
X22629131Y-26418529D01*
X22629500Y-26415134D01*
X22629500Y-26118866D01*
X22625344Y-26080606D01*
X22625344Y-26053393D01*
X22629131Y-26018533D01*
X22629131Y-26018529D01*
X22629500Y-26015134D01*
X22629500Y-25718866D01*
X22629132Y-25715476D01*
X22629131Y-25715462D01*
X22625906Y-25685774D01*
X22638435Y-25615892D01*
X22686757Y-25563877D01*
X22755529Y-25546244D01*
X22764774Y-25546906D01*
G37*
G04 #@! TD.AperFunction*
G04 #@! TA.AperFunction,Conductor*
G36*
X32072621Y-528502D02*
G01*
X32119114Y-582158D01*
X32130500Y-634500D01*
X32130500Y-8119377D01*
X32130498Y-8120147D01*
X32130024Y-8197721D01*
X32132491Y-8206352D01*
X32138150Y-8226153D01*
X32141728Y-8242915D01*
X32145920Y-8272187D01*
X32149634Y-8280355D01*
X32149634Y-8280356D01*
X32156548Y-8295562D01*
X32162996Y-8313086D01*
X32170051Y-8337771D01*
X32174843Y-8345365D01*
X32174844Y-8345368D01*
X32185830Y-8362780D01*
X32193969Y-8377863D01*
X32206208Y-8404782D01*
X32212069Y-8411584D01*
X32222970Y-8424235D01*
X32234073Y-8439239D01*
X32247776Y-8460958D01*
X32254501Y-8466897D01*
X32254504Y-8466901D01*
X32269938Y-8480532D01*
X32281982Y-8492724D01*
X32295427Y-8508327D01*
X32295430Y-8508329D01*
X32301287Y-8515127D01*
X32308816Y-8520007D01*
X32308817Y-8520008D01*
X32322835Y-8529094D01*
X32337709Y-8540385D01*
X32350217Y-8551431D01*
X32356951Y-8557378D01*
X32383711Y-8569942D01*
X32398691Y-8578263D01*
X32415983Y-8589471D01*
X32415988Y-8589473D01*
X32423515Y-8594352D01*
X32432108Y-8596922D01*
X32432113Y-8596924D01*
X32448120Y-8601711D01*
X32465564Y-8608372D01*
X32480676Y-8615467D01*
X32480678Y-8615468D01*
X32488800Y-8619281D01*
X32497667Y-8620662D01*
X32497668Y-8620662D01*
X32500353Y-8621080D01*
X32518017Y-8623830D01*
X32534732Y-8627613D01*
X32554466Y-8633515D01*
X32554472Y-8633516D01*
X32563066Y-8636086D01*
X32572037Y-8636141D01*
X32572038Y-8636141D01*
X32582097Y-8636202D01*
X32597506Y-8636296D01*
X32598289Y-8636329D01*
X32599386Y-8636500D01*
X32630377Y-8636500D01*
X32631147Y-8636502D01*
X32704785Y-8636952D01*
X32704786Y-8636952D01*
X32708721Y-8636976D01*
X32710065Y-8636592D01*
X32711410Y-8636500D01*
X34408377Y-8636500D01*
X34409148Y-8636502D01*
X34486721Y-8636976D01*
X34515152Y-8628850D01*
X34531915Y-8625272D01*
X34532753Y-8625152D01*
X34561187Y-8621080D01*
X34584564Y-8610451D01*
X34602087Y-8604004D01*
X34626771Y-8596949D01*
X34634365Y-8592157D01*
X34634368Y-8592156D01*
X34651780Y-8581170D01*
X34666865Y-8573030D01*
X34668031Y-8572500D01*
X34693782Y-8560792D01*
X34713235Y-8544030D01*
X34728239Y-8532927D01*
X34749958Y-8519224D01*
X34755897Y-8512499D01*
X34755901Y-8512496D01*
X34769532Y-8497062D01*
X34781724Y-8485018D01*
X34797327Y-8471573D01*
X34797329Y-8471570D01*
X34804127Y-8465713D01*
X34818094Y-8444165D01*
X34829385Y-8429291D01*
X34840431Y-8416783D01*
X34840432Y-8416782D01*
X34846378Y-8410049D01*
X34858943Y-8383287D01*
X34867263Y-8368309D01*
X34878471Y-8351017D01*
X34878473Y-8351012D01*
X34883352Y-8343485D01*
X34885922Y-8334892D01*
X34885924Y-8334887D01*
X34890711Y-8318880D01*
X34897372Y-8301436D01*
X34904467Y-8286324D01*
X34904468Y-8286322D01*
X34908281Y-8278200D01*
X34910180Y-8266008D01*
X34912830Y-8248985D01*
X34916613Y-8232268D01*
X34922515Y-8212534D01*
X34922516Y-8212528D01*
X34925086Y-8203934D01*
X34925296Y-8169494D01*
X34925329Y-8168711D01*
X34925500Y-8167614D01*
X34925500Y-8136623D01*
X34925502Y-8135853D01*
X34925952Y-8062215D01*
X34925952Y-8062214D01*
X34925976Y-8058279D01*
X34925592Y-8056935D01*
X34925500Y-8055590D01*
X34925500Y-4064000D01*
X39682540Y-4064000D01*
X39702359Y-4379020D01*
X39761505Y-4689072D01*
X39859044Y-4989266D01*
X39860731Y-4992852D01*
X39860733Y-4992856D01*
X39991750Y-5271283D01*
X39991754Y-5271290D01*
X39993438Y-5274869D01*
X40162568Y-5541375D01*
X40363767Y-5784582D01*
X40593860Y-6000654D01*
X40849221Y-6186184D01*
X41125821Y-6338247D01*
X41129490Y-6339700D01*
X41129495Y-6339702D01*
X41415628Y-6452990D01*
X41419298Y-6454443D01*
X41725025Y-6532940D01*
X42038179Y-6572500D01*
X42353821Y-6572500D01*
X42666975Y-6532940D01*
X42972702Y-6454443D01*
X42976372Y-6452990D01*
X43262505Y-6339702D01*
X43262510Y-6339700D01*
X43266179Y-6338247D01*
X43542779Y-6186184D01*
X43798140Y-6000654D01*
X44028233Y-5784582D01*
X44229432Y-5541375D01*
X44398562Y-5274869D01*
X44400246Y-5271290D01*
X44400250Y-5271283D01*
X44531267Y-4992856D01*
X44531269Y-4992852D01*
X44532956Y-4989266D01*
X44630495Y-4689072D01*
X44689641Y-4379020D01*
X44709460Y-4064000D01*
X44689641Y-3748980D01*
X44630495Y-3438928D01*
X44532956Y-3138734D01*
X44526667Y-3125369D01*
X44400250Y-2856717D01*
X44400246Y-2856710D01*
X44398562Y-2853131D01*
X44229432Y-2586625D01*
X44028233Y-2343418D01*
X43798140Y-2127346D01*
X43542779Y-1941816D01*
X43266179Y-1789753D01*
X43262510Y-1788300D01*
X43262505Y-1788298D01*
X42976372Y-1675010D01*
X42976371Y-1675010D01*
X42972702Y-1673557D01*
X42666975Y-1595060D01*
X42353821Y-1555500D01*
X42038179Y-1555500D01*
X41725025Y-1595060D01*
X41419298Y-1673557D01*
X41415629Y-1675010D01*
X41415628Y-1675010D01*
X41129495Y-1788298D01*
X41129490Y-1788300D01*
X41125821Y-1789753D01*
X40849221Y-1941816D01*
X40593860Y-2127346D01*
X40363767Y-2343418D01*
X40162568Y-2586625D01*
X39993438Y-2853131D01*
X39991754Y-2856710D01*
X39991750Y-2856717D01*
X39865333Y-3125369D01*
X39859044Y-3138734D01*
X39761505Y-3438928D01*
X39702359Y-3748980D01*
X39684833Y-4027559D01*
X39682540Y-4064000D01*
X34925500Y-4064000D01*
X34925500Y-634500D01*
X34945502Y-566379D01*
X34999158Y-519886D01*
X35051500Y-508500D01*
X45593500Y-508500D01*
X45661621Y-528502D01*
X45708114Y-582158D01*
X45719500Y-634500D01*
X45719500Y-27794520D01*
X45699498Y-27862641D01*
X45645842Y-27909134D01*
X45575568Y-27919238D01*
X45510988Y-27889744D01*
X45504482Y-27883693D01*
X45497734Y-27876956D01*
X45400303Y-27779695D01*
X45384718Y-27770088D01*
X45255968Y-27690725D01*
X45255966Y-27690724D01*
X45249738Y-27686885D01*
X45089254Y-27633655D01*
X45088389Y-27633368D01*
X45088387Y-27633368D01*
X45081861Y-27631203D01*
X45075025Y-27630503D01*
X45075022Y-27630502D01*
X45031969Y-27626091D01*
X44977400Y-27620500D01*
X44176600Y-27620500D01*
X44173354Y-27620837D01*
X44173350Y-27620837D01*
X44077692Y-27630762D01*
X44077688Y-27630763D01*
X44070834Y-27631474D01*
X44064298Y-27633655D01*
X44064296Y-27633655D01*
X43995798Y-27656508D01*
X43903054Y-27687450D01*
X43752652Y-27780522D01*
X43747479Y-27785704D01*
X43666216Y-27867109D01*
X43603934Y-27901188D01*
X43533114Y-27896185D01*
X43488025Y-27867264D01*
X43405483Y-27784866D01*
X43400303Y-27779695D01*
X43384718Y-27770088D01*
X43255968Y-27690725D01*
X43255966Y-27690724D01*
X43249738Y-27686885D01*
X43089254Y-27633655D01*
X43088389Y-27633368D01*
X43088387Y-27633368D01*
X43081861Y-27631203D01*
X43075025Y-27630503D01*
X43075022Y-27630502D01*
X43031969Y-27626091D01*
X42977400Y-27620500D01*
X42176600Y-27620500D01*
X42173354Y-27620837D01*
X42173350Y-27620837D01*
X42077692Y-27630762D01*
X42077688Y-27630763D01*
X42070834Y-27631474D01*
X42064298Y-27633655D01*
X42064296Y-27633655D01*
X41995798Y-27656508D01*
X41903054Y-27687450D01*
X41752652Y-27780522D01*
X41627695Y-27905697D01*
X41623855Y-27911927D01*
X41623854Y-27911928D01*
X41558142Y-28018533D01*
X41534885Y-28056262D01*
X41526810Y-28080607D01*
X41510429Y-28129995D01*
X41469999Y-28188355D01*
X41404473Y-28215576D01*
X41402000Y-28215250D01*
X41374024Y-28218933D01*
X41362126Y-28220499D01*
X41362117Y-28220500D01*
X41362115Y-28220500D01*
X41362109Y-28220501D01*
X41362107Y-28220501D01*
X41273480Y-28232169D01*
X41251337Y-28235084D01*
X41251336Y-28235084D01*
X41243149Y-28236162D01*
X41095124Y-28297476D01*
X41088573Y-28302503D01*
X41088571Y-28302504D01*
X40999928Y-28370523D01*
X40999925Y-28370526D01*
X40968013Y-28395013D01*
X40962983Y-28401568D01*
X40948548Y-28420379D01*
X40937681Y-28432770D01*
X39835595Y-29534856D01*
X39773283Y-29568882D01*
X39702468Y-29563817D01*
X39645632Y-29521270D01*
X39620821Y-29454750D01*
X39620500Y-29445761D01*
X39620500Y-25830632D01*
X39640502Y-25762511D01*
X39673331Y-25728054D01*
X39741860Y-25679173D01*
X39761163Y-25659938D01*
X39857560Y-25563877D01*
X39900096Y-25521489D01*
X39959594Y-25438689D01*
X40027435Y-25344277D01*
X40030453Y-25340077D01*
X40050417Y-25299684D01*
X40127136Y-25144453D01*
X40127137Y-25144451D01*
X40129430Y-25139811D01*
X40178281Y-24979023D01*
X40192865Y-24931023D01*
X40192865Y-24931021D01*
X40194370Y-24926069D01*
X40223529Y-24704590D01*
X40223723Y-24696650D01*
X40225074Y-24641365D01*
X40225074Y-24641361D01*
X40225156Y-24638000D01*
X40206852Y-24415361D01*
X40152431Y-24198702D01*
X40063354Y-23993840D01*
X39973067Y-23854277D01*
X39944822Y-23810617D01*
X39944820Y-23810614D01*
X39942014Y-23806277D01*
X39791670Y-23641051D01*
X39787619Y-23637852D01*
X39787615Y-23637848D01*
X39620414Y-23505800D01*
X39620410Y-23505798D01*
X39616359Y-23502598D01*
X39575053Y-23479796D01*
X39525084Y-23429364D01*
X39510312Y-23359921D01*
X39535428Y-23293516D01*
X39562780Y-23266909D01*
X39629256Y-23219492D01*
X39741860Y-23139173D01*
X39761163Y-23119938D01*
X39896435Y-22985137D01*
X39900096Y-22981489D01*
X39903798Y-22976338D01*
X40027435Y-22804277D01*
X40030453Y-22800077D01*
X40043488Y-22773704D01*
X40127136Y-22604453D01*
X40127137Y-22604451D01*
X40129430Y-22599811D01*
X40172559Y-22457856D01*
X40192865Y-22391023D01*
X40192865Y-22391021D01*
X40194370Y-22386069D01*
X40223529Y-22164590D01*
X40224875Y-22109500D01*
X40225074Y-22101365D01*
X40225074Y-22101361D01*
X40225156Y-22098000D01*
X40206852Y-21875361D01*
X40152431Y-21658702D01*
X40063354Y-21453840D01*
X40005801Y-21364876D01*
X39944822Y-21270617D01*
X39944820Y-21270614D01*
X39942014Y-21266277D01*
X39791670Y-21101051D01*
X39787619Y-21097852D01*
X39787615Y-21097848D01*
X39620414Y-20965800D01*
X39620410Y-20965798D01*
X39616359Y-20962598D01*
X39575053Y-20939796D01*
X39525084Y-20889364D01*
X39510312Y-20819921D01*
X39535428Y-20753516D01*
X39562780Y-20726909D01*
X39606603Y-20695650D01*
X39741860Y-20599173D01*
X39761163Y-20579938D01*
X39896435Y-20445137D01*
X39900096Y-20441489D01*
X39908986Y-20429118D01*
X40027435Y-20264277D01*
X40030453Y-20260077D01*
X40075279Y-20169379D01*
X40127136Y-20064453D01*
X40127137Y-20064451D01*
X40129430Y-20059811D01*
X40194370Y-19846069D01*
X40223529Y-19624590D01*
X40224797Y-19572695D01*
X40225074Y-19561365D01*
X40225074Y-19561361D01*
X40225156Y-19558000D01*
X40206852Y-19335361D01*
X40152431Y-19118702D01*
X40063354Y-18913840D01*
X40001358Y-18818009D01*
X39944822Y-18730617D01*
X39944820Y-18730614D01*
X39942014Y-18726277D01*
X39791670Y-18561051D01*
X39787619Y-18557852D01*
X39787615Y-18557848D01*
X39620414Y-18425800D01*
X39620410Y-18425798D01*
X39616359Y-18422598D01*
X39420789Y-18314638D01*
X39415920Y-18312914D01*
X39415916Y-18312912D01*
X39215087Y-18241795D01*
X39215083Y-18241794D01*
X39210212Y-18240069D01*
X39205119Y-18239162D01*
X39205116Y-18239161D01*
X38995373Y-18201800D01*
X38995367Y-18201799D01*
X38990284Y-18200894D01*
X38916452Y-18199992D01*
X38772081Y-18198228D01*
X38772079Y-18198228D01*
X38766911Y-18198165D01*
X38546091Y-18231955D01*
X38333756Y-18301357D01*
X38305585Y-18316022D01*
X38150132Y-18396946D01*
X38135607Y-18404507D01*
X38131474Y-18407610D01*
X38131471Y-18407612D01*
X37961100Y-18535530D01*
X37956965Y-18538635D01*
X37938605Y-18557848D01*
X37819133Y-18682868D01*
X37802629Y-18700138D01*
X37799715Y-18704410D01*
X37799714Y-18704411D01*
X37776653Y-18738218D01*
X37676743Y-18884680D01*
X37675945Y-18886400D01*
X37625589Y-18935088D01*
X37567074Y-18949500D01*
X37259144Y-18949500D01*
X37242698Y-18948422D01*
X37219188Y-18945327D01*
X37211000Y-18944249D01*
X37052149Y-18965162D01*
X36904124Y-19026476D01*
X36859517Y-19060704D01*
X36808937Y-19099515D01*
X36808921Y-19099529D01*
X36783566Y-19118984D01*
X36783563Y-19118987D01*
X36777013Y-19124013D01*
X36771983Y-19130568D01*
X36757548Y-19149379D01*
X36746681Y-19161770D01*
X36681609Y-19226842D01*
X36619297Y-19260868D01*
X36548482Y-19255803D01*
X36491646Y-19213256D01*
X36467187Y-19150752D01*
X36463238Y-19112692D01*
X36463237Y-19112688D01*
X36462526Y-19105834D01*
X36447470Y-19060704D01*
X36413732Y-18959581D01*
X36406550Y-18938054D01*
X36313478Y-18787652D01*
X36256344Y-18730617D01*
X36193483Y-18667866D01*
X36188303Y-18662695D01*
X36083383Y-18598021D01*
X36035891Y-18545250D01*
X36023500Y-18490762D01*
X36023500Y-18187063D01*
X36024933Y-18168114D01*
X36027097Y-18153886D01*
X36028198Y-18146651D01*
X36023915Y-18093990D01*
X36023500Y-18083777D01*
X36023500Y-18075707D01*
X36023078Y-18072087D01*
X36023077Y-18072069D01*
X36020208Y-18047461D01*
X36019775Y-18043086D01*
X36014454Y-17977661D01*
X36014453Y-17977658D01*
X36013860Y-17970363D01*
X36011604Y-17963399D01*
X36010413Y-17957440D01*
X36009029Y-17951585D01*
X36008182Y-17944319D01*
X35983265Y-17875673D01*
X35981848Y-17871545D01*
X35961607Y-17809064D01*
X35961606Y-17809062D01*
X35959351Y-17802101D01*
X35955555Y-17795846D01*
X35953049Y-17790372D01*
X35950330Y-17784942D01*
X35947833Y-17778063D01*
X35907809Y-17717016D01*
X35905472Y-17713312D01*
X35870509Y-17655693D01*
X35870505Y-17655688D01*
X35867595Y-17650892D01*
X35860197Y-17642516D01*
X35860223Y-17642493D01*
X35857574Y-17639503D01*
X35854866Y-17636264D01*
X35850856Y-17630148D01*
X35845549Y-17625121D01*
X35845546Y-17625117D01*
X35794617Y-17576872D01*
X35792175Y-17574494D01*
X35724724Y-17507043D01*
X35662248Y-17444129D01*
X35657286Y-17439132D01*
X35628504Y-17420866D01*
X35624134Y-17418093D01*
X35613470Y-17410522D01*
X35586025Y-17388808D01*
X35586024Y-17388808D01*
X35580284Y-17384266D01*
X35551740Y-17370926D01*
X35537594Y-17363173D01*
X35513608Y-17347951D01*
X35472936Y-17333469D01*
X35461893Y-17328934D01*
X35420050Y-17309378D01*
X35412888Y-17307888D01*
X35412884Y-17307887D01*
X35393002Y-17303752D01*
X35376400Y-17299094D01*
X35353300Y-17290868D01*
X35318833Y-17286758D01*
X35306583Y-17285297D01*
X35295846Y-17283543D01*
X35254052Y-17274850D01*
X35254046Y-17274849D01*
X35246885Y-17273360D01*
X35236326Y-17273646D01*
X35223135Y-17274002D01*
X35204814Y-17273162D01*
X35191325Y-17271554D01*
X35191324Y-17271554D01*
X35184329Y-17270720D01*
X35177326Y-17271456D01*
X35177322Y-17271456D01*
X35133687Y-17276042D01*
X35123926Y-17276686D01*
X35083045Y-17277792D01*
X35070079Y-17278143D01*
X35062998Y-17280021D01*
X35062995Y-17280021D01*
X35050859Y-17283239D01*
X35031736Y-17286758D01*
X35015093Y-17288507D01*
X35008425Y-17290777D01*
X35008420Y-17290778D01*
X34963194Y-17306174D01*
X34954885Y-17308687D01*
X34899116Y-17323474D01*
X34892665Y-17326926D01*
X34892662Y-17326927D01*
X34885009Y-17331022D01*
X34866172Y-17339204D01*
X34854003Y-17343346D01*
X34848003Y-17347037D01*
X34841628Y-17350037D01*
X34840599Y-17347849D01*
X34783009Y-17363529D01*
X34715297Y-17342185D01*
X34669874Y-17287620D01*
X34659500Y-17237554D01*
X34659500Y-13420120D01*
X34660933Y-13401170D01*
X34663099Y-13386935D01*
X34663099Y-13386931D01*
X34664199Y-13379701D01*
X34659915Y-13327032D01*
X34659500Y-13316817D01*
X34659500Y-13308757D01*
X34656211Y-13280543D01*
X34655778Y-13276168D01*
X34650454Y-13210711D01*
X34650453Y-13210708D01*
X34649860Y-13203413D01*
X34647604Y-13196449D01*
X34646413Y-13190490D01*
X34645029Y-13184635D01*
X34644182Y-13177369D01*
X34619265Y-13108723D01*
X34617848Y-13104595D01*
X34597607Y-13042114D01*
X34597606Y-13042112D01*
X34595351Y-13035151D01*
X34591555Y-13028896D01*
X34589049Y-13023422D01*
X34586330Y-13017992D01*
X34583833Y-13011113D01*
X34560361Y-12975313D01*
X34543814Y-12950074D01*
X34541467Y-12946355D01*
X34529792Y-12927115D01*
X34503595Y-12883943D01*
X34496197Y-12875566D01*
X34496224Y-12875542D01*
X34493571Y-12872550D01*
X34490868Y-12869317D01*
X34486856Y-12863198D01*
X34430617Y-12809922D01*
X34428175Y-12807544D01*
X32500226Y-10879595D01*
X32466200Y-10817283D01*
X32471265Y-10746468D01*
X32513812Y-10689632D01*
X32580332Y-10664821D01*
X32589321Y-10664500D01*
X34177629Y-10664500D01*
X34245750Y-10684502D01*
X34266724Y-10701405D01*
X34385875Y-10820556D01*
X34416613Y-10870714D01*
X34471473Y-11039556D01*
X34474776Y-11045278D01*
X34474777Y-11045279D01*
X34508686Y-11104010D01*
X34566960Y-11204944D01*
X34694747Y-11346866D01*
X34849248Y-11459118D01*
X34855276Y-11461802D01*
X34855278Y-11461803D01*
X35017681Y-11534109D01*
X35023712Y-11536794D01*
X35117112Y-11556647D01*
X35204056Y-11575128D01*
X35204061Y-11575128D01*
X35210513Y-11576500D01*
X35401487Y-11576500D01*
X35407939Y-11575128D01*
X35407944Y-11575128D01*
X35494888Y-11556647D01*
X35588288Y-11536794D01*
X35594319Y-11534109D01*
X35756722Y-11461803D01*
X35756724Y-11461802D01*
X35762752Y-11459118D01*
X35917253Y-11346866D01*
X36045040Y-11204944D01*
X36103314Y-11104010D01*
X36137223Y-11045279D01*
X36137224Y-11045278D01*
X36140527Y-11039556D01*
X36199542Y-10857928D01*
X36201040Y-10843681D01*
X36218814Y-10674565D01*
X36219504Y-10668000D01*
X36199542Y-10478072D01*
X36140527Y-10296444D01*
X36119688Y-10260349D01*
X36101854Y-10229460D01*
X36045040Y-10131056D01*
X35959902Y-10036500D01*
X35921675Y-9994045D01*
X35921674Y-9994044D01*
X35917253Y-9989134D01*
X35762752Y-9876882D01*
X35756724Y-9874198D01*
X35756722Y-9874197D01*
X35594319Y-9801891D01*
X35594318Y-9801891D01*
X35588288Y-9799206D01*
X35581833Y-9797834D01*
X35581824Y-9797831D01*
X35525228Y-9785801D01*
X35462331Y-9751650D01*
X35127770Y-9417089D01*
X35115384Y-9402677D01*
X35106851Y-9391082D01*
X35106846Y-9391077D01*
X35102508Y-9385182D01*
X35096930Y-9380443D01*
X35096927Y-9380440D01*
X35062232Y-9350965D01*
X35054716Y-9344035D01*
X35049021Y-9338340D01*
X35042880Y-9333482D01*
X35026749Y-9320719D01*
X35023345Y-9317928D01*
X34973297Y-9275409D01*
X34973295Y-9275408D01*
X34967715Y-9270667D01*
X34961199Y-9267339D01*
X34956150Y-9263972D01*
X34951021Y-9260805D01*
X34945284Y-9256266D01*
X34879125Y-9225345D01*
X34875225Y-9223439D01*
X34867221Y-9219352D01*
X34810192Y-9190231D01*
X34803084Y-9188492D01*
X34797441Y-9186393D01*
X34791678Y-9184476D01*
X34785050Y-9181378D01*
X34713583Y-9166513D01*
X34709299Y-9165543D01*
X34638390Y-9148192D01*
X34632788Y-9147844D01*
X34632785Y-9147844D01*
X34627236Y-9147500D01*
X34627238Y-9147464D01*
X34623245Y-9147225D01*
X34619053Y-9146851D01*
X34611885Y-9145360D01*
X34545675Y-9147151D01*
X34534479Y-9147454D01*
X34531072Y-9147500D01*
X30338371Y-9147500D01*
X30270250Y-9127498D01*
X30249276Y-9110595D01*
X29886949Y-8748268D01*
X29852923Y-8685956D01*
X29857988Y-8615141D01*
X29900535Y-8558305D01*
X29931814Y-8541191D01*
X29988319Y-8520008D01*
X30002705Y-8514615D01*
X30119261Y-8427261D01*
X30206615Y-8310705D01*
X30257745Y-8174316D01*
X30264500Y-8112134D01*
X30264500Y-634500D01*
X30284502Y-566379D01*
X30338158Y-519886D01*
X30390500Y-508500D01*
X32004500Y-508500D01*
X32072621Y-528502D01*
G37*
G04 #@! TD.AperFunction*
G04 #@! TA.AperFunction,Conductor*
G36*
X37447803Y-24222912D02*
G01*
X37504639Y-24265459D01*
X37529450Y-24331979D01*
X37525189Y-24374637D01*
X37522989Y-24382570D01*
X37499251Y-24604695D01*
X37499548Y-24609848D01*
X37499548Y-24609851D01*
X37505011Y-24704590D01*
X37512110Y-24827715D01*
X37513247Y-24832761D01*
X37513248Y-24832767D01*
X37522927Y-24875715D01*
X37561222Y-25045639D01*
X37645266Y-25252616D01*
X37647965Y-25257020D01*
X37725434Y-25383438D01*
X37761987Y-25443088D01*
X37908250Y-25611938D01*
X38050663Y-25730171D01*
X38057985Y-25736250D01*
X38097620Y-25795152D01*
X38103500Y-25833194D01*
X38103500Y-29097629D01*
X38083498Y-29165750D01*
X38066595Y-29186724D01*
X37822724Y-29430595D01*
X37760412Y-29464621D01*
X37733629Y-29467500D01*
X34148371Y-29467500D01*
X34080250Y-29447498D01*
X34059276Y-29430595D01*
X33941905Y-29313224D01*
X33907879Y-29250912D01*
X33905000Y-29224129D01*
X33905000Y-28214600D01*
X33894026Y-28108834D01*
X33875530Y-28053393D01*
X33840368Y-27948002D01*
X33838050Y-27941054D01*
X33744978Y-27790652D01*
X33747712Y-27788960D01*
X33726451Y-27736462D01*
X33739607Y-27666695D01*
X33746138Y-27656508D01*
X33745805Y-27656303D01*
X33834775Y-27511968D01*
X33834776Y-27511966D01*
X33838615Y-27505738D01*
X33868044Y-27417013D01*
X33892132Y-27344389D01*
X33892132Y-27344387D01*
X33894297Y-27337861D01*
X33896592Y-27315467D01*
X33901557Y-27267000D01*
X33905000Y-27233400D01*
X33905000Y-26182600D01*
X33898387Y-26118866D01*
X33894738Y-26083692D01*
X33894737Y-26083688D01*
X33894026Y-26076834D01*
X33886206Y-26053393D01*
X33840368Y-25916002D01*
X33838050Y-25909054D01*
X33744978Y-25758652D01*
X33619803Y-25633695D01*
X33613569Y-25629852D01*
X33576106Y-25606759D01*
X33528613Y-25553987D01*
X33517191Y-25483915D01*
X33545465Y-25418792D01*
X33604459Y-25379292D01*
X33642223Y-25373500D01*
X35892864Y-25373500D01*
X35909307Y-25374578D01*
X35941000Y-25378750D01*
X35949189Y-25377672D01*
X35980874Y-25373501D01*
X35980884Y-25373500D01*
X35980885Y-25373500D01*
X36080457Y-25360391D01*
X36091664Y-25358916D01*
X36091666Y-25358915D01*
X36099851Y-25357838D01*
X36247876Y-25296524D01*
X36270129Y-25279449D01*
X36343072Y-25223477D01*
X36343075Y-25223474D01*
X36374987Y-25198987D01*
X36384614Y-25186441D01*
X36394452Y-25173621D01*
X36405319Y-25161230D01*
X37314676Y-24251873D01*
X37376988Y-24217847D01*
X37447803Y-24222912D01*
G37*
G04 #@! TD.AperFunction*
G04 #@! TA.AperFunction,Conductor*
G36*
X15724882Y-27971502D02*
G01*
X15745856Y-27988405D01*
X16019856Y-28262405D01*
X16053882Y-28324717D01*
X16048817Y-28395532D01*
X16006270Y-28452368D01*
X15939750Y-28477179D01*
X15930761Y-28477500D01*
X12039239Y-28477500D01*
X11971118Y-28457498D01*
X11950144Y-28440595D01*
X11676144Y-28166595D01*
X11642118Y-28104283D01*
X11647183Y-28033468D01*
X11689730Y-27976632D01*
X11756250Y-27951821D01*
X11765239Y-27951500D01*
X15656761Y-27951500D01*
X15724882Y-27971502D01*
G37*
G04 #@! TD.AperFunction*
G04 #@! TA.AperFunction,Conductor*
G36*
X22695143Y-8405888D02*
G01*
X22706823Y-8419367D01*
X22712739Y-8427261D01*
X22829295Y-8514615D01*
X22965684Y-8565745D01*
X22992914Y-8568703D01*
X23005108Y-8570028D01*
X23070670Y-8597270D01*
X23111096Y-8655634D01*
X23117500Y-8695291D01*
X23117500Y-10600930D01*
X23116067Y-10619880D01*
X23114524Y-10630024D01*
X23112801Y-10641349D01*
X23113394Y-10648641D01*
X23113394Y-10648644D01*
X23117085Y-10694018D01*
X23117500Y-10704233D01*
X23117500Y-10712293D01*
X23117925Y-10715937D01*
X23120789Y-10740507D01*
X23121222Y-10744882D01*
X23123823Y-10776852D01*
X23127140Y-10817637D01*
X23129396Y-10824601D01*
X23130587Y-10830560D01*
X23131971Y-10836415D01*
X23132818Y-10843681D01*
X23157735Y-10912327D01*
X23159152Y-10916455D01*
X23181649Y-10985899D01*
X23185445Y-10992154D01*
X23187951Y-10997628D01*
X23190670Y-11003058D01*
X23193167Y-11009937D01*
X23197180Y-11016057D01*
X23197180Y-11016058D01*
X23233186Y-11070976D01*
X23235523Y-11074680D01*
X23273405Y-11137107D01*
X23277121Y-11141315D01*
X23277122Y-11141316D01*
X23280803Y-11145484D01*
X23280776Y-11145508D01*
X23283429Y-11148500D01*
X23286132Y-11151733D01*
X23290144Y-11157852D01*
X23295456Y-11162884D01*
X23346383Y-11211128D01*
X23348825Y-11213506D01*
X24181230Y-12045911D01*
X24193616Y-12060323D01*
X24202149Y-12071918D01*
X24202154Y-12071923D01*
X24206492Y-12077818D01*
X24212070Y-12082557D01*
X24212073Y-12082560D01*
X24246768Y-12112035D01*
X24254284Y-12118965D01*
X24259979Y-12124660D01*
X24262861Y-12126940D01*
X24282251Y-12142281D01*
X24285655Y-12145072D01*
X24335703Y-12187591D01*
X24341285Y-12192333D01*
X24347801Y-12195661D01*
X24352850Y-12199028D01*
X24357979Y-12202195D01*
X24363716Y-12206734D01*
X24429875Y-12237655D01*
X24433769Y-12239558D01*
X24498808Y-12272769D01*
X24505917Y-12274508D01*
X24511551Y-12276604D01*
X24517321Y-12278523D01*
X24523950Y-12281622D01*
X24531113Y-12283112D01*
X24531116Y-12283113D01*
X24581830Y-12293661D01*
X24595435Y-12296491D01*
X24599701Y-12297457D01*
X24670610Y-12314808D01*
X24676212Y-12315156D01*
X24676215Y-12315156D01*
X24681764Y-12315500D01*
X24681762Y-12315535D01*
X24685734Y-12315775D01*
X24689955Y-12316152D01*
X24697115Y-12317641D01*
X24774542Y-12315546D01*
X24777950Y-12315500D01*
X30748629Y-12315500D01*
X30816750Y-12335502D01*
X30837724Y-12352405D01*
X32405595Y-13920276D01*
X32439621Y-13982588D01*
X32442500Y-14009371D01*
X32442500Y-16665869D01*
X32422498Y-16733990D01*
X32368842Y-16780483D01*
X32298568Y-16790587D01*
X32250386Y-16773130D01*
X32146383Y-16709021D01*
X32098890Y-16656249D01*
X32086500Y-16601762D01*
X32086500Y-15726070D01*
X32087933Y-15707120D01*
X32090099Y-15692885D01*
X32090099Y-15692881D01*
X32091199Y-15685651D01*
X32089648Y-15666576D01*
X32086915Y-15632982D01*
X32086500Y-15622767D01*
X32086500Y-15614707D01*
X32083209Y-15586480D01*
X32082778Y-15582121D01*
X32080877Y-15558746D01*
X32076860Y-15509364D01*
X32074605Y-15502403D01*
X32073418Y-15496463D01*
X32072029Y-15490588D01*
X32071182Y-15483319D01*
X32046264Y-15414670D01*
X32044847Y-15410542D01*
X32024607Y-15348064D01*
X32024606Y-15348062D01*
X32022351Y-15341101D01*
X32018555Y-15334846D01*
X32016049Y-15329372D01*
X32013330Y-15323942D01*
X32010833Y-15317063D01*
X31970814Y-15256024D01*
X31968467Y-15252305D01*
X31930595Y-15189893D01*
X31923197Y-15181516D01*
X31923224Y-15181492D01*
X31920571Y-15178500D01*
X31917868Y-15175267D01*
X31913856Y-15169148D01*
X31857617Y-15115872D01*
X31855175Y-15113494D01*
X31149770Y-14408089D01*
X31137384Y-14393677D01*
X31128851Y-14382082D01*
X31128846Y-14382077D01*
X31124508Y-14376182D01*
X31118930Y-14371443D01*
X31118927Y-14371440D01*
X31084232Y-14341965D01*
X31076716Y-14335035D01*
X31071021Y-14329340D01*
X31051648Y-14314013D01*
X31048749Y-14311719D01*
X31045345Y-14308928D01*
X30995297Y-14266409D01*
X30995295Y-14266408D01*
X30989715Y-14261667D01*
X30983199Y-14258339D01*
X30978150Y-14254972D01*
X30973021Y-14251805D01*
X30967284Y-14247266D01*
X30901125Y-14216345D01*
X30897225Y-14214439D01*
X30883154Y-14207254D01*
X30832192Y-14181231D01*
X30825084Y-14179492D01*
X30819441Y-14177393D01*
X30813678Y-14175476D01*
X30807050Y-14172378D01*
X30771339Y-14164950D01*
X30759747Y-14162539D01*
X30735583Y-14157513D01*
X30731299Y-14156543D01*
X30705491Y-14150228D01*
X30660390Y-14139192D01*
X30654788Y-14138844D01*
X30654785Y-14138844D01*
X30649236Y-14138500D01*
X30649238Y-14138464D01*
X30645245Y-14138225D01*
X30641053Y-14137851D01*
X30633885Y-14136360D01*
X30569676Y-14138097D01*
X30556479Y-14138454D01*
X30553072Y-14138500D01*
X30423766Y-14138500D01*
X30355645Y-14118498D01*
X30334749Y-14101673D01*
X30258188Y-14025246D01*
X30258183Y-14025242D01*
X30253003Y-14020071D01*
X30246772Y-14016230D01*
X30111150Y-13932631D01*
X30111148Y-13932630D01*
X30104920Y-13928791D01*
X29939809Y-13874026D01*
X29932973Y-13873326D01*
X29932970Y-13873325D01*
X29869515Y-13866824D01*
X29837072Y-13863500D01*
X29262928Y-13863500D01*
X29259682Y-13863837D01*
X29259678Y-13863837D01*
X29165765Y-13873581D01*
X29165761Y-13873582D01*
X29158907Y-13874293D01*
X29152371Y-13876474D01*
X29152369Y-13876474D01*
X29077819Y-13901346D01*
X28993893Y-13929346D01*
X28845969Y-14020884D01*
X28840796Y-14026066D01*
X28728242Y-14138816D01*
X28728238Y-14138821D01*
X28723071Y-14143997D01*
X28719231Y-14150227D01*
X28719230Y-14150228D01*
X28713354Y-14159761D01*
X28660582Y-14207254D01*
X28590511Y-14218678D01*
X28525387Y-14190404D01*
X28498950Y-14159948D01*
X28474970Y-14121197D01*
X28471116Y-14114969D01*
X28443573Y-14087474D01*
X28353184Y-13997242D01*
X28353179Y-13997238D01*
X28348003Y-13992071D01*
X28291401Y-13957181D01*
X28206150Y-13904631D01*
X28206148Y-13904630D01*
X28199920Y-13900791D01*
X28034809Y-13846026D01*
X28027973Y-13845326D01*
X28027970Y-13845325D01*
X27976474Y-13840049D01*
X27932072Y-13835500D01*
X27357928Y-13835500D01*
X27354682Y-13835837D01*
X27354678Y-13835837D01*
X27260765Y-13845581D01*
X27260761Y-13845582D01*
X27253907Y-13846293D01*
X27247371Y-13848474D01*
X27247369Y-13848474D01*
X27163443Y-13876474D01*
X27088893Y-13901346D01*
X26940969Y-13992884D01*
X26935796Y-13998066D01*
X26907845Y-14026066D01*
X26844654Y-14089368D01*
X26831234Y-14102811D01*
X26768952Y-14136890D01*
X26698132Y-14131887D01*
X26653043Y-14102966D01*
X26575184Y-14025242D01*
X26575179Y-14025238D01*
X26570003Y-14020071D01*
X26563772Y-14016230D01*
X26428150Y-13932631D01*
X26428148Y-13932630D01*
X26421920Y-13928791D01*
X26256809Y-13874026D01*
X26249973Y-13873326D01*
X26249970Y-13873325D01*
X26186515Y-13866824D01*
X26154072Y-13863500D01*
X25579928Y-13863500D01*
X25576682Y-13863837D01*
X25576678Y-13863837D01*
X25482765Y-13873581D01*
X25482761Y-13873582D01*
X25475907Y-13874293D01*
X25469371Y-13876474D01*
X25469369Y-13876474D01*
X25394819Y-13901346D01*
X25310893Y-13929346D01*
X25162969Y-14020884D01*
X25157796Y-14026066D01*
X25081234Y-14102762D01*
X25018952Y-14136841D01*
X24948132Y-14131838D01*
X24903043Y-14102917D01*
X24797184Y-13997242D01*
X24797179Y-13997238D01*
X24792003Y-13992071D01*
X24735401Y-13957181D01*
X24650150Y-13904631D01*
X24650148Y-13904630D01*
X24643920Y-13900791D01*
X24478809Y-13846026D01*
X24471973Y-13845326D01*
X24471970Y-13845325D01*
X24420474Y-13840049D01*
X24376072Y-13835500D01*
X23801928Y-13835500D01*
X23798682Y-13835837D01*
X23798678Y-13835837D01*
X23704765Y-13845581D01*
X23704761Y-13845582D01*
X23697907Y-13846293D01*
X23691371Y-13848474D01*
X23691369Y-13848474D01*
X23607443Y-13876474D01*
X23532893Y-13901346D01*
X23384969Y-13992884D01*
X23379796Y-13998066D01*
X23351845Y-14026066D01*
X23262071Y-14115997D01*
X23258231Y-14122226D01*
X23254905Y-14126438D01*
X23196988Y-14167500D01*
X23126065Y-14170732D01*
X23109692Y-14164973D01*
X23108738Y-14164385D01*
X23094797Y-14159761D01*
X22947389Y-14110868D01*
X22947387Y-14110868D01*
X22940861Y-14108703D01*
X22934025Y-14108003D01*
X22934022Y-14108002D01*
X22884868Y-14102966D01*
X22836400Y-14098000D01*
X21785600Y-14098000D01*
X21782354Y-14098337D01*
X21782350Y-14098337D01*
X21686692Y-14108262D01*
X21686688Y-14108263D01*
X21679834Y-14108974D01*
X21673298Y-14111155D01*
X21673296Y-14111155D01*
X21567055Y-14146600D01*
X21512054Y-14164950D01*
X21376503Y-14248832D01*
X21308051Y-14267670D01*
X21240282Y-14246509D01*
X21232396Y-14240779D01*
X21227303Y-14235695D01*
X21144347Y-14184560D01*
X21082968Y-14146725D01*
X21082966Y-14146724D01*
X21076738Y-14142885D01*
X20992573Y-14114969D01*
X20915389Y-14089368D01*
X20915387Y-14089368D01*
X20908861Y-14087203D01*
X20902025Y-14086503D01*
X20902022Y-14086502D01*
X20858969Y-14082091D01*
X20804400Y-14076500D01*
X19753600Y-14076500D01*
X19750354Y-14076837D01*
X19750350Y-14076837D01*
X19654692Y-14086762D01*
X19654688Y-14086763D01*
X19647834Y-14087474D01*
X19641301Y-14089654D01*
X19641290Y-14089656D01*
X19540064Y-14123429D01*
X19469114Y-14126015D01*
X19408030Y-14089831D01*
X19382065Y-14040154D01*
X19380026Y-14040834D01*
X19344117Y-13933202D01*
X19324050Y-13873054D01*
X19230978Y-13722652D01*
X19105803Y-13597695D01*
X19025112Y-13547956D01*
X18961468Y-13508725D01*
X18961466Y-13508724D01*
X18955238Y-13504885D01*
X18794754Y-13451655D01*
X18793889Y-13451368D01*
X18793887Y-13451368D01*
X18787361Y-13449203D01*
X18780525Y-13448503D01*
X18780522Y-13448502D01*
X18737469Y-13444091D01*
X18682900Y-13438500D01*
X17857100Y-13438500D01*
X17853854Y-13438837D01*
X17853850Y-13438837D01*
X17758192Y-13448762D01*
X17758188Y-13448763D01*
X17751334Y-13449474D01*
X17744798Y-13451655D01*
X17744796Y-13451655D01*
X17660742Y-13479698D01*
X17583554Y-13505450D01*
X17433152Y-13598522D01*
X17308195Y-13723697D01*
X17304355Y-13729927D01*
X17304354Y-13729928D01*
X17221817Y-13863828D01*
X17215385Y-13874262D01*
X17213081Y-13881209D01*
X17167023Y-14020071D01*
X17159703Y-14042139D01*
X17159003Y-14048975D01*
X17159002Y-14048978D01*
X17154591Y-14092031D01*
X17149000Y-14146600D01*
X17149000Y-14581129D01*
X17128998Y-14649250D01*
X17075342Y-14695743D01*
X17005068Y-14705847D01*
X16940488Y-14676353D01*
X16933905Y-14670224D01*
X16671770Y-14408089D01*
X16659384Y-14393677D01*
X16650851Y-14382082D01*
X16650846Y-14382077D01*
X16646508Y-14376182D01*
X16640930Y-14371443D01*
X16640927Y-14371440D01*
X16606232Y-14341965D01*
X16598716Y-14335035D01*
X16593021Y-14329340D01*
X16573648Y-14314013D01*
X16570749Y-14311719D01*
X16567345Y-14308928D01*
X16517297Y-14266409D01*
X16517295Y-14266408D01*
X16511715Y-14261667D01*
X16505199Y-14258339D01*
X16500150Y-14254972D01*
X16495021Y-14251805D01*
X16489284Y-14247266D01*
X16423125Y-14216345D01*
X16419225Y-14214439D01*
X16405154Y-14207254D01*
X16354192Y-14181231D01*
X16347084Y-14179492D01*
X16341441Y-14177393D01*
X16335678Y-14175476D01*
X16329050Y-14172378D01*
X16293339Y-14164950D01*
X16281747Y-14162539D01*
X16257583Y-14157513D01*
X16253299Y-14156543D01*
X16227491Y-14150228D01*
X16182390Y-14139192D01*
X16176788Y-14138844D01*
X16176785Y-14138844D01*
X16171236Y-14138500D01*
X16171238Y-14138464D01*
X16167195Y-14138221D01*
X16165812Y-14138097D01*
X16099750Y-14112091D01*
X16058234Y-14054498D01*
X16055408Y-14044512D01*
X16055026Y-14040834D01*
X15999050Y-13873054D01*
X15905978Y-13722652D01*
X15780803Y-13597695D01*
X15763384Y-13586958D01*
X15715891Y-13534187D01*
X15703500Y-13479698D01*
X15703500Y-13234182D01*
X15709422Y-13197617D01*
X15710622Y-13195050D01*
X15712112Y-13187887D01*
X15712115Y-13187878D01*
X15714356Y-13177103D01*
X15719926Y-13158021D01*
X15725319Y-13143825D01*
X15733165Y-13087994D01*
X15734579Y-13079870D01*
X15746641Y-13021885D01*
X15746350Y-13011113D01*
X15746250Y-13007437D01*
X15747430Y-12986492D01*
X15748450Y-12979238D01*
X15748451Y-12979228D01*
X15749001Y-12975313D01*
X15749299Y-12954000D01*
X15747104Y-12934432D01*
X15743970Y-12906486D01*
X15743231Y-12895851D01*
X15742055Y-12852396D01*
X15741857Y-12845079D01*
X15735966Y-12822859D01*
X15732545Y-12804619D01*
X15731118Y-12791897D01*
X15731116Y-12791886D01*
X15730331Y-12784892D01*
X15728016Y-12778243D01*
X15728014Y-12778236D01*
X15713326Y-12736056D01*
X15710527Y-12726915D01*
X15698402Y-12681189D01*
X15696527Y-12674116D01*
X15688879Y-12659823D01*
X15687512Y-12657267D01*
X15679618Y-12639264D01*
X15676684Y-12630838D01*
X15676682Y-12630833D01*
X15674368Y-12624189D01*
X15644903Y-12577035D01*
X15640679Y-12569740D01*
X15613082Y-12518166D01*
X15608238Y-12512681D01*
X15608235Y-12512677D01*
X15602998Y-12506748D01*
X15590585Y-12490110D01*
X15587925Y-12485853D01*
X15584192Y-12479879D01*
X15542280Y-12437673D01*
X15537245Y-12432297D01*
X15500846Y-12391083D01*
X15496000Y-12385596D01*
X15486723Y-12379039D01*
X15470053Y-12364939D01*
X15469251Y-12364131D01*
X15469248Y-12364129D01*
X15464286Y-12359132D01*
X15458342Y-12355360D01*
X15458336Y-12355355D01*
X15410745Y-12325154D01*
X15405549Y-12321672D01*
X15351560Y-12283516D01*
X15344640Y-12280727D01*
X15332937Y-12274719D01*
X15332891Y-12274814D01*
X15326550Y-12271722D01*
X15320608Y-12267951D01*
X15257131Y-12245348D01*
X15252391Y-12243550D01*
X15187511Y-12217402D01*
X15180271Y-12216300D01*
X15173862Y-12214547D01*
X15173794Y-12214839D01*
X15166936Y-12213231D01*
X15160300Y-12210868D01*
X15140499Y-12208507D01*
X15089517Y-12202428D01*
X15085485Y-12201881D01*
X15019886Y-12191901D01*
X15019880Y-12191901D01*
X15012651Y-12190801D01*
X15005359Y-12191394D01*
X15003412Y-12191326D01*
X14998076Y-12191524D01*
X14991329Y-12190720D01*
X14984326Y-12191456D01*
X14984325Y-12191456D01*
X14965730Y-12193410D01*
X14916367Y-12198599D01*
X14913459Y-12198869D01*
X14836364Y-12205140D01*
X14829405Y-12207395D01*
X14827296Y-12207816D01*
X14826427Y-12208052D01*
X14822093Y-12208507D01*
X14746691Y-12234176D01*
X14744916Y-12234765D01*
X14675067Y-12257392D01*
X14675064Y-12257393D01*
X14668101Y-12259649D01*
X14663294Y-12262566D01*
X14661003Y-12263346D01*
X14588468Y-12307970D01*
X14588046Y-12308228D01*
X14521686Y-12348496D01*
X14521682Y-12348499D01*
X14516893Y-12351405D01*
X14512694Y-12355114D01*
X14512689Y-12355117D01*
X14512420Y-12355355D01*
X14508516Y-12358803D01*
X14456085Y-12411234D01*
X14441682Y-12423613D01*
X14424182Y-12436492D01*
X14391684Y-12474745D01*
X14389965Y-12476768D01*
X14383035Y-12484284D01*
X14377340Y-12489979D01*
X14375060Y-12492861D01*
X14359719Y-12512251D01*
X14356928Y-12515655D01*
X14354795Y-12518166D01*
X14309667Y-12571285D01*
X14306339Y-12577801D01*
X14302972Y-12582850D01*
X14299805Y-12587979D01*
X14295266Y-12593716D01*
X14264345Y-12659875D01*
X14262442Y-12663769D01*
X14229231Y-12728808D01*
X14227492Y-12735916D01*
X14225393Y-12741559D01*
X14223476Y-12747322D01*
X14220378Y-12753950D01*
X14218888Y-12761112D01*
X14218888Y-12761113D01*
X14205514Y-12825412D01*
X14204544Y-12829696D01*
X14187192Y-12900610D01*
X14186500Y-12911764D01*
X14186464Y-12911762D01*
X14186225Y-12915755D01*
X14185851Y-12919947D01*
X14184360Y-12927115D01*
X14184931Y-12948238D01*
X14186454Y-13004521D01*
X14186500Y-13007928D01*
X14186500Y-13479835D01*
X14166498Y-13547956D01*
X14126805Y-13586978D01*
X14114377Y-13594669D01*
X14114372Y-13594673D01*
X14108152Y-13598522D01*
X13983195Y-13723697D01*
X13979355Y-13729927D01*
X13979354Y-13729928D01*
X13896817Y-13863828D01*
X13890385Y-13874262D01*
X13888081Y-13881209D01*
X13842023Y-14020071D01*
X13834703Y-14042139D01*
X13834003Y-14048975D01*
X13834002Y-14048978D01*
X13829591Y-14092031D01*
X13824000Y-14146600D01*
X13824000Y-15647400D01*
X13824337Y-15650646D01*
X13824337Y-15650650D01*
X13833886Y-15742677D01*
X13834974Y-15753166D01*
X13837155Y-15759702D01*
X13837155Y-15759704D01*
X13850450Y-15799554D01*
X13890950Y-15920946D01*
X13984022Y-16071348D01*
X13989204Y-16076521D01*
X14021217Y-16108478D01*
X14109197Y-16196305D01*
X14115427Y-16200145D01*
X14115428Y-16200146D01*
X14252590Y-16284694D01*
X14259762Y-16289115D01*
X14310597Y-16305976D01*
X14421111Y-16342632D01*
X14421113Y-16342632D01*
X14427639Y-16344797D01*
X14434475Y-16345497D01*
X14434478Y-16345498D01*
X14477531Y-16349909D01*
X14532100Y-16355500D01*
X15357900Y-16355500D01*
X15361146Y-16355163D01*
X15361150Y-16355163D01*
X15456808Y-16345238D01*
X15456812Y-16345237D01*
X15463666Y-16344526D01*
X15470202Y-16342345D01*
X15470204Y-16342345D01*
X15602306Y-16298272D01*
X15631446Y-16288550D01*
X15781848Y-16195478D01*
X15906805Y-16070303D01*
X15910648Y-16064069D01*
X15930634Y-16031647D01*
X15983407Y-15984154D01*
X16053478Y-15972732D01*
X16118602Y-16001006D01*
X16126988Y-16008669D01*
X16158595Y-16040276D01*
X16192621Y-16102588D01*
X16195500Y-16129371D01*
X16195500Y-16134410D01*
X16175498Y-16202531D01*
X16147982Y-16232914D01*
X16142152Y-16236522D01*
X16017195Y-16361697D01*
X16013355Y-16367927D01*
X16013354Y-16367928D01*
X15988920Y-16407568D01*
X15924385Y-16512262D01*
X15900703Y-16583660D01*
X15892522Y-16608328D01*
X15868703Y-16680139D01*
X15868003Y-16686975D01*
X15868002Y-16686978D01*
X15865695Y-16709500D01*
X15858000Y-16784600D01*
X15858000Y-17835400D01*
X15868974Y-17941166D01*
X15924950Y-18108946D01*
X16018022Y-18259348D01*
X16022790Y-18264108D01*
X16049338Y-18329695D01*
X16036167Y-18399459D01*
X16031220Y-18408257D01*
X16003944Y-18452507D01*
X15952768Y-18535530D01*
X15947385Y-18544262D01*
X15933331Y-18586635D01*
X15895684Y-18700138D01*
X15891703Y-18712139D01*
X15891003Y-18718975D01*
X15891002Y-18718978D01*
X15887577Y-18752411D01*
X15881000Y-18816600D01*
X15881000Y-19858500D01*
X15860998Y-19926621D01*
X15807342Y-19973114D01*
X15755000Y-19984500D01*
X13734500Y-19984500D01*
X13666379Y-19964498D01*
X13619886Y-19910842D01*
X13608500Y-19858500D01*
X13608500Y-19603600D01*
X13608163Y-19600350D01*
X13598238Y-19504692D01*
X13598237Y-19504688D01*
X13597526Y-19497834D01*
X13541550Y-19330054D01*
X13448478Y-19179652D01*
X13323303Y-19054695D01*
X13243238Y-19005342D01*
X13178968Y-18965725D01*
X13178966Y-18965724D01*
X13172738Y-18961885D01*
X13042207Y-18918590D01*
X13011389Y-18908368D01*
X13011387Y-18908368D01*
X13004861Y-18906203D01*
X12998025Y-18905503D01*
X12998022Y-18905502D01*
X12954969Y-18901091D01*
X12900400Y-18895500D01*
X12099600Y-18895500D01*
X12096354Y-18895837D01*
X12096350Y-18895837D01*
X12000692Y-18905762D01*
X12000688Y-18905763D01*
X11993834Y-18906474D01*
X11987298Y-18908655D01*
X11987296Y-18908655D01*
X11899177Y-18938054D01*
X11826054Y-18962450D01*
X11675652Y-19055522D01*
X11670479Y-19060704D01*
X11589216Y-19142109D01*
X11526934Y-19176188D01*
X11456114Y-19171185D01*
X11411025Y-19142264D01*
X11328483Y-19059866D01*
X11323303Y-19054695D01*
X11243238Y-19005342D01*
X11178968Y-18965725D01*
X11178966Y-18965724D01*
X11172738Y-18961885D01*
X11042207Y-18918590D01*
X11011389Y-18908368D01*
X11011387Y-18908368D01*
X11004861Y-18906203D01*
X10998025Y-18905503D01*
X10998022Y-18905502D01*
X10954969Y-18901091D01*
X10900400Y-18895500D01*
X10302599Y-18895500D01*
X10268432Y-18889353D01*
X10268216Y-18890237D01*
X10268192Y-18890231D01*
X10267309Y-18890015D01*
X10262290Y-18888248D01*
X10258680Y-18887598D01*
X10255441Y-18886393D01*
X10249678Y-18884476D01*
X10243050Y-18881378D01*
X10171583Y-18866513D01*
X10167299Y-18865543D01*
X10096390Y-18848192D01*
X10090788Y-18847844D01*
X10090785Y-18847844D01*
X10085236Y-18847500D01*
X10085238Y-18847464D01*
X10081245Y-18847225D01*
X10077053Y-18846851D01*
X10069885Y-18845360D01*
X10003675Y-18847151D01*
X9992479Y-18847454D01*
X9989072Y-18847500D01*
X8647939Y-18847500D01*
X8579818Y-18827498D01*
X8542147Y-18789941D01*
X8540667Y-18787652D01*
X8532014Y-18774277D01*
X8381670Y-18609051D01*
X8377619Y-18605852D01*
X8377615Y-18605848D01*
X8210414Y-18473800D01*
X8210410Y-18473798D01*
X8206359Y-18470598D01*
X8010789Y-18362638D01*
X8005920Y-18360914D01*
X8005916Y-18360912D01*
X7805087Y-18289795D01*
X7805083Y-18289794D01*
X7800212Y-18288069D01*
X7795119Y-18287162D01*
X7795116Y-18287161D01*
X7585373Y-18249800D01*
X7585367Y-18249799D01*
X7580284Y-18248894D01*
X7506452Y-18247992D01*
X7362081Y-18246228D01*
X7362079Y-18246228D01*
X7356911Y-18246165D01*
X7136091Y-18279955D01*
X6923756Y-18349357D01*
X6893443Y-18365137D01*
X6776911Y-18425800D01*
X6725607Y-18452507D01*
X6721474Y-18455610D01*
X6721471Y-18455612D01*
X6551100Y-18583530D01*
X6546965Y-18586635D01*
X6543393Y-18590373D01*
X6403321Y-18736950D01*
X6392629Y-18748138D01*
X6389715Y-18752410D01*
X6389714Y-18752411D01*
X6326309Y-18845360D01*
X6266743Y-18932680D01*
X6250199Y-18968322D01*
X6174887Y-19130568D01*
X6172688Y-19135305D01*
X6112989Y-19350570D01*
X6089251Y-19572695D01*
X6089548Y-19577848D01*
X6089548Y-19577851D01*
X6091033Y-19603600D01*
X6102110Y-19795715D01*
X6103247Y-19800761D01*
X6103248Y-19800767D01*
X6113458Y-19846069D01*
X6151222Y-20013639D01*
X6235266Y-20220616D01*
X6286942Y-20304944D01*
X6322573Y-20363088D01*
X6351987Y-20411088D01*
X6498250Y-20579938D01*
X6645248Y-20701978D01*
X6663916Y-20717476D01*
X6670126Y-20722632D01*
X6722978Y-20753516D01*
X6743445Y-20765476D01*
X6792169Y-20817114D01*
X6805240Y-20886897D01*
X6778509Y-20952669D01*
X6738055Y-20986027D01*
X6725607Y-20992507D01*
X6721474Y-20995610D01*
X6721471Y-20995612D01*
X6551100Y-21123530D01*
X6546965Y-21126635D01*
X6543393Y-21130373D01*
X6411803Y-21268074D01*
X6392629Y-21288138D01*
X6389715Y-21292410D01*
X6389714Y-21292411D01*
X6377404Y-21310457D01*
X6266743Y-21472680D01*
X6240913Y-21528326D01*
X6178066Y-21663720D01*
X6172688Y-21675305D01*
X6112989Y-21890570D01*
X6089251Y-22112695D01*
X6089548Y-22117848D01*
X6089548Y-22117851D01*
X6099827Y-22296118D01*
X6102110Y-22335715D01*
X6103247Y-22340761D01*
X6103248Y-22340767D01*
X6115470Y-22394998D01*
X6151222Y-22553639D01*
X6235266Y-22760616D01*
X6267717Y-22813571D01*
X6322573Y-22903088D01*
X6351987Y-22951088D01*
X6498250Y-23119938D01*
X6645610Y-23242279D01*
X6663916Y-23257476D01*
X6670126Y-23262632D01*
X6699622Y-23279868D01*
X6743445Y-23305476D01*
X6792169Y-23357114D01*
X6805240Y-23426897D01*
X6778509Y-23492669D01*
X6738055Y-23526027D01*
X6725607Y-23532507D01*
X6721474Y-23535610D01*
X6721471Y-23535612D01*
X6558399Y-23658050D01*
X6546965Y-23666635D01*
X6525208Y-23689402D01*
X6437818Y-23780851D01*
X6392629Y-23828138D01*
X6266743Y-24012680D01*
X6251003Y-24046590D01*
X6178066Y-24203720D01*
X6172688Y-24215305D01*
X6112989Y-24430570D01*
X6089251Y-24652695D01*
X6089548Y-24657848D01*
X6089548Y-24657851D01*
X6099044Y-24822547D01*
X6102110Y-24875715D01*
X6103247Y-24880761D01*
X6103248Y-24880767D01*
X6113458Y-24926069D01*
X6151222Y-25093639D01*
X6235266Y-25300616D01*
X6268395Y-25354678D01*
X6348381Y-25485203D01*
X6351987Y-25491088D01*
X6498250Y-25659938D01*
X6670126Y-25802632D01*
X6863000Y-25915338D01*
X7071692Y-25995030D01*
X7076760Y-25996061D01*
X7076763Y-25996062D01*
X7170506Y-26015134D01*
X7290597Y-26039567D01*
X7295772Y-26039757D01*
X7295774Y-26039757D01*
X7508673Y-26047564D01*
X7508677Y-26047564D01*
X7513837Y-26047753D01*
X7518957Y-26047097D01*
X7518959Y-26047097D01*
X7730288Y-26020025D01*
X7730289Y-26020025D01*
X7735416Y-26019368D01*
X7749529Y-26015134D01*
X7944429Y-25956661D01*
X7944434Y-25956659D01*
X7949384Y-25955174D01*
X8149994Y-25856896D01*
X8331860Y-25727173D01*
X8490096Y-25569489D01*
X8497321Y-25559435D01*
X8617435Y-25392277D01*
X8620453Y-25388077D01*
X8625596Y-25377672D01*
X8717136Y-25192453D01*
X8717137Y-25192451D01*
X8719430Y-25187811D01*
X8762625Y-25045639D01*
X8782865Y-24979023D01*
X8782865Y-24979021D01*
X8784370Y-24974069D01*
X8813529Y-24752590D01*
X8815156Y-24686000D01*
X8796852Y-24463361D01*
X8742431Y-24246702D01*
X8653354Y-24041840D01*
X8532014Y-23854277D01*
X8381670Y-23689051D01*
X8377619Y-23685852D01*
X8377615Y-23685848D01*
X8210414Y-23553800D01*
X8210410Y-23553798D01*
X8206359Y-23550598D01*
X8165053Y-23527796D01*
X8115084Y-23477364D01*
X8100312Y-23407921D01*
X8125428Y-23341516D01*
X8152780Y-23314909D01*
X8217288Y-23268896D01*
X8331860Y-23187173D01*
X8400223Y-23119049D01*
X8432268Y-23087115D01*
X8490096Y-23029489D01*
X8542203Y-22956974D01*
X8598198Y-22913326D01*
X8644526Y-22904500D01*
X9384878Y-22904500D01*
X9452999Y-22924502D01*
X9492021Y-22964196D01*
X9551522Y-23060348D01*
X9676697Y-23185305D01*
X9682927Y-23189145D01*
X9682928Y-23189146D01*
X9820090Y-23273694D01*
X9827262Y-23278115D01*
X9873695Y-23293516D01*
X9988611Y-23331632D01*
X9988613Y-23331632D01*
X9995139Y-23333797D01*
X10001975Y-23334497D01*
X10001978Y-23334498D01*
X10045031Y-23338909D01*
X10099600Y-23344500D01*
X10900400Y-23344500D01*
X10903646Y-23344163D01*
X10903650Y-23344163D01*
X10999308Y-23334238D01*
X10999312Y-23334237D01*
X11006166Y-23333526D01*
X11012702Y-23331345D01*
X11012704Y-23331345D01*
X11144806Y-23287272D01*
X11173946Y-23277550D01*
X11324348Y-23184478D01*
X11410784Y-23097891D01*
X11473066Y-23063812D01*
X11543886Y-23068815D01*
X11588975Y-23097736D01*
X11658240Y-23166880D01*
X11676697Y-23185305D01*
X11682927Y-23189145D01*
X11682928Y-23189146D01*
X11820090Y-23273694D01*
X11827262Y-23278115D01*
X11873695Y-23293516D01*
X11988611Y-23331632D01*
X11988613Y-23331632D01*
X11995139Y-23333797D01*
X12001975Y-23334497D01*
X12001978Y-23334498D01*
X12045031Y-23338909D01*
X12099600Y-23344500D01*
X12900400Y-23344500D01*
X12903646Y-23344163D01*
X12903650Y-23344163D01*
X12999308Y-23334238D01*
X12999312Y-23334237D01*
X13006166Y-23333526D01*
X13012702Y-23331345D01*
X13012704Y-23331345D01*
X13144806Y-23287272D01*
X13173946Y-23277550D01*
X13324348Y-23184478D01*
X13449305Y-23059303D01*
X13495022Y-22985137D01*
X13538275Y-22914968D01*
X13538276Y-22914966D01*
X13542115Y-22908738D01*
X13591347Y-22760308D01*
X13595632Y-22747389D01*
X13595632Y-22747387D01*
X13597797Y-22740861D01*
X13599430Y-22724928D01*
X13605208Y-22668526D01*
X13608500Y-22636400D01*
X13608500Y-22480239D01*
X13628502Y-22412118D01*
X13645405Y-22391144D01*
X14398144Y-21638405D01*
X14460456Y-21604379D01*
X14487239Y-21601500D01*
X15755000Y-21601500D01*
X15823121Y-21621502D01*
X15869614Y-21675158D01*
X15881000Y-21727500D01*
X15881000Y-22661400D01*
X15881337Y-22664646D01*
X15881337Y-22664650D01*
X15890798Y-22755829D01*
X15891974Y-22767166D01*
X15894155Y-22773702D01*
X15894155Y-22773704D01*
X15911535Y-22825797D01*
X15947950Y-22934946D01*
X16028753Y-23065521D01*
X16041022Y-23085348D01*
X16038288Y-23087040D01*
X16059549Y-23139538D01*
X16046393Y-23209305D01*
X16039862Y-23219492D01*
X16040195Y-23219697D01*
X15951789Y-23363118D01*
X15947385Y-23370262D01*
X15930560Y-23420987D01*
X15904319Y-23500104D01*
X15891703Y-23538139D01*
X15891003Y-23544975D01*
X15891002Y-23544978D01*
X15887197Y-23582120D01*
X15881000Y-23642600D01*
X15881000Y-24693400D01*
X15881337Y-24696646D01*
X15881337Y-24696650D01*
X15890488Y-24784842D01*
X15891974Y-24799166D01*
X15894155Y-24805702D01*
X15894155Y-24805704D01*
X15901499Y-24827715D01*
X15947950Y-24966946D01*
X16041022Y-25117348D01*
X16046204Y-25122521D01*
X16047845Y-25124159D01*
X16048609Y-25125556D01*
X16050751Y-25128258D01*
X16050289Y-25128625D01*
X16081925Y-25186441D01*
X16076922Y-25257262D01*
X16066088Y-25279449D01*
X16004878Y-25378750D01*
X15990385Y-25402262D01*
X15966425Y-25474500D01*
X15942629Y-25546244D01*
X15934703Y-25570139D01*
X15924000Y-25674600D01*
X15924000Y-26608500D01*
X15903998Y-26676621D01*
X15850342Y-26723114D01*
X15798000Y-26734500D01*
X6738136Y-26734500D01*
X6721690Y-26733422D01*
X6698188Y-26730328D01*
X6690000Y-26729250D01*
X6681812Y-26730328D01*
X6650129Y-26734499D01*
X6650120Y-26734500D01*
X6650115Y-26734500D01*
X6531150Y-26750162D01*
X6383125Y-26811476D01*
X6383123Y-26811477D01*
X6383124Y-26811477D01*
X6287928Y-26884523D01*
X6287925Y-26884526D01*
X6256013Y-26909013D01*
X6250983Y-26915568D01*
X6236548Y-26934379D01*
X6225681Y-26946770D01*
X5785766Y-27386685D01*
X5773374Y-27397553D01*
X5764203Y-27404590D01*
X5697982Y-27430190D01*
X5628434Y-27415925D01*
X5577638Y-27366323D01*
X5561500Y-27304627D01*
X5561500Y-14655239D01*
X5581502Y-14587118D01*
X5598405Y-14566144D01*
X9359144Y-10805405D01*
X9421456Y-10771379D01*
X9448239Y-10768500D01*
X20525864Y-10768500D01*
X20542307Y-10769578D01*
X20574000Y-10773750D01*
X20582189Y-10772672D01*
X20613874Y-10768501D01*
X20613884Y-10768500D01*
X20613885Y-10768500D01*
X20644390Y-10764484D01*
X20713457Y-10755391D01*
X20724664Y-10753916D01*
X20724666Y-10753915D01*
X20732851Y-10752838D01*
X20880876Y-10691524D01*
X20890028Y-10684502D01*
X20976072Y-10618477D01*
X20976075Y-10618474D01*
X21001437Y-10599013D01*
X21007987Y-10593987D01*
X21027458Y-10568613D01*
X21038316Y-10556233D01*
X21732234Y-9862315D01*
X21744625Y-9851448D01*
X21763437Y-9837013D01*
X21769987Y-9831987D01*
X21794474Y-9800075D01*
X21794478Y-9800071D01*
X21867524Y-9704876D01*
X21928838Y-9556851D01*
X21943101Y-9448508D01*
X21944500Y-9437885D01*
X21944500Y-9437880D01*
X21949750Y-9398000D01*
X21945578Y-9366307D01*
X21944500Y-9349862D01*
X21944500Y-8698500D01*
X21964502Y-8630379D01*
X22018158Y-8583886D01*
X22070500Y-8572500D01*
X22184134Y-8572500D01*
X22246316Y-8565745D01*
X22382705Y-8514615D01*
X22499261Y-8427261D01*
X22505174Y-8419372D01*
X22505878Y-8418845D01*
X22510992Y-8413731D01*
X22511730Y-8414469D01*
X22562031Y-8376857D01*
X22632849Y-8371830D01*
X22695143Y-8405888D01*
G37*
G04 #@! TD.AperFunction*
G04 #@! TA.AperFunction,Conductor*
G36*
X28669613Y-15575596D02*
G01*
X28696050Y-15606052D01*
X28701406Y-15614707D01*
X28723884Y-15651031D01*
X28729066Y-15656204D01*
X28841816Y-15768758D01*
X28841821Y-15768762D01*
X28846997Y-15773929D01*
X28995080Y-15865209D01*
X29160191Y-15919974D01*
X29167027Y-15920674D01*
X29167030Y-15920675D01*
X29218526Y-15925951D01*
X29262928Y-15930500D01*
X29837072Y-15930500D01*
X29840318Y-15930163D01*
X29840322Y-15930163D01*
X29934235Y-15920419D01*
X29934239Y-15920418D01*
X29941093Y-15919707D01*
X29947629Y-15917526D01*
X29947631Y-15917526D01*
X30080395Y-15873232D01*
X30106107Y-15864654D01*
X30240477Y-15781503D01*
X30308927Y-15762667D01*
X30376697Y-15783828D01*
X30395873Y-15799554D01*
X30532595Y-15936276D01*
X30566621Y-15998588D01*
X30569500Y-16025371D01*
X30569500Y-16601689D01*
X30549498Y-16669810D01*
X30509804Y-16708833D01*
X30403652Y-16774522D01*
X30278695Y-16899697D01*
X30274855Y-16905927D01*
X30274854Y-16905928D01*
X30226722Y-16984013D01*
X30185885Y-17050262D01*
X30130203Y-17218139D01*
X30119500Y-17322600D01*
X30119500Y-18123400D01*
X30119837Y-18126646D01*
X30119837Y-18126650D01*
X30129689Y-18221598D01*
X30130474Y-18229166D01*
X30132655Y-18235702D01*
X30132655Y-18235704D01*
X30170037Y-18347750D01*
X30186450Y-18396946D01*
X30279522Y-18547348D01*
X30284704Y-18552521D01*
X30284708Y-18552526D01*
X30309631Y-18577406D01*
X30343710Y-18639688D01*
X30338707Y-18710508D01*
X30296209Y-18767381D01*
X30229710Y-18792249D01*
X30154496Y-18773837D01*
X30099970Y-18740226D01*
X30099967Y-18740225D01*
X30093738Y-18736385D01*
X30005356Y-18707070D01*
X29932389Y-18682868D01*
X29932387Y-18682868D01*
X29925861Y-18680703D01*
X29919025Y-18680003D01*
X29919022Y-18680002D01*
X29875969Y-18675591D01*
X29821400Y-18670000D01*
X28770600Y-18670000D01*
X28767354Y-18670337D01*
X28767350Y-18670337D01*
X28671694Y-18680262D01*
X28671692Y-18680262D01*
X28664834Y-18680974D01*
X28663819Y-18681313D01*
X28595260Y-18676303D01*
X28538490Y-18633669D01*
X28513781Y-18567111D01*
X28529081Y-18504958D01*
X28526180Y-18503605D01*
X28529275Y-18496968D01*
X28533115Y-18490738D01*
X28583944Y-18337492D01*
X28586632Y-18329389D01*
X28586632Y-18329387D01*
X28588797Y-18322861D01*
X28589817Y-18312912D01*
X28595304Y-18259348D01*
X28599500Y-18218400D01*
X28599500Y-17417600D01*
X28596513Y-17388808D01*
X28589238Y-17318692D01*
X28589237Y-17318688D01*
X28588526Y-17311834D01*
X28585243Y-17301992D01*
X28534868Y-17151002D01*
X28532550Y-17144054D01*
X28439478Y-16993652D01*
X28434296Y-16988479D01*
X28430756Y-16984013D01*
X28404117Y-16918203D01*
X28403500Y-16905747D01*
X28403500Y-15742677D01*
X28423502Y-15674556D01*
X28440321Y-15653666D01*
X28471929Y-15622003D01*
X28481646Y-15606239D01*
X28534418Y-15558746D01*
X28604489Y-15547322D01*
X28669613Y-15575596D01*
G37*
G04 #@! TD.AperFunction*
G04 #@! TA.AperFunction,Conductor*
G36*
X15308621Y-528502D02*
G01*
X15355114Y-582158D01*
X15366500Y-634500D01*
X15366500Y-7865377D01*
X15366498Y-7866147D01*
X15366024Y-7943721D01*
X15368491Y-7952352D01*
X15374150Y-7972153D01*
X15377728Y-7988915D01*
X15381920Y-8018187D01*
X15385634Y-8026355D01*
X15385634Y-8026356D01*
X15392548Y-8041562D01*
X15398996Y-8059086D01*
X15406051Y-8083771D01*
X15410843Y-8091365D01*
X15410844Y-8091368D01*
X15421830Y-8108780D01*
X15429969Y-8123863D01*
X15442208Y-8150782D01*
X15448069Y-8157584D01*
X15458970Y-8170235D01*
X15470073Y-8185239D01*
X15483776Y-8206958D01*
X15490501Y-8212897D01*
X15490504Y-8212901D01*
X15505938Y-8226532D01*
X15517982Y-8238724D01*
X15531427Y-8254327D01*
X15531430Y-8254329D01*
X15537287Y-8261127D01*
X15544816Y-8266007D01*
X15544817Y-8266008D01*
X15558835Y-8275094D01*
X15573709Y-8286385D01*
X15584101Y-8295562D01*
X15592951Y-8303378D01*
X15619711Y-8315942D01*
X15634691Y-8324263D01*
X15651983Y-8335471D01*
X15651988Y-8335473D01*
X15659515Y-8340352D01*
X15668108Y-8342922D01*
X15668113Y-8342924D01*
X15684120Y-8347711D01*
X15701564Y-8354372D01*
X15716676Y-8361467D01*
X15716678Y-8361468D01*
X15724800Y-8365281D01*
X15733667Y-8366662D01*
X15733668Y-8366662D01*
X15736353Y-8367080D01*
X15754017Y-8369830D01*
X15770732Y-8373613D01*
X15790466Y-8379515D01*
X15790472Y-8379516D01*
X15799066Y-8382086D01*
X15808037Y-8382141D01*
X15808038Y-8382141D01*
X15818097Y-8382202D01*
X15833506Y-8382296D01*
X15834289Y-8382329D01*
X15835386Y-8382500D01*
X15866377Y-8382500D01*
X15867147Y-8382502D01*
X15940785Y-8382952D01*
X15940786Y-8382952D01*
X15944721Y-8382976D01*
X15946065Y-8382592D01*
X15947410Y-8382500D01*
X17644377Y-8382500D01*
X17645148Y-8382502D01*
X17722721Y-8382976D01*
X17751152Y-8374850D01*
X17767915Y-8371272D01*
X17768753Y-8371152D01*
X17797187Y-8367080D01*
X17806645Y-8362780D01*
X17820562Y-8356452D01*
X17838087Y-8350004D01*
X17862771Y-8342949D01*
X17870365Y-8338157D01*
X17870368Y-8338156D01*
X17887780Y-8327170D01*
X17902865Y-8319030D01*
X17903195Y-8318880D01*
X17929782Y-8306792D01*
X17949235Y-8290030D01*
X17964239Y-8278927D01*
X17985958Y-8265224D01*
X17991897Y-8258499D01*
X17991901Y-8258496D01*
X18005532Y-8243062D01*
X18017724Y-8231018D01*
X18033327Y-8217573D01*
X18033329Y-8217570D01*
X18040127Y-8211713D01*
X18054094Y-8190165D01*
X18065385Y-8175291D01*
X18076431Y-8162783D01*
X18076432Y-8162782D01*
X18082378Y-8156049D01*
X18094943Y-8129287D01*
X18103263Y-8114309D01*
X18114471Y-8097017D01*
X18114473Y-8097012D01*
X18119352Y-8089485D01*
X18121922Y-8080892D01*
X18121924Y-8080887D01*
X18126711Y-8064880D01*
X18133372Y-8047436D01*
X18140467Y-8032324D01*
X18140468Y-8032322D01*
X18144281Y-8024200D01*
X18148830Y-7994983D01*
X18152613Y-7978268D01*
X18158515Y-7958534D01*
X18158516Y-7958528D01*
X18161086Y-7949934D01*
X18161296Y-7915494D01*
X18161329Y-7914711D01*
X18161500Y-7913614D01*
X18161500Y-7882623D01*
X18161502Y-7881853D01*
X18161952Y-7808215D01*
X18161952Y-7808214D01*
X18161976Y-7804279D01*
X18161592Y-7802935D01*
X18161500Y-7801590D01*
X18161500Y-634500D01*
X18181502Y-566379D01*
X18235158Y-519886D01*
X18287500Y-508500D01*
X19901500Y-508500D01*
X19969621Y-528502D01*
X20016114Y-582158D01*
X20027500Y-634500D01*
X20027500Y-8112134D01*
X20034255Y-8174316D01*
X20085385Y-8310705D01*
X20172739Y-8427261D01*
X20289295Y-8514615D01*
X20425684Y-8565745D01*
X20487866Y-8572500D01*
X20601500Y-8572500D01*
X20669621Y-8592502D01*
X20716114Y-8646158D01*
X20727500Y-8698500D01*
X20727500Y-9093761D01*
X20707498Y-9161882D01*
X20690595Y-9182856D01*
X20358856Y-9514595D01*
X20296544Y-9548621D01*
X20269761Y-9551500D01*
X9192136Y-9551500D01*
X9175693Y-9550422D01*
X9144000Y-9546250D01*
X9135811Y-9547328D01*
X9104126Y-9551499D01*
X9104117Y-9551500D01*
X9104115Y-9551500D01*
X9104109Y-9551501D01*
X9104107Y-9551501D01*
X9004543Y-9564609D01*
X8993336Y-9566084D01*
X8993334Y-9566085D01*
X8985149Y-9567162D01*
X8837124Y-9628476D01*
X8741928Y-9701523D01*
X8741925Y-9701526D01*
X8710013Y-9726013D01*
X8704983Y-9732568D01*
X8690548Y-9751379D01*
X8679681Y-9763770D01*
X4787595Y-13655856D01*
X4725283Y-13689882D01*
X4654468Y-13684817D01*
X4597632Y-13642270D01*
X4572821Y-13575750D01*
X4572500Y-13566761D01*
X4572500Y-4064000D01*
X5646540Y-4064000D01*
X5666359Y-4379020D01*
X5725505Y-4689072D01*
X5823044Y-4989266D01*
X5824731Y-4992852D01*
X5824733Y-4992856D01*
X5955750Y-5271283D01*
X5955754Y-5271290D01*
X5957438Y-5274869D01*
X6126568Y-5541375D01*
X6327767Y-5784582D01*
X6557860Y-6000654D01*
X6813221Y-6186184D01*
X7089821Y-6338247D01*
X7093490Y-6339700D01*
X7093495Y-6339702D01*
X7379628Y-6452990D01*
X7383298Y-6454443D01*
X7689025Y-6532940D01*
X8002179Y-6572500D01*
X8317821Y-6572500D01*
X8630975Y-6532940D01*
X8936702Y-6454443D01*
X8940372Y-6452990D01*
X9226505Y-6339702D01*
X9226510Y-6339700D01*
X9230179Y-6338247D01*
X9506779Y-6186184D01*
X9762140Y-6000654D01*
X9992233Y-5784582D01*
X10193432Y-5541375D01*
X10362562Y-5274869D01*
X10364246Y-5271290D01*
X10364250Y-5271283D01*
X10495267Y-4992856D01*
X10495269Y-4992852D01*
X10496956Y-4989266D01*
X10594495Y-4689072D01*
X10653641Y-4379020D01*
X10673460Y-4064000D01*
X10653641Y-3748980D01*
X10594495Y-3438928D01*
X10496956Y-3138734D01*
X10490667Y-3125369D01*
X10364250Y-2856717D01*
X10364246Y-2856710D01*
X10362562Y-2853131D01*
X10193432Y-2586625D01*
X9992233Y-2343418D01*
X9762140Y-2127346D01*
X9506779Y-1941816D01*
X9230179Y-1789753D01*
X9226510Y-1788300D01*
X9226505Y-1788298D01*
X8940372Y-1675010D01*
X8940371Y-1675010D01*
X8936702Y-1673557D01*
X8630975Y-1595060D01*
X8317821Y-1555500D01*
X8002179Y-1555500D01*
X7689025Y-1595060D01*
X7383298Y-1673557D01*
X7379629Y-1675010D01*
X7379628Y-1675010D01*
X7093495Y-1788298D01*
X7093490Y-1788300D01*
X7089821Y-1789753D01*
X6813221Y-1941816D01*
X6557860Y-2127346D01*
X6327767Y-2343418D01*
X6126568Y-2586625D01*
X5957438Y-2853131D01*
X5955754Y-2856710D01*
X5955750Y-2856717D01*
X5829333Y-3125369D01*
X5823044Y-3138734D01*
X5725505Y-3438928D01*
X5666359Y-3748980D01*
X5648833Y-4027559D01*
X5646540Y-4064000D01*
X4572500Y-4064000D01*
X4572500Y-634500D01*
X4592502Y-566379D01*
X4646158Y-519886D01*
X4698500Y-508500D01*
X15240500Y-508500D01*
X15308621Y-528502D01*
G37*
G04 #@! TD.AperFunction*
M02*
