G04 #@! TF.GenerationSoftware,KiCad,Pcbnew,6.0.10*
G04 #@! TF.CreationDate,2023-07-05T17:30:50-05:00*
G04 #@! TF.ProjectId,gas_control_board,6761735f-636f-46e7-9472-6f6c5f626f61,rev?*
G04 #@! TF.SameCoordinates,Original*
G04 #@! TF.FileFunction,Legend,Top*
G04 #@! TF.FilePolarity,Positive*
%FSLAX46Y46*%
G04 Gerber Fmt 4.6, Leading zero omitted, Abs format (unit mm)*
G04 Created by KiCad (PCBNEW 6.0.10) date 2023-07-05 17:30:50*
%MOMM*%
%LPD*%
G01*
G04 APERTURE LIST*
G04 Aperture macros list*
%AMRoundRect*
0 Rectangle with rounded corners*
0 $1 Rounding radius*
0 $2 $3 $4 $5 $6 $7 $8 $9 X,Y pos of 4 corners*
0 Add a 4 corners polygon primitive as box body*
4,1,4,$2,$3,$4,$5,$6,$7,$8,$9,$2,$3,0*
0 Add four circle primitives for the rounded corners*
1,1,$1+$1,$2,$3*
1,1,$1+$1,$4,$5*
1,1,$1+$1,$6,$7*
1,1,$1+$1,$8,$9*
0 Add four rect primitives between the rounded corners*
20,1,$1+$1,$2,$3,$4,$5,0*
20,1,$1+$1,$4,$5,$6,$7,0*
20,1,$1+$1,$6,$7,$8,$9,0*
20,1,$1+$1,$8,$9,$2,$3,0*%
G04 Aperture macros list end*
%ADD10C,0.150000*%
%ADD11C,0.254000*%
%ADD12C,0.120000*%
%ADD13C,0.200000*%
%ADD14RoundRect,0.250000X0.337500X0.475000X-0.337500X0.475000X-0.337500X-0.475000X0.337500X-0.475000X0*%
%ADD15RoundRect,0.150000X0.650000X0.150000X-0.650000X0.150000X-0.650000X-0.150000X0.650000X-0.150000X0*%
%ADD16RoundRect,0.237500X0.287500X0.237500X-0.287500X0.237500X-0.287500X-0.237500X0.287500X-0.237500X0*%
%ADD17R,4.500000X2.000000*%
%ADD18RoundRect,0.250000X0.350000X0.450000X-0.350000X0.450000X-0.350000X-0.450000X0.350000X-0.450000X0*%
%ADD19RoundRect,0.250000X-0.337500X-0.475000X0.337500X-0.475000X0.337500X0.475000X-0.337500X0.475000X0*%
%ADD20RoundRect,0.250000X-0.350000X-0.450000X0.350000X-0.450000X0.350000X0.450000X-0.350000X0.450000X0*%
%ADD21R,2.400000X2.400000*%
%ADD22C,2.400000*%
%ADD23R,3.000000X3.000000*%
%ADD24C,3.000000*%
%ADD25R,1.300000X1.550000*%
%ADD26RoundRect,0.250000X0.475000X-0.337500X0.475000X0.337500X-0.475000X0.337500X-0.475000X-0.337500X0*%
%ADD27RoundRect,0.250000X0.362500X0.700000X-0.362500X0.700000X-0.362500X-0.700000X0.362500X-0.700000X0*%
%ADD28RoundRect,0.250000X0.450000X-0.350000X0.450000X0.350000X-0.450000X0.350000X-0.450000X-0.350000X0*%
%ADD29RoundRect,0.237500X-0.237500X0.287500X-0.237500X-0.287500X0.237500X-0.287500X0.237500X0.287500X0*%
%ADD30R,1.700000X1.700000*%
%ADD31O,1.700000X1.700000*%
%ADD32RoundRect,0.250000X-0.475000X0.337500X-0.475000X-0.337500X0.475000X-0.337500X0.475000X0.337500X0*%
%ADD33R,0.200000X0.850000*%
%ADD34R,0.850000X0.200000*%
%ADD35R,3.200000X3.200000*%
%ADD36RoundRect,0.250000X-0.450000X0.350000X-0.450000X-0.350000X0.450000X-0.350000X0.450000X0.350000X0*%
%ADD37RoundRect,0.237500X0.237500X-0.287500X0.237500X0.287500X-0.237500X0.287500X-0.237500X-0.287500X0*%
%ADD38R,3.500000X2.300000*%
%ADD39R,0.950000X1.250000*%
%ADD40R,3.200000X1.250000*%
%ADD41R,1.600000X8.000000*%
G04 APERTURE END LIST*
D10*
X8397904Y-64299666D02*
X8874095Y-64299666D01*
X8302666Y-64585380D02*
X8636000Y-63585380D01*
X8969333Y-64585380D01*
X8707428Y-65671571D02*
X8850285Y-65719190D01*
X8897904Y-65766809D01*
X8945523Y-65862047D01*
X8945523Y-66004904D01*
X8897904Y-66100142D01*
X8850285Y-66147761D01*
X8755047Y-66195380D01*
X8374095Y-66195380D01*
X8374095Y-65195380D01*
X8707428Y-65195380D01*
X8802666Y-65243000D01*
X8850285Y-65290619D01*
X8897904Y-65385857D01*
X8897904Y-65481095D01*
X8850285Y-65576333D01*
X8802666Y-65623952D01*
X8707428Y-65671571D01*
X8374095Y-65671571D01*
X8445523Y-66805380D02*
X7969333Y-66805380D01*
X7921714Y-67281571D01*
X7969333Y-67233952D01*
X8064571Y-67186333D01*
X8302666Y-67186333D01*
X8397904Y-67233952D01*
X8445523Y-67281571D01*
X8493142Y-67376809D01*
X8493142Y-67614904D01*
X8445523Y-67710142D01*
X8397904Y-67757761D01*
X8302666Y-67805380D01*
X8064571Y-67805380D01*
X7969333Y-67757761D01*
X7921714Y-67710142D01*
X8778857Y-66805380D02*
X9112190Y-67805380D01*
X9445523Y-66805380D01*
X7874095Y-68463000D02*
X7778857Y-68415380D01*
X7635999Y-68415380D01*
X7493142Y-68463000D01*
X7397904Y-68558238D01*
X7350285Y-68653476D01*
X7302666Y-68843952D01*
X7302666Y-68986809D01*
X7350285Y-69177285D01*
X7397904Y-69272523D01*
X7493142Y-69367761D01*
X7635999Y-69415380D01*
X7731238Y-69415380D01*
X7874095Y-69367761D01*
X7921714Y-69320142D01*
X7921714Y-68986809D01*
X7731238Y-68986809D01*
X8350285Y-69415380D02*
X8350285Y-68415380D01*
X8921714Y-69415380D01*
X8921714Y-68415380D01*
X9397904Y-69415380D02*
X9397904Y-68415380D01*
X9636000Y-68415380D01*
X9778857Y-68463000D01*
X9874095Y-68558238D01*
X9921714Y-68653476D01*
X9969333Y-68843952D01*
X9969333Y-68986809D01*
X9921714Y-69177285D01*
X9874095Y-69272523D01*
X9778857Y-69367761D01*
X9636000Y-69415380D01*
X9397904Y-69415380D01*
X14891238Y-64079428D02*
X15653142Y-64079428D01*
X18176952Y-64460380D02*
X17605523Y-64460380D01*
X17891238Y-64460380D02*
X17891238Y-63460380D01*
X17796000Y-63603238D01*
X17700761Y-63698476D01*
X17605523Y-63746095D01*
X18557904Y-63555619D02*
X18605523Y-63508000D01*
X18700761Y-63460380D01*
X18938857Y-63460380D01*
X19034095Y-63508000D01*
X19081714Y-63555619D01*
X19129333Y-63650857D01*
X19129333Y-63746095D01*
X19081714Y-63888952D01*
X18510285Y-64460380D01*
X19129333Y-64460380D01*
X19415047Y-63460380D02*
X19748380Y-64460380D01*
X20081714Y-63460380D01*
X21938857Y-64079428D02*
X22700761Y-64079428D01*
X22319809Y-64460380D02*
X22319809Y-63698476D01*
X28043619Y-64412761D02*
X28186476Y-64460380D01*
X28424571Y-64460380D01*
X28519809Y-64412761D01*
X28567428Y-64365142D01*
X28615047Y-64269904D01*
X28615047Y-64174666D01*
X28567428Y-64079428D01*
X28519809Y-64031809D01*
X28424571Y-63984190D01*
X28234095Y-63936571D01*
X28138857Y-63888952D01*
X28091238Y-63841333D01*
X28043619Y-63746095D01*
X28043619Y-63650857D01*
X28091238Y-63555619D01*
X28138857Y-63508000D01*
X28234095Y-63460380D01*
X28472190Y-63460380D01*
X28615047Y-63508000D01*
X29234095Y-63460380D02*
X29424571Y-63460380D01*
X29519809Y-63508000D01*
X29615047Y-63603238D01*
X29662666Y-63793714D01*
X29662666Y-64127047D01*
X29615047Y-64317523D01*
X29519809Y-64412761D01*
X29424571Y-64460380D01*
X29234095Y-64460380D01*
X29138857Y-64412761D01*
X29043619Y-64317523D01*
X28996000Y-64127047D01*
X28996000Y-63793714D01*
X29043619Y-63603238D01*
X29138857Y-63508000D01*
X29234095Y-63460380D01*
X30567428Y-64460380D02*
X30091238Y-64460380D01*
X30091238Y-63460380D01*
X30900761Y-63936571D02*
X31234095Y-63936571D01*
X31376952Y-64460380D02*
X30900761Y-64460380D01*
X30900761Y-63460380D01*
X31376952Y-63460380D01*
X31805523Y-64460380D02*
X31805523Y-63460380D01*
X32376952Y-64460380D01*
X32376952Y-63460380D01*
X33043619Y-63460380D02*
X33234095Y-63460380D01*
X33329333Y-63508000D01*
X33424571Y-63603238D01*
X33472190Y-63793714D01*
X33472190Y-64127047D01*
X33424571Y-64317523D01*
X33329333Y-64412761D01*
X33234095Y-64460380D01*
X33043619Y-64460380D01*
X32948380Y-64412761D01*
X32853142Y-64317523D01*
X32805523Y-64127047D01*
X32805523Y-63793714D01*
X32853142Y-63603238D01*
X32948380Y-63508000D01*
X33043619Y-63460380D01*
X33900761Y-64460380D02*
X33900761Y-63460380D01*
X34376952Y-64460380D02*
X34376952Y-63460380D01*
X34615047Y-63460380D01*
X34757904Y-63508000D01*
X34853142Y-63603238D01*
X34900761Y-63698476D01*
X34948380Y-63888952D01*
X34948380Y-64031809D01*
X34900761Y-64222285D01*
X34853142Y-64317523D01*
X34757904Y-64412761D01*
X34615047Y-64460380D01*
X34376952Y-64460380D01*
X36917523Y-64412761D02*
X37060380Y-64460380D01*
X37298476Y-64460380D01*
X37393714Y-64412761D01*
X37441333Y-64365142D01*
X37488952Y-64269904D01*
X37488952Y-64174666D01*
X37441333Y-64079428D01*
X37393714Y-64031809D01*
X37298476Y-63984190D01*
X37108000Y-63936571D01*
X37012761Y-63888952D01*
X36965142Y-63841333D01*
X36917523Y-63746095D01*
X36917523Y-63650857D01*
X36965142Y-63555619D01*
X37012761Y-63508000D01*
X37108000Y-63460380D01*
X37346095Y-63460380D01*
X37488952Y-63508000D01*
X37774666Y-63460380D02*
X38346095Y-63460380D01*
X38060380Y-64460380D02*
X38060380Y-63460380D01*
X38869904Y-63460380D02*
X39060380Y-63460380D01*
X39155619Y-63508000D01*
X39250857Y-63603238D01*
X39298476Y-63793714D01*
X39298476Y-64127047D01*
X39250857Y-64317523D01*
X39155619Y-64412761D01*
X39060380Y-64460380D01*
X38869904Y-64460380D01*
X38774666Y-64412761D01*
X38679428Y-64317523D01*
X38631809Y-64127047D01*
X38631809Y-63793714D01*
X38679428Y-63603238D01*
X38774666Y-63508000D01*
X38869904Y-63460380D01*
X39727047Y-64460380D02*
X39727047Y-63460380D01*
X40108000Y-63460380D01*
X40203238Y-63508000D01*
X40250857Y-63555619D01*
X40298476Y-63650857D01*
X40298476Y-63793714D01*
X40250857Y-63888952D01*
X40203238Y-63936571D01*
X40108000Y-63984190D01*
X39727047Y-63984190D01*
X45108761Y-51760190D02*
X45156380Y-51617333D01*
X45156380Y-51379238D01*
X45108761Y-51284000D01*
X45061142Y-51236380D01*
X44965904Y-51188761D01*
X44870666Y-51188761D01*
X44775428Y-51236380D01*
X44727809Y-51284000D01*
X44680190Y-51379238D01*
X44632571Y-51569714D01*
X44584952Y-51664952D01*
X44537333Y-51712571D01*
X44442095Y-51760190D01*
X44346857Y-51760190D01*
X44251619Y-51712571D01*
X44204000Y-51664952D01*
X44156380Y-51569714D01*
X44156380Y-51331619D01*
X44204000Y-51188761D01*
X44156380Y-50903047D02*
X44156380Y-50331619D01*
X45156380Y-50617333D02*
X44156380Y-50617333D01*
X44870666Y-50045904D02*
X44870666Y-49569714D01*
X45156380Y-50141142D02*
X44156380Y-49807809D01*
X45156380Y-49474476D01*
X45156380Y-48569714D02*
X44680190Y-48903047D01*
X45156380Y-49141142D02*
X44156380Y-49141142D01*
X44156380Y-48760190D01*
X44204000Y-48664952D01*
X44251619Y-48617333D01*
X44346857Y-48569714D01*
X44489714Y-48569714D01*
X44584952Y-48617333D01*
X44632571Y-48664952D01*
X44680190Y-48760190D01*
X44680190Y-49141142D01*
X44156380Y-48284000D02*
X44156380Y-47712571D01*
X45156380Y-47998285D02*
X44156380Y-47998285D01*
X42418095Y-15498000D02*
X42322857Y-15450380D01*
X42180000Y-15450380D01*
X42037142Y-15498000D01*
X41941904Y-15593238D01*
X41894285Y-15688476D01*
X41846666Y-15878952D01*
X41846666Y-16021809D01*
X41894285Y-16212285D01*
X41941904Y-16307523D01*
X42037142Y-16402761D01*
X42180000Y-16450380D01*
X42275238Y-16450380D01*
X42418095Y-16402761D01*
X42465714Y-16355142D01*
X42465714Y-16021809D01*
X42275238Y-16021809D01*
X42894285Y-16450380D02*
X42894285Y-15450380D01*
X43465714Y-16450380D01*
X43465714Y-15450380D01*
X43941904Y-16450380D02*
X43941904Y-15450380D01*
X44180000Y-15450380D01*
X44322857Y-15498000D01*
X44418095Y-15593238D01*
X44465714Y-15688476D01*
X44513333Y-15878952D01*
X44513333Y-16021809D01*
X44465714Y-16212285D01*
X44418095Y-16307523D01*
X44322857Y-16402761D01*
X44180000Y-16450380D01*
X43941904Y-16450380D01*
X41060952Y-19622761D02*
X41203809Y-19670380D01*
X41441904Y-19670380D01*
X41537142Y-19622761D01*
X41584761Y-19575142D01*
X41632380Y-19479904D01*
X41632380Y-19384666D01*
X41584761Y-19289428D01*
X41537142Y-19241809D01*
X41441904Y-19194190D01*
X41251428Y-19146571D01*
X41156190Y-19098952D01*
X41108571Y-19051333D01*
X41060952Y-18956095D01*
X41060952Y-18860857D01*
X41108571Y-18765619D01*
X41156190Y-18718000D01*
X41251428Y-18670380D01*
X41489523Y-18670380D01*
X41632380Y-18718000D01*
X41965714Y-18670380D02*
X42203809Y-19670380D01*
X42394285Y-18956095D01*
X42584761Y-19670380D01*
X42822857Y-18670380D01*
X43203809Y-19670380D02*
X43203809Y-18670380D01*
X43441904Y-18670380D01*
X43584761Y-18718000D01*
X43680000Y-18813238D01*
X43727619Y-18908476D01*
X43775238Y-19098952D01*
X43775238Y-19241809D01*
X43727619Y-19432285D01*
X43680000Y-19527523D01*
X43584761Y-19622761D01*
X43441904Y-19670380D01*
X43203809Y-19670380D01*
X44203809Y-19670380D02*
X44203809Y-18670380D01*
X44870476Y-18670380D02*
X45060952Y-18670380D01*
X45156190Y-18718000D01*
X45251428Y-18813238D01*
X45299047Y-19003714D01*
X45299047Y-19337047D01*
X45251428Y-19527523D01*
X45156190Y-19622761D01*
X45060952Y-19670380D01*
X44870476Y-19670380D01*
X44775238Y-19622761D01*
X44680000Y-19527523D01*
X44632380Y-19337047D01*
X44632380Y-19003714D01*
X44680000Y-18813238D01*
X44775238Y-18718000D01*
X44870476Y-18670380D01*
X40918095Y-22842761D02*
X41060952Y-22890380D01*
X41299047Y-22890380D01*
X41394285Y-22842761D01*
X41441904Y-22795142D01*
X41489523Y-22699904D01*
X41489523Y-22604666D01*
X41441904Y-22509428D01*
X41394285Y-22461809D01*
X41299047Y-22414190D01*
X41108571Y-22366571D01*
X41013333Y-22318952D01*
X40965714Y-22271333D01*
X40918095Y-22176095D01*
X40918095Y-22080857D01*
X40965714Y-21985619D01*
X41013333Y-21938000D01*
X41108571Y-21890380D01*
X41346666Y-21890380D01*
X41489523Y-21938000D01*
X41822857Y-21890380D02*
X42060952Y-22890380D01*
X42251428Y-22176095D01*
X42441904Y-22890380D01*
X42680000Y-21890380D01*
X43632380Y-22795142D02*
X43584761Y-22842761D01*
X43441904Y-22890380D01*
X43346666Y-22890380D01*
X43203809Y-22842761D01*
X43108571Y-22747523D01*
X43060952Y-22652285D01*
X43013333Y-22461809D01*
X43013333Y-22318952D01*
X43060952Y-22128476D01*
X43108571Y-22033238D01*
X43203809Y-21938000D01*
X43346666Y-21890380D01*
X43441904Y-21890380D01*
X43584761Y-21938000D01*
X43632380Y-21985619D01*
X44537142Y-22890380D02*
X44060952Y-22890380D01*
X44060952Y-21890380D01*
X44870476Y-22890380D02*
X44870476Y-21890380D01*
X45441904Y-22890380D02*
X45013333Y-22318952D01*
X45441904Y-21890380D02*
X44870476Y-22461809D01*
X41180000Y-25729428D02*
X41941904Y-25729428D01*
X41560952Y-26110380D02*
X41560952Y-25348476D01*
X42322857Y-25110380D02*
X42941904Y-25110380D01*
X42608571Y-25491333D01*
X42751428Y-25491333D01*
X42846666Y-25538952D01*
X42894285Y-25586571D01*
X42941904Y-25681809D01*
X42941904Y-25919904D01*
X42894285Y-26015142D01*
X42846666Y-26062761D01*
X42751428Y-26110380D01*
X42465714Y-26110380D01*
X42370476Y-26062761D01*
X42322857Y-26015142D01*
X43370476Y-26015142D02*
X43418095Y-26062761D01*
X43370476Y-26110380D01*
X43322857Y-26062761D01*
X43370476Y-26015142D01*
X43370476Y-26110380D01*
X43751428Y-25110380D02*
X44370476Y-25110380D01*
X44037142Y-25491333D01*
X44180000Y-25491333D01*
X44275238Y-25538952D01*
X44322857Y-25586571D01*
X44370476Y-25681809D01*
X44370476Y-25919904D01*
X44322857Y-26015142D01*
X44275238Y-26062761D01*
X44180000Y-26110380D01*
X43894285Y-26110380D01*
X43799047Y-26062761D01*
X43751428Y-26015142D01*
X44656190Y-25110380D02*
X44989523Y-26110380D01*
X45322857Y-25110380D01*
X18661142Y-17629142D02*
X18613523Y-17676761D01*
X18470666Y-17724380D01*
X18375428Y-17724380D01*
X18232571Y-17676761D01*
X18137333Y-17581523D01*
X18089714Y-17486285D01*
X18042095Y-17295809D01*
X18042095Y-17152952D01*
X18089714Y-16962476D01*
X18137333Y-16867238D01*
X18232571Y-16772000D01*
X18375428Y-16724380D01*
X18470666Y-16724380D01*
X18613523Y-16772000D01*
X18661142Y-16819619D01*
X19613523Y-17724380D02*
X19042095Y-17724380D01*
X19327809Y-17724380D02*
X19327809Y-16724380D01*
X19232571Y-16867238D01*
X19137333Y-16962476D01*
X19042095Y-17010095D01*
X19946857Y-16724380D02*
X20613523Y-16724380D01*
X20184952Y-17724380D01*
X18661142Y-24741142D02*
X18613523Y-24788761D01*
X18470666Y-24836380D01*
X18375428Y-24836380D01*
X18232571Y-24788761D01*
X18137333Y-24693523D01*
X18089714Y-24598285D01*
X18042095Y-24407809D01*
X18042095Y-24264952D01*
X18089714Y-24074476D01*
X18137333Y-23979238D01*
X18232571Y-23884000D01*
X18375428Y-23836380D01*
X18470666Y-23836380D01*
X18613523Y-23884000D01*
X18661142Y-23931619D01*
X19613523Y-24836380D02*
X19042095Y-24836380D01*
X19327809Y-24836380D02*
X19327809Y-23836380D01*
X19232571Y-23979238D01*
X19137333Y-24074476D01*
X19042095Y-24122095D01*
X20518285Y-23836380D02*
X20042095Y-23836380D01*
X19994476Y-24312571D01*
X20042095Y-24264952D01*
X20137333Y-24217333D01*
X20375428Y-24217333D01*
X20470666Y-24264952D01*
X20518285Y-24312571D01*
X20565904Y-24407809D01*
X20565904Y-24645904D01*
X20518285Y-24741142D01*
X20470666Y-24788761D01*
X20375428Y-24836380D01*
X20137333Y-24836380D01*
X20042095Y-24788761D01*
X19994476Y-24741142D01*
X10414095Y-26376380D02*
X10414095Y-27185904D01*
X10461714Y-27281142D01*
X10509333Y-27328761D01*
X10604571Y-27376380D01*
X10795047Y-27376380D01*
X10890285Y-27328761D01*
X10937904Y-27281142D01*
X10985523Y-27185904D01*
X10985523Y-26376380D01*
X11985523Y-27376380D02*
X11414095Y-27376380D01*
X11699809Y-27376380D02*
X11699809Y-26376380D01*
X11604571Y-26519238D01*
X11509333Y-26614476D01*
X11414095Y-26662095D01*
X15517904Y-52776380D02*
X15517904Y-51776380D01*
X15756000Y-51776380D01*
X15898857Y-51824000D01*
X15994095Y-51919238D01*
X16041714Y-52014476D01*
X16089333Y-52204952D01*
X16089333Y-52347809D01*
X16041714Y-52538285D01*
X15994095Y-52633523D01*
X15898857Y-52728761D01*
X15756000Y-52776380D01*
X15517904Y-52776380D01*
X16422666Y-51776380D02*
X17041714Y-51776380D01*
X16708380Y-52157333D01*
X16851238Y-52157333D01*
X16946476Y-52204952D01*
X16994095Y-52252571D01*
X17041714Y-52347809D01*
X17041714Y-52585904D01*
X16994095Y-52681142D01*
X16946476Y-52728761D01*
X16851238Y-52776380D01*
X16565523Y-52776380D01*
X16470285Y-52728761D01*
X16422666Y-52681142D01*
X38199809Y-28938190D02*
X38199809Y-29414380D01*
X37866476Y-28414380D02*
X38199809Y-28938190D01*
X38533142Y-28414380D01*
X39390285Y-29414380D02*
X38818857Y-29414380D01*
X39104571Y-29414380D02*
X39104571Y-28414380D01*
X39009333Y-28557238D01*
X38914095Y-28652476D01*
X38818857Y-28700095D01*
X8469333Y-34996380D02*
X8136000Y-34520190D01*
X7897904Y-34996380D02*
X7897904Y-33996380D01*
X8278857Y-33996380D01*
X8374095Y-34044000D01*
X8421714Y-34091619D01*
X8469333Y-34186857D01*
X8469333Y-34329714D01*
X8421714Y-34424952D01*
X8374095Y-34472571D01*
X8278857Y-34520190D01*
X7897904Y-34520190D01*
X8802666Y-33996380D02*
X9421714Y-33996380D01*
X9088380Y-34377333D01*
X9231238Y-34377333D01*
X9326476Y-34424952D01*
X9374095Y-34472571D01*
X9421714Y-34567809D01*
X9421714Y-34805904D01*
X9374095Y-34901142D01*
X9326476Y-34948761D01*
X9231238Y-34996380D01*
X8945523Y-34996380D01*
X8850285Y-34948761D01*
X8802666Y-34901142D01*
X29837142Y-29097142D02*
X29789523Y-29144761D01*
X29646666Y-29192380D01*
X29551428Y-29192380D01*
X29408571Y-29144761D01*
X29313333Y-29049523D01*
X29265714Y-28954285D01*
X29218095Y-28763809D01*
X29218095Y-28620952D01*
X29265714Y-28430476D01*
X29313333Y-28335238D01*
X29408571Y-28240000D01*
X29551428Y-28192380D01*
X29646666Y-28192380D01*
X29789523Y-28240000D01*
X29837142Y-28287619D01*
X30789523Y-29192380D02*
X30218095Y-29192380D01*
X30503809Y-29192380D02*
X30503809Y-28192380D01*
X30408571Y-28335238D01*
X30313333Y-28430476D01*
X30218095Y-28478095D01*
X31408571Y-28192380D02*
X31503809Y-28192380D01*
X31599047Y-28240000D01*
X31646666Y-28287619D01*
X31694285Y-28382857D01*
X31741904Y-28573333D01*
X31741904Y-28811428D01*
X31694285Y-29001904D01*
X31646666Y-29097142D01*
X31599047Y-29144761D01*
X31503809Y-29192380D01*
X31408571Y-29192380D01*
X31313333Y-29144761D01*
X31265714Y-29097142D01*
X31218095Y-29001904D01*
X31170476Y-28811428D01*
X31170476Y-28573333D01*
X31218095Y-28382857D01*
X31265714Y-28287619D01*
X31313333Y-28240000D01*
X31408571Y-28192380D01*
X43410333Y-27631380D02*
X43077000Y-27155190D01*
X42838904Y-27631380D02*
X42838904Y-26631380D01*
X43219857Y-26631380D01*
X43315095Y-26679000D01*
X43362714Y-26726619D01*
X43410333Y-26821857D01*
X43410333Y-26964714D01*
X43362714Y-27059952D01*
X43315095Y-27107571D01*
X43219857Y-27155190D01*
X42838904Y-27155190D01*
X44315095Y-26631380D02*
X43838904Y-26631380D01*
X43791285Y-27107571D01*
X43838904Y-27059952D01*
X43934142Y-27012333D01*
X44172238Y-27012333D01*
X44267476Y-27059952D01*
X44315095Y-27107571D01*
X44362714Y-27202809D01*
X44362714Y-27440904D01*
X44315095Y-27536142D01*
X44267476Y-27583761D01*
X44172238Y-27631380D01*
X43934142Y-27631380D01*
X43838904Y-27583761D01*
X43791285Y-27536142D01*
X41338666Y-45108761D02*
X41481523Y-45156380D01*
X41719619Y-45156380D01*
X41814857Y-45108761D01*
X41862476Y-45061142D01*
X41910095Y-44965904D01*
X41910095Y-44870666D01*
X41862476Y-44775428D01*
X41814857Y-44727809D01*
X41719619Y-44680190D01*
X41529142Y-44632571D01*
X41433904Y-44584952D01*
X41386285Y-44537333D01*
X41338666Y-44442095D01*
X41338666Y-44346857D01*
X41386285Y-44251619D01*
X41433904Y-44204000D01*
X41529142Y-44156380D01*
X41767238Y-44156380D01*
X41910095Y-44204000D01*
X42243428Y-44156380D02*
X42481523Y-45156380D01*
X42672000Y-44442095D01*
X42862476Y-45156380D01*
X43100571Y-44156380D01*
X43433904Y-44251619D02*
X43481523Y-44204000D01*
X43576761Y-44156380D01*
X43814857Y-44156380D01*
X43910095Y-44204000D01*
X43957714Y-44251619D01*
X44005333Y-44346857D01*
X44005333Y-44442095D01*
X43957714Y-44584952D01*
X43386285Y-45156380D01*
X44005333Y-45156380D01*
X17446666Y-53173380D02*
X17446666Y-53887666D01*
X17399047Y-54030523D01*
X17303809Y-54125761D01*
X17160952Y-54173380D01*
X17065714Y-54173380D01*
X17875238Y-53268619D02*
X17922857Y-53221000D01*
X18018095Y-53173380D01*
X18256190Y-53173380D01*
X18351428Y-53221000D01*
X18399047Y-53268619D01*
X18446666Y-53363857D01*
X18446666Y-53459095D01*
X18399047Y-53601952D01*
X17827619Y-54173380D01*
X18446666Y-54173380D01*
X32408761Y-41973333D02*
X32456380Y-41830476D01*
X32456380Y-41592380D01*
X32408761Y-41497142D01*
X32361142Y-41449523D01*
X32265904Y-41401904D01*
X32170666Y-41401904D01*
X32075428Y-41449523D01*
X32027809Y-41497142D01*
X31980190Y-41592380D01*
X31932571Y-41782857D01*
X31884952Y-41878095D01*
X31837333Y-41925714D01*
X31742095Y-41973333D01*
X31646857Y-41973333D01*
X31551619Y-41925714D01*
X31504000Y-41878095D01*
X31456380Y-41782857D01*
X31456380Y-41544761D01*
X31504000Y-41401904D01*
X31456380Y-41068571D02*
X32456380Y-40830476D01*
X31742095Y-40640000D01*
X32456380Y-40449523D01*
X31456380Y-40211428D01*
X31456380Y-39925714D02*
X31456380Y-39306666D01*
X31837333Y-39640000D01*
X31837333Y-39497142D01*
X31884952Y-39401904D01*
X31932571Y-39354285D01*
X32027809Y-39306666D01*
X32265904Y-39306666D01*
X32361142Y-39354285D01*
X32408761Y-39401904D01*
X32456380Y-39497142D01*
X32456380Y-39782857D01*
X32408761Y-39878095D01*
X32361142Y-39925714D01*
X44045142Y-41508105D02*
X44092761Y-41555724D01*
X44140380Y-41698581D01*
X44140380Y-41793819D01*
X44092761Y-41936676D01*
X43997523Y-42031914D01*
X43902285Y-42079533D01*
X43711809Y-42127152D01*
X43568952Y-42127152D01*
X43378476Y-42079533D01*
X43283238Y-42031914D01*
X43188000Y-41936676D01*
X43140380Y-41793819D01*
X43140380Y-41698581D01*
X43188000Y-41555724D01*
X43235619Y-41508105D01*
X44140380Y-40555724D02*
X44140380Y-41127152D01*
X44140380Y-40841438D02*
X43140380Y-40841438D01*
X43283238Y-40936676D01*
X43378476Y-41031914D01*
X43426095Y-41127152D01*
X43140380Y-39698581D02*
X43140380Y-39889057D01*
X43188000Y-39984295D01*
X43235619Y-40031914D01*
X43378476Y-40127152D01*
X43568952Y-40174771D01*
X43949904Y-40174771D01*
X44045142Y-40127152D01*
X44092761Y-40079533D01*
X44140380Y-39984295D01*
X44140380Y-39793819D01*
X44092761Y-39698581D01*
X44045142Y-39650962D01*
X43949904Y-39603343D01*
X43711809Y-39603343D01*
X43616571Y-39650962D01*
X43568952Y-39698581D01*
X43521333Y-39793819D01*
X43521333Y-39984295D01*
X43568952Y-40079533D01*
X43616571Y-40127152D01*
X43711809Y-40174771D01*
X11333333Y-24238380D02*
X11000000Y-23762190D01*
X10761904Y-24238380D02*
X10761904Y-23238380D01*
X11142857Y-23238380D01*
X11238095Y-23286000D01*
X11285714Y-23333619D01*
X11333333Y-23428857D01*
X11333333Y-23571714D01*
X11285714Y-23666952D01*
X11238095Y-23714571D01*
X11142857Y-23762190D01*
X10761904Y-23762190D01*
X12190476Y-23238380D02*
X12000000Y-23238380D01*
X11904761Y-23286000D01*
X11857142Y-23333619D01*
X11761904Y-23476476D01*
X11714285Y-23666952D01*
X11714285Y-24047904D01*
X11761904Y-24143142D01*
X11809523Y-24190761D01*
X11904761Y-24238380D01*
X12095238Y-24238380D01*
X12190476Y-24190761D01*
X12238095Y-24143142D01*
X12285714Y-24047904D01*
X12285714Y-23809809D01*
X12238095Y-23714571D01*
X12190476Y-23666952D01*
X12095238Y-23619333D01*
X11904761Y-23619333D01*
X11809523Y-23666952D01*
X11761904Y-23714571D01*
X11714285Y-23809809D01*
X31558142Y-23730380D02*
X31224809Y-23254190D01*
X30986714Y-23730380D02*
X30986714Y-22730380D01*
X31367666Y-22730380D01*
X31462904Y-22778000D01*
X31510523Y-22825619D01*
X31558142Y-22920857D01*
X31558142Y-23063714D01*
X31510523Y-23158952D01*
X31462904Y-23206571D01*
X31367666Y-23254190D01*
X30986714Y-23254190D01*
X32510523Y-23730380D02*
X31939095Y-23730380D01*
X32224809Y-23730380D02*
X32224809Y-22730380D01*
X32129571Y-22873238D01*
X32034333Y-22968476D01*
X31939095Y-23016095D01*
X32891476Y-22825619D02*
X32939095Y-22778000D01*
X33034333Y-22730380D01*
X33272428Y-22730380D01*
X33367666Y-22778000D01*
X33415285Y-22825619D01*
X33462904Y-22920857D01*
X33462904Y-23016095D01*
X33415285Y-23158952D01*
X32843857Y-23730380D01*
X33462904Y-23730380D01*
X18661142Y-26773142D02*
X18613523Y-26820761D01*
X18470666Y-26868380D01*
X18375428Y-26868380D01*
X18232571Y-26820761D01*
X18137333Y-26725523D01*
X18089714Y-26630285D01*
X18042095Y-26439809D01*
X18042095Y-26296952D01*
X18089714Y-26106476D01*
X18137333Y-26011238D01*
X18232571Y-25916000D01*
X18375428Y-25868380D01*
X18470666Y-25868380D01*
X18613523Y-25916000D01*
X18661142Y-25963619D01*
X19613523Y-26868380D02*
X19042095Y-26868380D01*
X19327809Y-26868380D02*
X19327809Y-25868380D01*
X19232571Y-26011238D01*
X19137333Y-26106476D01*
X19042095Y-26154095D01*
X20565904Y-26868380D02*
X19994476Y-26868380D01*
X20280190Y-26868380D02*
X20280190Y-25868380D01*
X20184952Y-26011238D01*
X20089714Y-26106476D01*
X19994476Y-26154095D01*
X11333333Y-18906380D02*
X11000000Y-18430190D01*
X10761904Y-18906380D02*
X10761904Y-17906380D01*
X11142857Y-17906380D01*
X11238095Y-17954000D01*
X11285714Y-18001619D01*
X11333333Y-18096857D01*
X11333333Y-18239714D01*
X11285714Y-18334952D01*
X11238095Y-18382571D01*
X11142857Y-18430190D01*
X10761904Y-18430190D01*
X11666666Y-17906380D02*
X12333333Y-17906380D01*
X11904761Y-18906380D01*
X20677142Y-11310857D02*
X20724761Y-11358476D01*
X20772380Y-11501333D01*
X20772380Y-11596571D01*
X20724761Y-11739428D01*
X20629523Y-11834666D01*
X20534285Y-11882285D01*
X20343809Y-11929904D01*
X20200952Y-11929904D01*
X20010476Y-11882285D01*
X19915238Y-11834666D01*
X19820000Y-11739428D01*
X19772380Y-11596571D01*
X19772380Y-11501333D01*
X19820000Y-11358476D01*
X19867619Y-11310857D01*
X20772380Y-10358476D02*
X20772380Y-10929904D01*
X20772380Y-10644190D02*
X19772380Y-10644190D01*
X19915238Y-10739428D01*
X20010476Y-10834666D01*
X20058095Y-10929904D01*
X20200952Y-9787047D02*
X20153333Y-9882285D01*
X20105714Y-9929904D01*
X20010476Y-9977523D01*
X19962857Y-9977523D01*
X19867619Y-9929904D01*
X19820000Y-9882285D01*
X19772380Y-9787047D01*
X19772380Y-9596571D01*
X19820000Y-9501333D01*
X19867619Y-9453714D01*
X19962857Y-9406095D01*
X20010476Y-9406095D01*
X20105714Y-9453714D01*
X20153333Y-9501333D01*
X20200952Y-9596571D01*
X20200952Y-9787047D01*
X20248571Y-9882285D01*
X20296190Y-9929904D01*
X20391428Y-9977523D01*
X20581904Y-9977523D01*
X20677142Y-9929904D01*
X20724761Y-9882285D01*
X20772380Y-9787047D01*
X20772380Y-9596571D01*
X20724761Y-9501333D01*
X20677142Y-9453714D01*
X20581904Y-9406095D01*
X20391428Y-9406095D01*
X20296190Y-9453714D01*
X20248571Y-9501333D01*
X20200952Y-9596571D01*
X16089333Y-13660380D02*
X15613142Y-13660380D01*
X15613142Y-12660380D01*
X16946476Y-13660380D02*
X16375047Y-13660380D01*
X16660761Y-13660380D02*
X16660761Y-12660380D01*
X16565523Y-12803238D01*
X16470285Y-12898476D01*
X16375047Y-12946095D01*
X33472380Y-19365857D02*
X32996190Y-19699190D01*
X33472380Y-19937285D02*
X32472380Y-19937285D01*
X32472380Y-19556333D01*
X32520000Y-19461095D01*
X32567619Y-19413476D01*
X32662857Y-19365857D01*
X32805714Y-19365857D01*
X32900952Y-19413476D01*
X32948571Y-19461095D01*
X32996190Y-19556333D01*
X32996190Y-19937285D01*
X33472380Y-18413476D02*
X33472380Y-18984904D01*
X33472380Y-18699190D02*
X32472380Y-18699190D01*
X32615238Y-18794428D01*
X32710476Y-18889666D01*
X32758095Y-18984904D01*
X32472380Y-18080142D02*
X32472380Y-17461095D01*
X32853333Y-17794428D01*
X32853333Y-17651571D01*
X32900952Y-17556333D01*
X32948571Y-17508714D01*
X33043809Y-17461095D01*
X33281904Y-17461095D01*
X33377142Y-17508714D01*
X33424761Y-17556333D01*
X33472380Y-17651571D01*
X33472380Y-17937285D01*
X33424761Y-18032523D01*
X33377142Y-18080142D01*
X22383380Y-19460857D02*
X21907190Y-19794190D01*
X22383380Y-20032285D02*
X21383380Y-20032285D01*
X21383380Y-19651333D01*
X21431000Y-19556095D01*
X21478619Y-19508476D01*
X21573857Y-19460857D01*
X21716714Y-19460857D01*
X21811952Y-19508476D01*
X21859571Y-19556095D01*
X21907190Y-19651333D01*
X21907190Y-20032285D01*
X22383380Y-18508476D02*
X22383380Y-19079904D01*
X22383380Y-18794190D02*
X21383380Y-18794190D01*
X21526238Y-18889428D01*
X21621476Y-18984666D01*
X21669095Y-19079904D01*
X21383380Y-17889428D02*
X21383380Y-17794190D01*
X21431000Y-17698952D01*
X21478619Y-17651333D01*
X21573857Y-17603714D01*
X21764333Y-17556095D01*
X22002428Y-17556095D01*
X22192904Y-17603714D01*
X22288142Y-17651333D01*
X22335761Y-17698952D01*
X22383380Y-17794190D01*
X22383380Y-17889428D01*
X22335761Y-17984666D01*
X22288142Y-18032285D01*
X22192904Y-18079904D01*
X22002428Y-18127523D01*
X21764333Y-18127523D01*
X21573857Y-18079904D01*
X21478619Y-18032285D01*
X21431000Y-17984666D01*
X21383380Y-17889428D01*
X18904833Y-36454142D02*
X18857214Y-36501761D01*
X18714357Y-36549380D01*
X18619119Y-36549380D01*
X18476261Y-36501761D01*
X18381023Y-36406523D01*
X18333404Y-36311285D01*
X18285785Y-36120809D01*
X18285785Y-35977952D01*
X18333404Y-35787476D01*
X18381023Y-35692238D01*
X18476261Y-35597000D01*
X18619119Y-35549380D01*
X18714357Y-35549380D01*
X18857214Y-35597000D01*
X18904833Y-35644619D01*
X19761976Y-35549380D02*
X19571500Y-35549380D01*
X19476261Y-35597000D01*
X19428642Y-35644619D01*
X19333404Y-35787476D01*
X19285785Y-35977952D01*
X19285785Y-36358904D01*
X19333404Y-36454142D01*
X19381023Y-36501761D01*
X19476261Y-36549380D01*
X19666738Y-36549380D01*
X19761976Y-36501761D01*
X19809595Y-36454142D01*
X19857214Y-36358904D01*
X19857214Y-36120809D01*
X19809595Y-36025571D01*
X19761976Y-35977952D01*
X19666738Y-35930333D01*
X19476261Y-35930333D01*
X19381023Y-35977952D01*
X19333404Y-36025571D01*
X19285785Y-36120809D01*
X30002380Y-11374285D02*
X29002380Y-11374285D01*
X29002380Y-11136190D01*
X29050000Y-10993333D01*
X29145238Y-10898095D01*
X29240476Y-10850476D01*
X29430952Y-10802857D01*
X29573809Y-10802857D01*
X29764285Y-10850476D01*
X29859523Y-10898095D01*
X29954761Y-10993333D01*
X30002380Y-11136190D01*
X30002380Y-11374285D01*
X30002380Y-9850476D02*
X30002380Y-10421904D01*
X30002380Y-10136190D02*
X29002380Y-10136190D01*
X29145238Y-10231428D01*
X29240476Y-10326666D01*
X29288095Y-10421904D01*
X29002380Y-9231428D02*
X29002380Y-9136190D01*
X29050000Y-9040952D01*
X29097619Y-8993333D01*
X29192857Y-8945714D01*
X29383333Y-8898095D01*
X29621428Y-8898095D01*
X29811904Y-8945714D01*
X29907142Y-8993333D01*
X29954761Y-9040952D01*
X30002380Y-9136190D01*
X30002380Y-9231428D01*
X29954761Y-9326666D01*
X29907142Y-9374285D01*
X29811904Y-9421904D01*
X29621428Y-9469523D01*
X29383333Y-9469523D01*
X29192857Y-9421904D01*
X29097619Y-9374285D01*
X29050000Y-9326666D01*
X29002380Y-9231428D01*
X38528666Y-13700380D02*
X38528666Y-14414666D01*
X38481047Y-14557523D01*
X38385809Y-14652761D01*
X38242952Y-14700380D01*
X38147714Y-14700380D01*
X39481047Y-13700380D02*
X39004857Y-13700380D01*
X38957238Y-14176571D01*
X39004857Y-14128952D01*
X39100095Y-14081333D01*
X39338190Y-14081333D01*
X39433428Y-14128952D01*
X39481047Y-14176571D01*
X39528666Y-14271809D01*
X39528666Y-14509904D01*
X39481047Y-14605142D01*
X39433428Y-14652761D01*
X39338190Y-14700380D01*
X39100095Y-14700380D01*
X39004857Y-14652761D01*
X38957238Y-14605142D01*
X25852380Y-22010666D02*
X25376190Y-22344000D01*
X25852380Y-22582095D02*
X24852380Y-22582095D01*
X24852380Y-22201142D01*
X24900000Y-22105904D01*
X24947619Y-22058285D01*
X25042857Y-22010666D01*
X25185714Y-22010666D01*
X25280952Y-22058285D01*
X25328571Y-22105904D01*
X25376190Y-22201142D01*
X25376190Y-22582095D01*
X25852380Y-21534476D02*
X25852380Y-21344000D01*
X25804761Y-21248761D01*
X25757142Y-21201142D01*
X25614285Y-21105904D01*
X25423809Y-21058285D01*
X25042857Y-21058285D01*
X24947619Y-21105904D01*
X24900000Y-21153523D01*
X24852380Y-21248761D01*
X24852380Y-21439238D01*
X24900000Y-21534476D01*
X24947619Y-21582095D01*
X25042857Y-21629714D01*
X25280952Y-21629714D01*
X25376190Y-21582095D01*
X25423809Y-21534476D01*
X25471428Y-21439238D01*
X25471428Y-21248761D01*
X25423809Y-21153523D01*
X25376190Y-21105904D01*
X25280952Y-21058285D01*
X23725142Y-36713914D02*
X23772761Y-36761533D01*
X23820380Y-36904390D01*
X23820380Y-36999628D01*
X23772761Y-37142486D01*
X23677523Y-37237724D01*
X23582285Y-37285343D01*
X23391809Y-37332962D01*
X23248952Y-37332962D01*
X23058476Y-37285343D01*
X22963238Y-37237724D01*
X22868000Y-37142486D01*
X22820380Y-36999628D01*
X22820380Y-36904390D01*
X22868000Y-36761533D01*
X22915619Y-36713914D01*
X23153714Y-35856771D02*
X23820380Y-35856771D01*
X22772761Y-36094867D02*
X23487047Y-36332962D01*
X23487047Y-35713914D01*
X7118666Y-14188380D02*
X7118666Y-14902666D01*
X7071047Y-15045523D01*
X6975809Y-15140761D01*
X6832952Y-15188380D01*
X6737714Y-15188380D01*
X8023428Y-14188380D02*
X7832952Y-14188380D01*
X7737714Y-14236000D01*
X7690095Y-14283619D01*
X7594857Y-14426476D01*
X7547238Y-14616952D01*
X7547238Y-14997904D01*
X7594857Y-15093142D01*
X7642476Y-15140761D01*
X7737714Y-15188380D01*
X7928190Y-15188380D01*
X8023428Y-15140761D01*
X8071047Y-15093142D01*
X8118666Y-14997904D01*
X8118666Y-14759809D01*
X8071047Y-14664571D01*
X8023428Y-14616952D01*
X7928190Y-14569333D01*
X7737714Y-14569333D01*
X7642476Y-14616952D01*
X7594857Y-14664571D01*
X7547238Y-14759809D01*
X18661142Y-22201142D02*
X18613523Y-22248761D01*
X18470666Y-22296380D01*
X18375428Y-22296380D01*
X18232571Y-22248761D01*
X18137333Y-22153523D01*
X18089714Y-22058285D01*
X18042095Y-21867809D01*
X18042095Y-21724952D01*
X18089714Y-21534476D01*
X18137333Y-21439238D01*
X18232571Y-21344000D01*
X18375428Y-21296380D01*
X18470666Y-21296380D01*
X18613523Y-21344000D01*
X18661142Y-21391619D01*
X19613523Y-22296380D02*
X19042095Y-22296380D01*
X19327809Y-22296380D02*
X19327809Y-21296380D01*
X19232571Y-21439238D01*
X19137333Y-21534476D01*
X19042095Y-21582095D01*
X19946857Y-21296380D02*
X20565904Y-21296380D01*
X20232571Y-21677333D01*
X20375428Y-21677333D01*
X20470666Y-21724952D01*
X20518285Y-21772571D01*
X20565904Y-21867809D01*
X20565904Y-22105904D01*
X20518285Y-22201142D01*
X20470666Y-22248761D01*
X20375428Y-22296380D01*
X20089714Y-22296380D01*
X19994476Y-22248761D01*
X19946857Y-22201142D01*
X18661142Y-19661142D02*
X18613523Y-19708761D01*
X18470666Y-19756380D01*
X18375428Y-19756380D01*
X18232571Y-19708761D01*
X18137333Y-19613523D01*
X18089714Y-19518285D01*
X18042095Y-19327809D01*
X18042095Y-19184952D01*
X18089714Y-18994476D01*
X18137333Y-18899238D01*
X18232571Y-18804000D01*
X18375428Y-18756380D01*
X18470666Y-18756380D01*
X18613523Y-18804000D01*
X18661142Y-18851619D01*
X19613523Y-19756380D02*
X19042095Y-19756380D01*
X19327809Y-19756380D02*
X19327809Y-18756380D01*
X19232571Y-18899238D01*
X19137333Y-18994476D01*
X19042095Y-19042095D01*
X20470666Y-19089714D02*
X20470666Y-19756380D01*
X20232571Y-18708761D02*
X19994476Y-19423047D01*
X20613523Y-19423047D01*
X24328380Y-11406095D02*
X23328380Y-11406095D01*
X23328380Y-11168000D01*
X23376000Y-11025142D01*
X23471238Y-10929904D01*
X23566476Y-10882285D01*
X23756952Y-10834666D01*
X23899809Y-10834666D01*
X24090285Y-10882285D01*
X24185523Y-10929904D01*
X24280761Y-11025142D01*
X24328380Y-11168000D01*
X24328380Y-11406095D01*
X24328380Y-10358476D02*
X24328380Y-10168000D01*
X24280761Y-10072761D01*
X24233142Y-10025142D01*
X24090285Y-9929904D01*
X23899809Y-9882285D01*
X23518857Y-9882285D01*
X23423619Y-9929904D01*
X23376000Y-9977523D01*
X23328380Y-10072761D01*
X23328380Y-10263238D01*
X23376000Y-10358476D01*
X23423619Y-10406095D01*
X23518857Y-10453714D01*
X23756952Y-10453714D01*
X23852190Y-10406095D01*
X23899809Y-10358476D01*
X23947428Y-10263238D01*
X23947428Y-10072761D01*
X23899809Y-9977523D01*
X23852190Y-9929904D01*
X23756952Y-9882285D01*
X16613142Y-44870666D02*
X16660761Y-44918285D01*
X16708380Y-45061142D01*
X16708380Y-45156380D01*
X16660761Y-45299238D01*
X16565523Y-45394476D01*
X16470285Y-45442095D01*
X16279809Y-45489714D01*
X16136952Y-45489714D01*
X15946476Y-45442095D01*
X15851238Y-45394476D01*
X15756000Y-45299238D01*
X15708380Y-45156380D01*
X15708380Y-45061142D01*
X15756000Y-44918285D01*
X15803619Y-44870666D01*
X15803619Y-44489714D02*
X15756000Y-44442095D01*
X15708380Y-44346857D01*
X15708380Y-44108761D01*
X15756000Y-44013523D01*
X15803619Y-43965904D01*
X15898857Y-43918285D01*
X15994095Y-43918285D01*
X16136952Y-43965904D01*
X16708380Y-44537333D01*
X16708380Y-43918285D01*
X22709142Y-11310857D02*
X22756761Y-11358476D01*
X22804380Y-11501333D01*
X22804380Y-11596571D01*
X22756761Y-11739428D01*
X22661523Y-11834666D01*
X22566285Y-11882285D01*
X22375809Y-11929904D01*
X22232952Y-11929904D01*
X22042476Y-11882285D01*
X21947238Y-11834666D01*
X21852000Y-11739428D01*
X21804380Y-11596571D01*
X21804380Y-11501333D01*
X21852000Y-11358476D01*
X21899619Y-11310857D01*
X22804380Y-10358476D02*
X22804380Y-10929904D01*
X22804380Y-10644190D02*
X21804380Y-10644190D01*
X21947238Y-10739428D01*
X22042476Y-10834666D01*
X22090095Y-10929904D01*
X22804380Y-9882285D02*
X22804380Y-9691809D01*
X22756761Y-9596571D01*
X22709142Y-9548952D01*
X22566285Y-9453714D01*
X22375809Y-9406095D01*
X21994857Y-9406095D01*
X21899619Y-9453714D01*
X21852000Y-9501333D01*
X21804380Y-9596571D01*
X21804380Y-9787047D01*
X21852000Y-9882285D01*
X21899619Y-9929904D01*
X21994857Y-9977523D01*
X22232952Y-9977523D01*
X22328190Y-9929904D01*
X22375809Y-9882285D01*
X22423428Y-9787047D01*
X22423428Y-9596571D01*
X22375809Y-9501333D01*
X22328190Y-9453714D01*
X22232952Y-9406095D01*
D11*
X25720523Y-29306761D02*
X24450523Y-29306761D01*
X25599571Y-27976285D02*
X25660047Y-28036761D01*
X25720523Y-28218190D01*
X25720523Y-28339142D01*
X25660047Y-28520571D01*
X25539095Y-28641523D01*
X25418142Y-28702000D01*
X25176238Y-28762476D01*
X24994809Y-28762476D01*
X24752904Y-28702000D01*
X24631952Y-28641523D01*
X24511000Y-28520571D01*
X24450523Y-28339142D01*
X24450523Y-28218190D01*
X24511000Y-28036761D01*
X24571476Y-27976285D01*
X24571476Y-27492476D02*
X24511000Y-27432000D01*
X24450523Y-27311047D01*
X24450523Y-27008666D01*
X24511000Y-26887714D01*
X24571476Y-26827238D01*
X24692428Y-26766761D01*
X24813380Y-26766761D01*
X24994809Y-26827238D01*
X25720523Y-27552952D01*
X25720523Y-26766761D01*
D10*
X6961142Y-38774666D02*
X7008761Y-38822285D01*
X7056380Y-38965142D01*
X7056380Y-39060380D01*
X7008761Y-39203238D01*
X6913523Y-39298476D01*
X6818285Y-39346095D01*
X6627809Y-39393714D01*
X6484952Y-39393714D01*
X6294476Y-39346095D01*
X6199238Y-39298476D01*
X6104000Y-39203238D01*
X6056380Y-39060380D01*
X6056380Y-38965142D01*
X6104000Y-38822285D01*
X6151619Y-38774666D01*
X6056380Y-38441333D02*
X6056380Y-37774666D01*
X7056380Y-38203238D01*
X35504380Y-17914857D02*
X35028190Y-18248190D01*
X35504380Y-18486285D02*
X34504380Y-18486285D01*
X34504380Y-18105333D01*
X34552000Y-18010095D01*
X34599619Y-17962476D01*
X34694857Y-17914857D01*
X34837714Y-17914857D01*
X34932952Y-17962476D01*
X34980571Y-18010095D01*
X35028190Y-18105333D01*
X35028190Y-18486285D01*
X35504380Y-16962476D02*
X35504380Y-17533904D01*
X35504380Y-17248190D02*
X34504380Y-17248190D01*
X34647238Y-17343428D01*
X34742476Y-17438666D01*
X34790095Y-17533904D01*
X35504380Y-16010095D02*
X35504380Y-16581523D01*
X35504380Y-16295809D02*
X34504380Y-16295809D01*
X34647238Y-16391047D01*
X34742476Y-16486285D01*
X34790095Y-16581523D01*
X27884380Y-22010666D02*
X27408190Y-22344000D01*
X27884380Y-22582095D02*
X26884380Y-22582095D01*
X26884380Y-22201142D01*
X26932000Y-22105904D01*
X26979619Y-22058285D01*
X27074857Y-22010666D01*
X27217714Y-22010666D01*
X27312952Y-22058285D01*
X27360571Y-22105904D01*
X27408190Y-22201142D01*
X27408190Y-22582095D01*
X27312952Y-21439238D02*
X27265333Y-21534476D01*
X27217714Y-21582095D01*
X27122476Y-21629714D01*
X27074857Y-21629714D01*
X26979619Y-21582095D01*
X26932000Y-21534476D01*
X26884380Y-21439238D01*
X26884380Y-21248761D01*
X26932000Y-21153523D01*
X26979619Y-21105904D01*
X27074857Y-21058285D01*
X27122476Y-21058285D01*
X27217714Y-21105904D01*
X27265333Y-21153523D01*
X27312952Y-21248761D01*
X27312952Y-21439238D01*
X27360571Y-21534476D01*
X27408190Y-21582095D01*
X27503428Y-21629714D01*
X27693904Y-21629714D01*
X27789142Y-21582095D01*
X27836761Y-21534476D01*
X27884380Y-21439238D01*
X27884380Y-21248761D01*
X27836761Y-21153523D01*
X27789142Y-21105904D01*
X27693904Y-21058285D01*
X27503428Y-21058285D01*
X27408190Y-21105904D01*
X27360571Y-21153523D01*
X27312952Y-21248761D01*
X31440380Y-49991095D02*
X30440380Y-49991095D01*
X30440380Y-49753000D01*
X30488000Y-49610142D01*
X30583238Y-49514904D01*
X30678476Y-49467285D01*
X30868952Y-49419666D01*
X31011809Y-49419666D01*
X31202285Y-49467285D01*
X31297523Y-49514904D01*
X31392761Y-49610142D01*
X31440380Y-49753000D01*
X31440380Y-49991095D01*
X30535619Y-49038714D02*
X30488000Y-48991095D01*
X30440380Y-48895857D01*
X30440380Y-48657761D01*
X30488000Y-48562523D01*
X30535619Y-48514904D01*
X30630857Y-48467285D01*
X30726095Y-48467285D01*
X30868952Y-48514904D01*
X31440380Y-49086333D01*
X31440380Y-48467285D01*
X11453904Y-47188380D02*
X11453904Y-46188380D01*
X11692000Y-46188380D01*
X11834857Y-46236000D01*
X11930095Y-46331238D01*
X11977714Y-46426476D01*
X12025333Y-46616952D01*
X12025333Y-46759809D01*
X11977714Y-46950285D01*
X11930095Y-47045523D01*
X11834857Y-47140761D01*
X11692000Y-47188380D01*
X11453904Y-47188380D01*
X12882476Y-46521714D02*
X12882476Y-47188380D01*
X12644380Y-46140761D02*
X12406285Y-46855047D01*
X13025333Y-46855047D01*
X28725904Y-52776380D02*
X28725904Y-51776380D01*
X28964000Y-51776380D01*
X29106857Y-51824000D01*
X29202095Y-51919238D01*
X29249714Y-52014476D01*
X29297333Y-52204952D01*
X29297333Y-52347809D01*
X29249714Y-52538285D01*
X29202095Y-52633523D01*
X29106857Y-52728761D01*
X28964000Y-52776380D01*
X28725904Y-52776380D01*
X30249714Y-52776380D02*
X29678285Y-52776380D01*
X29964000Y-52776380D02*
X29964000Y-51776380D01*
X29868761Y-51919238D01*
X29773523Y-52014476D01*
X29678285Y-52062095D01*
X33361333Y-53697142D02*
X33313714Y-53744761D01*
X33170857Y-53792380D01*
X33075619Y-53792380D01*
X32932761Y-53744761D01*
X32837523Y-53649523D01*
X32789904Y-53554285D01*
X32742285Y-53363809D01*
X32742285Y-53220952D01*
X32789904Y-53030476D01*
X32837523Y-52935238D01*
X32932761Y-52840000D01*
X33075619Y-52792380D01*
X33170857Y-52792380D01*
X33313714Y-52840000D01*
X33361333Y-52887619D01*
X34313714Y-53792380D02*
X33742285Y-53792380D01*
X34028000Y-53792380D02*
X34028000Y-52792380D01*
X33932761Y-52935238D01*
X33837523Y-53030476D01*
X33742285Y-53078095D01*
X29821142Y-22486857D02*
X29868761Y-22534476D01*
X29916380Y-22677333D01*
X29916380Y-22772571D01*
X29868761Y-22915428D01*
X29773523Y-23010666D01*
X29678285Y-23058285D01*
X29487809Y-23105904D01*
X29344952Y-23105904D01*
X29154476Y-23058285D01*
X29059238Y-23010666D01*
X28964000Y-22915428D01*
X28916380Y-22772571D01*
X28916380Y-22677333D01*
X28964000Y-22534476D01*
X29011619Y-22486857D01*
X29011619Y-22105904D02*
X28964000Y-22058285D01*
X28916380Y-21963047D01*
X28916380Y-21724952D01*
X28964000Y-21629714D01*
X29011619Y-21582095D01*
X29106857Y-21534476D01*
X29202095Y-21534476D01*
X29344952Y-21582095D01*
X29916380Y-22153523D01*
X29916380Y-21534476D01*
X28916380Y-20915428D02*
X28916380Y-20820190D01*
X28964000Y-20724952D01*
X29011619Y-20677333D01*
X29106857Y-20629714D01*
X29297333Y-20582095D01*
X29535428Y-20582095D01*
X29725904Y-20629714D01*
X29821142Y-20677333D01*
X29868761Y-20724952D01*
X29916380Y-20820190D01*
X29916380Y-20915428D01*
X29868761Y-21010666D01*
X29821142Y-21058285D01*
X29725904Y-21105904D01*
X29535428Y-21153523D01*
X29297333Y-21153523D01*
X29106857Y-21105904D01*
X29011619Y-21058285D01*
X28964000Y-21010666D01*
X28916380Y-20915428D01*
X19496833Y-47699142D02*
X19449214Y-47746761D01*
X19306357Y-47794380D01*
X19211119Y-47794380D01*
X19068261Y-47746761D01*
X18973023Y-47651523D01*
X18925404Y-47556285D01*
X18877785Y-47365809D01*
X18877785Y-47222952D01*
X18925404Y-47032476D01*
X18973023Y-46937238D01*
X19068261Y-46842000D01*
X19211119Y-46794380D01*
X19306357Y-46794380D01*
X19449214Y-46842000D01*
X19496833Y-46889619D01*
X19830166Y-46794380D02*
X20449214Y-46794380D01*
X20115880Y-47175333D01*
X20258738Y-47175333D01*
X20353976Y-47222952D01*
X20401595Y-47270571D01*
X20449214Y-47365809D01*
X20449214Y-47603904D01*
X20401595Y-47699142D01*
X20353976Y-47746761D01*
X20258738Y-47794380D01*
X19973023Y-47794380D01*
X19877785Y-47746761D01*
X19830166Y-47699142D01*
X23201333Y-40076380D02*
X22868000Y-39600190D01*
X22629904Y-40076380D02*
X22629904Y-39076380D01*
X23010857Y-39076380D01*
X23106095Y-39124000D01*
X23153714Y-39171619D01*
X23201333Y-39266857D01*
X23201333Y-39409714D01*
X23153714Y-39504952D01*
X23106095Y-39552571D01*
X23010857Y-39600190D01*
X22629904Y-39600190D01*
X23582285Y-39171619D02*
X23629904Y-39124000D01*
X23725142Y-39076380D01*
X23963238Y-39076380D01*
X24058476Y-39124000D01*
X24106095Y-39171619D01*
X24153714Y-39266857D01*
X24153714Y-39362095D01*
X24106095Y-39504952D01*
X23534666Y-40076380D01*
X24153714Y-40076380D01*
X27884380Y-11406095D02*
X26884380Y-11406095D01*
X26884380Y-11168000D01*
X26932000Y-11025142D01*
X27027238Y-10929904D01*
X27122476Y-10882285D01*
X27312952Y-10834666D01*
X27455809Y-10834666D01*
X27646285Y-10882285D01*
X27741523Y-10929904D01*
X27836761Y-11025142D01*
X27884380Y-11168000D01*
X27884380Y-11406095D01*
X26884380Y-10501333D02*
X26884380Y-9834666D01*
X27884380Y-10263238D01*
X26360380Y-11406095D02*
X25360380Y-11406095D01*
X25360380Y-11168000D01*
X25408000Y-11025142D01*
X25503238Y-10929904D01*
X25598476Y-10882285D01*
X25788952Y-10834666D01*
X25931809Y-10834666D01*
X26122285Y-10882285D01*
X26217523Y-10929904D01*
X26312761Y-11025142D01*
X26360380Y-11168000D01*
X26360380Y-11406095D01*
X25788952Y-10263238D02*
X25741333Y-10358476D01*
X25693714Y-10406095D01*
X25598476Y-10453714D01*
X25550857Y-10453714D01*
X25455619Y-10406095D01*
X25408000Y-10358476D01*
X25360380Y-10263238D01*
X25360380Y-10072761D01*
X25408000Y-9977523D01*
X25455619Y-9929904D01*
X25550857Y-9882285D01*
X25598476Y-9882285D01*
X25693714Y-9929904D01*
X25741333Y-9977523D01*
X25788952Y-10072761D01*
X25788952Y-10263238D01*
X25836571Y-10358476D01*
X25884190Y-10406095D01*
X25979428Y-10453714D01*
X26169904Y-10453714D01*
X26265142Y-10406095D01*
X26312761Y-10358476D01*
X26360380Y-10263238D01*
X26360380Y-10072761D01*
X26312761Y-9977523D01*
X26265142Y-9929904D01*
X26169904Y-9882285D01*
X25979428Y-9882285D01*
X25884190Y-9929904D01*
X25836571Y-9977523D01*
X25788952Y-10072761D01*
D11*
X21402523Y-45943761D02*
X20132523Y-45943761D01*
X21281571Y-44613285D02*
X21342047Y-44673761D01*
X21402523Y-44855190D01*
X21402523Y-44976142D01*
X21342047Y-45157571D01*
X21221095Y-45278523D01*
X21100142Y-45339000D01*
X20858238Y-45399476D01*
X20676809Y-45399476D01*
X20434904Y-45339000D01*
X20313952Y-45278523D01*
X20193000Y-45157571D01*
X20132523Y-44976142D01*
X20132523Y-44855190D01*
X20193000Y-44673761D01*
X20253476Y-44613285D01*
X21402523Y-43403761D02*
X21402523Y-44129476D01*
X21402523Y-43766619D02*
X20132523Y-43766619D01*
X20313952Y-43887571D01*
X20434904Y-44008523D01*
X20495380Y-44129476D01*
D10*
X30654666Y-53300380D02*
X30654666Y-54014666D01*
X30607047Y-54157523D01*
X30511809Y-54252761D01*
X30368952Y-54300380D01*
X30273714Y-54300380D01*
X31654666Y-54300380D02*
X31083238Y-54300380D01*
X31368952Y-54300380D02*
X31368952Y-53300380D01*
X31273714Y-53443238D01*
X31178476Y-53538476D01*
X31083238Y-53586095D01*
X16200380Y-51538095D02*
X15200380Y-51538095D01*
X15200380Y-51300000D01*
X15248000Y-51157142D01*
X15343238Y-51061904D01*
X15438476Y-51014285D01*
X15628952Y-50966666D01*
X15771809Y-50966666D01*
X15962285Y-51014285D01*
X16057523Y-51061904D01*
X16152761Y-51157142D01*
X16200380Y-51300000D01*
X16200380Y-51538095D01*
X15200380Y-50061904D02*
X15200380Y-50538095D01*
X15676571Y-50585714D01*
X15628952Y-50538095D01*
X15581333Y-50442857D01*
X15581333Y-50204761D01*
X15628952Y-50109523D01*
X15676571Y-50061904D01*
X15771809Y-50014285D01*
X16009904Y-50014285D01*
X16105142Y-50061904D01*
X16152761Y-50109523D01*
X16200380Y-50204761D01*
X16200380Y-50442857D01*
X16152761Y-50538095D01*
X16105142Y-50585714D01*
X30837142Y-37356166D02*
X30884761Y-37403785D01*
X30932380Y-37546642D01*
X30932380Y-37641880D01*
X30884761Y-37784738D01*
X30789523Y-37879976D01*
X30694285Y-37927595D01*
X30503809Y-37975214D01*
X30360952Y-37975214D01*
X30170476Y-37927595D01*
X30075238Y-37879976D01*
X29980000Y-37784738D01*
X29932380Y-37641880D01*
X29932380Y-37546642D01*
X29980000Y-37403785D01*
X30027619Y-37356166D01*
X30360952Y-36784738D02*
X30313333Y-36879976D01*
X30265714Y-36927595D01*
X30170476Y-36975214D01*
X30122857Y-36975214D01*
X30027619Y-36927595D01*
X29980000Y-36879976D01*
X29932380Y-36784738D01*
X29932380Y-36594261D01*
X29980000Y-36499023D01*
X30027619Y-36451404D01*
X30122857Y-36403785D01*
X30170476Y-36403785D01*
X30265714Y-36451404D01*
X30313333Y-36499023D01*
X30360952Y-36594261D01*
X30360952Y-36784738D01*
X30408571Y-36879976D01*
X30456190Y-36927595D01*
X30551428Y-36975214D01*
X30741904Y-36975214D01*
X30837142Y-36927595D01*
X30884761Y-36879976D01*
X30932380Y-36784738D01*
X30932380Y-36594261D01*
X30884761Y-36499023D01*
X30837142Y-36451404D01*
X30741904Y-36403785D01*
X30551428Y-36403785D01*
X30456190Y-36451404D01*
X30408571Y-36499023D01*
X30360952Y-36594261D01*
X29534380Y-37012666D02*
X29058190Y-37346000D01*
X29534380Y-37584095D02*
X28534380Y-37584095D01*
X28534380Y-37203142D01*
X28582000Y-37107904D01*
X28629619Y-37060285D01*
X28724857Y-37012666D01*
X28867714Y-37012666D01*
X28962952Y-37060285D01*
X29010571Y-37107904D01*
X29058190Y-37203142D01*
X29058190Y-37584095D01*
X29534380Y-36060285D02*
X29534380Y-36631714D01*
X29534380Y-36346000D02*
X28534380Y-36346000D01*
X28677238Y-36441238D01*
X28772476Y-36536476D01*
X28820095Y-36631714D01*
X31345142Y-44214166D02*
X31392761Y-44261785D01*
X31440380Y-44404642D01*
X31440380Y-44499880D01*
X31392761Y-44642738D01*
X31297523Y-44737976D01*
X31202285Y-44785595D01*
X31011809Y-44833214D01*
X30868952Y-44833214D01*
X30678476Y-44785595D01*
X30583238Y-44737976D01*
X30488000Y-44642738D01*
X30440380Y-44499880D01*
X30440380Y-44404642D01*
X30488000Y-44261785D01*
X30535619Y-44214166D01*
X30440380Y-43309404D02*
X30440380Y-43785595D01*
X30916571Y-43833214D01*
X30868952Y-43785595D01*
X30821333Y-43690357D01*
X30821333Y-43452261D01*
X30868952Y-43357023D01*
X30916571Y-43309404D01*
X31011809Y-43261785D01*
X31249904Y-43261785D01*
X31345142Y-43309404D01*
X31392761Y-43357023D01*
X31440380Y-43452261D01*
X31440380Y-43690357D01*
X31392761Y-43785595D01*
X31345142Y-43833214D01*
X15708380Y-40668333D02*
X16422666Y-40668333D01*
X16565523Y-40715952D01*
X16660761Y-40811190D01*
X16708380Y-40954047D01*
X16708380Y-41049285D01*
X16041714Y-39763571D02*
X16708380Y-39763571D01*
X15660761Y-40001666D02*
X16375047Y-40239761D01*
X16375047Y-39620714D01*
X16708380Y-38266666D02*
X16232190Y-38600000D01*
X16708380Y-38838095D02*
X15708380Y-38838095D01*
X15708380Y-38457142D01*
X15756000Y-38361904D01*
X15803619Y-38314285D01*
X15898857Y-38266666D01*
X16041714Y-38266666D01*
X16136952Y-38314285D01*
X16184571Y-38361904D01*
X16232190Y-38457142D01*
X16232190Y-38838095D01*
X16041714Y-37409523D02*
X16708380Y-37409523D01*
X15660761Y-37647619D02*
X16375047Y-37885714D01*
X16375047Y-37266666D01*
X3501380Y-55535333D02*
X4215666Y-55535333D01*
X4358523Y-55582952D01*
X4453761Y-55678190D01*
X4501380Y-55821047D01*
X4501380Y-55916285D01*
X3501380Y-55154380D02*
X3501380Y-54535333D01*
X3882333Y-54868666D01*
X3882333Y-54725809D01*
X3929952Y-54630571D01*
X3977571Y-54582952D01*
X4072809Y-54535333D01*
X4310904Y-54535333D01*
X4406142Y-54582952D01*
X4453761Y-54630571D01*
X4501380Y-54725809D01*
X4501380Y-55011523D01*
X4453761Y-55106761D01*
X4406142Y-55154380D01*
X44600761Y-60261333D02*
X44648380Y-60118476D01*
X44648380Y-59880380D01*
X44600761Y-59785142D01*
X44553142Y-59737523D01*
X44457904Y-59689904D01*
X44362666Y-59689904D01*
X44267428Y-59737523D01*
X44219809Y-59785142D01*
X44172190Y-59880380D01*
X44124571Y-60070857D01*
X44076952Y-60166095D01*
X44029333Y-60213714D01*
X43934095Y-60261333D01*
X43838857Y-60261333D01*
X43743619Y-60213714D01*
X43696000Y-60166095D01*
X43648380Y-60070857D01*
X43648380Y-59832761D01*
X43696000Y-59689904D01*
X43648380Y-59356571D02*
X44648380Y-59118476D01*
X43934095Y-58928000D01*
X44648380Y-58737523D01*
X43648380Y-58499428D01*
X44648380Y-57594666D02*
X44648380Y-58166095D01*
X44648380Y-57880380D02*
X43648380Y-57880380D01*
X43791238Y-57975619D01*
X43886476Y-58070857D01*
X43934095Y-58166095D01*
X31440380Y-47531095D02*
X30440380Y-47531095D01*
X30440380Y-47293000D01*
X30488000Y-47150142D01*
X30583238Y-47054904D01*
X30678476Y-47007285D01*
X30868952Y-46959666D01*
X31011809Y-46959666D01*
X31202285Y-47007285D01*
X31297523Y-47054904D01*
X31392761Y-47150142D01*
X31440380Y-47293000D01*
X31440380Y-47531095D01*
X30440380Y-46102523D02*
X30440380Y-46293000D01*
X30488000Y-46388238D01*
X30535619Y-46435857D01*
X30678476Y-46531095D01*
X30868952Y-46578714D01*
X31249904Y-46578714D01*
X31345142Y-46531095D01*
X31392761Y-46483476D01*
X31440380Y-46388238D01*
X31440380Y-46197761D01*
X31392761Y-46102523D01*
X31345142Y-46054904D01*
X31249904Y-46007285D01*
X31011809Y-46007285D01*
X30916571Y-46054904D01*
X30868952Y-46102523D01*
X30821333Y-46197761D01*
X30821333Y-46388238D01*
X30868952Y-46483476D01*
X30916571Y-46531095D01*
X31011809Y-46578714D01*
X29837142Y-27281142D02*
X29789523Y-27328761D01*
X29646666Y-27376380D01*
X29551428Y-27376380D01*
X29408571Y-27328761D01*
X29313333Y-27233523D01*
X29265714Y-27138285D01*
X29218095Y-26947809D01*
X29218095Y-26804952D01*
X29265714Y-26614476D01*
X29313333Y-26519238D01*
X29408571Y-26424000D01*
X29551428Y-26376380D01*
X29646666Y-26376380D01*
X29789523Y-26424000D01*
X29837142Y-26471619D01*
X30789523Y-27376380D02*
X30218095Y-27376380D01*
X30503809Y-27376380D02*
X30503809Y-26376380D01*
X30408571Y-26519238D01*
X30313333Y-26614476D01*
X30218095Y-26662095D01*
X31170476Y-26471619D02*
X31218095Y-26424000D01*
X31313333Y-26376380D01*
X31551428Y-26376380D01*
X31646666Y-26424000D01*
X31694285Y-26471619D01*
X31741904Y-26566857D01*
X31741904Y-26662095D01*
X31694285Y-26804952D01*
X31122857Y-27376380D01*
X31741904Y-27376380D01*
X43288833Y-38359142D02*
X43241214Y-38406761D01*
X43098357Y-38454380D01*
X43003119Y-38454380D01*
X42860261Y-38406761D01*
X42765023Y-38311523D01*
X42717404Y-38216285D01*
X42669785Y-38025809D01*
X42669785Y-37882952D01*
X42717404Y-37692476D01*
X42765023Y-37597238D01*
X42860261Y-37502000D01*
X43003119Y-37454380D01*
X43098357Y-37454380D01*
X43241214Y-37502000D01*
X43288833Y-37549619D01*
X43765023Y-38454380D02*
X43955500Y-38454380D01*
X44050738Y-38406761D01*
X44098357Y-38359142D01*
X44193595Y-38216285D01*
X44241214Y-38025809D01*
X44241214Y-37644857D01*
X44193595Y-37549619D01*
X44145976Y-37502000D01*
X44050738Y-37454380D01*
X43860261Y-37454380D01*
X43765023Y-37502000D01*
X43717404Y-37549619D01*
X43669785Y-37644857D01*
X43669785Y-37882952D01*
X43717404Y-37978190D01*
X43765023Y-38025809D01*
X43860261Y-38073428D01*
X44050738Y-38073428D01*
X44145976Y-38025809D01*
X44193595Y-37978190D01*
X44241214Y-37882952D01*
D12*
X16177752Y-18045000D02*
X15655248Y-18045000D01*
X16177752Y-16575000D02*
X15655248Y-16575000D01*
X16200752Y-23433000D02*
X15678248Y-23433000D01*
X16200752Y-24903000D02*
X15678248Y-24903000D01*
X11472000Y-27666000D02*
X8722000Y-27666000D01*
X14222000Y-27666000D02*
X14222000Y-27926000D01*
X8722000Y-33116000D02*
X8722000Y-32856000D01*
X14222000Y-32856000D02*
X15872000Y-32856000D01*
X11472000Y-27666000D02*
X14222000Y-27666000D01*
X11472000Y-33116000D02*
X14222000Y-33116000D01*
X14222000Y-33116000D02*
X14222000Y-32856000D01*
X8722000Y-27666000D02*
X8722000Y-27926000D01*
X11472000Y-33116000D02*
X8722000Y-33116000D01*
X14229000Y-54633000D02*
X16689000Y-54633000D01*
X16689000Y-53163000D02*
X14229000Y-53163000D01*
X16689000Y-54633000D02*
X16689000Y-53163000D01*
X31976000Y-35062000D02*
X44576000Y-35062000D01*
X31976000Y-29962000D02*
X31976000Y-35062000D01*
X44576000Y-29962000D02*
X31976000Y-29962000D01*
X11588064Y-33466000D02*
X11133936Y-33466000D01*
X11588064Y-34936000D02*
X11133936Y-34936000D01*
X33585248Y-28005000D02*
X34107752Y-28005000D01*
X33585248Y-29475000D02*
X34107752Y-29475000D01*
X43349936Y-28094000D02*
X43804064Y-28094000D01*
X43349936Y-29564000D02*
X43804064Y-29564000D01*
X42776000Y-53849000D02*
X42776000Y-46029000D01*
X35656000Y-53849000D02*
X42776000Y-53849000D01*
X35656000Y-46029000D02*
X42776000Y-46029000D01*
X41276000Y-54089000D02*
X43016000Y-54089000D01*
X35656000Y-53849000D02*
X35656000Y-46029000D01*
X43016000Y-54089000D02*
X43016000Y-52589000D01*
X41216000Y-53849000D02*
X41216000Y-46029000D01*
X40671000Y-51689000D02*
G75*
G03*
X40547385Y-51081413I-1555000J0D01*
G01*
X40548000Y-52297000D02*
G75*
G03*
X40671493Y-51661989I-1431988J607998D01*
G01*
X39724000Y-50257000D02*
G75*
G03*
X38508258Y-50256891I-607999J-1432003D01*
G01*
X37684000Y-51081000D02*
G75*
G03*
X37683891Y-52296742I1432000J-608000D01*
G01*
X38508000Y-53121000D02*
G75*
G03*
X39723742Y-53121109I608000J1432000D01*
G01*
X40671000Y-48189000D02*
G75*
G03*
X40671000Y-48189000I-1555000J0D01*
G01*
X13462000Y-54991000D02*
X13462000Y-62611000D01*
X23622000Y-61341000D02*
X13462000Y-61341000D01*
X13462000Y-62611000D02*
X23622000Y-62611000D01*
X23622000Y-62611000D02*
X23622000Y-54991000D01*
X23622000Y-54991000D02*
X13462000Y-54991000D01*
X40443000Y-37147000D02*
X40443000Y-43447000D01*
X40193000Y-37147000D02*
X40443000Y-37147000D01*
X33543000Y-37147000D02*
X33793000Y-37147000D01*
X35693000Y-37147000D02*
X38293000Y-37147000D01*
X33793000Y-43447000D02*
X33543000Y-43447000D01*
X40443000Y-43447000D02*
X40193000Y-43447000D01*
X33543000Y-43447000D02*
X33543000Y-37147000D01*
X38293000Y-43447000D02*
X35693000Y-43447000D01*
X42772000Y-41387752D02*
X42772000Y-40865248D01*
X41302000Y-41387752D02*
X41302000Y-40865248D01*
X11727064Y-22871000D02*
X11272936Y-22871000D01*
X11727064Y-21401000D02*
X11272936Y-21401000D01*
X32428064Y-22363000D02*
X31973936Y-22363000D01*
X32428064Y-20893000D02*
X31973936Y-20893000D01*
X16243752Y-25465000D02*
X15721248Y-25465000D01*
X16243752Y-26935000D02*
X15721248Y-26935000D01*
X11272936Y-20839000D02*
X11727064Y-20839000D01*
X11272936Y-19369000D02*
X11727064Y-19369000D01*
X21014000Y-14396252D02*
X21014000Y-13873748D01*
X19544000Y-14396252D02*
X19544000Y-13873748D01*
X17442742Y-13987000D02*
X15772258Y-13987000D01*
X17442742Y-15807000D02*
X15772258Y-15807000D01*
X30593000Y-18950064D02*
X30593000Y-18495936D01*
X32063000Y-18950064D02*
X32063000Y-18495936D01*
X24316000Y-19045064D02*
X24316000Y-18590936D01*
X22846000Y-19045064D02*
X22846000Y-18590936D01*
X19332752Y-35152000D02*
X18810248Y-35152000D01*
X19332752Y-33682000D02*
X18810248Y-33682000D01*
X30285000Y-12362000D02*
X28815000Y-12362000D01*
X30285000Y-14822000D02*
X30285000Y-12362000D01*
X28815000Y-12362000D02*
X28815000Y-14822000D01*
X40192000Y-18288000D02*
X40192000Y-25968000D01*
X40192000Y-15688000D02*
X40192000Y-17018000D01*
X37532000Y-18288000D02*
X40192000Y-18288000D01*
X37532000Y-25968000D02*
X40192000Y-25968000D01*
X37532000Y-18288000D02*
X37532000Y-25968000D01*
X38862000Y-15688000D02*
X40192000Y-15688000D01*
X24751000Y-19045064D02*
X24751000Y-18590936D01*
X26221000Y-19045064D02*
X26221000Y-18590936D01*
X24665000Y-36547248D02*
X24665000Y-37069752D01*
X26135000Y-36547248D02*
X26135000Y-37069752D01*
X6122000Y-26016000D02*
X8782000Y-26016000D01*
X6122000Y-18336000D02*
X6122000Y-26016000D01*
X6122000Y-17066000D02*
X6122000Y-15736000D01*
X6122000Y-18336000D02*
X8782000Y-18336000D01*
X8782000Y-18336000D02*
X8782000Y-26016000D01*
X6122000Y-15736000D02*
X7452000Y-15736000D01*
X16200752Y-21401000D02*
X15678248Y-21401000D01*
X16200752Y-22871000D02*
X15678248Y-22871000D01*
X16200752Y-18607000D02*
X15678248Y-18607000D01*
X16200752Y-20077000D02*
X15678248Y-20077000D01*
X24824000Y-14794000D02*
X24824000Y-12334000D01*
X24824000Y-12334000D02*
X23354000Y-12334000D01*
X23354000Y-12334000D02*
X23354000Y-14794000D01*
X16737000Y-47759252D02*
X16737000Y-47236748D01*
X15267000Y-47759252D02*
X15267000Y-47236748D01*
X23046000Y-14417752D02*
X23046000Y-13895248D01*
X21576000Y-14417752D02*
X21576000Y-13895248D01*
D11*
X22046000Y-31942000D02*
G75*
G03*
X22046000Y-31942000I-100000J0D01*
G01*
D12*
X5911000Y-35104248D02*
X5911000Y-35626752D01*
X7381000Y-35104248D02*
X7381000Y-35626752D01*
X34530000Y-20384936D02*
X34530000Y-20839064D01*
X36000000Y-20384936D02*
X36000000Y-20839064D01*
X28126000Y-19045064D02*
X28126000Y-18590936D01*
X26656000Y-19045064D02*
X26656000Y-18590936D01*
X33374000Y-46793000D02*
X31904000Y-46793000D01*
X31904000Y-46793000D02*
X31904000Y-49253000D01*
X33374000Y-49253000D02*
X33374000Y-46793000D01*
X13362000Y-46825000D02*
X13362000Y-49285000D01*
X13362000Y-49285000D02*
X14832000Y-49285000D01*
X14832000Y-49285000D02*
X14832000Y-46825000D01*
X19116000Y-50301000D02*
X26416000Y-50301000D01*
X19116000Y-54601000D02*
X26416000Y-54601000D01*
X19116000Y-50301000D02*
X19116000Y-54601000D01*
X33490248Y-52170000D02*
X34012752Y-52170000D01*
X33490248Y-50700000D02*
X34012752Y-50700000D01*
X28561000Y-18989752D02*
X28561000Y-18467248D01*
X30031000Y-18989752D02*
X30031000Y-18467248D01*
X19402248Y-49757000D02*
X19924752Y-49757000D01*
X19402248Y-48287000D02*
X19924752Y-48287000D01*
X26659064Y-40486000D02*
X26204936Y-40486000D01*
X26659064Y-39016000D02*
X26204936Y-39016000D01*
X26910000Y-12334000D02*
X26910000Y-14794000D01*
X28380000Y-12334000D02*
X26910000Y-12334000D01*
X28380000Y-14794000D02*
X28380000Y-12334000D01*
X25132000Y-12362000D02*
X25132000Y-14822000D01*
X26602000Y-14822000D02*
X26602000Y-12362000D01*
X26602000Y-12362000D02*
X25132000Y-12362000D01*
D13*
X23166000Y-47187000D02*
X23166000Y-43687000D01*
X29666000Y-47187000D02*
X23166000Y-47187000D01*
X29666000Y-43687000D02*
X29666000Y-47187000D01*
X29541000Y-41412000D02*
X29541000Y-42662000D01*
X23166000Y-43687000D02*
X29666000Y-43687000D01*
D12*
X24130000Y-56261000D02*
X34290000Y-56261000D01*
X34290000Y-62611000D02*
X34290000Y-54991000D01*
X34290000Y-54991000D02*
X24130000Y-54991000D01*
X24130000Y-54991000D02*
X24130000Y-62611000D01*
X24130000Y-62611000D02*
X34290000Y-62611000D01*
X14832000Y-49648000D02*
X13362000Y-49648000D01*
X14832000Y-52108000D02*
X14832000Y-49648000D01*
X13362000Y-49648000D02*
X13362000Y-52108000D01*
X32993000Y-36928248D02*
X32993000Y-37450752D01*
X31523000Y-36928248D02*
X31523000Y-37450752D01*
X28167000Y-36618936D02*
X28167000Y-37073064D01*
X26697000Y-36618936D02*
X26697000Y-37073064D01*
X33120000Y-43786248D02*
X33120000Y-44308752D01*
X31650000Y-43786248D02*
X31650000Y-44308752D01*
X14831000Y-37185000D02*
X14831000Y-43485000D01*
X7931000Y-37185000D02*
X8181000Y-37185000D01*
X8181000Y-43485000D02*
X7931000Y-43485000D01*
X10081000Y-37185000D02*
X12681000Y-37185000D01*
X12681000Y-43485000D02*
X10081000Y-43485000D01*
X14831000Y-43485000D02*
X14581000Y-43485000D01*
X14581000Y-37185000D02*
X14831000Y-37185000D01*
X7931000Y-43485000D02*
X7931000Y-37185000D01*
X15309000Y-35555064D02*
X15309000Y-35100936D01*
X16779000Y-35555064D02*
X16779000Y-35100936D01*
X12409000Y-62852000D02*
X12409000Y-61352000D01*
X12169000Y-62612000D02*
X12169000Y-47792000D01*
X5049000Y-62612000D02*
X5049000Y-47792000D01*
X5049000Y-62612000D02*
X12169000Y-62612000D01*
X5049000Y-47792000D02*
X12169000Y-47792000D01*
X10609000Y-62612000D02*
X10609000Y-47792000D01*
X10669000Y-62852000D02*
X12409000Y-62852000D01*
X10064000Y-60452000D02*
G75*
G03*
X9940385Y-59844413I-1555000J0D01*
G01*
X9941000Y-61060000D02*
G75*
G03*
X10064493Y-60424989I-1431988J607998D01*
G01*
X7901000Y-61884000D02*
G75*
G03*
X9116742Y-61884109I608000J1432000D01*
G01*
X9117000Y-59020000D02*
G75*
G03*
X7901258Y-59019891I-607999J-1432003D01*
G01*
X7077000Y-59844000D02*
G75*
G03*
X7076891Y-61059742I1432000J-608000D01*
G01*
X10064000Y-53452000D02*
G75*
G03*
X10064000Y-53452000I-1555000J0D01*
G01*
X10064000Y-49952000D02*
G75*
G03*
X10064000Y-49952000I-1555000J0D01*
G01*
X10064000Y-56952000D02*
G75*
G03*
X10064000Y-56952000I-1555000J0D01*
G01*
X43040000Y-54901000D02*
X41540000Y-54901000D01*
X43040000Y-56641000D02*
X43040000Y-54901000D01*
X42800000Y-62261000D02*
X42800000Y-55141000D01*
X42800000Y-55141000D02*
X34980000Y-55141000D01*
X34980000Y-62261000D02*
X34980000Y-55141000D01*
X42800000Y-56701000D02*
X34980000Y-56701000D01*
X42800000Y-62261000D02*
X34980000Y-62261000D01*
X40640000Y-57246000D02*
G75*
G03*
X40032413Y-57369615I0J-1555000D01*
G01*
X41248000Y-57369000D02*
G75*
G03*
X40612989Y-57245507I-607998J-1431988D01*
G01*
X39208000Y-58193000D02*
G75*
G03*
X39207891Y-59408742I1432003J-607999D01*
G01*
X42072000Y-59409000D02*
G75*
G03*
X42072109Y-58193258I-1432000J608000D01*
G01*
X40032000Y-60233000D02*
G75*
G03*
X41247742Y-60233109I608000J1432000D01*
G01*
X38695000Y-58801000D02*
G75*
G03*
X38695000Y-58801000I-1555000J0D01*
G01*
X35152000Y-48058000D02*
X35152000Y-45598000D01*
X33682000Y-45598000D02*
X33682000Y-48058000D01*
X35152000Y-45598000D02*
X33682000Y-45598000D01*
X33585248Y-25973000D02*
X34107752Y-25973000D01*
X33585248Y-27443000D02*
X34107752Y-27443000D01*
X43716752Y-35587000D02*
X43194248Y-35587000D01*
X43716752Y-37057000D02*
X43194248Y-37057000D01*
%LPC*%
D14*
X16954000Y-17310000D03*
X14879000Y-17310000D03*
X16977000Y-24168000D03*
X14902000Y-24168000D03*
D15*
X15072000Y-32296000D03*
X15072000Y-31026000D03*
X15072000Y-29756000D03*
X15072000Y-28486000D03*
X7872000Y-28486000D03*
X7872000Y-29756000D03*
X7872000Y-31026000D03*
X7872000Y-32296000D03*
D16*
X15904000Y-53898000D03*
X14154000Y-53898000D03*
D17*
X34426000Y-32512000D03*
X42926000Y-32512000D03*
D18*
X12361000Y-34201000D03*
X10361000Y-34201000D03*
D19*
X32809000Y-28740000D03*
X34884000Y-28740000D03*
D20*
X42577000Y-28829000D03*
X44577000Y-28829000D03*
D21*
X39116000Y-51689000D03*
D22*
X39116000Y-48189000D03*
D23*
X16002000Y-58801000D03*
D24*
X21082000Y-58801000D03*
D25*
X34743000Y-44272000D03*
X34743000Y-36322000D03*
X39243000Y-36322000D03*
X39243000Y-44272000D03*
D26*
X42037000Y-42164000D03*
X42037000Y-40089000D03*
D18*
X12500000Y-22136000D03*
X10500000Y-22136000D03*
X33201000Y-21628000D03*
X31201000Y-21628000D03*
D14*
X17020000Y-26200000D03*
X14945000Y-26200000D03*
D20*
X10500000Y-20104000D03*
X12500000Y-20104000D03*
D26*
X20279000Y-15172500D03*
X20279000Y-13097500D03*
D27*
X18270000Y-14897000D03*
X14945000Y-14897000D03*
D28*
X31328000Y-19723000D03*
X31328000Y-17723000D03*
X23581000Y-19818000D03*
X23581000Y-17818000D03*
D14*
X20109000Y-34417000D03*
X18034000Y-34417000D03*
D29*
X29550000Y-13147000D03*
X29550000Y-14897000D03*
D30*
X38862000Y-17018000D03*
D31*
X38862000Y-19558000D03*
X38862000Y-22098000D03*
X38862000Y-24638000D03*
D28*
X25486000Y-19818000D03*
X25486000Y-17818000D03*
D32*
X25400000Y-35771000D03*
X25400000Y-37846000D03*
D30*
X7452000Y-17066000D03*
D31*
X7452000Y-19606000D03*
X7452000Y-22146000D03*
X7452000Y-24686000D03*
D14*
X16977000Y-22136000D03*
X14902000Y-22136000D03*
X16977000Y-19342000D03*
X14902000Y-19342000D03*
D29*
X24089000Y-13119000D03*
X24089000Y-14869000D03*
D26*
X16002000Y-48535500D03*
X16002000Y-46460500D03*
X22311000Y-15194000D03*
X22311000Y-13119000D03*
D33*
X22546000Y-31517000D03*
X22946000Y-31517000D03*
X23346000Y-31517000D03*
X23746000Y-31517000D03*
X24146000Y-31517000D03*
X24546000Y-31517000D03*
X24946000Y-31517000D03*
X25346000Y-31517000D03*
X25746000Y-31517000D03*
X26146000Y-31517000D03*
X26546000Y-31517000D03*
X26946000Y-31517000D03*
X27346000Y-31517000D03*
X27746000Y-31517000D03*
D34*
X28596000Y-30667000D03*
X28596000Y-30267000D03*
X28596000Y-29867000D03*
X28596000Y-29467000D03*
X28596000Y-29067000D03*
X28596000Y-28667000D03*
X28596000Y-28267000D03*
X28596000Y-27867000D03*
X28596000Y-27467000D03*
X28596000Y-27067000D03*
X28596000Y-26667000D03*
X28596000Y-26267000D03*
X28596000Y-25867000D03*
X28596000Y-25467000D03*
D33*
X27746000Y-24617000D03*
X27346000Y-24617000D03*
X26946000Y-24617000D03*
X26546000Y-24617000D03*
X26146000Y-24617000D03*
X25746000Y-24617000D03*
X25346000Y-24617000D03*
X24946000Y-24617000D03*
X24546000Y-24617000D03*
X24146000Y-24617000D03*
X23746000Y-24617000D03*
X23346000Y-24617000D03*
X22946000Y-24617000D03*
X22546000Y-24617000D03*
D34*
X21696000Y-25467000D03*
X21696000Y-25867000D03*
X21696000Y-26267000D03*
X21696000Y-26667000D03*
X21696000Y-27067000D03*
X21696000Y-27467000D03*
X21696000Y-27867000D03*
X21696000Y-28267000D03*
X21696000Y-28667000D03*
X21696000Y-29067000D03*
X21696000Y-29467000D03*
X21696000Y-29867000D03*
X21696000Y-30267000D03*
X21696000Y-30667000D03*
D35*
X25146000Y-28067000D03*
D32*
X6646000Y-34328000D03*
X6646000Y-36403000D03*
D36*
X35265000Y-19612000D03*
X35265000Y-21612000D03*
D28*
X27391000Y-19818000D03*
X27391000Y-17818000D03*
D29*
X32639000Y-47578000D03*
X32639000Y-49328000D03*
D37*
X14097000Y-48500000D03*
X14097000Y-46750000D03*
D38*
X21016000Y-52451000D03*
X26416000Y-52451000D03*
D19*
X32714000Y-51435000D03*
X34789000Y-51435000D03*
D26*
X29296000Y-19766000D03*
X29296000Y-17691000D03*
D19*
X18626000Y-49022000D03*
X20701000Y-49022000D03*
D18*
X27432000Y-39751000D03*
X25432000Y-39751000D03*
D29*
X27645000Y-13119000D03*
X27645000Y-14869000D03*
X25867000Y-13147000D03*
X25867000Y-14897000D03*
D39*
X28716000Y-42037000D03*
X26416000Y-42037000D03*
X24116000Y-42037000D03*
D40*
X26416000Y-48837000D03*
D23*
X31750000Y-58801000D03*
D24*
X26670000Y-58801000D03*
D29*
X14097000Y-50433000D03*
X14097000Y-52183000D03*
D32*
X32258000Y-36152000D03*
X32258000Y-38227000D03*
D36*
X27432000Y-35846000D03*
X27432000Y-37846000D03*
D32*
X32385000Y-43010000D03*
X32385000Y-45085000D03*
D25*
X13631000Y-36360000D03*
X13631000Y-44310000D03*
X9131000Y-44310000D03*
X9131000Y-36360000D03*
D28*
X16044000Y-36328000D03*
X16044000Y-34328000D03*
D21*
X8509000Y-60452000D03*
D22*
X8509000Y-56952000D03*
X8509000Y-53452000D03*
X8509000Y-49952000D03*
D21*
X40640000Y-58801000D03*
D22*
X37140000Y-58801000D03*
D29*
X34417000Y-46383000D03*
X34417000Y-48133000D03*
D19*
X32809000Y-26708000D03*
X34884000Y-26708000D03*
D14*
X44493000Y-36322000D03*
X42418000Y-36322000D03*
D41*
X28956000Y-4064000D03*
X26416000Y-4064000D03*
X23876000Y-4064000D03*
X21336000Y-4064000D03*
M02*
