G04 #@! TF.GenerationSoftware,KiCad,Pcbnew,6.0.10*
G04 #@! TF.CreationDate,2023-07-05T17:30:50-05:00*
G04 #@! TF.ProjectId,gas_control_board,6761735f-636f-46e7-9472-6f6c5f626f61,rev?*
G04 #@! TF.SameCoordinates,Original*
G04 #@! TF.FileFunction,Paste,Top*
G04 #@! TF.FilePolarity,Positive*
%FSLAX46Y46*%
G04 Gerber Fmt 4.6, Leading zero omitted, Abs format (unit mm)*
G04 Created by KiCad (PCBNEW 6.0.10) date 2023-07-05 17:30:50*
%MOMM*%
%LPD*%
G01*
G04 APERTURE LIST*
G04 Aperture macros list*
%AMRoundRect*
0 Rectangle with rounded corners*
0 $1 Rounding radius*
0 $2 $3 $4 $5 $6 $7 $8 $9 X,Y pos of 4 corners*
0 Add a 4 corners polygon primitive as box body*
4,1,4,$2,$3,$4,$5,$6,$7,$8,$9,$2,$3,0*
0 Add four circle primitives for the rounded corners*
1,1,$1+$1,$2,$3*
1,1,$1+$1,$4,$5*
1,1,$1+$1,$6,$7*
1,1,$1+$1,$8,$9*
0 Add four rect primitives between the rounded corners*
20,1,$1+$1,$2,$3,$4,$5,0*
20,1,$1+$1,$4,$5,$6,$7,0*
20,1,$1+$1,$6,$7,$8,$9,0*
20,1,$1+$1,$8,$9,$2,$3,0*%
G04 Aperture macros list end*
%ADD10RoundRect,0.250000X0.337500X0.475000X-0.337500X0.475000X-0.337500X-0.475000X0.337500X-0.475000X0*%
%ADD11RoundRect,0.150000X0.650000X0.150000X-0.650000X0.150000X-0.650000X-0.150000X0.650000X-0.150000X0*%
%ADD12RoundRect,0.237500X0.287500X0.237500X-0.287500X0.237500X-0.287500X-0.237500X0.287500X-0.237500X0*%
%ADD13R,4.500000X2.000000*%
%ADD14RoundRect,0.250000X0.350000X0.450000X-0.350000X0.450000X-0.350000X-0.450000X0.350000X-0.450000X0*%
%ADD15RoundRect,0.250000X-0.337500X-0.475000X0.337500X-0.475000X0.337500X0.475000X-0.337500X0.475000X0*%
%ADD16RoundRect,0.250000X-0.350000X-0.450000X0.350000X-0.450000X0.350000X0.450000X-0.350000X0.450000X0*%
%ADD17R,1.300000X1.550000*%
%ADD18RoundRect,0.250000X0.475000X-0.337500X0.475000X0.337500X-0.475000X0.337500X-0.475000X-0.337500X0*%
%ADD19RoundRect,0.250000X0.362500X0.700000X-0.362500X0.700000X-0.362500X-0.700000X0.362500X-0.700000X0*%
%ADD20RoundRect,0.250000X0.450000X-0.350000X0.450000X0.350000X-0.450000X0.350000X-0.450000X-0.350000X0*%
%ADD21RoundRect,0.237500X-0.237500X0.287500X-0.237500X-0.287500X0.237500X-0.287500X0.237500X0.287500X0*%
%ADD22RoundRect,0.250000X-0.475000X0.337500X-0.475000X-0.337500X0.475000X-0.337500X0.475000X0.337500X0*%
%ADD23R,0.200000X0.850000*%
%ADD24R,0.850000X0.200000*%
%ADD25R,3.200000X3.200000*%
%ADD26RoundRect,0.250000X-0.450000X0.350000X-0.450000X-0.350000X0.450000X-0.350000X0.450000X0.350000X0*%
%ADD27RoundRect,0.237500X0.237500X-0.287500X0.237500X0.287500X-0.237500X0.287500X-0.237500X-0.287500X0*%
%ADD28R,3.500000X2.300000*%
%ADD29R,0.950000X1.250000*%
%ADD30R,3.200000X1.250000*%
%ADD31R,1.600000X8.000000*%
G04 APERTURE END LIST*
D10*
X16954000Y-17310000D03*
X14879000Y-17310000D03*
X16977000Y-24168000D03*
X14902000Y-24168000D03*
D11*
X15072000Y-32296000D03*
X15072000Y-31026000D03*
X15072000Y-29756000D03*
X15072000Y-28486000D03*
X7872000Y-28486000D03*
X7872000Y-29756000D03*
X7872000Y-31026000D03*
X7872000Y-32296000D03*
D12*
X15904000Y-53898000D03*
X14154000Y-53898000D03*
D13*
X34426000Y-32512000D03*
X42926000Y-32512000D03*
D14*
X12361000Y-34201000D03*
X10361000Y-34201000D03*
D15*
X32809000Y-28740000D03*
X34884000Y-28740000D03*
D16*
X42577000Y-28829000D03*
X44577000Y-28829000D03*
D17*
X34743000Y-44272000D03*
X34743000Y-36322000D03*
X39243000Y-36322000D03*
X39243000Y-44272000D03*
D18*
X42037000Y-42164000D03*
X42037000Y-40089000D03*
D14*
X12500000Y-22136000D03*
X10500000Y-22136000D03*
X33201000Y-21628000D03*
X31201000Y-21628000D03*
D10*
X17020000Y-26200000D03*
X14945000Y-26200000D03*
D16*
X10500000Y-20104000D03*
X12500000Y-20104000D03*
D18*
X20279000Y-15172500D03*
X20279000Y-13097500D03*
D19*
X18270000Y-14897000D03*
X14945000Y-14897000D03*
D20*
X31328000Y-19723000D03*
X31328000Y-17723000D03*
X23581000Y-19818000D03*
X23581000Y-17818000D03*
D10*
X20109000Y-34417000D03*
X18034000Y-34417000D03*
D21*
X29550000Y-13147000D03*
X29550000Y-14897000D03*
D20*
X25486000Y-19818000D03*
X25486000Y-17818000D03*
D22*
X25400000Y-35771000D03*
X25400000Y-37846000D03*
D10*
X16977000Y-22136000D03*
X14902000Y-22136000D03*
X16977000Y-19342000D03*
X14902000Y-19342000D03*
D21*
X24089000Y-13119000D03*
X24089000Y-14869000D03*
D18*
X16002000Y-48535500D03*
X16002000Y-46460500D03*
X22311000Y-15194000D03*
X22311000Y-13119000D03*
D23*
X22546000Y-31517000D03*
X22946000Y-31517000D03*
X23346000Y-31517000D03*
X23746000Y-31517000D03*
X24146000Y-31517000D03*
X24546000Y-31517000D03*
X24946000Y-31517000D03*
X25346000Y-31517000D03*
X25746000Y-31517000D03*
X26146000Y-31517000D03*
X26546000Y-31517000D03*
X26946000Y-31517000D03*
X27346000Y-31517000D03*
X27746000Y-31517000D03*
D24*
X28596000Y-30667000D03*
X28596000Y-30267000D03*
X28596000Y-29867000D03*
X28596000Y-29467000D03*
X28596000Y-29067000D03*
X28596000Y-28667000D03*
X28596000Y-28267000D03*
X28596000Y-27867000D03*
X28596000Y-27467000D03*
X28596000Y-27067000D03*
X28596000Y-26667000D03*
X28596000Y-26267000D03*
X28596000Y-25867000D03*
X28596000Y-25467000D03*
D23*
X27746000Y-24617000D03*
X27346000Y-24617000D03*
X26946000Y-24617000D03*
X26546000Y-24617000D03*
X26146000Y-24617000D03*
X25746000Y-24617000D03*
X25346000Y-24617000D03*
X24946000Y-24617000D03*
X24546000Y-24617000D03*
X24146000Y-24617000D03*
X23746000Y-24617000D03*
X23346000Y-24617000D03*
X22946000Y-24617000D03*
X22546000Y-24617000D03*
D24*
X21696000Y-25467000D03*
X21696000Y-25867000D03*
X21696000Y-26267000D03*
X21696000Y-26667000D03*
X21696000Y-27067000D03*
X21696000Y-27467000D03*
X21696000Y-27867000D03*
X21696000Y-28267000D03*
X21696000Y-28667000D03*
X21696000Y-29067000D03*
X21696000Y-29467000D03*
X21696000Y-29867000D03*
X21696000Y-30267000D03*
X21696000Y-30667000D03*
D25*
X25146000Y-28067000D03*
D22*
X6646000Y-34328000D03*
X6646000Y-36403000D03*
D26*
X35265000Y-19612000D03*
X35265000Y-21612000D03*
D20*
X27391000Y-19818000D03*
X27391000Y-17818000D03*
D21*
X32639000Y-47578000D03*
X32639000Y-49328000D03*
D27*
X14097000Y-48500000D03*
X14097000Y-46750000D03*
D28*
X21016000Y-52451000D03*
X26416000Y-52451000D03*
D15*
X32714000Y-51435000D03*
X34789000Y-51435000D03*
D18*
X29296000Y-19766000D03*
X29296000Y-17691000D03*
D15*
X18626000Y-49022000D03*
X20701000Y-49022000D03*
D14*
X27432000Y-39751000D03*
X25432000Y-39751000D03*
D21*
X27645000Y-13119000D03*
X27645000Y-14869000D03*
X25867000Y-13147000D03*
X25867000Y-14897000D03*
D29*
X28716000Y-42037000D03*
X26416000Y-42037000D03*
X24116000Y-42037000D03*
D30*
X26416000Y-48837000D03*
D21*
X14097000Y-50433000D03*
X14097000Y-52183000D03*
D22*
X32258000Y-36152000D03*
X32258000Y-38227000D03*
D26*
X27432000Y-35846000D03*
X27432000Y-37846000D03*
D22*
X32385000Y-43010000D03*
X32385000Y-45085000D03*
D17*
X13631000Y-36360000D03*
X13631000Y-44310000D03*
X9131000Y-44310000D03*
X9131000Y-36360000D03*
D20*
X16044000Y-36328000D03*
X16044000Y-34328000D03*
D21*
X34417000Y-46383000D03*
X34417000Y-48133000D03*
D15*
X32809000Y-26708000D03*
X34884000Y-26708000D03*
D10*
X44493000Y-36322000D03*
X42418000Y-36322000D03*
D31*
X28956000Y-4064000D03*
X26416000Y-4064000D03*
X23876000Y-4064000D03*
X21336000Y-4064000D03*
M02*
