M48
; DRILL file {KiCad 6.0.10} date Wed 05 Jul 2023 05:30:26 PM CDT
; FORMAT={-:-/ absolute / metric / decimal}
; #@! TF.CreationDate,2023-07-05T17:30:26-05:00
; #@! TF.GenerationSoftware,Kicad,Pcbnew,6.0.10
; #@! TF.FileFunction,Plated,1,2,PTH
FMAT,2
METRIC
; #@! TA.AperFunction,Plated,PTH,ViaDrill
T1C0.300
; #@! TA.AperFunction,Plated,PTH,ViaDrill
T2C0.400
; #@! TA.AperFunction,Plated,PTH,ComponentDrill
T3C1.000
; #@! TA.AperFunction,Plated,PTH,ComponentDrill
T4C1.200
; #@! TA.AperFunction,Plated,PTH,ComponentDrill
T5C1.520
%
G90
G05
T1
X8.636Y-34.29
X9.779Y-31.026
X10.668Y-24.638
X13.462Y-26.416
X13.462Y-28.194
X13.97Y-57.15
X13.97Y-58.42
X13.97Y-59.69
X13.97Y-60.96
X14.986Y-12.954
X14.986Y-18.288
X14.986Y-25.146
X15.24Y-57.15
X15.24Y-60.96
X16.51Y-57.15
X16.51Y-60.96
X16.977Y-23.155
X17.526Y-32.766
X17.78Y-57.15
X17.78Y-58.42
X17.78Y-59.69
X17.78Y-60.96
X17.866Y-19.342
X17.874Y-28.478
X17.887Y-27.067
X19.05Y-32.766
X20.066Y-35.941
X20.32Y-46.99
X21.209Y-20.828
X21.59Y-45.72
X21.59Y-46.99
X22.568Y-20.866
X22.86Y-34.925
X22.86Y-38.1
X22.86Y-39.37
X22.86Y-40.64
X22.86Y-41.91
X22.86Y-43.18
X22.86Y-44.45
X22.86Y-45.72
X22.86Y-46.99
X23.749Y-35.941
X24.116Y-40.654
X24.13Y-38.1
X24.13Y-39.37
X24.13Y-43.18
X24.13Y-44.45
X24.13Y-45.72
X24.13Y-46.99
X25.146Y-27.94
X25.146Y-32.893
X28.41Y-20.866
X31.569Y-27.867
X31.585Y-26.708
X32.531Y-23.641
X34.671Y-39.243
X34.798Y-42.545
X35.179Y-18.034
X37.084Y-26.67
X37.592Y-36.322
T2
X9.144Y-46.228
X11.049Y-8.382
X11.049Y-12.446
X11.176Y-37.592
X11.684Y-29.972
X16.256Y-41.148
X19.812Y-41.148
X21.844Y-11.43
X35.306Y-10.668
X39.116Y-42.164
X42.418Y-24.638
X42.672Y-13.208
X42.672Y-19.558
X43.688Y-43.942
X44.196Y-40.132
T3
X7.452Y-17.066
X7.452Y-19.606
X7.452Y-22.146
X7.452Y-24.686
X38.862Y-17.018
X38.862Y-19.558
X38.862Y-22.098
X38.862Y-24.638
T4
X8.509Y-49.952
X8.509Y-53.452
X8.509Y-56.952
X8.509Y-60.452
X37.14Y-58.801
X39.116Y-48.189
X39.116Y-51.689
X40.64Y-58.801
T5
X16.002Y-58.801
X21.082Y-58.801
X26.67Y-58.801
X31.75Y-58.801
T0
M30
