G04 #@! TF.GenerationSoftware,KiCad,Pcbnew,6.0.10*
G04 #@! TF.CreationDate,2023-07-05T17:30:50-05:00*
G04 #@! TF.ProjectId,gas_control_board,6761735f-636f-46e7-9472-6f6c5f626f61,rev?*
G04 #@! TF.SameCoordinates,Original*
G04 #@! TF.FileFunction,Legend,Bot*
G04 #@! TF.FilePolarity,Positive*
%FSLAX46Y46*%
G04 Gerber Fmt 4.6, Leading zero omitted, Abs format (unit mm)*
G04 Created by KiCad (PCBNEW 6.0.10) date 2023-07-05 17:30:50*
%MOMM*%
%LPD*%
G01*
G04 APERTURE LIST*
%ADD10C,0.150000*%
%ADD11C,0.120000*%
%ADD12R,2.400000X2.400000*%
%ADD13C,2.400000*%
%ADD14R,3.000000X3.000000*%
%ADD15C,3.000000*%
%ADD16R,1.700000X1.700000*%
%ADD17O,1.700000X1.700000*%
%ADD18R,1.600000X8.000000*%
G04 APERTURE END LIST*
D10*
X29289333Y-3016380D02*
X29289333Y-3730666D01*
X29336952Y-3873523D01*
X29432190Y-3968761D01*
X29575047Y-4016380D01*
X29670285Y-4016380D01*
X28908380Y-3016380D02*
X28241714Y-3016380D01*
X28670285Y-4016380D01*
D11*
X15875000Y-7874000D02*
X15875000Y0D01*
X25146000Y0D02*
X32639000Y0D01*
X17653000Y0D02*
X17653000Y-7874000D01*
X32639000Y0D02*
X32639000Y-8128000D01*
X17653000Y-7874000D02*
X15875000Y-7874000D01*
X34417000Y-8128000D02*
X34417000Y0D01*
X32639000Y-8128000D02*
X34417000Y-8128000D01*
X25146000Y0D02*
X17653000Y0D01*
%LPC*%
D12*
X39116000Y-51689000D03*
D13*
X39116000Y-48189000D03*
D14*
X16002000Y-58801000D03*
D15*
X21082000Y-58801000D03*
D16*
X38862000Y-17018000D03*
D17*
X38862000Y-19558000D03*
X38862000Y-22098000D03*
X38862000Y-24638000D03*
D16*
X7452000Y-17066000D03*
D17*
X7452000Y-19606000D03*
X7452000Y-22146000D03*
X7452000Y-24686000D03*
D14*
X31750000Y-58801000D03*
D15*
X26670000Y-58801000D03*
D12*
X8509000Y-60452000D03*
D13*
X8509000Y-56952000D03*
X8509000Y-53452000D03*
X8509000Y-49952000D03*
D12*
X40640000Y-58801000D03*
D13*
X37140000Y-58801000D03*
D18*
X28956000Y-4064000D03*
X26416000Y-4064000D03*
X23876000Y-4064000D03*
X21336000Y-4064000D03*
M02*
